<svg width="38" height="38" viewBox="0 0 38 38" fill="none" xmlns="http://www.w3.org/2000/svg">
<circle opacity="0.1" cx="19" cy="19" r="19" fill="#FF6A00"/>
<g clip-path="url(#clip0_16214_113254)">
<path d="M28.3749 20.8112C28.2755 20.8112 28.1801 20.7717 28.1098 20.7013C28.0394 20.631 27.9999 20.5356 27.9999 20.4362V14.1249C27.9999 14.0255 28.0394 13.9301 28.1098 13.8598C28.1801 13.7894 28.2755 13.7499 28.3749 13.7499H29.3447L26.4999 10.9052L23.6552 13.7499H24.6249C24.7244 13.7499 24.8198 13.7894 24.8901 13.8598C24.9604 13.9301 24.9999 14.0255 24.9999 14.1249V18.9999C24.9999 19.0994 24.9604 19.1948 24.8901 19.2651C24.8198 19.3354 24.7244 19.3749 24.6249 19.3749C24.5255 19.3749 24.4301 19.3354 24.3598 19.2651C24.2894 19.1948 24.2499 19.0994 24.2499 18.9999V14.4999H22.7499C22.6758 14.4999 22.6033 14.4779 22.5416 14.4367C22.48 14.3955 22.4319 14.3369 22.4035 14.2684C22.3752 14.1999 22.3677 14.1245 22.3822 14.0518C22.3967 13.9791 22.4324 13.9122 22.4848 13.8598L26.2348 10.1098C26.3051 10.0395 26.4005 10 26.4999 10C26.5994 10 26.6947 10.0395 26.765 10.1098L30.515 13.8598C30.5675 13.9122 30.6032 13.9791 30.6176 14.0518C30.6321 14.1245 30.6247 14.1999 30.5963 14.2684C30.5679 14.3369 30.5199 14.3955 30.4582 14.4367C30.3966 14.4779 30.3241 14.4999 30.2499 14.4999H28.7499V20.4362C28.7499 20.5356 28.7104 20.631 28.6401 20.7013C28.5698 20.7717 28.4744 20.8112 28.3749 20.8112Z" fill="#FF6A00"/>
<path d="M28.375 30.6238H24.625C24.5255 30.6238 24.4302 30.5842 24.3598 30.5139C24.2895 30.4436 24.25 30.3482 24.25 30.2488C24.25 30.1493 24.2895 30.0539 24.3598 29.9836C24.4302 29.9133 24.5255 29.8738 24.625 29.8738H28V28.8125C28 28.713 28.0395 28.6177 28.1098 28.5473C28.1802 28.477 28.2755 28.4375 28.375 28.4375C28.4745 28.4375 28.5698 28.477 28.6402 28.5473C28.7105 28.6177 28.75 28.713 28.75 28.8125V30.2488C28.75 30.3482 28.7105 30.4436 28.6402 30.5139C28.5698 30.5842 28.4745 30.6238 28.375 30.6238Z" fill="#FF6A00"/>
<path d="M13.3749 18.6249C13.2755 18.6249 13.1801 18.5854 13.1098 18.5151C13.0394 18.4448 12.9999 18.3494 12.9999 18.2499V14.1249C12.9999 14.0255 13.0394 13.9301 13.1098 13.8598C13.1801 13.7894 13.2755 13.7499 13.3749 13.7499H14.3447L11.4999 10.9052L8.65517 13.7499H9.62492C9.72438 13.7499 9.81976 13.7894 9.89008 13.8598C9.96041 13.9301 9.99992 14.0255 9.99992 14.1249V18.2499C9.99992 18.3494 9.96041 18.4448 9.89008 18.5151C9.81976 18.5854 9.72438 18.6249 9.62492 18.6249C9.52546 18.6249 9.43008 18.5854 9.35975 18.5151C9.28943 18.4448 9.24992 18.3494 9.24992 18.2499V14.4999H7.74992C7.67576 14.4999 7.60328 14.4779 7.54162 14.4367C7.47997 14.3955 7.43192 14.3369 7.40354 14.2684C7.37516 14.1999 7.36774 14.1245 7.3822 14.0518C7.39666 13.9791 7.43237 13.9122 7.4848 13.8598L11.2348 10.1098C11.3051 10.0395 11.4005 10 11.4999 10C11.5994 10 11.6947 10.0395 11.765 10.1098L15.515 13.8598C15.5675 13.9122 15.6032 13.9791 15.6176 14.0518C15.6321 14.1245 15.6247 14.1999 15.5963 14.2684C15.5679 14.3369 15.5199 14.3955 15.4582 14.4367C15.3966 14.4779 15.3241 14.4999 15.2499 14.4999H13.7499V18.2499C13.7499 18.3494 13.7104 18.4448 13.6401 18.5151C13.5698 18.5854 13.4744 18.6249 13.3749 18.6249Z" fill="#FF6A00"/>
<path d="M20.8749 17.7549C20.7755 17.7549 20.6801 17.7154 20.6098 17.6451C20.5394 17.5748 20.4999 17.4794 20.4999 17.3799V11.4999C20.4999 11.4005 20.5394 11.3051 20.6098 11.2348C20.6801 11.1644 20.7755 11.1249 20.8749 11.1249H21.8447L18.9999 8.28017L16.1552 11.1249H17.1249C17.2244 11.1249 17.3198 11.1644 17.3901 11.2348C17.4604 11.3051 17.4999 11.4005 17.4999 11.4999V15.6437C17.4999 15.7431 17.4604 15.8385 17.3901 15.9088C17.3198 15.9792 17.2244 16.0187 17.1249 16.0187C17.0255 16.0187 16.9301 15.9792 16.8598 15.9088C16.7894 15.8385 16.7499 15.7431 16.7499 15.6437V11.8749H15.2499C15.1758 11.8749 15.1033 11.8529 15.0416 11.8117C14.98 11.7705 14.9319 11.7119 14.9035 11.6434C14.8752 11.5749 14.8677 11.4995 14.8822 11.4268C14.8967 11.3541 14.9324 11.2872 14.9848 11.2348L18.7348 7.48479C18.8051 7.41449 18.9005 7.375 18.9999 7.375C19.0994 7.375 19.1947 7.41449 19.265 7.48479L23.015 11.2348C23.0675 11.2872 23.1032 11.3541 23.1176 11.4268C23.1321 11.4995 23.1247 11.5749 23.0963 11.6434C23.0679 11.7119 23.0199 11.7705 22.9582 11.8117C22.8966 11.8529 22.8241 11.8749 22.7499 11.8749H21.2499V17.3799C21.2499 17.4794 21.2104 17.5748 21.1401 17.6451C21.0698 17.7154 20.9744 17.7549 20.8749 17.7549Z" fill="#FF6A00"/>
<path d="M24.6252 30.625C23.4914 30.6267 22.3807 30.3045 21.4239 29.6961C21.3817 29.67 21.3451 29.6357 21.3163 29.5953C21.2875 29.555 21.267 29.5092 21.2559 29.4609C21.2449 29.4125 21.2435 29.3624 21.252 29.3135C21.2605 29.2646 21.2785 29.2179 21.3052 29.1761C21.3318 29.1342 21.3665 29.098 21.4072 29.0697C21.448 29.0413 21.4939 29.0214 21.5424 29.0109C21.5909 29.0004 21.641 28.9997 21.6898 29.0087C21.7386 29.0177 21.7851 29.0364 21.8266 29.0635C22.6631 29.5953 23.6341 29.8768 24.6252 29.875C25.4395 29.8752 26.2425 29.6861 26.9711 29.3225C27.6996 28.9589 28.3335 28.4309 28.8229 27.7801C29.3122 27.1293 29.6434 26.3737 29.7904 25.5728C29.9374 24.772 29.8961 23.948 29.6698 23.1658C29.4435 22.3837 29.0384 21.6649 28.4865 21.0663C27.9346 20.4677 27.251 20.0057 26.4898 19.7167C25.7286 19.4278 24.9107 19.3198 24.1005 19.4014C23.2904 19.483 22.5104 19.7519 21.8221 20.1869C21.7805 20.2147 21.7338 20.2339 21.6847 20.2433C21.6356 20.2528 21.5851 20.2523 21.5361 20.242C21.4872 20.2316 21.4408 20.2116 21.3998 20.183C21.3587 20.1545 21.3238 20.118 21.297 20.0758C21.2702 20.0335 21.2522 19.9863 21.2439 19.937C21.2357 19.8877 21.2374 19.8372 21.2489 19.7885C21.2604 19.7399 21.2816 19.694 21.3111 19.6536C21.3407 19.6133 21.378 19.5792 21.4209 19.5535C22.2074 19.0562 23.0989 18.7487 24.0248 18.6553C24.9507 18.5619 25.8856 18.6851 26.7556 19.0152C27.6257 19.3454 28.407 19.8734 29.0379 20.5575C29.6687 21.2416 30.1318 22.063 30.3906 22.9569C30.6493 23.8508 30.6965 24.7926 30.5286 25.7079C30.3606 26.6232 29.982 27.4869 29.4228 28.2307C28.8636 28.9745 28.139 29.578 27.3064 29.9936C26.4737 30.4091 25.5558 30.6253 24.6252 30.625Z" fill="#FF6A00"/>
<path d="M22.7499 26.8773C22.6758 26.8773 22.6033 26.8553 22.5416 26.8141C22.48 26.7729 22.4319 26.7143 22.4035 26.6458C22.3752 26.5773 22.3677 26.5019 22.3822 26.4292C22.3967 26.3565 22.4324 26.2897 22.4848 26.2372L26.2348 22.4872C26.3055 22.4189 26.4002 22.3811 26.4986 22.382C26.5969 22.3828 26.6909 22.4222 26.7605 22.4918C26.83 22.5613 26.8694 22.6554 26.8703 22.7537C26.8712 22.852 26.8334 22.9467 26.765 23.0175L23.015 26.7675C22.9447 26.8378 22.8494 26.8773 22.7499 26.8773Z" fill="#FF6A00"/>
<path d="M23.125 24.25C22.9025 24.25 22.685 24.184 22.5 24.0604C22.315 23.9368 22.1708 23.7611 22.0856 23.5555C22.0005 23.35 21.9782 23.1238 22.0216 22.9055C22.065 22.6873 22.1722 22.4868 22.3295 22.3295C22.4868 22.1722 22.6873 22.065 22.9055 22.0216C23.1238 21.9782 23.35 22.0005 23.5555 22.0856C23.7611 22.1708 23.9368 22.315 24.0604 22.5C24.184 22.685 24.25 22.9025 24.25 23.125C24.25 23.4234 24.1315 23.7095 23.9205 23.9205C23.7095 24.1315 23.4234 24.25 23.125 24.25ZM23.125 22.75C23.0508 22.75 22.9783 22.772 22.9167 22.8132C22.855 22.8544 22.8069 22.913 22.7785 22.9815C22.7502 23.05 22.7427 23.1254 22.7572 23.1982C22.7717 23.2709 22.8074 23.3377 22.8598 23.3902C22.9123 23.4426 22.9791 23.4783 23.0518 23.4928C23.1246 23.5073 23.2 23.4998 23.2685 23.4715C23.337 23.4431 23.3956 23.395 23.4368 23.3333C23.478 23.2717 23.5 23.1992 23.5 23.125C23.5 23.0255 23.4605 22.9302 23.3902 22.8598C23.3198 22.7895 23.2245 22.75 23.125 22.75Z" fill="#FF6A00"/>
<path d="M26.125 27.25C25.9025 27.25 25.685 27.184 25.5 27.0604C25.315 26.9368 25.1708 26.7611 25.0856 26.5555C25.0005 26.35 24.9782 26.1238 25.0216 25.9055C25.065 25.6873 25.1722 25.4868 25.3295 25.3295C25.4868 25.1722 25.6873 25.065 25.9055 25.0216C26.1238 24.9782 26.35 25.0005 26.5555 25.0856C26.7611 25.1708 26.9368 25.315 27.0604 25.5C27.184 25.685 27.25 25.9025 27.25 26.125C27.25 26.4234 27.1315 26.7095 26.9205 26.9205C26.7095 27.1315 26.4234 27.25 26.125 27.25ZM26.125 25.75C26.0508 25.75 25.9783 25.772 25.9167 25.8132C25.855 25.8544 25.8069 25.913 25.7785 25.9815C25.7502 26.05 25.7427 26.1254 25.7572 26.1982C25.7717 26.2709 25.8074 26.3377 25.8598 26.3902C25.9123 26.4426 25.9791 26.4783 26.0518 26.4928C26.1246 26.5073 26.2 26.4998 26.2685 26.4715C26.337 26.4431 26.3956 26.395 26.4368 26.3333C26.478 26.2717 26.5 26.1992 26.5 26.125C26.5 26.0255 26.4605 25.9302 26.3902 25.8598C26.3198 25.7895 26.2245 25.75 26.125 25.75Z" fill="#FF6A00"/>
<path d="M13.375 20.125H7.75C7.65054 20.125 7.55516 20.0855 7.48483 20.0152C7.41451 19.9448 7.375 19.8495 7.375 19.75V18.25C7.375 18.1505 7.41451 18.0552 7.48483 17.9848C7.55516 17.9145 7.65054 17.875 7.75 17.875H13.6562C13.7557 17.875 13.8511 17.9145 13.9214 17.9848C13.9917 18.0552 14.0312 18.1505 14.0312 18.25C14.0312 18.3495 13.9917 18.4448 13.9214 18.5152C13.8511 18.5855 13.7557 18.625 13.6562 18.625H8.125V19.375H13.375C13.4745 19.375 13.5698 19.4145 13.6402 19.4848C13.7105 19.5552 13.75 19.6505 13.75 19.75C13.75 19.8495 13.7105 19.9448 13.6402 20.0152C13.5698 20.0855 13.4745 20.125 13.375 20.125Z" fill="#FF6A00"/>
<path d="M13.6562 21.625H7.75C7.65054 21.625 7.55516 21.5855 7.48483 21.5152C7.41451 21.4448 7.375 21.3495 7.375 21.25V19.75C7.375 19.6505 7.41451 19.5552 7.48483 19.4848C7.55516 19.4145 7.65054 19.375 7.75 19.375H13.375C13.4745 19.375 13.5698 19.4145 13.6402 19.4848C13.7105 19.5552 13.75 19.6505 13.75 19.75C13.75 19.8495 13.7105 19.9448 13.6402 20.0152C13.5698 20.0855 13.4745 20.125 13.375 20.125H8.125V20.875H13.6562C13.7557 20.875 13.8511 20.9145 13.9214 20.9848C13.9917 21.0552 14.0312 21.1505 14.0312 21.25C14.0312 21.3495 13.9917 21.4448 13.9214 21.5152C13.8511 21.5855 13.7557 21.625 13.6562 21.625Z" fill="#FF6A00"/>
<path d="M14.6688 23.125H7.75C7.65054 23.125 7.55516 23.0855 7.48483 23.0152C7.41451 22.9448 7.375 22.8495 7.375 22.75V21.25C7.375 21.1505 7.41451 21.0552 7.48483 20.9848C7.55516 20.9145 7.65054 20.875 7.75 20.875H13.6562C13.7557 20.875 13.8511 20.9145 13.9214 20.9848C13.9917 21.0552 14.0312 21.1505 14.0312 21.25C14.0312 21.3495 13.9917 21.4448 13.9214 21.5152C13.8511 21.5855 13.7557 21.625 13.6562 21.625H8.125V22.375H14.6688C14.7682 22.375 14.8636 22.4145 14.9339 22.4848C15.0042 22.5552 15.0438 22.6505 15.0438 22.75C15.0438 22.8495 15.0042 22.9448 14.9339 23.0152C14.8636 23.0855 14.7682 23.125 14.6688 23.125Z" fill="#FF6A00"/>
<path d="M16 24.625H7.75C7.65054 24.625 7.55516 24.5855 7.48483 24.5152C7.41451 24.4448 7.375 24.3495 7.375 24.25V22.75C7.375 22.6505 7.41451 22.5552 7.48483 22.4848C7.55516 22.4145 7.65054 22.375 7.75 22.375H14.6688C14.7682 22.375 14.8636 22.4145 14.9339 22.4848C15.0042 22.5552 15.0438 22.6505 15.0438 22.75C15.0438 22.8495 15.0042 22.9448 14.9339 23.0152C14.8636 23.0855 14.7682 23.125 14.6688 23.125H8.125V23.875H15.625V23.5938C15.625 23.4943 15.6645 23.3989 15.7348 23.3286C15.8052 23.2583 15.9005 23.2188 16 23.2188C16.0995 23.2188 16.1948 23.2583 16.2652 23.3286C16.3355 23.3989 16.375 23.4943 16.375 23.5938V24.25C16.375 24.3495 16.3355 24.4448 16.2652 24.5152C16.1948 24.5855 16.0995 24.625 16 24.625Z" fill="#FF6A00"/>
<path d="M13.375 26.125H7.75C7.65054 26.125 7.55516 26.0855 7.48483 26.0152C7.41451 25.9448 7.375 25.8495 7.375 25.75V24.25C7.375 24.1505 7.41451 24.0552 7.48483 23.9848C7.55516 23.9145 7.65054 23.875 7.75 23.875H13.375C13.4745 23.875 13.5698 23.9145 13.6402 23.9848C13.7105 24.0552 13.75 24.1505 13.75 24.25V25.75C13.75 25.8495 13.7105 25.9448 13.6402 26.0152C13.5698 26.0855 13.4745 26.125 13.375 26.125ZM8.125 25.375H13V24.625H8.125V25.375Z" fill="#FF6A00"/>
<path d="M13.375 27.625H7.75C7.65054 27.625 7.55516 27.5855 7.48483 27.5152C7.41451 27.4448 7.375 27.3495 7.375 27.25V25.75C7.375 25.6505 7.41451 25.5552 7.48483 25.4848C7.55516 25.4145 7.65054 25.375 7.75 25.375H13.375C13.4745 25.375 13.5698 25.4145 13.6402 25.4848C13.7105 25.5552 13.75 25.6505 13.75 25.75V27.25C13.75 27.3495 13.7105 27.4448 13.6402 27.5152C13.5698 27.5855 13.4745 27.625 13.375 27.625ZM8.125 26.875H13V26.125H8.125V26.875Z" fill="#FF6A00"/>
<path d="M13.375 29.125H7.75C7.65054 29.125 7.55516 29.0855 7.48483 29.0152C7.41451 28.9448 7.375 28.8495 7.375 28.75V27.25C7.375 27.1505 7.41451 27.0552 7.48483 26.9848C7.55516 26.9145 7.65054 26.875 7.75 26.875H13.375C13.4745 26.875 13.5698 26.9145 13.6402 26.9848C13.7105 27.0552 13.75 27.1505 13.75 27.25V28.75C13.75 28.8495 13.7105 28.9448 13.6402 29.0152C13.5698 29.0855 13.4745 29.125 13.375 29.125ZM8.125 28.375H13V27.625H8.125V28.375Z" fill="#FF6A00"/>
<path d="M13.375 30.625H7.75C7.65054 30.625 7.55516 30.5855 7.48483 30.5152C7.41451 30.4448 7.375 30.3495 7.375 30.25V28.75C7.375 28.6505 7.41451 28.5552 7.48483 28.4848C7.55516 28.4145 7.65054 28.375 7.75 28.375H13.375C13.4745 28.375 13.5698 28.4145 13.6402 28.4848C13.7105 28.5552 13.75 28.6505 13.75 28.75V30.25C13.75 30.3495 13.7105 30.4448 13.6402 30.5152C13.5698 30.5855 13.4745 30.625 13.375 30.625ZM8.125 29.875H13V29.125H8.125V29.875Z" fill="#FF6A00"/>
<path d="M17.5 24.25C16.61 24.25 15.74 23.9861 14.9999 23.4916C14.2599 22.9971 13.6831 22.2943 13.3425 21.4721C13.0019 20.6498 12.9128 19.745 13.0865 18.8721C13.2601 17.9992 13.6887 17.1974 14.318 16.568C14.9474 15.9387 15.7492 15.5101 16.6221 15.3365C17.495 15.1628 18.3998 15.2519 19.2221 15.5925C20.0443 15.9331 20.7471 16.5099 21.2416 17.2499C21.7361 17.99 22 18.86 22 19.75C21.9987 20.9431 21.5242 22.0869 20.6806 22.9306C19.8369 23.7742 18.6931 24.2487 17.5 24.25ZM17.5 16C16.7583 16 16.0333 16.2199 15.4166 16.632C14.7999 17.044 14.3193 17.6297 14.0355 18.3149C13.7516 19.0002 13.6774 19.7542 13.8221 20.4816C13.9668 21.209 14.3239 21.8772 14.8484 22.4017C15.3728 22.9261 16.041 23.2833 16.7684 23.4279C17.4958 23.5726 18.2498 23.4984 18.9351 23.2146C19.6203 22.9307 20.206 22.4501 20.618 21.8334C21.0301 21.2167 21.25 20.4917 21.25 19.75C21.2488 18.7558 20.8533 17.8027 20.1503 17.0997C19.4473 16.3967 18.4942 16.0012 17.5 16Z" fill="#FF6A00"/>
<path d="M17.6069 22.0001H17.2188C16.9703 22.0029 16.7269 21.9292 16.5218 21.7889C16.3167 21.6486 16.1598 21.4486 16.0724 21.216C16.0557 21.1696 16.0484 21.1204 16.0507 21.0712C16.0531 21.022 16.0651 20.9737 16.0862 20.9292C16.1072 20.8846 16.1368 20.8446 16.1732 20.8115C16.2097 20.7784 16.2523 20.7528 16.2987 20.7361C16.3451 20.7195 16.3942 20.7121 16.4434 20.7145C16.4927 20.7169 16.5409 20.7289 16.5855 20.7499C16.63 20.7709 16.67 20.8005 16.7031 20.837C16.7362 20.8735 16.7619 20.9161 16.7785 20.9625C16.8135 21.0498 16.8745 21.1242 16.9533 21.1757C17.032 21.2272 17.1247 21.2531 17.2188 21.2501H17.6069C17.7583 21.2604 17.9081 21.2139 18.027 21.1196C18.1459 21.0254 18.2254 20.8902 18.25 20.7405C18.2547 20.6193 18.2147 20.5006 18.1375 20.4071C18.056 20.309 17.9448 20.2402 17.8206 20.211L17.0065 20.019C16.7234 19.9558 16.47 19.7988 16.2873 19.5735C16.1046 19.3482 16.0033 19.0678 16 18.7777C16.0002 18.6072 16.0353 18.4386 16.1032 18.2823C16.1711 18.1259 16.2704 17.9852 16.3949 17.8687C16.645 17.6307 16.9774 17.4987 17.3226 17.5001H17.7813C18.0297 17.4972 18.2731 17.5709 18.4782 17.7112C18.6833 17.8515 18.8402 18.0516 18.9276 18.2842C18.9443 18.3306 18.9516 18.3798 18.9493 18.429C18.9469 18.4782 18.9349 18.5264 18.9138 18.571C18.8928 18.6155 18.8632 18.6555 18.8268 18.6886C18.7903 18.7218 18.7477 18.7474 18.7013 18.764C18.6549 18.7807 18.6058 18.788 18.5566 18.7856C18.5073 18.7833 18.4591 18.7712 18.4145 18.7502C18.37 18.7292 18.33 18.6996 18.2969 18.6632C18.2638 18.6267 18.2381 18.5841 18.2215 18.5377C18.1865 18.4504 18.1255 18.3759 18.0467 18.3245C17.968 18.273 17.8753 18.247 17.7813 18.2501H17.3226C17.1693 18.2486 17.0215 18.3067 16.9101 18.4121C16.8595 18.4588 16.819 18.5153 16.7912 18.5783C16.7633 18.6412 16.7487 18.7092 16.7481 18.7781C16.7519 18.8992 16.7964 19.0155 16.8743 19.1083C16.9523 19.2011 17.0592 19.265 17.1779 19.2896L17.992 19.4816C18.2752 19.5491 18.5286 19.707 18.7139 19.9316C18.9089 20.1656 19.0108 20.4634 19 20.7678C18.9692 21.1123 18.8077 21.432 18.5486 21.6612C18.2896 21.8903 17.9526 22.0116 17.6069 22.0001Z" fill="#FF6A00"/>
<path d="M17.5 18.25C17.4005 18.25 17.3052 18.2105 17.2348 18.1402C17.1645 18.0698 17.125 17.9745 17.125 17.875V17.125C17.125 17.0255 17.1645 16.9302 17.2348 16.8598C17.3052 16.7895 17.4005 16.75 17.5 16.75C17.5995 16.75 17.6948 16.7895 17.7652 16.8598C17.8355 16.9302 17.875 17.0255 17.875 17.125V17.875C17.875 17.9745 17.8355 18.0698 17.7652 18.1402C17.6948 18.2105 17.5995 18.25 17.5 18.25Z" fill="#FF6A00"/>
<path d="M17.5 22.75C17.4005 22.75 17.3052 22.7105 17.2348 22.6402C17.1645 22.5698 17.125 22.4745 17.125 22.375V21.625C17.125 21.5255 17.1645 21.4302 17.2348 21.3598C17.3052 21.2895 17.4005 21.25 17.5 21.25C17.5995 21.25 17.6948 21.2895 17.7652 21.3598C17.8355 21.4302 17.875 21.5255 17.875 21.625V22.375C17.875 22.4745 17.8355 22.5698 17.7652 22.6402C17.6948 22.7105 17.5995 22.75 17.5 22.75Z" fill="#FF6A00"/>
<path d="M21.625 26.125H13.375C13.2755 26.125 13.1802 26.0855 13.1098 26.0152C13.0395 25.9448 13 25.8495 13 25.75V24.25C13 24.1505 13.0395 24.0552 13.1098 23.9848C13.1802 23.9145 13.2755 23.875 13.375 23.875H21.625C21.7245 23.875 21.8198 23.9145 21.8902 23.9848C21.9605 24.0552 22 24.1505 22 24.25V25.75C22 25.8495 21.9605 25.9448 21.8902 26.0152C21.8198 26.0855 21.7245 26.125 21.625 26.125ZM13.75 25.375H21.25V24.625H13.75V25.375Z" fill="#FF6A00"/>
<path d="M21.625 27.625H13.375C13.2755 27.625 13.1802 27.5855 13.1098 27.5152C13.0395 27.4448 13 27.3495 13 27.25V25.75C13 25.6505 13.0395 25.5552 13.1098 25.4848C13.1802 25.4145 13.2755 25.375 13.375 25.375H21.625C21.7245 25.375 21.8198 25.4145 21.8902 25.4848C21.9605 25.5552 22 25.6505 22 25.75V27.25C22 27.3495 21.9605 27.4448 21.8902 27.5152C21.8198 27.5855 21.7245 27.625 21.625 27.625ZM13.75 26.875H21.25V26.125H13.75V26.875Z" fill="#FF6A00"/>
<path d="M21.625 29.125H13.375C13.2755 29.125 13.1802 29.0855 13.1098 29.0152C13.0395 28.9448 13 28.8495 13 28.75V27.25C13 27.1505 13.0395 27.0552 13.1098 26.9848C13.1802 26.9145 13.2755 26.875 13.375 26.875H21.625C21.7245 26.875 21.8198 26.9145 21.8902 26.9848C21.9605 27.0552 22 27.1505 22 27.25V28.75C22 28.8495 21.9605 28.9448 21.8902 29.0152C21.8198 29.0855 21.7245 29.125 21.625 29.125ZM13.75 28.375H21.25V27.625H13.75V28.375Z" fill="#FF6A00"/>
<path d="M21.625 30.625H13.375C13.2755 30.625 13.1802 30.5855 13.1098 30.5152C13.0395 30.4448 13 30.3495 13 30.25V28.75C13 28.6505 13.0395 28.5552 13.1098 28.4848C13.1802 28.4145 13.2755 28.375 13.375 28.375H21.625C21.7245 28.375 21.8198 28.4145 21.8902 28.4848C21.9605 28.5552 22 28.6505 22 28.75V30.25C22 30.3495 21.9605 30.4448 21.8902 30.5152C21.8198 30.5855 21.7245 30.625 21.625 30.625ZM13.75 29.875H21.25V29.125H13.75V29.875Z" fill="#FF6A00"/>
</g>
<defs>
<clipPath id="clip0_16214_113254">
<rect width="24" height="24" fill="white" transform="translate(7 7)"/>
</clipPath>
</defs>
</svg>
