<svg width="11" height="11" viewBox="0 0 11 11" fill="none" xmlns="http://www.w3.org/2000/svg">
<g clip-path="url(#clip0_16248_116481)">
<path d="M10.1993 1.43972C10.0448 1.28499 9.79418 1.28472 9.63971 1.43906L4.89235 6.17389L3.17952 4.31359C3.03152 4.15293 2.78128 4.14251 2.62036 4.29049C2.45956 4.4385 2.44927 4.68885 2.59727 4.84965L4.58909 7.01281C4.66203 7.0921 4.76412 7.13813 4.87176 7.14037C4.87466 7.14049 4.87744 7.14049 4.88021 7.14049C4.98482 7.14049 5.08545 7.09895 5.15959 7.02508L10.1985 1.99939C10.3533 1.84507 10.3536 1.59445 10.1993 1.43972Z" fill="white"/>
<path d="M10.1046 4.86006C9.88606 4.86006 9.70892 5.03721 9.70892 5.2558C9.70892 7.71431 7.70894 9.71429 5.25043 9.71429C2.79206 9.71429 0.791937 7.71431 0.791937 5.2558C0.791937 2.79743 2.79206 0.797308 5.25043 0.797308C5.469 0.797308 5.64616 0.620164 5.64616 0.401594C5.64616 0.183004 5.469 0.00585938 5.25043 0.00585938C2.35558 0.00585938 0.000488281 2.36095 0.000488281 5.2558C0.000488281 8.15052 2.35558 10.5057 5.25043 10.5057C8.14515 10.5057 10.5004 8.15052 10.5004 5.2558C10.5004 5.03723 10.3232 4.86006 10.1046 4.86006Z" fill="white"/>
</g>
<defs>
<clipPath id="clip0_16248_116481">
<rect width="10.4999" height="10.4999" fill="white"/>
</clipPath>
</defs>
</svg>
