<svg width="17" height="17" viewBox="0 0 17 17" fill="none" xmlns="http://www.w3.org/2000/svg">
<g clip-path="url(#clip0_16263_119620)">
<path d="M16.3202 2.28863C16.073 2.04106 15.672 2.04063 15.4249 2.28758L7.82911 9.86331L5.08858 6.88682C4.85177 6.62977 4.4514 6.6131 4.19392 6.84987C3.93664 7.08668 3.92017 7.48725 4.15697 7.74453L7.34388 11.2056C7.4606 11.3324 7.62393 11.4061 7.79617 11.4097C7.80079 11.4099 7.80525 11.4099 7.80968 11.4099C7.97706 11.4099 8.13807 11.3434 8.25668 11.2252L16.3189 3.1841C16.5667 2.93719 16.5671 2.5362 16.3202 2.28863Z" fill="#15C7A7"/>
<path d="M16.1666 7.76673C15.8169 7.76673 15.5335 8.05016 15.5335 8.3999C15.5335 12.3335 12.3335 15.5335 8.3999 15.5335C4.46652 15.5335 1.26632 12.3335 1.26632 8.3999C1.26632 4.46652 4.46652 1.26632 8.3999 1.26632C8.74961 1.26632 9.03308 0.982887 9.03308 0.633175C9.03308 0.283431 8.74961 0 8.3999 0C3.76814 0 0 3.76814 0 8.3999C0 13.0315 3.76814 16.7998 8.3999 16.7998C13.0315 16.7998 16.7998 13.0315 16.7998 8.3999C16.7998 8.05019 16.5164 7.76673 16.1666 7.76673Z" fill="#15C7A7"/>
</g>
<defs>
<clipPath id="clip0_16263_119620">
<rect width="16.7998" height="16.7998" fill="white"/>
</clipPath>
</defs>
</svg>
