<svg width="13" height="13" viewBox="0 0 13 13" fill="none" xmlns="http://www.w3.org/2000/svg">
<path d="M11.0962 1.90381C9.87721 0.68482 8.22391 0 6.5 0C4.77609 0 3.12279 0.68482 1.90381 1.90381C0.684819 3.12279 0 4.77609 0 6.5C0 8.22391 0.684819 9.87721 1.90381 11.0962C3.12279 12.3152 4.77609 13 6.5 13C8.22391 13 9.87721 12.3152 11.0962 11.0962C12.3152 9.87721 13 8.22391 13 6.5C13 4.77609 12.3152 3.12279 11.0962 1.90381ZM10.4416 10.4416C9.66168 11.2188 8.66896 11.7475 7.5888 11.9609C6.50863 12.1743 5.38945 12.0628 4.37258 11.6406C3.35572 11.2183 2.48677 10.5043 1.87546 9.58851C1.26415 8.67276 0.937892 7.5964 0.937892 6.49536C0.937892 5.39431 1.26415 4.31796 1.87546 3.40221C2.48677 2.48646 3.35572 1.77238 4.37258 1.35014C5.38945 0.927909 6.50863 0.816454 7.5888 1.02985C8.66896 1.24325 9.66168 1.77193 10.4416 2.54913C10.961 3.06671 11.3731 3.68172 11.6543 4.35891C11.9354 5.03609 12.0802 5.76212 12.0802 6.49536C12.0802 7.2286 11.9354 7.95463 11.6543 8.63181C11.3731 9.30899 10.961 9.92401 10.4416 10.4416ZM8.46847 5.18614L7.15461 6.5L8.46847 7.81386C8.55494 7.90085 8.60347 8.01851 8.60347 8.14117C8.60347 8.26382 8.55494 8.38149 8.46847 8.46847C8.38149 8.55494 8.26382 8.60348 8.14117 8.60348C8.01851 8.60348 7.90085 8.55494 7.81386 8.46847L6.5 7.15461L5.18614 8.46847C5.09915 8.55494 4.98149 8.60348 4.85883 8.60348C4.73618 8.60348 4.61851 8.55494 4.53153 8.46847C4.44506 8.38149 4.39653 8.26382 4.39653 8.14117C4.39653 8.01851 4.44506 7.90085 4.53153 7.81386L5.84539 6.5L4.53153 5.18614C4.45547 5.09732 4.41573 4.98308 4.42024 4.86624C4.42475 4.74939 4.47319 4.63856 4.55587 4.55587C4.63856 4.47319 4.74939 4.42475 4.86624 4.42024C4.98308 4.41573 5.09732 4.45547 5.18614 4.53153L6.5 5.84539L7.81386 4.53153C7.90268 4.45547 8.01692 4.41573 8.13376 4.42024C8.25061 4.42475 8.36144 4.47319 8.44413 4.55587C8.52681 4.63856 8.57525 4.74939 8.57976 4.86624C8.58427 4.98308 8.54453 5.09732 8.46847 5.18614Z" fill="white"/>
</svg>
