<svg width="38" height="38" viewBox="0 0 38 38" fill="none" xmlns="http://www.w3.org/2000/svg">
<circle opacity="0.1" cx="19" cy="19" r="19" fill="#1D3557"/>
<path d="M19.5934 17.0629V11.9524C20.6866 12.1368 21.7174 12.5854 22.5987 13.259C22.7744 13.3795 22.9805 13.4449 23.194 13.4477C23.8778 13.4477 24.4353 12.8975 24.4425 12.2137C24.444 11.9204 24.3293 11.6388 24.1231 11.4297C22.8499 10.3393 21.2528 9.69619 19.5788 9.60038V7.88718C19.5788 7.39788 19.1825 7.00154 18.6932 7.00154C18.683 7.0001 18.6729 7.0001 18.6627 7.0001C18.1662 6.99282 17.7568 7.38921 17.7495 7.88718V9.54229C14.4828 9.77458 12.2615 11.7927 12.2615 14.4786C12.2615 17.7742 15.0636 18.6889 17.7495 19.4148V25.2223C16.3324 25.0321 14.9968 24.4441 13.9021 23.5236C13.6959 23.3596 13.4404 23.2681 13.1761 23.2623C12.5068 23.3087 11.9914 23.8691 12.0001 24.5399C11.9987 24.8332 12.1134 25.1148 12.3195 25.3239C13.8193 26.6741 15.7473 27.4509 17.7639 27.5162V29.1132C17.7639 29.1234 17.7654 29.1336 17.7654 29.1437C17.7886 29.6403 18.2111 30.0235 18.7076 29.9989C19.1969 29.9989 19.5933 29.6025 19.5933 29.1132V27.4872C23.5568 27.2259 25.1538 24.8158 25.1538 22.2605C25.1539 18.8341 22.2793 17.7888 19.5934 17.0629ZM17.764 16.5983C16.1815 16.1337 14.9475 15.6546 14.9475 14.3044C14.9475 12.9541 16.0654 11.9814 17.764 11.8508V16.5983ZM19.5934 25.2513V19.9666C21.234 20.4312 22.5115 21.0554 22.497 22.5799C22.497 23.6833 21.7421 24.99 19.5934 25.2513Z" fill="#1D3557"/>
</svg>
