<svg width="38" height="38" viewBox="0 0 38 38" fill="none" xmlns="http://www.w3.org/2000/svg">
<circle opacity="0.1" cx="19" cy="19" r="19" fill="#15C7A7"/>
<g clip-path="url(#clip0_16293_83778)">
<path d="M30.3131 10.2841C29.96 9.93043 29.3872 9.92982 29.0341 10.2826L18.1829 21.1052L14.2678 16.853C13.9295 16.4858 13.3575 16.462 12.9897 16.8002C12.6222 17.1385 12.5986 17.7108 12.9369 18.0783L17.4897 23.0228C17.6564 23.204 17.8898 23.3092 18.1358 23.3143C18.1424 23.3146 18.1488 23.3146 18.1551 23.3146C18.3942 23.3146 18.6243 23.2196 18.7937 23.0508L30.3113 11.5634C30.6653 11.2106 30.6659 10.6378 30.3131 10.2841Z" fill="#15C7A7"/>
<path d="M30.0955 18.0955C29.5959 18.0955 29.191 18.5004 29.191 19C29.191 24.6195 24.6195 29.191 19 29.191C13.3808 29.191 8.80905 24.6195 8.80905 19C8.80905 13.3808 13.3808 8.80905 19 8.80905C19.4996 8.80905 19.9045 8.40414 19.9045 7.90455C19.9045 7.40491 19.4996 7 19 7C12.3831 7 7 12.3831 7 19C7 25.6166 12.3831 31 19 31C25.6166 31 31 25.6166 31 19C31 18.5004 30.5951 18.0955 30.0955 18.0955Z" fill="#15C7A7"/>
</g>
<defs>
<clipPath id="clip0_16293_83778">
<rect width="24" height="24" fill="white" transform="translate(7 7)"/>
</clipPath>
</defs>
</svg>
