<svg width="27" height="27" viewBox="0 0 27 27" fill="none" xmlns="http://www.w3.org/2000/svg">
<path d="M22.6804 13.1355H21.5294V2.60417C21.5294 2.38359 21.3489 2.20312 21.1284 2.20312H4.88618C4.66561 2.20312 4.48514 2.38359 4.48514 2.60417V13.1355H3.33415C3.10956 13.1355 2.93311 13.312 2.93311 13.5366V21.2526C2.93311 21.4772 3.10956 21.6536 3.33415 21.6536H4.48514V24.1642C4.48514 24.3847 4.66561 24.5652 4.88618 24.5652H21.1284C21.3489 24.5652 21.5294 24.3847 21.5294 24.1642V21.6536H22.6804C22.905 21.6536 23.0814 21.4772 23.0814 21.2526V13.5366C23.0814 13.312 22.905 13.1355 22.6804 13.1355ZM20.7273 23.7631H5.28722V21.6536H20.7273V23.7631ZM7.21222 15.249C7.19217 15.2169 7.18816 15.1764 7.20821 15.1443C7.22425 15.1123 7.26034 15.0922 7.29644 15.0922H8.31107C8.34717 15.0922 8.37925 15.1123 8.39529 15.1403L9.17331 16.3876L9.93489 15.1403C9.95494 15.1123 9.98703 15.0922 10.0191 15.0922H11.0301C11.0662 15.0922 11.0983 15.1123 11.1184 15.1443C11.1344 15.1764 11.1344 15.2169 11.1144 15.249L9.81097 17.2819L11.2427 19.4439C11.2672 19.476 11.2672 19.5161 11.2511 19.5482C11.2311 19.5803 11.199 19.6003 11.1629 19.6003H10.1122C10.0801 19.6003 10.048 19.5843 10.0279 19.5522L9.15727 18.1967L8.2826 19.5522C8.26656 19.5843 8.23448 19.6003 8.19838 19.6003H7.15567C7.11958 19.6003 7.0875 19.5803 7.06744 19.5482C7.0514 19.5161 7.0514 19.476 7.07546 19.4439L8.50718 17.2542L7.21222 15.249ZM14.6636 18.6739C14.7157 18.6739 14.7638 18.7176 14.7638 18.7742V19.5001C14.7638 19.5562 14.7157 19.6003 14.6636 19.6003H11.6317C11.5752 19.6003 11.5314 19.5562 11.5314 19.5001V15.229C11.5314 15.1728 11.5752 15.1287 11.6317 15.1287H12.502C12.5541 15.1287 12.6022 15.1728 12.6022 15.229V18.6743H14.6636V18.6739ZM17.527 18.0523C17.4793 17.9961 17.3866 17.944 17.2583 17.8959C17.1581 17.8638 16.9299 17.7996 16.5725 17.7114C16.0833 17.5911 15.7504 17.4427 15.5459 17.2622C15.2611 17.0056 15.1167 16.6888 15.1167 16.3238C15.1167 16.0832 15.1849 15.8586 15.3213 15.6501C15.4536 15.4451 15.6501 15.2851 15.9028 15.1764C16.1474 15.0722 16.4446 15.02 16.7891 15.02C17.3506 15.02 17.7837 15.1483 18.0764 15.401C18.3692 15.6537 18.5256 15.9982 18.5416 16.4197C18.5416 16.4758 18.4979 16.5239 18.4454 16.5239L17.5751 16.564C17.523 16.564 17.4793 16.5279 17.4709 16.4798C17.4388 16.2837 17.3706 16.1429 17.2703 16.0627C17.1661 15.9829 17.0016 15.9384 16.7811 15.9384C16.5525 15.9384 16.3716 15.9865 16.2437 16.0748C16.1795 16.1229 16.1474 16.1834 16.1474 16.2632C16.1474 16.3358 16.1795 16.3956 16.2437 16.4477C16.3078 16.5043 16.4923 16.5961 17.0016 16.7164C17.4308 16.8167 17.7516 16.9214 17.9641 17.0332C18.1807 17.1495 18.3532 17.3064 18.4771 17.5069C18.6018 17.7074 18.6616 17.956 18.6616 18.2448C18.6616 18.5095 18.5894 18.7621 18.441 18.9947C18.2926 19.2229 18.0841 19.3998 17.8154 19.5121C17.5507 19.6204 17.2218 19.6765 16.8368 19.6765C16.2713 19.6765 15.8262 19.5398 15.5174 19.2755C15.2086 19.0064 15.0201 18.6174 14.964 18.1124C14.9599 18.0844 14.968 18.0563 14.984 18.0363C15 18.0162 15.0245 18.0002 15.0522 18.0002L15.8984 17.9159C15.9545 17.9079 15.9986 17.948 16.0071 18.0002C16.0508 18.2572 16.1474 18.4493 16.2834 18.5656C16.4193 18.6819 16.6086 18.7421 16.8488 18.7421C17.1015 18.7421 17.294 18.6899 17.4143 18.5853C17.5346 18.4894 17.5948 18.3767 17.5948 18.2484C17.5952 18.1686 17.5711 18.1084 17.527 18.0523ZM20.7273 13.1355H5.28722V3.00521H20.7273V13.1355Z" fill="#15C7A7"/>
<path d="M18.9227 5.9099H7.09196C6.87018 5.9099 6.69092 5.73064 6.69092 5.50886C6.69092 5.28708 6.87018 5.10782 7.09196 5.10782H18.9227C19.1445 5.10782 19.3237 5.28708 19.3237 5.50886C19.3237 5.73064 19.1445 5.9099 18.9227 5.9099Z" fill="#15C7A7"/>
<path d="M18.9227 8.71718H7.09196C6.87018 8.71718 6.69092 8.53792 6.69092 8.31614C6.69092 8.09437 6.87018 7.9151 7.09196 7.9151H18.9227C19.1445 7.9151 19.3237 8.09437 19.3237 8.31614C19.3237 8.53792 19.1445 8.71718 18.9227 8.71718Z" fill="#15C7A7"/>
<path d="M18.9227 11.5245H7.09196C6.87018 11.5245 6.69092 11.3452 6.69092 11.1235C6.69092 10.9017 6.87018 10.7224 7.09196 10.7224H18.9227C19.1445 10.7224 19.3237 10.9017 19.3237 11.1235C19.3237 11.3452 19.1445 11.5245 18.9227 11.5245Z" fill="#15C7A7"/>
</svg>
