<svg width="23" height="23" viewBox="0 0 23 23" fill="none" xmlns="http://www.w3.org/2000/svg">
<g clip-path="url(#clip0_16214_113376)">
<path d="M21.9544 6.14271L16.1628 0.124633C16.0803 0.0390282 15.9666 -0.0093689 15.8478 -0.0093689H7.21575C6.24972 -0.0093689 5.46377 0.776263 5.46377 1.7419V7.85987H1.96555C1.24279 7.85987 0.654785 8.4477 0.654785 9.17028V15.7303C0.654785 16.4528 1.24279 17.0406 1.96555 17.0406H5.46377V20.9758C5.46377 21.9397 6.24972 22.724 7.21575 22.724H20.3246C21.2907 22.724 22.0766 21.9402 22.0766 20.9767V6.44588C22.0766 6.33283 22.0328 6.22418 21.9544 6.14271ZM15.9561 1.17086L20.7105 6.11114H15.9561V1.17086ZM1.96555 16.1663C1.72489 16.1663 1.52917 15.9707 1.52917 15.7303V9.17028C1.52917 8.92985 1.72494 8.73422 1.96555 8.73422H13.771C14.0116 8.73422 14.2074 8.92985 14.2074 9.17028V15.7303C14.2074 15.9707 14.0116 16.1663 13.771 16.1663H1.96555ZM21.2022 20.9767C21.2022 21.458 20.8085 21.8496 20.3246 21.8496H7.21575C6.73182 21.8496 6.33812 21.4576 6.33812 20.9758V17.0406H13.771C14.4937 17.0406 15.0817 16.4528 15.0817 15.7303V9.17028C15.0817 8.4477 14.4937 7.85987 13.771 7.85987H6.33812V1.7419C6.33812 1.25833 6.73182 0.864976 7.21575 0.864976H15.0817V6.54831C15.0817 6.78976 15.2775 6.98548 15.5189 6.98548H21.2022V20.9767Z" fill="#2D6CDF"/>
<path d="M5.88112 11.0911C5.73598 10.9024 5.5558 10.7799 5.34063 10.7235C5.20059 10.686 4.90004 10.6672 4.43893 10.6672H3.22217V14.4225H3.9804V13.0059H4.47481C4.81807 13.0059 5.08022 12.988 5.26124 12.9521C5.39444 12.9231 5.52552 12.8637 5.65446 12.774C5.7834 12.6844 5.88969 12.561 5.97339 12.4039C6.05709 12.2468 6.09891 12.053 6.09891 11.8224C6.09887 11.5236 6.02627 11.2798 5.88112 11.0911ZM5.23176 12.1247C5.17457 12.2084 5.09558 12.2699 4.99479 12.3092C4.894 12.3485 4.69424 12.3681 4.39538 12.3681H3.9804V11.3025H4.34671C4.61996 11.3025 4.80182 11.311 4.89231 11.3281C5.01526 11.3503 5.11689 11.4058 5.19713 11.4946C5.2774 11.5834 5.31754 11.6961 5.31754 11.8327C5.31759 11.9437 5.28895 12.041 5.23176 12.1247Z" fill="#2D6CDF"/>
<path d="M9.74646 11.6931C9.66449 11.4532 9.54492 11.2504 9.38783 11.0847C9.23074 10.9191 9.04199 10.8038 8.82172 10.7389C8.65779 10.6911 8.41953 10.6672 8.10704 10.6672H6.72119V14.4225H8.14802C8.4281 14.4225 8.65179 14.396 8.81914 14.343C9.04288 14.2713 9.22048 14.1714 9.35195 14.0433C9.52614 13.8743 9.66019 13.6531 9.75414 13.3799C9.831 13.1562 9.8694 12.8898 9.8694 12.5807C9.8694 12.2289 9.82842 11.933 9.74646 11.6931ZM9.00869 13.2352C8.95745 13.4034 8.89129 13.5242 8.81017 13.5976C8.72905 13.6711 8.62702 13.7232 8.50407 13.7539C8.41016 13.7778 8.25729 13.7898 8.04554 13.7898H7.47943V11.3025H7.82012C8.12919 11.3025 8.33672 11.3144 8.44258 11.3383C8.5843 11.3691 8.7013 11.428 8.79352 11.5151C8.88574 11.6022 8.95745 11.7234 9.00869 11.8788C9.05993 12.0342 9.08555 12.2571 9.08555 12.5474C9.08555 12.8377 9.05993 13.067 9.00869 13.2352Z" fill="#2D6CDF"/>
<path d="M13.0905 11.3025V10.6672H10.5161V14.4225H11.2744V12.8266H12.8421V12.1913H11.2744V11.3025H13.0905Z" fill="#2D6CDF"/>
</g>
<defs>
<clipPath id="clip0_16214_113376">
<rect width="22.7333" height="22.7333" fill="white"/>
</clipPath>
</defs>
</svg>
