<svg width="38" height="38" viewBox="0 0 38 38" fill="none" xmlns="http://www.w3.org/2000/svg">
<circle opacity="0.1" cx="19" cy="19" r="19" fill="#FF6A00"/>
<path d="M28.4884 24.8466C28.073 24.5376 27.4857 24.6239 27.1767 25.0392C27.0067 25.2677 26.8248 25.4918 26.6361 25.7053C26.2932 26.0932 26.3296 26.6857 26.7175 27.0286C26.8959 27.1863 27.1174 27.2638 27.3381 27.2638C27.5974 27.2638 27.8556 27.1568 28.0408 26.9472C28.2643 26.6943 28.4797 26.4289 28.681 26.1583C28.9901 25.743 28.9039 25.1556 28.4884 24.8466Z" fill="#FF6A00"/>
<path d="M30.0557 20.449C29.5501 20.3389 29.0503 20.6598 28.9402 21.1656C28.8796 21.4439 28.8064 21.7227 28.7225 21.9944C28.5696 22.4892 28.8467 23.0141 29.3414 23.1669C29.4336 23.1954 29.5268 23.2089 29.6185 23.2089C30.0188 23.2089 30.3895 22.9504 30.5139 22.5479C30.6135 22.2255 30.7004 21.8946 30.7723 21.5644C30.8825 21.0586 30.5616 20.5592 30.0557 20.449Z" fill="#FF6A00"/>
<path d="M23.9756 27.8469C23.7267 27.9858 23.469 28.1157 23.2097 28.2328C22.7378 28.4459 22.528 29.0012 22.7411 29.4731C22.8977 29.8198 23.2389 30.0249 23.596 30.0249C23.725 30.0249 23.8562 29.9982 23.9814 29.9416C24.289 29.8027 24.5945 29.6487 24.8897 29.4839C25.3418 29.2316 25.5036 28.6604 25.2512 28.2084C24.9988 27.7564 24.4277 27.5945 23.9756 27.8469Z" fill="#FF6A00"/>
<path d="M18.0626 11.5V18.6117L14.6249 22.0494C14.2588 22.4155 14.2588 23.0091 14.6249 23.3752C14.8079 23.5583 15.0478 23.6498 15.2878 23.6498C15.5277 23.6498 15.7677 23.5583 15.9508 23.3752L19.6631 19.6629C19.8389 19.4871 19.9376 19.2486 19.9376 19V11.5C19.9376 10.9822 19.5179 10.5625 19.0001 10.5625C18.4823 10.5625 18.0626 10.9822 18.0626 11.5Z" fill="#FF6A00"/>
<path d="M30.0625 9.01562C29.5447 9.01562 29.125 9.43534 29.125 9.95312V12.5564C26.9429 9.13412 23.1321 7 19 7C15.7947 7 12.7812 8.24823 10.5147 10.5147C8.24823 12.7812 7 15.7947 7 19C7 22.2053 8.24823 25.2188 10.5147 27.4853C12.7812 29.7518 15.7947 31 19 31C19.0079 31 19.0156 30.999 19.0234 30.9988C19.0313 30.999 19.039 31 19.0469 31C19.3848 31 19.726 30.9858 20.0611 30.9577C20.5771 30.9145 20.9603 30.4612 20.9171 29.9453C20.8739 29.4293 20.4212 29.0459 19.9046 29.0893C19.6213 29.113 19.3328 29.125 19.0469 29.125C19.039 29.125 19.0313 29.126 19.0234 29.1262C19.0156 29.126 19.0079 29.125 19 29.125C13.417 29.125 8.875 24.583 8.875 19C8.875 13.417 13.417 8.875 19 8.875C22.598 8.875 25.9074 10.7928 27.7157 13.8438H25.138C24.6202 13.8438 24.2005 14.2635 24.2005 14.7812C24.2005 15.299 24.6202 15.7188 25.138 15.7188H28C28.5709 15.7188 29.1051 15.5583 29.5599 15.2803C29.5891 15.2636 29.6172 15.2457 29.644 15.2263C30.46 14.6896 31 13.7663 31 12.7188V9.95312C31 9.43534 30.5803 9.01562 30.0625 9.01562Z" fill="#FF6A00"/>
</svg>
