<svg width="38" height="38" viewBox="0 0 38 38" fill="none" xmlns="http://www.w3.org/2000/svg">
<circle opacity="0.1" cx="19" cy="19" r="19" fill="#EE404C"/>
<path d="M28.2812 9.71869C25.8197 7.25715 22.4811 5.87427 19 5.87427C15.5189 5.87427 12.1803 7.25715 9.71875 9.71869C7.25721 12.1802 5.87433 15.5188 5.87433 18.9999C5.87433 22.4811 7.25721 25.8196 9.71875 28.2812C12.1803 30.7427 15.5189 32.1256 19 32.1256C22.4811 32.1256 25.8197 30.7427 28.2812 28.2812C30.7428 25.8196 32.1257 22.4811 32.1257 18.9999C32.1257 15.5188 30.7428 12.1802 28.2812 9.71869ZM26.9594 26.9593C25.3845 28.5287 23.3799 29.5963 21.1986 30.0272C19.0174 30.4582 16.7574 30.2331 14.704 29.3805C12.6506 28.5278 10.8959 27.0859 9.6615 25.2367C8.42706 23.3875 7.76824 21.2139 7.76824 18.9906C7.76824 16.7672 8.42706 14.5937 9.6615 12.7445C10.8959 10.8953 12.6506 9.45329 14.704 8.60066C16.7574 7.74803 19.0174 7.52296 21.1986 7.95388C23.3799 8.3848 25.3845 9.45238 26.9594 11.0218C28.0082 12.067 28.8403 13.3089 29.4081 14.6764C29.976 16.0438 30.2682 17.5099 30.2682 18.9906C30.2682 20.4712 29.976 21.9373 29.4081 23.3048C28.8403 24.6722 28.0082 25.9141 26.9594 26.9593ZM22.975 16.3468L20.3219 18.9999L22.975 21.6531C23.1496 21.8287 23.2476 22.0663 23.2476 22.314C23.2476 22.5617 23.1496 22.7993 22.975 22.9749C22.7993 23.1495 22.5617 23.2476 22.3141 23.2476C22.0664 23.2476 21.8288 23.1495 21.6531 22.9749L19 20.3218L16.3469 22.9749C16.1712 23.1495 15.9336 23.2476 15.6859 23.2476C15.4383 23.2476 15.2007 23.1495 15.025 22.9749C14.8504 22.7993 14.7524 22.5617 14.7524 22.314C14.7524 22.0663 14.8504 21.8287 15.025 21.6531L17.6781 18.9999L15.025 16.3468C14.8714 16.1675 14.7912 15.9368 14.8003 15.7008C14.8094 15.4649 14.9072 15.2411 15.0742 15.0741C15.2411 14.9071 15.4649 14.8093 15.7009 14.8002C15.9368 14.7911 16.1675 14.8714 16.3469 15.0249L19 17.6781L21.6531 15.0249C21.8325 14.8714 22.0632 14.7911 22.2991 14.8002C22.5351 14.8093 22.7589 14.9071 22.9258 15.0741C23.0928 15.2411 23.1906 15.4649 23.1997 15.7008C23.2088 15.9368 23.1286 16.1675 22.975 16.3468Z" fill="#E63946"/>
</svg>
