<svg width="24" height="24" viewBox="0 0 24 24" fill="none" xmlns="http://www.w3.org/2000/svg">
<path d="M16.4966 8.05224C15.2776 6.83326 13.6243 6.14844 11.9004 6.14844C10.1765 6.14844 8.52318 6.83326 7.3042 8.05224C6.08521 9.27123 5.40039 10.9245 5.40039 12.6484C5.40039 14.3723 6.08521 16.0256 7.3042 17.2446C8.52318 18.4636 10.1765 19.1484 11.9004 19.1484C13.6243 19.1484 15.2776 18.4636 16.4966 17.2446C17.7156 16.0256 18.4004 14.3723 18.4004 12.6484C18.4004 10.9245 17.7156 9.27123 16.4966 8.05224ZM15.842 16.59C15.0621 17.3672 14.0694 17.8959 12.9892 18.1093C11.909 18.3227 10.7898 18.2112 9.77297 17.789C8.75611 17.3668 7.88716 16.6527 7.27585 15.7369C6.66454 14.8212 6.33828 13.7448 6.33828 12.6438C6.33828 11.5428 6.66454 10.4664 7.27585 9.55064C7.88716 8.63489 8.75611 7.92082 9.77297 7.49858C10.7898 7.07635 11.909 6.96489 12.9892 7.17829C14.0694 7.39168 15.0621 7.92036 15.842 8.69757C16.3614 9.21515 16.7735 9.83016 17.0546 10.5073C17.3358 11.1845 17.4806 11.9106 17.4806 12.6438C17.4806 13.377 17.3358 14.1031 17.0546 14.7802C16.7735 15.4574 16.3614 16.0724 15.842 16.59ZM13.8689 11.3346L12.555 12.6484L13.8689 13.9623C13.9553 14.0493 14.0039 14.167 14.0039 14.2896C14.0039 14.4123 13.9553 14.5299 13.8689 14.6169C13.7819 14.7034 13.6642 14.7519 13.5416 14.7519C13.4189 14.7519 13.3012 14.7034 13.2143 14.6169L11.9004 13.303L10.5865 14.6169C10.4995 14.7034 10.3819 14.7519 10.2592 14.7519C10.1366 14.7519 10.0189 14.7034 9.93192 14.6169C9.84545 14.5299 9.79692 14.4123 9.79692 14.2896C9.79692 14.167 9.84545 14.0493 9.93192 13.9623L11.2458 12.6484L9.93192 11.3346C9.85586 11.2458 9.81612 11.1315 9.82063 11.0147C9.82514 10.8978 9.87358 10.787 9.95626 10.7043C10.0389 10.6216 10.1498 10.5732 10.2666 10.5687C10.3835 10.5642 10.4977 10.6039 10.5865 10.68L11.9004 11.9938L13.2143 10.68C13.3031 10.6039 13.4173 10.5642 13.5342 10.5687C13.651 10.5732 13.7618 10.6216 13.8445 10.7043C13.9272 10.787 13.9756 10.8978 13.9802 11.0147C13.9847 11.1315 13.9449 11.2458 13.8689 11.3346Z" fill="#E63946"/>
</svg>
