<svg width="18" height="18" viewBox="0 0 18 18" fill="none" xmlns="http://www.w3.org/2000/svg">
<circle opacity="0.1" cx="9" cy="9" r="9" fill="#E63946"/>
<path d="M13.9497 4.05025C12.637 2.7375 10.8565 2 9 2C7.14348 2 5.36301 2.7375 4.05025 4.05025C2.7375 5.36301 2 7.14349 2 9C2 10.8565 2.7375 12.637 4.05025 13.9497C5.36301 15.2625 7.14348 16 9 16C10.8565 16 12.637 15.2625 13.9497 13.9497C15.2625 12.637 16 10.8565 16 9C16 7.14349 15.2625 5.36301 13.9497 4.05025ZM13.2448 13.2448C12.4049 14.0818 11.3358 14.6511 10.1726 14.8809C9.00929 15.1107 7.80402 14.9907 6.70894 14.536C5.61385 14.0813 4.67806 13.3123 4.01972 12.3261C3.36139 11.3399 3.01004 10.1807 3.01004 8.995C3.01004 7.80926 3.36139 6.65011 4.01972 5.66391C4.67806 4.67772 5.61385 3.90871 6.70894 3.454C7.80402 2.99929 9.00929 2.87926 10.1726 3.10907C11.3358 3.33888 12.4049 3.90823 13.2448 4.74522C13.8041 5.30261 14.2479 5.96493 14.5507 6.69421C14.8535 7.42348 15.0094 8.20536 15.0094 8.995C15.0094 9.78464 14.8535 10.5665 14.5507 11.2958C14.2479 12.0251 13.8041 12.6874 13.2448 13.2448ZM11.1199 7.58507L9.70496 9L11.1199 10.4149C11.213 10.5086 11.2653 10.6353 11.2653 10.7674C11.2653 10.8995 11.213 11.0262 11.1199 11.1199C11.0262 11.213 10.8995 11.2653 10.7674 11.2653C10.6353 11.2653 10.5086 11.213 10.4149 11.1199L9 9.70496L7.58507 11.1199C7.4914 11.213 7.36468 11.2653 7.23259 11.2653C7.1005 11.2653 6.97378 11.213 6.88011 11.1199C6.78699 11.0262 6.73472 10.8995 6.73472 10.7674C6.73472 10.6353 6.78699 10.5086 6.88011 10.4149L8.29504 9L6.88011 7.58507C6.7982 7.48943 6.7554 7.36639 6.76026 7.24056C6.76512 7.11473 6.81728 6.99537 6.90633 6.90633C6.99537 6.81728 7.11473 6.76512 7.24056 6.76026C7.36639 6.7554 7.48943 6.7982 7.58507 6.88011L9 8.29504L10.4149 6.88011C10.5106 6.7982 10.6336 6.7554 10.7594 6.76026C10.8853 6.76512 11.0046 6.81728 11.0937 6.90633C11.1827 6.99537 11.2349 7.11473 11.2397 7.24056C11.2446 7.36639 11.2018 7.48943 11.1199 7.58507Z" fill="#E63946"/>
</svg>
