<svg width="11" height="11" viewBox="0 0 11 11" fill="none" xmlns="http://www.w3.org/2000/svg">
<g clip-path="url(#clip0_18465_30097)">
<path d="M5.11313 6.61455C5.20896 6.61455 5.30432 6.57478 5.37228 6.49671L8.3309 3.10586C8.45579 2.96286 8.441 2.74564 8.29783 2.62097C8.15531 2.49625 7.93813 2.51052 7.81294 2.65404L4.85432 6.04489C4.72943 6.18789 4.74421 6.4051 4.88739 6.52978C4.95249 6.58667 5.0329 6.61455 5.11313 6.61455Z" fill="#2D6CDF"/>
<path d="M10.5832 2.32293C10.4405 2.19839 10.2233 2.21283 10.0983 2.356L5.26092 7.89979L2.9228 5.30403C2.79541 5.16289 2.57823 5.15148 2.43722 5.2787C2.29622 5.40575 2.2848 5.62313 2.41189 5.76428L3.7762 7.27891L3.23569 7.89931L0.898082 5.30441C0.770689 5.16327 0.553507 5.15185 0.412501 5.27908C0.271495 5.4063 0.260082 5.62351 0.387167 5.76466L2.98461 8.64776C3.04989 8.72008 3.14274 8.7614 3.24009 8.7614H3.24294C3.34129 8.76058 3.43461 8.71761 3.49924 8.64339L4.23971 7.79347L5.00954 8.6481C5.07482 8.72043 5.16766 8.76174 5.26501 8.76174H5.26769C5.36604 8.76092 5.45937 8.71809 5.52399 8.64391L10.6163 2.80789C10.7411 2.66482 10.7263 2.44781 10.5832 2.32293Z" fill="#2D6CDF"/>
</g>
<defs>
<clipPath id="clip0_18465_30097">
<rect width="11" height="11" fill="white"/>
</clipPath>
</defs>
</svg>