<svg width="14" height="14" viewBox="0 0 14 14" fill="none" xmlns="http://www.w3.org/2000/svg">
<g clip-path="url(#clip0_16248_115403)">
<path d="M8.41402 12.7483C8.29858 12.777 8.18088 12.8026 8.06405 12.8241C7.75865 12.8809 7.55675 13.1746 7.61323 13.4803C7.64113 13.6307 7.72654 13.7559 7.8425 13.8377C7.962 13.9218 8.1141 13.9598 8.26909 13.9309C8.40821 13.9051 8.54842 13.8748 8.68602 13.8404C8.98759 13.7654 9.17132 13.4598 9.09608 13.1584C9.02103 12.8567 8.71578 12.6731 8.41402 12.7483Z" fill="#2D6CDF"/>
<path d="M12.5759 5.20405C12.6154 5.32287 12.6906 5.41986 12.7857 5.48688C12.9267 5.58616 13.1111 5.61957 13.2871 5.56136C13.5822 5.46338 13.7421 5.14516 13.6445 4.8502C13.6 4.71574 13.5507 4.58085 13.4981 4.44952C13.3826 4.16091 13.0553 4.0204 12.7665 4.13584C12.4781 4.25123 12.3375 4.57869 12.453 4.86738C12.4972 4.97777 12.5386 5.09108 12.5759 5.20405Z" fill="#2D6CDF"/>
<path d="M10.2431 11.9437C10.1439 12.0092 10.0414 12.0727 9.93816 12.1321C9.66885 12.2875 9.57661 12.6317 9.73189 12.9009C9.77406 12.9741 9.83021 13.034 9.89489 13.0797C10.0685 13.2019 10.3043 13.2202 10.5006 13.1071C10.6233 13.0363 10.7454 12.961 10.8636 12.8828C11.1228 12.7115 11.1942 12.3624 11.0228 12.103C10.8515 11.8436 10.5025 11.7723 10.2431 11.9437Z" fill="#2D6CDF"/>
<path d="M13.9946 6.77608C13.9823 6.46544 13.7207 6.22366 13.4099 6.23579C13.0996 6.24804 12.8576 6.50977 12.8698 6.82029C12.8745 6.93901 12.8757 7.05951 12.873 7.17811C12.8686 7.37291 12.9639 7.54656 13.1119 7.65093C13.2001 7.71304 13.3072 7.75063 13.4233 7.75328C13.7339 7.76017 13.9913 7.51378 13.9982 7.203C14.0013 7.06128 14.0001 6.9177 13.9946 6.77608Z" fill="#2D6CDF"/>
<path d="M12.4841 10.4643C12.235 10.2775 11.8826 10.3282 11.696 10.5768C11.6246 10.6721 11.5494 10.7661 11.4723 10.8567C11.271 11.0932 11.2994 11.4485 11.536 11.65C11.5495 11.6614 11.5631 11.6719 11.5772 11.6818C11.8124 11.8476 12.1392 11.8095 12.3294 11.5864C12.4214 11.4783 12.511 11.366 12.5964 11.2522C12.783 11.0036 12.7325 10.651 12.4841 10.4643Z" fill="#2D6CDF"/>
<path d="M13.3116 8.42876C13.015 8.33576 12.6991 8.50086 12.6062 8.79744C12.5706 8.91075 12.5312 9.0246 12.4887 9.1361C12.3952 9.38155 12.4847 9.65162 12.69 9.79634C12.7276 9.8228 12.7691 9.84522 12.8142 9.86225C13.1045 9.97306 13.4297 9.82737 13.5404 9.53687C13.5909 9.4043 13.6378 9.26885 13.6802 9.13414C13.7731 8.8375 13.6081 8.52175 13.3116 8.42876Z" fill="#2D6CDF"/>
<path d="M5.95869 12.8287C5.4555 12.7384 4.97282 12.5845 4.51511 12.37C4.50969 12.3671 4.50485 12.3639 4.49916 12.3613C4.3913 12.3106 4.28362 12.2562 4.17925 12.1994C4.17889 12.1989 4.17823 12.1987 4.17766 12.1984C3.98617 12.093 3.79928 11.9763 3.61772 11.8485C0.970238 9.98352 0.333677 6.31234 2.19876 3.66489C2.60431 3.08942 3.0951 2.60932 3.64225 2.22881C3.64899 2.22411 3.65573 2.21945 3.66241 2.21472C5.59048 0.886226 8.2085 0.796695 10.2558 2.16185L9.81609 2.79717C9.69384 2.97401 9.76905 3.10287 9.98305 3.08361L11.8931 2.91262C12.1073 2.89335 12.2355 2.708 12.1779 2.50107L11.6649 0.653084C11.6075 0.445913 11.4605 0.421115 11.3382 0.59792L10.8974 1.23475C9.39498 0.226192 7.59294 -0.158387 5.80433 0.151768C5.62418 0.182946 5.44657 0.221106 5.27139 0.265526C5.27003 0.265767 5.26895 0.265917 5.26786 0.266158C5.26109 0.267813 5.25423 0.27001 5.24764 0.271846C3.70529 0.66792 2.35961 1.56748 1.39939 2.85095C1.39129 2.86055 1.38296 2.86994 1.37531 2.88038C1.34338 2.92339 1.31169 2.96739 1.28066 3.01139C1.22992 3.08349 1.17991 3.1574 1.13206 3.23132C1.12607 3.24022 1.12149 3.24928 1.11626 3.25828C0.323867 4.48617 -0.0583347 5.90573 0.00721129 7.35093C0.00736176 7.35569 0.00709091 7.36047 0.00721129 7.36535C0.0135612 7.50652 0.0247564 7.64965 0.0399542 7.79056C0.0407667 7.79964 0.0427831 7.80825 0.0443179 7.81734C0.0600273 7.95903 0.0797392 8.10104 0.104447 8.24303C0.355556 9.69172 1.03894 10.9953 2.06297 12.0097C2.06535 12.012 2.06782 12.0146 2.07023 12.0171C2.07107 12.018 2.072 12.0185 2.07281 12.0194C2.34794 12.2907 2.6472 12.5417 2.96942 12.7687C3.81267 13.3629 4.75165 13.7556 5.76006 13.9366C6.06603 13.9916 6.35831 13.7879 6.4132 13.4821C6.46807 13.176 6.26457 12.8835 5.95869 12.8287Z" fill="#2D6CDF"/>
<path d="M6.65476 2.49951C6.40308 2.49951 6.19922 2.70355 6.19922 2.95487V7.49154L10.3484 9.63641C10.4151 9.67099 10.4866 9.68727 10.557 9.68727C10.7218 9.68727 10.881 9.59753 10.9619 9.44095C11.0773 9.21746 10.99 8.94291 10.7665 8.8275L7.10979 6.93702V2.95487C7.10976 2.70355 6.90614 2.49951 6.65476 2.49951Z" fill="#2D6CDF"/>
</g>
<defs>
<clipPath id="clip0_16248_115403">
<rect width="14" height="14" fill="white"/>
</clipPath>
</defs>
</svg>
