<svg width="39" height="39" viewBox="0 0 39 39" fill="none" xmlns="http://www.w3.org/2000/svg">
<g clip-path="url(#clip0_9445_69306)">
<path d="M14.6181 38.5267L14.7431 37.9825L15.4381 38.1436C15.571 38.1742 15.6476 38.1451 15.6681 38.0554C15.6807 38.0006 15.6667 37.9423 15.626 37.8799C15.6022 37.8445 15.5391 37.7689 15.4374 37.6532C15.2515 37.4444 15.1366 37.3015 15.0925 37.2245C14.9956 37.0571 14.9685 36.8816 15.0106 36.6979C15.0699 36.4399 15.2292 36.2905 15.4884 36.2493C15.6267 36.2261 15.7914 36.2367 15.983 36.2811L16.8935 36.4923L16.7685 37.0365L16.0049 36.8596C15.8678 36.8278 15.7888 36.8579 15.7676 36.9497C15.7554 37.0023 15.7678 37.058 15.8047 37.1171C15.8181 37.1386 15.8702 37.206 15.9611 37.3191C16.1839 37.5963 16.3105 37.7627 16.3415 37.8182C16.4348 37.9803 16.461 38.151 16.4198 38.3302C16.3808 38.5006 16.2927 38.624 16.1558 38.7005C16.0009 38.7866 15.7938 38.7998 15.535 38.7398L14.6179 38.5272L14.6181 38.5267ZM14.1901 38.3902L13.5103 38.1962L14.1892 35.7945L14.869 35.9884L14.1901 38.3902ZM12.1304 35.4311L12.5363 35.6154C12.4184 36.0788 12.4168 36.4633 12.5317 36.7692L13.1335 35.4325L13.7774 35.7249L12.7536 37.9999L12.1097 37.7075C12.0362 37.5387 11.9812 37.323 11.9452 37.0604C11.9124 36.8067 11.9069 36.5987 11.9283 36.4361L11.9162 36.4306C11.82 36.5518 11.6603 36.6862 11.4373 36.8333C11.2142 36.9806 11.0181 37.0812 10.8493 37.135L10.2054 36.8426L11.2292 34.5676L11.8731 34.86L11.2716 36.1967C11.5834 36.07 11.8698 35.8148 12.1307 35.4311H12.1304ZM9.98549 34.4803L10.3325 33.9366L10.9274 34.3196L9.58607 36.4213L8.61323 35.7948C8.34258 35.6204 8.16882 35.4126 8.09217 35.1711C8.01076 34.9162 8.05504 34.6556 8.22499 34.3895C8.384 34.1403 8.58776 33.9937 8.83603 33.9495C9.0843 33.9055 9.33423 33.9648 9.58631 34.1269C9.69343 34.196 9.82649 34.3136 9.98573 34.4801L9.98549 34.4803ZM9.67986 34.959C9.63797 34.9081 9.59631 34.8572 9.55441 34.8062C9.50514 34.7505 9.45515 34.7063 9.40421 34.6735C9.29519 34.6032 9.19046 34.5772 9.09025 34.5951C8.9898 34.613 8.90482 34.6769 8.83484 34.7864C8.68773 35.0167 8.75057 35.2197 9.02312 35.3952L9.29091 35.5676L9.67962 34.9586L9.67986 34.959ZM7.19383 34.7704L6.65968 34.3055L7.92293 32.8407L7.19383 32.2063L7.55778 31.7842L8.82103 32.8835L7.19383 34.7706V34.7704ZM5.24456 31.6214L5.64708 31.2359L6.24121 31.8617L6.58779 31.5296L5.91511 30.8211L6.31762 30.4356L7.4778 31.658L5.67921 33.3808L4.56283 32.2046L4.96511 31.8191L5.59376 32.4815L5.8387 32.2469L5.24456 31.6212V31.6214ZM2.18249 28.6006L2.66451 28.3223L3.02013 28.9435C3.08797 29.0621 3.16152 29.0984 3.24103 29.0528C3.28935 29.0248 3.32244 28.9746 3.34029 28.9024C3.34981 28.8605 3.36219 28.763 3.37742 28.6094C3.40337 28.3306 3.42931 28.1487 3.45526 28.0638C3.51143 27.8784 3.62093 27.739 3.78351 27.6451C4.01202 27.5131 4.22935 27.5286 4.43596 27.6915C4.54688 27.7773 4.65138 27.9059 4.74945 28.0772L5.21528 28.8909L4.73327 29.1692L4.34265 28.4868C4.27243 28.3643 4.19697 28.3266 4.11557 28.3734C4.06915 28.4002 4.03678 28.4473 4.01869 28.5147C4.01202 28.5391 3.99845 28.6235 3.97774 28.7675C3.92704 29.12 3.89205 29.3266 3.87253 29.3871C3.81802 29.5662 3.71115 29.7015 3.55238 29.7931C3.40146 29.8804 3.2515 29.8995 3.10273 29.8509C2.93444 29.7955 2.784 29.652 2.65165 29.4208L2.18249 28.6011V28.6006ZM1.95993 28.1066L1.66881 27.4597L3.93323 26.4313L4.22435 27.0781L1.95969 28.1066H1.95993ZM2.83399 24.6515L2.97681 25.0755C2.55906 25.305 2.27818 25.5664 2.13417 25.8593L3.51739 25.389L3.74399 26.0614L1.38983 26.8615L1.16346 26.1891C1.23606 26.02 1.35556 25.8325 1.52194 25.6267C1.68428 25.4294 1.83186 25.2833 1.96493 25.1883L1.96064 25.1757C1.80663 25.1876 1.60002 25.162 1.34056 25.0987C1.0811 25.0353 0.874252 24.96 0.720005 24.8727L0.493396 24.2001L2.84756 23.4L3.07417 24.0726L1.69095 24.5427C1.99587 24.6852 2.37696 24.7216 2.83423 24.6513L2.83399 24.6515ZM2.06776 22.3677L2.70569 22.2864L2.79471 22.9906L0.329153 23.3053L0.183476 22.1537C0.14301 21.8332 0.190141 21.5662 0.325106 21.3521C0.467451 21.1259 0.695012 20.993 1.00731 20.953C1.29962 20.9157 1.54218 20.9786 1.73522 21.1417C1.92803 21.3048 2.04324 21.5355 2.08109 21.8335C2.09703 21.9602 2.09251 22.1384 2.06752 22.3677H2.06776ZM1.50623 22.4394C1.51837 22.3746 1.53027 22.3098 1.54241 22.2448C1.55336 22.1711 1.55503 22.1042 1.54741 22.0439C1.53123 21.9148 1.48386 21.8175 1.40578 21.7517C1.32771 21.6859 1.2244 21.6613 1.09586 21.6776C0.825692 21.712 0.71096 21.8906 0.751664 22.2132L0.791654 22.5303L1.50599 22.4392L1.50623 22.4394ZM0.0158995 20.5288L-0.00195312 19.8191L1.9266 19.7701L1.90208 18.8014L2.45789 18.7873L2.50026 20.4657L0.0158995 20.5288ZM1.03635 16.9244L1.59074 16.9667L1.52551 17.8289L2.00301 17.8653L2.0768 16.889L2.63118 16.9313L2.50384 18.6156L0.0256589 18.4265L0.148247 16.806L0.702629 16.8483L0.633599 17.7608L0.970894 17.7866L1.03611 16.9244H1.03635ZM1.26058 12.6109L1.78711 12.79L1.55836 13.4688C1.51456 13.5984 1.53623 13.6781 1.62287 13.7075C1.67571 13.7254 1.73498 13.7173 1.80092 13.6828C1.83853 13.6625 1.91946 13.607 2.04419 13.5169C2.26937 13.3519 2.42243 13.2512 2.50312 13.2146C2.67855 13.1345 2.85517 13.1247 3.03275 13.185C3.28221 13.2699 3.41455 13.444 3.42955 13.707C3.43883 13.8476 3.41194 14.0111 3.34886 14.1981L3.04941 15.0872L2.52264 14.9081L2.774 14.1623C2.81899 14.0284 2.79709 13.9463 2.70831 13.9162C2.65761 13.899 2.60095 13.9057 2.53883 13.9368C2.51621 13.948 2.44433 13.9935 2.32317 14.0731C2.02634 14.2682 1.849 14.3784 1.79092 14.4035C1.6212 14.4808 1.44934 14.4901 1.27605 14.431C1.1111 14.3749 0.997553 14.2747 0.935426 14.1305C0.865444 13.9669 0.873299 13.7589 0.958278 13.5059L1.25987 12.6104L1.26058 12.6109ZM1.4522 12.0865L1.74332 11.4397L4.00797 12.4681L3.71686 13.1149L1.4522 12.0865ZM4.62377 10.4628L4.40168 10.8507C3.95394 10.6879 3.57309 10.6491 3.25912 10.7342L4.52499 11.4655L4.17269 12.081L2.01824 10.8366L2.37054 10.2211C2.54502 10.1639 2.76401 10.13 3.02751 10.1192C3.28221 10.1111 3.48882 10.1257 3.64783 10.163L3.65449 10.1513C3.54357 10.0432 3.42598 9.87055 3.30173 9.63334C3.17747 9.39589 3.09678 9.19025 3.05988 9.01641L3.41217 8.40091L5.56662 9.64529L5.21433 10.2608L3.94823 9.52956C4.04344 9.85357 4.26862 10.1647 4.62329 10.4628H4.62377ZM5.80537 8.38465L6.29144 8.80766L5.8287 9.34424L3.95013 7.70962L4.70661 6.83229C4.91727 6.58814 5.14673 6.44515 5.39548 6.40354C5.65827 6.35907 5.90868 6.44061 6.14648 6.64768C6.36928 6.84161 6.48449 7.06495 6.49234 7.31818C6.49996 7.57117 6.40593 7.81148 6.21027 8.03865C6.12696 8.13525 5.99199 8.25075 5.80513 8.38513L5.80537 8.38465ZM5.37762 8.01234C5.4338 7.97815 5.48998 7.94372 5.54591 7.90952C5.6078 7.86839 5.65874 7.82511 5.69826 7.77944C5.783 7.68116 5.8237 7.58073 5.82037 7.47839C5.81704 7.37604 5.76633 7.28231 5.6685 7.19718C5.4626 7.01808 5.25361 7.05132 5.04176 7.29713L4.83348 7.53865L5.37786 8.01234H5.37762ZM5.78895 5.63262L6.30048 5.14266L7.63181 6.54534L8.32997 5.87652L8.71368 6.28087L7.50399 7.43941L5.78895 5.63262ZM9.2007 4.00182L9.52299 4.45711L8.82151 4.9583L9.09905 5.35046L9.89338 4.78303L10.2157 5.23831L8.84531 6.21703L7.4052 4.18236L8.72367 3.2407L9.04574 3.69599L8.30331 4.22635L8.49945 4.50325L9.20093 4.00206L9.2007 4.00182ZM12.4292 1.30311L12.6581 1.81196L12.0081 2.10727C11.8838 2.1637 11.8407 2.23377 11.8786 2.3177C11.9014 2.36887 11.9481 2.40665 12.0181 2.43152C12.0585 2.44515 12.1542 2.46691 12.3049 2.49704C12.5786 2.54988 12.7565 2.59364 12.8381 2.62784C13.0161 2.70196 13.1437 2.82511 13.2211 2.9968C13.3296 3.23807 13.2932 3.454 13.1118 3.64457C13.0159 3.74716 12.8786 3.83922 12.6993 3.92052L11.8479 4.30718L11.6189 3.79833L12.333 3.47408C12.4613 3.41598 12.5058 3.34376 12.4672 3.25792C12.4451 3.2089 12.4015 3.17207 12.3366 3.14744C12.313 3.13836 12.2309 3.1166 12.0902 3.08216C11.7458 2.99728 11.5446 2.94228 11.4865 2.91693C11.3144 2.84496 11.1907 2.72516 11.1152 2.55753C11.0436 2.39804 11.0388 2.24644 11.1014 2.10225C11.1728 1.93941 11.3294 1.80311 11.5715 1.69288L12.4292 1.30335V1.30311ZM12.9719 1.11158L13.6412 0.884172L14.4377 3.24907L13.7683 3.47671L12.9719 1.11181V1.11158ZM16.341 2.37461L15.9026 2.45328C15.7388 2.00421 15.5234 1.68618 15.2565 1.49943L15.5134 2.94347L14.8176 3.0683L14.3806 0.610618L15.0763 0.485798C15.232 0.583119 15.3989 0.729939 15.5764 0.925779C15.7464 1.11636 15.8683 1.2847 15.9421 1.43104L15.9552 1.42865C15.9663 1.27394 16.0223 1.0726 16.1232 0.824153C16.2244 0.575946 16.3291 0.381541 16.4381 0.241417L17.1339 0.116596L17.5709 2.57427L16.8752 2.69909L16.6183 1.25505C16.4324 1.53673 16.3401 1.91 16.341 2.37461ZM18.6426 1.86289L18.6588 2.50875L17.9523 2.52669L17.8894 0.030991L19.0446 0.00157923C19.366 -0.00655086 19.6259 0.0675764 19.8242 0.223961C20.0339 0.389193 20.1427 0.629748 20.1505 0.946104C20.1581 1.24213 20.0713 1.47815 19.8903 1.65438C19.7094 1.83061 19.4693 1.92267 19.1703 1.93008C19.0432 1.93343 18.867 1.91095 18.6426 1.86265V1.86289ZM18.6283 1.2945C18.6914 1.31315 18.7542 1.33157 18.8173 1.35022C18.8892 1.36863 18.9553 1.377 19.0156 1.37556C19.1451 1.37222 19.2462 1.33491 19.3193 1.26342C19.3924 1.19192 19.4271 1.09125 19.424 0.961168C19.4171 0.687615 19.2519 0.554903 18.9282 0.563033L18.6102 0.571163L18.6285 1.29426L18.6283 1.2945ZM20.6723 0.0240565L21.3769 0.0778586L21.2307 2.01043L22.1926 2.08384L22.1505 2.64075L20.484 2.51354L20.6723 0.0240565ZM24.19 1.47504L24.065 2.01927L23.2262 1.82487L23.1186 2.29378L24.0683 2.51401L23.9434 3.05825L22.305 2.67853L22.8639 0.24596L24.4401 0.611336L24.3152 1.15557L23.4273 0.949691L23.3511 1.28087L24.19 1.47528V1.47504ZM30.013 3.04964L29.7359 3.53386L29.1175 3.17662C28.9994 3.10847 28.9176 3.11421 28.8719 3.19383C28.844 3.24237 28.8404 3.30239 28.8614 3.37413C28.874 3.41502 28.9123 3.50565 28.9761 3.64601C29.0935 3.89996 29.162 4.07045 29.182 4.15701C29.2261 4.34544 29.2015 4.52143 29.108 4.68475C28.9766 4.9143 28.7809 5.01067 28.521 4.97456C28.382 4.95639 28.2273 4.89804 28.0571 4.79976L27.247 4.33181L27.5241 3.84759L28.2035 4.23998C28.3253 4.31052 28.4098 4.30479 28.4565 4.22325C28.4832 4.17662 28.4874 4.11947 28.4693 4.05227C28.4627 4.02788 28.4324 3.94802 28.3782 3.81339C28.2454 3.48317 28.1723 3.28685 28.1587 3.22468C28.1163 3.04223 28.1406 2.8715 28.2318 2.71201C28.3187 2.5604 28.4384 2.46786 28.5915 2.43463C28.7645 2.39756 28.9664 2.44539 29.1968 2.57858L30.0128 3.04988L30.013 3.04964ZM30.4855 3.40689L31.0613 3.81841L29.6212 5.85309L29.0451 5.4418L30.4855 3.40713V3.40689ZM31.4257 6.86002L31.1034 6.55132C31.3672 6.15318 31.4952 5.79068 31.4874 5.46404L30.4798 6.52573L29.9682 6.03578L31.6833 4.22898L32.1948 4.71894C32.2086 4.90259 32.1893 5.12449 32.1372 5.38441C32.0846 5.63477 32.0215 5.833 31.9475 5.9791L31.9573 5.98843C32.0879 5.90593 32.2829 5.83228 32.5419 5.76724C32.8009 5.70244 33.0189 5.67255 33.196 5.67781L33.7075 6.16777L31.9925 7.97456L31.481 7.48461L32.4886 6.42291C32.1527 6.43893 31.7983 6.58456 31.4257 6.86002ZM33.2169 8.43487L32.7114 8.83396L32.2748 8.27585L34.2288 6.73329L34.9427 7.64601C35.1414 7.89996 35.2376 8.15366 35.2312 8.40689C35.2248 8.67447 35.0976 8.90594 34.8501 9.10154C34.6182 9.28446 34.3781 9.35572 34.1293 9.31531C33.8806 9.2749 33.6637 9.13669 33.4788 8.9002C33.4002 8.79977 33.3129 8.64458 33.2172 8.43487H33.2169ZM33.6621 8.0836C33.6849 8.14553 33.7078 8.20723 33.7306 8.26916C33.7589 8.33803 33.7918 8.39637 33.8289 8.44396C33.9089 8.5463 33.9994 8.60536 34.0998 8.62162C34.2005 8.63764 34.3017 8.6056 34.4035 8.52526C34.6178 8.3562 34.6249 8.14386 34.4247 7.888L34.2281 7.63669L33.6618 8.0836H33.6621ZM35.966 9.06662L36.3183 9.68212L34.6456 10.6482L35.1264 11.4882L34.6444 11.7665L33.8113 10.311L35.9658 9.06662H35.966ZM36.7772 12.6776L36.2704 12.9076L35.9158 12.1197L35.4795 12.3179L35.881 13.2101L35.3745 13.4401L34.6818 11.9012L36.9465 10.8727L37.613 12.3536L37.1064 12.5836L36.731 11.7496L36.4228 11.8897L36.7775 12.6776H36.7772ZM38.7724 16.377L38.2307 16.5025L38.0702 15.8043C38.0395 15.6709 37.9798 15.6147 37.8905 15.6353C37.836 15.6479 37.7898 15.6862 37.752 15.7503C37.7308 15.7873 37.6906 15.8772 37.6318 16.0198C37.5263 16.279 37.4487 16.4454 37.3992 16.519C37.2919 16.6797 37.1466 16.7814 36.9638 16.8237C36.707 16.8832 36.5035 16.805 36.353 16.5889C36.2716 16.4743 36.2088 16.3208 36.1648 16.1283L35.9546 15.2137L36.4963 15.0881L36.6725 15.8552C36.7041 15.993 36.7656 16.0511 36.857 16.03C36.9091 16.0181 36.9536 15.9822 36.9905 15.9232C37.0038 15.9016 37.0412 15.8251 37.1026 15.6934C37.2531 15.3708 37.3464 15.1833 37.3825 15.1312C37.4866 14.9758 37.628 14.8775 37.8062 14.8361C37.976 14.7969 38.125 14.822 38.2533 14.9122C38.3982 15.0143 38.5006 15.1955 38.5603 15.4557L38.7719 16.377H38.7724ZM38.8046 16.9528L38.8936 17.657L36.428 17.9717L36.339 17.2675L38.8046 16.9528ZM36.8839 20.0178L36.895 19.5705C37.3659 19.4994 37.7191 19.3514 37.955 19.1262L36.4951 19.0891L36.513 18.3794L38.9976 18.4425L38.9798 19.1522C38.8536 19.2859 38.677 19.4205 38.4504 19.5561C38.2304 19.6852 38.0417 19.7713 37.8843 19.8144L37.8841 19.8277C38.0326 19.8696 38.218 19.9652 38.4399 20.1145C38.6617 20.2637 38.83 20.4059 38.945 20.5413L38.9271 21.251L36.4425 21.1879L36.4604 20.4782L37.9203 20.5152C37.6827 20.2759 37.3373 20.1099 36.8841 20.0176L36.8839 20.0178ZM36.9079 22.4189L36.275 22.3053L36.3992 21.6063L38.8457 22.0453L38.6427 23.1881C38.586 23.5061 38.4616 23.7469 38.2692 23.9107C38.0662 24.0838 37.8096 24.1427 37.4994 24.087C37.2093 24.0348 36.9964 23.9021 36.8608 23.6886C36.7253 23.475 36.6837 23.2204 36.7363 22.9246C36.7587 22.7988 36.8158 22.63 36.9079 22.4189ZM37.4651 22.5188C37.4344 22.5772 37.4035 22.6353 37.3728 22.6936C37.3404 22.7608 37.319 22.8242 37.3083 22.8837C37.2854 23.0119 37.3016 23.119 37.3566 23.2051C37.4116 23.2914 37.5027 23.3459 37.6303 23.3686C37.8984 23.4167 38.0609 23.2806 38.1181 22.9605L38.174 22.6458L37.4651 22.5186V22.5188ZM38.2754 24.889L38.0488 25.5614L36.2214 24.9401L35.9122 25.8581L35.3857 25.679L35.9215 24.0886L38.2756 24.8887L38.2754 24.889ZM36.1207 27.9244L35.6142 27.6943L35.9689 26.9064L35.5325 26.7082L35.131 27.6003L34.6242 27.3703L35.3169 25.8313L37.5815 26.8598L36.915 28.3407L36.4085 28.1106L36.7839 27.2766L36.4756 27.1365L36.121 27.9244H36.1207ZM34.6644 31.8823L34.2112 31.5585L34.6247 30.9743C34.7037 30.8629 34.7058 30.7804 34.6311 30.7271C34.5856 30.6946 34.5264 30.6852 34.4535 30.6993C34.4116 30.708 34.3183 30.7376 34.1731 30.7878C33.9101 30.8806 33.7347 30.933 33.6471 30.9447C33.4562 30.9707 33.2841 30.9291 33.1312 30.8199C32.9165 30.6666 32.8397 30.4617 32.9006 30.2051C32.932 30.0678 33.0046 29.9189 33.1184 29.7579L33.6599 28.993L34.1131 29.3168L33.659 29.9583C33.5776 30.0733 33.5749 30.1582 33.6514 30.213C33.6952 30.2441 33.7511 30.2539 33.8196 30.2424C33.8446 30.2381 33.9265 30.2154 34.0653 30.1742C34.4054 30.0731 34.6068 30.0188 34.6697 30.0114C34.8544 29.9865 35.0215 30.0272 35.1707 30.1338C35.3126 30.2352 35.3928 30.3639 35.4109 30.5202C35.4309 30.697 35.364 30.8942 35.21 31.1118L34.6647 31.8823H34.6644ZM34.3062 32.2795L33.8434 32.816L31.9649 31.1814L32.4276 30.6448L34.3062 32.2795ZM30.7519 32.9119L31.0887 32.619C31.4581 32.9208 31.8052 33.0831 32.1296 33.1066L31.1734 31.9978L31.7076 31.5329L33.3348 33.4201L32.8006 33.8849C32.6173 33.8813 32.3993 33.8409 32.1467 33.7639C31.9037 33.6876 31.7133 33.6054 31.5755 33.5176L31.5655 33.5265C31.6347 33.6652 31.6892 33.867 31.7287 34.1322C31.7685 34.3973 31.7771 34.6183 31.7552 34.7948L31.221 35.2596L29.5938 33.3725L30.128 32.9076L31.0841 34.0164C31.1003 33.679 30.9897 33.3108 30.7521 32.9119H30.7519ZM28.9806 34.4892L28.6336 33.9454L29.2284 33.5623L30.5698 35.664L29.5971 36.2905C29.3265 36.4648 29.0661 36.5365 28.8157 36.5059C28.5512 36.4739 28.3339 36.3246 28.1639 36.0583C28.0047 35.8091 27.9573 35.5619 28.0211 35.317C28.0849 35.0721 28.2427 34.8684 28.4946 34.7063C28.6017 34.6372 28.7638 34.565 28.9806 34.4892ZM29.2863 34.9679C29.2227 34.9849 29.1594 35.0018 29.0958 35.0186C29.0249 35.0403 28.964 35.0676 28.913 35.1001C28.804 35.1704 28.7367 35.2551 28.7112 35.3541C28.6855 35.4533 28.7076 35.5576 28.7776 35.6671C28.9247 35.8973 29.1344 35.9248 29.407 35.7493L29.6747 35.5767L29.286 34.9676L29.2863 34.9679ZM28.0813 37.1235L27.4375 37.416L26.6427 35.6501L25.7636 36.0492L25.5346 35.5403L27.0576 34.8486L28.0813 37.1235ZM24.4175 37.5891L24.2392 37.0599L25.0547 36.7828L24.9012 36.327L23.9779 36.641L23.7996 36.1118L25.3923 35.5705L26.1887 37.9354L24.6563 38.4562L24.478 37.9272L25.3411 37.6338L25.2325 37.312L24.417 37.5891H24.4175Z" fill="#FEFEFE"/>
<path d="M20.0561 38.9999C20.5876 38.9999 21.0185 38.5671 21.0185 38.0332C21.0185 37.4992 20.5876 37.0664 20.0561 37.0664C19.5246 37.0664 19.0938 37.4992 19.0938 38.0332C19.0938 38.5671 19.5246 38.9999 20.0561 38.9999Z" fill="#FF6A00"/>
<path fill-rule="evenodd" clip-rule="evenodd" d="M21.6289 19.3885C21.6289 15.9227 23.8043 13.1133 26.4874 13.1133C29.1708 13.1133 31.3459 15.9227 31.3459 19.3885C31.3459 22.8541 29.1708 25.6637 26.4874 25.6637C23.8041 25.6637 21.6289 22.8541 21.6289 19.3885ZM24.4053 19.3885C24.4053 18.2333 25.3377 17.2967 26.4877 17.2967C27.6376 17.2967 28.57 18.2331 28.57 19.3885C28.57 20.5437 27.6378 21.4803 26.4877 21.4803C25.3377 21.4803 24.4053 20.5439 24.4053 19.3885Z" fill="#FF6A00"/>
<path d="M18.0938 22.9756C16.9736 22.7489 14.6975 23.6095 13.3226 23.6288C12.3407 23.6288 11.8573 22.7101 12.1674 21.8151C12.7356 21.9481 13.3381 22.0196 13.9617 22.0196C16.7841 22.0196 20.258 20.3409 20.2511 17.1389C20.2473 15.3288 19.0154 13.7625 17.1469 12.9201C17.4247 12.3187 18.6194 11.9151 19.1885 11.9708C17.5603 10.1984 14.6932 10.3512 13.2612 12.2929C10.1615 12.5801 7.7576 14.6401 7.7576 17.1391C7.7576 18.6905 8.58668 19.8594 9.73234 20.6781C8.49884 21.3118 7.6543 22.6009 7.6543 24.0884C7.6543 26.2025 9.36053 27.9165 11.465 27.9165C12.7651 27.9165 14.4028 27.449 15.6511 27.0796C16.0895 26.9502 16.9748 26.9143 16.9748 27.564C16.9748 27.7032 16.9255 27.817 16.8446 27.9086C18.4746 28.4634 20.2006 27.2496 20.2006 25.4909C20.2006 24.2298 19.2901 23.1824 18.0935 22.9758L18.0938 22.9756ZM11.9042 15.7443C12.0465 15.7443 12.1836 15.7659 12.3129 15.8058C12.072 15.9151 11.9042 16.1587 11.9042 16.4416C11.9042 16.8266 12.215 17.1389 12.5983 17.1389C12.8799 17.1389 13.1224 16.9706 13.2312 16.7283C13.271 16.8582 13.2924 16.9961 13.2924 17.1389C13.2924 17.9091 12.6709 18.5334 11.9042 18.5334C11.1375 18.5334 10.5159 17.9091 10.5159 17.1389C10.5159 16.3687 11.1375 15.7443 11.9042 15.7443ZM16.0762 15.7443C16.2185 15.7443 16.3556 15.7659 16.4849 15.8058C16.244 15.9151 16.0762 16.1587 16.0762 16.4416C16.0762 16.8266 16.3871 17.1389 16.7703 17.1389C17.0519 17.1389 17.2942 16.9706 17.4032 16.7283C17.443 16.8582 17.4644 16.9961 17.4644 17.1389C17.4644 17.9091 16.8429 18.5334 16.0762 18.5334C15.3095 18.5334 14.688 17.9091 14.688 17.1389C14.688 16.3687 15.3095 15.7443 16.0762 15.7443Z" fill="#FF6A00"/>
</g>
<defs>
<clipPath id="clip0_9445_69306">
<rect width="39" height="39" fill="white"/>
</clipPath>
</defs>
</svg>
