<svg width="25" height="25" viewBox="0 0 25 25" fill="none" xmlns="http://www.w3.org/2000/svg">
<path d="M14.5833 21.875C14.3071 21.875 14.0421 21.7653 13.8468 21.5699C13.6514 21.3746 13.5417 21.1096 13.5417 20.8333V12.5C13.5417 12.2237 13.6514 11.9588 13.8468 11.7634C14.0421 11.5681 14.3071 11.4583 14.5833 11.4583H20.8333C21.1096 11.4583 21.3746 11.5681 21.5699 11.7634C21.7653 11.9588 21.875 12.2237 21.875 12.5V20.8333C21.875 21.1096 21.7653 21.3746 21.5699 21.5699C21.3746 21.7653 21.1096 21.875 20.8333 21.875H14.5833ZM4.16667 13.5417C3.8904 13.5417 3.62545 13.4319 3.4301 13.2366C3.23475 13.0412 3.125 12.7763 3.125 12.5V4.16667C3.125 3.8904 3.23475 3.62545 3.4301 3.4301C3.62545 3.23475 3.8904 3.125 4.16667 3.125H10.4167C10.6929 3.125 10.9579 3.23475 11.1532 3.4301C11.3486 3.62545 11.4583 3.8904 11.4583 4.16667V12.5C11.4583 12.7763 11.3486 13.0412 11.1532 13.2366C10.9579 13.4319 10.6929 13.5417 10.4167 13.5417H4.16667ZM9.375 11.4583V5.20833H5.20833V11.4583H9.375ZM4.16667 21.875C3.8904 21.875 3.62545 21.7653 3.4301 21.5699C3.23475 21.3746 3.125 21.1096 3.125 20.8333V16.6667C3.125 16.3904 3.23475 16.1254 3.4301 15.9301C3.62545 15.7347 3.8904 15.625 4.16667 15.625H10.4167C10.6929 15.625 10.9579 15.7347 11.1532 15.9301C11.3486 16.1254 11.4583 16.3904 11.4583 16.6667V20.8333C11.4583 21.1096 11.3486 21.3746 11.1532 21.5699C10.9579 21.7653 10.6929 21.875 10.4167 21.875H4.16667ZM5.20833 19.7917H9.375V17.7083H5.20833V19.7917ZM15.625 19.7917H19.7917V13.5417H15.625V19.7917ZM13.5417 4.16667C13.5417 3.8904 13.6514 3.62545 13.8468 3.4301C14.0421 3.23475 14.3071 3.125 14.5833 3.125H20.8333C21.1096 3.125 21.3746 3.23475 21.5699 3.4301C21.7653 3.62545 21.875 3.8904 21.875 4.16667V8.33333C21.875 8.6096 21.7653 8.87455 21.5699 9.0699C21.3746 9.26525 21.1096 9.375 20.8333 9.375H14.5833C14.3071 9.375 14.0421 9.26525 13.8468 9.0699C13.6514 8.87455 13.5417 8.6096 13.5417 8.33333V4.16667ZM15.625 5.20833V7.29167H19.7917V5.20833H15.625Z" fill="white"/>
</svg>
