<svg width="22" height="21" viewBox="0 0 22 21" fill="none" xmlns="http://www.w3.org/2000/svg">
<path fill-rule="evenodd" clip-rule="evenodd" d="M10.9997 4.72571C11.8739 4.72571 12.5826 4.01704 12.5826 3.14285C12.5826 2.26867 11.8739 1.56 10.9997 1.56C10.1255 1.56 9.41687 2.26867 9.41687 3.14285C9.41687 4.01704 10.1255 4.72571 10.9997 4.72571ZM14.1426 3.14285C14.1426 4.62001 13.1235 5.85915 11.7501 6.19558V9.55968H18.8572C19.2714 9.55968 19.6072 9.89546 19.6072 10.3097L19.6072 10.3189V14.3933C20.9807 14.7296 21.9999 15.9688 21.9999 17.4461C21.9999 19.1818 20.5928 20.5889 18.8571 20.5889C17.1213 20.5889 15.7142 19.1818 15.7142 17.4461C15.7142 15.9688 16.7335 14.7295 18.1072 14.3933V11.0597H3.89295V14.4223C5.26652 14.7586 6.28571 15.9978 6.28571 17.4751C6.28571 19.2108 4.8786 20.6179 3.14285 20.6179C1.4071 20.6179 0 19.2108 0 17.4751C0 15.9978 1.01928 14.7585 2.39295 14.4223V10.3379L2.39308 10.3238L2.39295 10.3097C2.39295 9.89546 2.72873 9.55968 3.14295 9.55968H10.2501V6.19574C8.87627 5.85955 7.85686 4.62025 7.85686 3.14285C7.85686 1.4071 9.26397 0 10.9997 0C12.7355 0 14.1426 1.4071 14.1426 3.14285ZM18.8571 19.0289C19.7313 19.0289 20.4399 18.3203 20.4399 17.4461C20.4399 16.5719 19.7313 15.8632 18.8571 15.8632C17.9829 15.8632 17.2742 16.5719 17.2742 17.4461C17.2742 18.3203 17.9829 19.0289 18.8571 19.0289ZM3.14285 19.0579C4.01704 19.0579 4.72571 18.3493 4.72571 17.4751C4.72571 16.6009 4.01704 15.8922 3.14285 15.8922C2.26867 15.8922 1.56 16.6009 1.56 17.4751C1.56 18.3493 2.26867 19.0579 3.14285 19.0579Z" fill="white"/>
</svg>
