<svg width="1745" height="377" viewBox="0 0 1745 377" fill="none" xmlns="http://www.w3.org/2000/svg">
<g clip-path="url(#clip0_7380_345)">
<path fill-rule="evenodd" clip-rule="evenodd" d="M159.988 74.3833H74.3114C55.7764 74.3833 34.4549 77.4471 20.1489 90.3388C9.21127 100.195 4.73681 112.97 4.73681 127.555C4.73681 144.218 10.6197 158.448 21.9225 170.647C23.4104 172.253 25.1764 173.8 26.8182 175.249C29.832 177.91 32.92 180.499 36.0164 183.063C46.21 191.504 56.6158 199.732 67.03 207.899C71.3014 211.249 75.5698 214.612 79.7799 218.038C81.786 219.67 84.1043 221.472 85.9294 223.299C90.4667 227.838 93.7639 233.391 93.7639 239.972C93.7639 253.102 81.8444 256.272 70.8393 256.272H0.000976562V302.617H85.0445C99.9808 302.617 116.055 300.938 129.993 295.261C151.799 286.381 162.512 270.478 162.512 246.919C162.512 229.757 156.403 215.093 144.703 202.574C140.638 198.223 135.279 194.027 130.592 190.36C122.076 183.698 113.26 177.338 104.441 171.084C99.5793 167.637 94.7276 164.153 89.9773 160.554C87.3181 158.539 84.4324 156.37 82.0095 154.075C77.1146 149.436 73.4856 143.641 73.4856 136.712C73.4856 123.899 84.993 120.729 95.7799 120.729H159.988V74.3841V74.3833ZM196.998 74.3833V302.617H257.539V74.3833H196.998ZM448.722 263.776C455.249 228.405 468.051 192.306 493.26 165.878L498.493 160.392V302.617H559.033V74.3841H496.63C473.411 95.7176 441.604 143.781 433.996 173.773L433.416 176.063H427.532L426.883 173.899C417.33 142.052 388.676 97.1635 363.897 74.3841H301.497V302.617H362.036V160.642L367.22 165.827C392.844 191.457 405.376 228.768 411.809 263.776H448.722ZM602.99 74.3833V302.617H663.53V241.172L667.275 242.071C676.493 244.284 685.828 246.273 695.201 247.706C702.066 248.756 709.179 249.567 716.132 249.567C740.888 249.567 764.116 243.235 782.581 226.213C800.865 209.357 807.805 187.114 807.805 162.606C807.805 136.636 800.242 113.277 779.862 96.4224C759.805 79.8357 734.372 74.3833 708.87 74.3833H602.989H602.99ZM663.53 193.872V120.728H696.558C724.816 120.728 745.37 131.73 745.37 162.29C745.37 188.731 728.736 203.221 702.871 203.221C689.851 203.221 677.832 198.471 665.637 194.55L663.53 193.872V193.872ZM841.659 74.3833V302.617H993.121V256.271H902.199V74.3833H841.659ZM1155.39 158.695H1074.26V120.728H1160.13V74.3833H1013.72V302.617H1166.13V256.271H1074.26V205.042H1155.39V158.695Z" fill="#FEFEFE"/>
<path fill-rule="evenodd" clip-rule="evenodd" d="M1532.46 188.499C1532.46 113.023 1580.04 51.8363 1638.73 51.8363C1697.42 51.8363 1745 113.023 1745 188.499C1745 263.976 1697.42 325.163 1638.73 325.163C1580.04 325.163 1532.46 263.976 1532.46 188.499ZM1593.19 188.499C1593.19 163.34 1613.58 142.945 1638.73 142.945C1663.88 142.945 1684.27 163.34 1684.27 188.499C1684.27 213.66 1663.88 234.054 1638.73 234.054C1613.58 234.054 1593.19 213.659 1593.19 188.499Z" fill="#FF6A00"/>
<path d="M1455.16 266.62C1430.66 261.682 1380.87 280.426 1350.8 280.846C1329.33 280.846 1318.75 260.838 1325.54 241.346C1337.97 244.242 1351.14 245.798 1364.78 245.798C1426.51 245.798 1502.5 209.241 1502.35 139.505C1502.26 100.085 1475.32 65.9738 1434.45 47.6237C1440.53 34.5236 1466.66 25.7339 1479.1 26.9486C1443.49 -11.6522 1380.78 -8.32391 1349.46 33.9628C1281.67 40.2162 1229.09 85.0802 1229.09 139.505C1229.09 173.292 1247.22 198.745 1272.28 216.577C1245.3 230.378 1226.83 258.452 1226.83 290.845C1226.83 336.889 1264.15 374.216 1310.18 374.216C1338.62 374.216 1374.43 364.033 1401.74 355.987C1411.33 353.168 1430.69 352.389 1430.69 366.538C1430.69 369.566 1429.62 372.046 1427.84 374.044C1463.5 386.125 1501.25 359.692 1501.25 321.392C1501.25 293.927 1481.33 271.118 1455.16 266.619L1455.16 266.62ZM1319.78 109.135C1322.89 109.135 1325.89 109.604 1328.72 110.474C1323.45 112.855 1319.78 118.16 1319.78 124.32C1319.78 132.706 1326.58 139.505 1334.96 139.505C1341.12 139.505 1346.42 135.835 1348.8 130.563C1349.67 133.391 1350.14 136.393 1350.14 139.505C1350.14 156.277 1336.55 169.874 1319.78 169.874C1303.01 169.874 1289.42 156.277 1289.42 139.505C1289.42 122.732 1303.01 109.135 1319.78 109.135ZM1411.03 109.135C1414.14 109.135 1417.14 109.604 1419.97 110.474C1414.7 112.855 1411.03 118.16 1411.03 124.32C1411.03 132.706 1417.83 139.505 1426.21 139.505C1432.37 139.505 1437.67 135.835 1440.05 130.563C1440.92 133.391 1441.39 136.393 1441.39 139.505C1441.39 156.277 1427.8 169.874 1411.03 169.874C1394.26 169.874 1380.67 156.277 1380.67 139.505C1380.67 122.732 1394.26 109.135 1411.03 109.135Z" fill="#FF6A00"/>
</g>
<defs>
<clipPath id="clip0_7380_345">
<rect width="1745" height="377" fill="white"/>
</clipPath>
</defs>
</svg>
