<svg width="24" height="24" viewBox="0 0 24 24" fill="none" xmlns="http://www.w3.org/2000/svg">
<path d="M20.35 8.92256L19.984 8.71856L19.871 8.65456C19.5983 8.49094 19.3687 8.26469 19.201 7.99456C19.183 7.96756 19.167 7.93856 19.135 7.88256C18.9194 7.53649 18.8147 7.13279 18.835 6.72556L18.841 6.30056C18.853 5.62056 18.859 5.27856 18.763 4.97256C18.678 4.7003 18.5358 4.44936 18.346 4.23656C18.132 3.99656 17.835 3.82456 17.24 3.48256L16.746 3.19756C16.154 2.85656 15.857 2.68556 15.542 2.62056C15.2637 2.56297 14.9763 2.56536 14.699 2.62756C14.386 2.69756 14.093 2.87356 13.508 3.22356L13.505 3.22556L13.151 3.43656C13.095 3.47056 13.066 3.48656 13.038 3.50256C12.76 3.65756 12.45 3.74256 12.131 3.75256C12.099 3.75456 12.066 3.75456 12.001 3.75456L11.871 3.75356C11.5519 3.7434 11.2398 3.65699 10.961 3.50156C10.933 3.48656 10.906 3.46956 10.85 3.43556L10.493 3.22156C9.90396 2.86756 9.60896 2.69156 9.29396 2.62056C9.01561 2.55826 8.72716 2.55621 8.44796 2.61456C8.13196 2.68056 7.83596 2.85256 7.24296 3.19656L7.23996 3.19756L6.75196 3.48056L6.74696 3.48456C6.15896 3.82456 5.86396 3.99656 5.65196 4.23556C5.46303 4.44796 5.32156 4.69818 5.23696 4.96956C5.14196 5.27656 5.14696 5.61856 5.15896 6.30256L5.16596 6.72656C5.16596 6.79156 5.16896 6.82356 5.16796 6.85456C5.16278 7.21788 5.05872 7.57293 4.86696 7.88156C4.83396 7.93756 4.81896 7.96556 4.80196 7.99156C4.63335 8.26373 4.40186 8.49145 4.12696 8.65556L4.01496 8.71856L3.65396 8.91856C3.05196 9.25156 2.75096 9.41856 2.53296 9.65656C2.33914 9.86639 2.19252 10.1153 2.10296 10.3866C2.00296 10.6936 2.00296 11.0366 2.00396 11.7246L2.00596 12.2876C2.00696 12.9706 2.00896 13.3116 2.10996 13.6166C2.19914 13.8861 2.3447 14.1336 2.53696 14.3426C2.75496 14.5786 3.05296 14.7446 3.64996 15.0766L4.00796 15.2756C4.06896 15.3096 4.09996 15.3256 4.12896 15.3436C4.44233 15.5314 4.69826 15.8015 4.86896 16.1246L4.93596 16.2446C5.10487 16.5635 5.18434 16.9221 5.16596 17.2826L5.15896 17.6896C5.14696 18.3756 5.14196 18.7196 5.23796 19.0266C5.32296 19.2986 5.46496 19.5496 5.65496 19.7626C5.86896 20.0026 6.16696 20.1736 6.76096 20.5166L7.25496 20.8016C7.84796 21.1426 8.14396 21.3136 8.45896 21.3786C8.73726 21.4361 9.02465 21.4338 9.30196 21.3716C9.61596 21.3016 9.90896 21.1256 10.496 20.7736L10.85 20.5616L10.963 20.4956C11.241 20.3416 11.551 20.2556 11.87 20.2456L12 20.2446H12.13C12.448 20.2546 12.76 20.3416 13.04 20.4966L13.132 20.5516L13.508 20.7776C14.098 21.1316 14.392 21.3076 14.707 21.3776C14.9852 21.4405 15.2736 21.4433 15.553 21.3856C15.868 21.3196 16.166 21.1466 16.759 20.8026L17.254 20.5156C17.842 20.1736 18.137 20.0026 18.349 19.7636C18.539 19.5506 18.679 19.3006 18.764 19.0296C18.859 18.7246 18.854 18.3856 18.842 17.7116L18.834 17.2716V17.1446C18.8387 16.781 18.9424 16.4256 19.134 16.1166L19.199 16.0066C19.3676 15.7344 19.5991 15.5067 19.874 15.3426L19.984 15.2816L19.986 15.2806L20.347 15.0806C20.949 14.7466 21.25 14.5806 21.469 14.3426C21.663 14.1326 21.809 13.8826 21.898 13.6126C21.998 13.3076 21.998 12.9656 21.996 12.2856L21.994 11.7116C21.993 11.0286 21.992 10.6866 21.891 10.3816C21.8013 10.1123 21.6554 9.86512 21.463 9.65656C21.246 9.42056 20.948 9.25456 20.352 8.92356L20.35 8.92256Z" stroke="#FF6A00" stroke-width="2" stroke-linecap="round" stroke-linejoin="round"/>
<path d="M8 12C8 13.0609 8.42143 14.0783 9.17157 14.8284C9.92172 15.5786 10.9391 16 12 16C13.0609 16 14.0783 15.5786 14.8284 14.8284C15.5786 14.0783 16 13.0609 16 12C16 10.9391 15.5786 9.92172 14.8284 9.17157C14.0783 8.42143 13.0609 8 12 8C10.9391 8 9.92172 8.42143 9.17157 9.17157C8.42143 9.92172 8 10.9391 8 12Z" stroke="#FF6A00" stroke-width="2" stroke-linecap="round" stroke-linejoin="round"/>
</svg>
