<svg width="22" height="22" viewBox="0 0 22 22" fill="none" xmlns="http://www.w3.org/2000/svg">
<path d="M10.7578 13.4866C11.6215 12.7606 12.241 11.7865 12.5324 10.6965C12.8237 9.60644 12.7727 8.45316 12.3864 7.39306C12 6.33296 11.297 5.41734 10.3726 4.77036C9.44819 4.12339 8.34718 3.77637 7.21887 3.77637C6.09056 3.77637 4.98955 4.12339 4.06515 4.77036C3.14076 5.41734 2.43771 6.33296 2.05136 7.39306C1.665 8.45316 1.61404 9.60644 1.90537 10.6965C2.19671 11.7865 2.81624 12.7606 3.67996 13.4866C2.33124 14.0965 1.16244 15.0436 0.286291 16.2366C0.124467 16.4571 0.0568701 16.7329 0.0983698 17.0032C0.13987 17.2736 0.287067 17.5164 0.50758 17.6782C0.728093 17.84 1.00386 17.9076 1.27421 17.8661C1.54456 17.8246 1.78736 17.6774 1.94918 17.4569C2.55568 16.6286 3.3489 15.9549 4.26449 15.4905C5.18008 15.0261 6.19224 14.7841 7.21887 14.7841C8.24549 14.7841 9.25766 15.0261 10.1733 15.4905C11.0888 15.9549 11.8821 16.6286 12.4886 17.4569C12.6504 17.6775 12.8932 17.8249 13.1637 17.8664C13.4341 17.908 13.71 17.8405 13.9306 17.6786C14.1512 17.5168 14.2985 17.274 14.3401 17.0035C14.3817 16.7331 14.3141 16.4572 14.1523 16.2366C13.2756 15.0437 12.1066 14.0967 10.7578 13.4866ZM3.78137 9.28083C3.78137 8.60096 3.98297 7.93635 4.36069 7.37106C4.73841 6.80576 5.27527 6.36517 5.9034 6.10499C6.53152 5.84482 7.22268 5.77674 7.88949 5.90938C8.5563 6.04202 9.16881 6.36941 9.64955 6.85015C10.1303 7.33089 10.4577 7.9434 10.5903 8.61021C10.723 9.27702 10.6549 9.96818 10.3947 10.5963C10.1345 11.2244 9.69394 11.7613 9.12864 12.139C8.56335 12.5167 7.89874 12.7183 7.21887 12.7183C6.30719 12.7183 5.43285 12.3562 4.78819 11.7115C4.14353 11.0669 3.78137 10.1925 3.78137 9.28083ZM21.4931 17.6743C21.3839 17.7546 21.26 17.8125 21.1284 17.8448C20.9969 17.8771 20.8602 17.8832 20.7263 17.8627C20.5924 17.8422 20.4638 17.7955 20.348 17.7253C20.2321 17.6551 20.1312 17.5627 20.0511 17.4535C19.4431 16.6267 18.6495 15.9542 17.7343 15.49C16.819 15.0258 15.8076 14.7829 14.7814 14.7808C14.5079 14.7808 14.2456 14.6722 14.0522 14.4788C13.8588 14.2854 13.7501 14.0231 13.7501 13.7496C13.7501 13.4761 13.8588 13.2138 14.0522 13.0204C14.2456 12.827 14.5079 12.7183 14.7814 12.7183C15.27 12.7175 15.7527 12.6124 16.1975 12.4103C16.6424 12.2081 17.0389 11.9135 17.3609 11.546C17.6829 11.1784 17.9228 10.7465 18.0646 10.279C18.2065 9.81145 18.2471 9.31904 18.1837 8.83458C18.1202 8.35013 17.9543 7.88476 17.6968 7.46951C17.4393 7.05425 17.0963 6.69865 16.6906 6.42641C16.2849 6.15417 15.8258 5.97154 15.344 5.89071C14.8621 5.80987 14.3686 5.83269 13.8962 5.95763C13.7643 5.99579 13.6261 6.00722 13.4897 5.99125C13.3533 5.97528 13.2214 5.93222 13.1019 5.86461C12.9824 5.79699 12.8775 5.70618 12.7936 5.59751C12.7096 5.48883 12.6482 5.36448 12.6129 5.23175C12.5777 5.09902 12.5693 4.96058 12.5882 4.82457C12.6072 4.68855 12.6532 4.55769 12.7234 4.43967C12.7936 4.32165 12.8867 4.21885 12.9972 4.13729C13.1077 4.05573 13.2334 3.99707 13.3668 3.96473C14.5747 3.6447 15.8554 3.74547 16.9984 4.25045C18.1413 4.75543 19.0782 5.63452 19.6548 6.743C20.2315 7.85147 20.4135 9.12326 20.1709 10.349C19.9283 11.5747 19.2756 12.6813 18.3203 13.4866C19.669 14.0965 20.8378 15.0436 21.7139 16.2366C21.8746 16.4568 21.9416 16.7316 21.9002 17.001C21.8588 17.2705 21.7124 17.5125 21.4931 17.6743Z" fill="#FF6A00"/>
</svg>
