<svg width="14" height="14" viewBox="0 0 14 14" fill="none" xmlns="http://www.w3.org/2000/svg">
<path d="M10.5355 2.45565C8.58288 0.514783 5.41712 0.514783 3.46454 2.45565C3.00095 2.91332 2.63257 3.46002 2.38107 4.06361C2.12956 4.66721 2 5.31552 2 5.97043C2 6.62535 2.12956 7.27366 2.38107 7.87725C2.63257 8.48085 3.00095 9.02755 3.46454 9.48522L6.99969 13L10.5355 9.48522C10.9991 9.02755 11.3674 8.48085 11.6189 7.87725C11.8704 7.27366 12 6.62535 12 5.97043C12 5.31552 11.8704 4.66721 11.6189 4.06361C11.3674 3.46002 10.9991 2.91332 10.5355 2.45565ZM6.99969 7.63151C6.58217 7.63151 6.19028 7.4673 5.89464 7.16919C5.60197 6.87281 5.43761 6.47123 5.43761 6.05254C5.43761 5.63385 5.60197 5.23227 5.89464 4.93589C6.18965 4.63778 6.58217 4.47357 6.99969 4.47357C7.41721 4.47357 7.80972 4.63778 8.10473 4.93589C8.3974 5.23227 8.56177 5.63385 8.56177 6.05254C8.56177 6.47123 8.3974 6.87281 8.10473 7.16919C7.80972 7.4673 7.41721 7.63151 6.99969 7.63151Z" fill="#1D3557"/>
</svg>
