<svg width="16" height="16" viewBox="0 0 16 16" fill="none" xmlns="http://www.w3.org/2000/svg">
<g clip-path="url(#clip0_19659_237855)">
<path d="M11.2578 12.0185L4.59018 12.0176C4.40627 12.0176 4.25684 12.1667 4.25684 12.3509C4.25684 12.5348 4.40593 12.6843 4.59018 12.6843L11.2578 12.6852C11.4417 12.6852 11.5912 12.5361 11.5912 12.3519C11.5911 12.168 11.4421 12.0185 11.2578 12.0185Z" fill="black"/>
<path d="M9.92317 13.3518H5.92319C5.73894 13.3518 5.58984 13.5009 5.58984 13.6851C5.58984 13.8694 5.73894 14.0185 5.92319 14.0185H9.92317C10.1074 14.0185 10.2565 13.8694 10.2565 13.6851C10.2565 13.5009 10.1074 13.3518 9.92317 13.3518Z" fill="black"/>
<path d="M7.99965 4C5.97785 4 4.33301 5.64484 4.33301 7.66664C4.33301 9.68845 5.97785 11.3333 7.99965 11.3333C10.0215 11.3333 11.6663 9.68845 11.6663 7.66664C11.6663 5.64484 10.0215 4 7.99965 4ZM5.03335 7.99998H6.33981C6.37672 8.90798 6.56425 9.81098 6.88978 10.4482C5.8845 10.0456 5.15872 9.11445 5.03335 7.99998ZM6.33984 7.33333H5.03338C5.15875 6.21887 5.88453 5.28778 6.88981 4.88515C6.56428 5.52234 6.37675 6.42533 6.33984 7.33333ZM7.99965 10.6667C7.61775 10.6667 7.08062 9.63395 7.013 8.00002H8.9863C8.91868 9.63395 8.38156 10.6667 7.99965 10.6667ZM7.013 7.33333C7.08062 5.6994 7.61775 4.66668 7.99965 4.66668C8.38156 4.66668 8.91868 5.6994 8.9863 7.33333H7.013ZM9.10952 10.4482C9.43505 9.81098 9.62258 8.90801 9.65949 8.00002H10.966C10.8406 9.11445 10.1148 10.0456 9.10952 10.4482ZM9.65949 7.33333C9.62258 6.42533 9.43505 5.52234 9.10952 4.88515C10.1148 5.28778 10.8406 6.2189 10.966 7.33333H9.65949Z" fill="black"/>
<path d="M12.6666 2.00006H12V1.31125C12 0.582941 11.3837 -0.00727593 10.6666 6.7795e-05C10.5642 0.00113029 10.4745 0.0153177 10.3688 0.0420676L3.26193 2.00728C2.56031 2.04528 2 2.62253 2 3.3334V14.6667C2 15.402 2.59797 16 3.33334 16H12.6666C13.402 16 14 15.4021 14 14.6667V3.3334C14 2.59806 13.402 2.00006 12.6666 2.00006ZM10.54 0.686253C10.929 0.586972 11.3333 0.902064 11.3333 1.31125V2.00006H5.7893L10.54 0.686253ZM13.3333 14.6667C13.3333 15.0342 13.0341 15.3334 12.6666 15.3334H3.33334C2.96584 15.3334 2.66668 15.0342 2.66668 14.6667V3.3334C2.66668 2.9659 2.96584 2.66674 3.33334 2.66674H12.6666C13.0341 2.66674 13.3333 2.9659 13.3333 3.3334V14.6667Z" fill="black"/>
</g>
<defs>
<clipPath id="clip0_19659_237855">
<rect width="16" height="16" fill="white"/>
</clipPath>
</defs>
</svg>
