<svg width="16" height="16" viewBox="0 0 16 16" fill="none" xmlns="http://www.w3.org/2000/svg">
<g clip-path="url(#clip0_19659_236613)">
<path d="M14.6663 8.00016H13.013C12.7217 7.99954 12.4381 8.09437 12.2058 8.27014C11.9734 8.44592 11.805 8.69296 11.7263 8.9735L10.1597 14.5468C10.1496 14.5814 10.1285 14.6119 10.0997 14.6335C10.0708 14.6551 10.0357 14.6668 9.99967 14.6668C9.96361 14.6668 9.92852 14.6551 9.89967 14.6335C9.87082 14.6119 9.84977 14.5814 9.83967 14.5468L6.15967 1.4535C6.14958 1.41888 6.12852 1.38847 6.09967 1.36683C6.07082 1.34519 6.03574 1.3335 5.99967 1.3335C5.96361 1.3335 5.92852 1.34519 5.89967 1.36683C5.87083 1.38847 5.84977 1.41888 5.83967 1.4535L4.27301 7.02683C4.19465 7.30627 4.02726 7.55251 3.79625 7.72817C3.56524 7.90384 3.28322 7.99933 2.99301 8.00016H1.33301" stroke="white" stroke-width="1.33333" stroke-linecap="round" stroke-linejoin="round"/>
</g>
<defs>
<clipPath id="clip0_19659_236613">
<rect width="16" height="16" fill="white"/>
</clipPath>
</defs>
</svg>
