<svg width="12" height="12" viewBox="0 0 12 12" fill="none" xmlns="http://www.w3.org/2000/svg">
<path d="M5.60397 8.82143C3.79326 8.82143 2.35397 7.38214 2.35397 5.57143C2.35397 3.76071 3.79326 2.32143 5.60397 2.32143C7.41469 2.32143 8.85397 3.76071 8.85397 5.57143C8.85397 7.38214 7.41469 8.82143 5.60397 8.82143ZM5.60397 3.25C4.30397 3.25 3.28254 4.27143 3.28254 5.57143C3.28254 6.87143 4.30397 7.89286 5.60397 7.89286C6.90397 7.89286 7.9254 6.87143 7.9254 5.57143C7.9254 4.27143 6.90397 3.25 5.60397 3.25ZM5.69683 11.1429C3.7004 11.1429 1.65754 10.075 0.7754 8.35714C0.636114 8.125 0.728971 7.84643 0.961114 7.70714C1.19326 7.56786 1.47183 7.66071 1.61111 7.89286C2.21469 9.05357 3.3754 9.84286 4.76826 10.1214C6.16111 10.4 7.50754 10.075 8.52897 9.19286C8.71469 9.00714 9.03969 9.05357 9.17897 9.23929C9.36469 9.425 9.31826 9.75 9.13254 9.88929C8.15754 10.725 6.9504 11.1429 5.69683 11.1429ZM10.0147 8.58929C9.64326 8.58929 9.41111 8.17143 9.59683 7.89286C10.2933 6.77857 10.3861 5.38571 9.92183 4.03929C9.45754 2.69286 8.48254 1.71786 7.2754 1.25357C7.04326 1.16071 6.90397 0.882143 6.99683 0.65C7.08969 0.417857 7.36826 0.278571 7.6004 0.371429C9.08611 0.882143 10.2468 2.13571 10.804 3.71429C11.3611 5.29286 11.2218 7.01071 10.3861 8.35714C10.3397 8.49643 10.2004 8.58929 10.0147 8.58929ZM0.543257 6.825C0.311114 6.825 0.1254 6.68571 0.0789713 6.45357C-0.1996 4.875 0.264686 3.25 1.37897 1.95C2.49326 0.696428 4.0254 0 5.60397 0C5.88254 0 6.06826 0.232143 6.06826 0.464286C6.06826 0.742857 5.78969 0.975 5.51111 0.928571C4.21111 0.928571 2.95754 1.53214 2.0754 2.55357C1.19326 3.62143 0.7754 4.96786 1.00754 6.26786C1.05397 6.54643 0.868257 6.825 0.543257 6.825Z" fill="#212529"/>
</svg>
