<svg width="25" height="25" viewBox="0 0 25 25" fill="none" xmlns="http://www.w3.org/2000/svg">
<path d="M12.5 2.34375C10.4913 2.34375 8.52768 2.9394 6.85749 4.05539C5.18731 5.17137 3.88556 6.75756 3.11685 8.61337C2.34815 10.4692 2.14702 12.5113 2.5389 14.4814C2.93079 16.4515 3.89807 18.2612 5.31845 19.6816C6.73883 21.1019 8.5485 22.0692 10.5186 22.4611C12.4887 22.853 14.5308 22.6519 16.3866 21.8832C18.2424 21.1144 19.8286 19.8127 20.9446 18.1425C22.0606 16.4723 22.6563 14.5087 22.6563 12.5C22.6534 9.80727 21.5825 7.22564 19.6784 5.32159C17.7744 3.41754 15.1927 2.34659 12.5 2.34375ZM16.1777 15.0723C16.2503 15.1448 16.3079 15.231 16.3472 15.3259C16.3865 15.4207 16.4067 15.5223 16.4067 15.625C16.4067 15.7277 16.3865 15.8293 16.3472 15.9241C16.3079 16.019 16.2503 16.1051 16.1777 16.1777C16.1052 16.2503 16.019 16.3079 15.9241 16.3472C15.8293 16.3865 15.7277 16.4067 15.625 16.4067C15.5224 16.4067 15.4207 16.3865 15.3259 16.3472C15.231 16.3079 15.1449 16.2503 15.0723 16.1777L12.5 13.6045L9.92774 16.1777C9.85515 16.2503 9.76898 16.3079 9.67414 16.3472C9.5793 16.3865 9.47766 16.4067 9.375 16.4067C9.27235 16.4067 9.1707 16.3865 9.07587 16.3472C8.98103 16.3079 8.89486 16.2503 8.82227 16.1777C8.74968 16.1051 8.69211 16.019 8.65282 15.9241C8.61354 15.8293 8.59332 15.7277 8.59332 15.625C8.59332 15.5223 8.61354 15.4207 8.65282 15.3259C8.69211 15.231 8.74968 15.1448 8.82227 15.0723L11.3955 12.5L8.82227 9.92773C8.67568 9.78114 8.59332 9.58231 8.59332 9.375C8.59332 9.16768 8.67568 8.96886 8.82227 8.82226C8.96886 8.67567 9.16769 8.59332 9.375 8.59332C9.58232 8.59332 9.78114 8.67567 9.92774 8.82226L12.5 11.3955L15.0723 8.82226C15.1449 8.74968 15.231 8.6921 15.3259 8.65282C15.4207 8.61353 15.5224 8.59332 15.625 8.59332C15.7277 8.59332 15.8293 8.61353 15.9241 8.65282C16.019 8.6921 16.1052 8.74968 16.1777 8.82226C16.2503 8.89485 16.3079 8.98102 16.3472 9.07586C16.3865 9.1707 16.4067 9.27235 16.4067 9.375C16.4067 9.47765 16.3865 9.5793 16.3472 9.67414C16.3079 9.76898 16.2503 9.85515 16.1777 9.92773L13.6045 12.5L16.1777 15.0723Z" fill="#D4D8DD"/>
</svg>
