<svg width="13" height="15" viewBox="0 0 13 15" fill="none" xmlns="http://www.w3.org/2000/svg">
<path d="M8.1102 14.5761C7.96559 14.576 7.82377 14.5363 7.70012 14.4613L5.0607 12.878C4.76373 12.6989 4.51791 12.4463 4.34694 12.1445C4.17597 11.8428 4.08561 11.5021 4.08458 11.1553V7.57301C4.08509 7.32018 4.00647 7.07353 3.85975 6.86763L0.174537 1.68855C0.0884856 1.56899 0.037135 1.42798 0.0261517 1.28108C0.0151684 1.13418 0.0449792 0.987105 0.112295 0.856077C0.17961 0.725049 0.281814 0.615163 0.407629 0.538545C0.533444 0.461927 0.677979 0.421554 0.825287 0.421882H12.1699C12.3173 0.421268 12.462 0.461464 12.588 0.538021C12.714 0.614578 12.8163 0.724509 12.8837 0.855642C12.9511 0.986775 12.9808 1.13399 12.9697 1.281C12.9586 1.428 12.907 1.56906 12.8206 1.68855L9.13541 6.86763C8.98841 7.07343 8.90951 7.32009 8.90979 7.57301V13.7749C8.90958 13.9871 8.82532 14.1905 8.67546 14.3406C8.5256 14.4908 8.32235 14.5755 8.1102 14.5761ZM0.825287 1.21751L4.50416 6.40846C4.74798 6.74765 4.87822 7.15529 4.87625 7.57301V11.1545C4.87654 11.3646 4.93114 11.5711 5.03476 11.754C5.13837 11.9368 5.28748 12.0897 5.46762 12.1979L8.10704 13.7813L8.11812 7.57222C8.11638 7.15441 8.2469 6.74677 8.491 6.40767L12.1754 1.22859L0.825287 1.21751Z" fill="#212529"/>
<path d="M8.1102 14.5761C7.96559 14.576 7.82377 14.5363 7.70012 14.4613L5.0607 12.878C4.76373 12.6989 4.51791 12.4463 4.34694 12.1445C4.17597 11.8428 4.08561 11.5021 4.08458 11.1553V7.57301C4.08509 7.32018 4.00647 7.07353 3.85975 6.86763L0.174537 1.68855C0.0884856 1.56899 0.037135 1.42798 0.0261517 1.28108C0.0151684 1.13418 0.0449792 0.987105 0.112295 0.856077C0.17961 0.725049 0.281814 0.615163 0.407629 0.538545C0.533444 0.461927 0.677979 0.421554 0.825287 0.421882H12.1699C12.3173 0.421268 12.462 0.461464 12.588 0.538021C12.714 0.614578 12.8163 0.724509 12.8837 0.855642C12.9511 0.986775 12.9808 1.13399 12.9697 1.281C12.9586 1.428 12.907 1.56906 12.8206 1.68855L9.13541 6.86763C8.98841 7.07343 8.90951 7.32009 8.90979 7.57301V13.7749C8.90958 13.9871 8.82532 14.1905 8.67546 14.3406C8.5256 14.4908 8.32235 14.5755 8.1102 14.5761ZM0.825287 1.21751L4.50416 6.40846C4.74798 6.74765 4.87822 7.15529 4.87625 7.57301V11.1545C4.87654 11.3646 4.93114 11.5711 5.03476 11.754C5.13837 11.9368 5.28748 12.0897 5.46762 12.1979L8.10704 13.7813L8.11812 7.57222C8.11638 7.15441 8.2469 6.74677 8.491 6.40767L12.1754 1.22859L0.825287 1.21751Z" fill="black" fill-opacity="0.2"/>
<path d="M8.1102 14.5761C7.96559 14.576 7.82377 14.5363 7.70012 14.4613L5.0607 12.878C4.76373 12.6989 4.51791 12.4463 4.34694 12.1445C4.17597 11.8428 4.08561 11.5021 4.08458 11.1553V7.57301C4.08509 7.32018 4.00647 7.07353 3.85975 6.86763L0.174537 1.68855C0.0884856 1.56899 0.037135 1.42798 0.0261517 1.28108C0.0151684 1.13418 0.0449792 0.987105 0.112295 0.856077C0.17961 0.725049 0.281814 0.615163 0.407629 0.538545C0.533444 0.461927 0.677979 0.421554 0.825287 0.421882H12.1699C12.3173 0.421268 12.462 0.461464 12.588 0.538021C12.714 0.614578 12.8163 0.724509 12.8837 0.855642C12.9511 0.986775 12.9808 1.13399 12.9697 1.281C12.9586 1.428 12.907 1.56906 12.8206 1.68855L9.13541 6.86763C8.98841 7.07343 8.90951 7.32009 8.90979 7.57301V13.7749C8.90958 13.9871 8.82532 14.1905 8.67546 14.3406C8.5256 14.4908 8.32235 14.5755 8.1102 14.5761ZM0.825287 1.21751L4.50416 6.40846C4.74798 6.74765 4.87822 7.15529 4.87625 7.57301V11.1545C4.87654 11.3646 4.93114 11.5711 5.03476 11.754C5.13837 11.9368 5.28748 12.0897 5.46762 12.1979L8.10704 13.7813L8.11812 7.57222C8.11638 7.15441 8.2469 6.74677 8.491 6.40767L12.1754 1.22859L0.825287 1.21751Z" fill="black" fill-opacity="0.2"/>
<path d="M8.1102 14.5761C7.96559 14.576 7.82377 14.5363 7.70012 14.4613L5.0607 12.878C4.76373 12.6989 4.51791 12.4463 4.34694 12.1445C4.17597 11.8428 4.08561 11.5021 4.08458 11.1553V7.57301C4.08509 7.32018 4.00647 7.07353 3.85975 6.86763L0.174537 1.68855C0.0884856 1.56899 0.037135 1.42798 0.0261517 1.28108C0.0151684 1.13418 0.0449792 0.987105 0.112295 0.856077C0.17961 0.725049 0.281814 0.615163 0.407629 0.538545C0.533444 0.461927 0.677979 0.421554 0.825287 0.421882H12.1699C12.3173 0.421268 12.462 0.461464 12.588 0.538021C12.714 0.614578 12.8163 0.724509 12.8837 0.855642C12.9511 0.986775 12.9808 1.13399 12.9697 1.281C12.9586 1.428 12.907 1.56906 12.8206 1.68855L9.13541 6.86763C8.98841 7.07343 8.90951 7.32009 8.90979 7.57301V13.7749C8.90958 13.9871 8.82532 14.1905 8.67546 14.3406C8.5256 14.4908 8.32235 14.5755 8.1102 14.5761ZM0.825287 1.21751L4.50416 6.40846C4.74798 6.74765 4.87822 7.15529 4.87625 7.57301V11.1545C4.87654 11.3646 4.93114 11.5711 5.03476 11.754C5.13837 11.9368 5.28748 12.0897 5.46762 12.1979L8.10704 13.7813L8.11812 7.57222C8.11638 7.15441 8.2469 6.74677 8.491 6.40767L12.1754 1.22859L0.825287 1.21751Z" fill="black" fill-opacity="0.2"/>
<path d="M8.1102 14.5761C7.96559 14.576 7.82377 14.5363 7.70012 14.4613L5.0607 12.878C4.76373 12.6989 4.51791 12.4463 4.34694 12.1445C4.17597 11.8428 4.08561 11.5021 4.08458 11.1553V7.57301C4.08509 7.32018 4.00647 7.07353 3.85975 6.86763L0.174537 1.68855C0.0884856 1.56899 0.037135 1.42798 0.0261517 1.28108C0.0151684 1.13418 0.0449792 0.987105 0.112295 0.856077C0.17961 0.725049 0.281814 0.615163 0.407629 0.538545C0.533444 0.461927 0.677979 0.421554 0.825287 0.421882H12.1699C12.3173 0.421268 12.462 0.461464 12.588 0.538021C12.714 0.614578 12.8163 0.724509 12.8837 0.855642C12.9511 0.986775 12.9808 1.13399 12.9697 1.281C12.9586 1.428 12.907 1.56906 12.8206 1.68855L9.13541 6.86763C8.98841 7.07343 8.90951 7.32009 8.90979 7.57301V13.7749C8.90958 13.9871 8.82532 14.1905 8.67546 14.3406C8.5256 14.4908 8.32235 14.5755 8.1102 14.5761ZM0.825287 1.21751L4.50416 6.40846C4.74798 6.74765 4.87822 7.15529 4.87625 7.57301V11.1545C4.87654 11.3646 4.93114 11.5711 5.03476 11.754C5.13837 11.9368 5.28748 12.0897 5.46762 12.1979L8.10704 13.7813L8.11812 7.57222C8.11638 7.15441 8.2469 6.74677 8.491 6.40767L12.1754 1.22859L0.825287 1.21751Z" fill="black" fill-opacity="0.2"/>
<path d="M8.1102 14.5761C7.96559 14.576 7.82377 14.5363 7.70012 14.4613L5.0607 12.878C4.76373 12.6989 4.51791 12.4463 4.34694 12.1445C4.17597 11.8428 4.08561 11.5021 4.08458 11.1553V7.57301C4.08509 7.32018 4.00647 7.07353 3.85975 6.86763L0.174537 1.68855C0.0884856 1.56899 0.037135 1.42798 0.0261517 1.28108C0.0151684 1.13418 0.0449792 0.987105 0.112295 0.856077C0.17961 0.725049 0.281814 0.615163 0.407629 0.538545C0.533444 0.461927 0.677979 0.421554 0.825287 0.421882H12.1699C12.3173 0.421268 12.462 0.461464 12.588 0.538021C12.714 0.614578 12.8163 0.724509 12.8837 0.855642C12.9511 0.986775 12.9808 1.13399 12.9697 1.281C12.9586 1.428 12.907 1.56906 12.8206 1.68855L9.13541 6.86763C8.98841 7.07343 8.90951 7.32009 8.90979 7.57301V13.7749C8.90958 13.9871 8.82532 14.1905 8.67546 14.3406C8.5256 14.4908 8.32235 14.5755 8.1102 14.5761ZM0.825287 1.21751L4.50416 6.40846C4.74798 6.74765 4.87822 7.15529 4.87625 7.57301V11.1545C4.87654 11.3646 4.93114 11.5711 5.03476 11.754C5.13837 11.9368 5.28748 12.0897 5.46762 12.1979L8.10704 13.7813L8.11812 7.57222C8.11638 7.15441 8.2469 6.74677 8.491 6.40767L12.1754 1.22859L0.825287 1.21751Z" fill="black" fill-opacity="0.2"/>
</svg>
