<svg width="13" height="15" viewBox="0 0 13 15" fill="none" xmlns="http://www.w3.org/2000/svg">
<path d="M8.10972 14.5761C7.9651 14.576 7.82328 14.5363 7.69963 14.4613L5.06022 12.878C4.76324 12.6989 4.51742 12.4463 4.34645 12.1445C4.17548 11.8428 4.08512 11.5021 4.08409 11.1553V7.57301C4.0846 7.32018 4.00598 7.07353 3.85926 6.86763L0.174049 1.68855C0.0879973 1.56899 0.0366468 1.42798 0.0256634 1.28108C0.0146801 1.13418 0.0444909 0.987105 0.111807 0.856077C0.179122 0.725049 0.281326 0.615163 0.407141 0.538545C0.532956 0.461927 0.677491 0.421554 0.824799 0.421882H12.1694C12.3168 0.421268 12.4615 0.461464 12.5875 0.538021C12.7135 0.614578 12.8159 0.724509 12.8832 0.855642C12.9506 0.986775 12.9804 1.13399 12.9692 1.281C12.9581 1.428 12.9065 1.56906 12.8201 1.68855L9.13492 6.86763C8.98792 7.07343 8.90902 7.32009 8.9093 7.57301V13.7749C8.90909 13.9871 8.82483 14.1905 8.67497 14.3406C8.52511 14.4908 8.32186 14.5755 8.10972 14.5761ZM0.824799 1.21751L4.50367 6.40846C4.74749 6.74765 4.87773 7.15529 4.87576 7.57301V11.1545C4.87605 11.3646 4.93065 11.5711 5.03427 11.754C5.13788 11.9368 5.28699 12.0897 5.46713 12.1979L8.10655 13.7813L8.11763 7.57222C8.11589 7.15441 8.24641 6.74677 8.49051 6.40767L12.1749 1.22859L0.824799 1.21751Z" fill="#2D6CDF"/>
</svg>
