<svg width="27" height="27" viewBox="0 0 27 27" fill="none" xmlns="http://www.w3.org/2000/svg">
<path d="M13.5 2.53125C11.3306 2.53125 9.2099 3.17456 7.40609 4.37982C5.60229 5.58508 4.1964 7.29816 3.3662 9.30244C2.536 11.3067 2.31878 13.5122 2.74202 15.6399C3.16525 17.7676 4.20992 19.7221 5.74393 21.2561C7.27793 22.7901 9.23238 23.8348 11.3601 24.258C13.4878 24.6812 15.6933 24.464 17.6976 23.6338C19.7018 22.8036 21.4149 21.3977 22.6202 19.5939C23.8254 17.7901 24.4688 15.6694 24.4688 13.5C24.4657 10.5918 23.3091 7.80369 21.2527 5.74731C19.1963 3.69094 16.4082 2.53432 13.5 2.53125ZM17.472 16.278C17.5504 16.3564 17.6125 16.4495 17.655 16.5519C17.6974 16.6544 17.7192 16.7641 17.7192 16.875C17.7192 16.9859 17.6974 17.0956 17.655 17.1981C17.6125 17.3005 17.5504 17.3936 17.472 17.472C17.3936 17.5503 17.3005 17.6125 17.1981 17.655C17.0956 17.6974 16.9859 17.7192 16.875 17.7192C16.7641 17.7192 16.6544 17.6974 16.5519 17.655C16.4495 17.6125 16.3564 17.5503 16.2781 17.472L13.5 14.6929L10.722 17.472C10.6436 17.5503 10.5505 17.6125 10.4481 17.655C10.3456 17.6974 10.2359 17.7192 10.125 17.7192C10.0141 17.7192 9.90436 17.6974 9.80194 17.655C9.69951 17.6125 9.60644 17.5503 9.52805 17.472C9.44966 17.3936 9.38747 17.3005 9.34505 17.1981C9.30262 17.0956 9.28079 16.9859 9.28079 16.875C9.28079 16.7641 9.30262 16.6544 9.34505 16.5519C9.38747 16.4495 9.44966 16.3564 9.52805 16.278L12.3072 13.5L9.52805 10.722C9.36973 10.5636 9.28079 10.3489 9.28079 10.125C9.28079 9.9011 9.36973 9.68637 9.52805 9.52805C9.68637 9.36972 9.9011 9.28078 10.125 9.28078C10.3489 9.28078 10.5636 9.36972 10.722 9.52805L13.5 12.3071L16.2781 9.52805C16.3564 9.44965 16.4495 9.38747 16.5519 9.34504C16.6544 9.30262 16.7641 9.28078 16.875 9.28078C16.9859 9.28078 17.0956 9.30262 17.1981 9.34504C17.3005 9.38747 17.3936 9.44965 17.472 9.52805C17.5504 9.60644 17.6125 9.69951 17.655 9.80193C17.6974 9.90436 17.7192 10.0141 17.7192 10.125C17.7192 10.2359 17.6974 10.3456 17.655 10.4481C17.6125 10.5505 17.5504 10.6436 17.472 10.722L14.6929 13.5L17.472 16.278Z" fill="#D4D8DD"/>
</svg>
