
<svg width="25" height="25" viewBox="0 0 25 25" fill="none" xmlns="http://www.w3.org/2000/svg">
<path d="M10.875 13C11.1734 13 11.4595 13.1185 11.6705 13.3295C11.8815 13.5405 12 13.8266 12 14.125V16.875C12 17.1734 11.8815 17.4595 11.6705 17.6705C11.4595 17.8815 11.1734 18 10.875 18H8.125C7.82663 18 7.54048 17.8815 7.3295 17.6705C7.11853 17.4595 7 17.1734 7 16.875V14.125C7 13.8266 7.11853 13.5405 7.3295 13.3295C7.54048 13.1185 7.82663 13 8.125 13H10.875ZM16.875 13C17.1734 13 17.4595 13.1185 17.6705 13.3295C17.8815 13.5405 18 13.8266 18 14.125V16.875C18 17.1734 17.8815 17.4595 17.6705 17.6705C17.4595 17.8815 17.1734 18 16.875 18H14.125C13.8266 18 13.5405 17.8815 13.3295 17.6705C13.1185 17.4595 13 17.1734 13 16.875V14.125C13 13.8266 13.1185 13.5405 13.3295 13.3295C13.5405 13.1185 13.8266 13 14.125 13H16.875ZM10.875 13.75H8.125C8.02554 13.75 7.93016 13.7895 7.85983 13.8598C7.78951 13.9302 7.75 14.0255 7.75 14.125V16.875C7.75 17.082 7.918 17.25 8.125 17.25H10.875C10.9745 17.25 11.0698 17.2105 11.1402 17.1402C11.2105 17.0698 11.25 16.9745 11.25 16.875V14.125C11.25 14.0255 11.2105 13.9302 11.1402 13.8598C11.0698 13.7895 10.9745 13.75 10.875 13.75ZM16.875 13.75H14.125C14.0255 13.75 13.9302 13.7895 13.8598 13.8598C13.7895 13.9302 13.75 14.0255 13.75 14.125V16.875C13.75 17.082 13.918 17.25 14.125 17.25H16.875C16.9745 17.25 17.0698 17.2105 17.1402 17.1402C17.2105 17.0698 17.25 16.9745 17.25 16.875V14.125C17.25 14.0255 17.2105 13.9302 17.1402 13.8598C17.0698 13.7895 16.9745 13.75 16.875 13.75ZM10.875 7C11.1734 7 11.4595 7.11853 11.6705 7.3295C11.8815 7.54048 12 7.82663 12 8.125V10.875C12 11.1734 11.8815 11.4595 11.6705 11.6705C11.4595 11.8815 11.1734 12 10.875 12H8.125C7.82663 12 7.54048 11.8815 7.3295 11.6705C7.11853 11.4595 7 11.1734 7 10.875V8.125C7 7.82663 7.11853 7.54048 7.3295 7.3295C7.54048 7.11853 7.82663 7 8.125 7H10.875ZM16.875 7C17.1734 7 17.4595 7.11853 17.6705 7.3295C17.8815 7.54048 18 7.82663 18 8.125V10.875C18 11.1734 17.8815 11.4595 17.6705 11.6705C17.4595 11.8815 17.1734 12 16.875 12H14.125C13.8266 12 13.5405 11.8815 13.3295 11.6705C13.1185 11.4595 13 11.1734 13 10.875V8.125C13 7.82663 13.1185 7.54048 13.3295 7.3295C13.5405 7.11853 13.8266 7 14.125 7H16.875ZM10.875 7.75H8.125C8.02554 7.75 7.93016 7.78951 7.85983 7.85983C7.78951 7.93016 7.75 8.02554 7.75 8.125V10.875C7.75 11.082 7.918 11.25 8.125 11.25H10.875C10.9745 11.25 11.0698 11.2105 11.1402 11.1402C11.2105 11.0698 11.25 10.9745 11.25 10.875V8.125C11.25 8.02554 11.2105 7.93016 11.1402 7.85983C11.0698 7.78951 10.9745 7.75 10.875 7.75ZM16.875 7.75H14.125C14.0255 7.75 13.9302 7.78951 13.8598 7.85983C13.7895 7.93016 13.75 8.02554 13.75 8.125V10.875C13.75 11.082 13.918 11.25 14.125 11.25H16.875C16.9745 11.25 17.0698 11.2105 17.1402 11.1402C17.2105 11.0698 17.25 10.9745 17.25 10.875V8.125C17.25 8.02554 17.2105 7.93016 17.1402 7.85983C17.0698 7.78951 16.9745 7.75 16.875 7.75Z" fill="#6C757D"/>
</svg>
