<svg width="25" height="25" viewBox="0 0 25 25" fill="none" xmlns="http://www.w3.org/2000/svg">
<path d="M18 12.5C18 12.6621 17.9517 12.8175 17.8658 12.9321C17.7798 13.0467 17.6632 13.1111 17.5417 13.1111H7.45833C7.33678 13.1111 7.2202 13.0467 7.13424 12.9321C7.04829 12.8175 7 12.6621 7 12.5C7 12.3379 7.04829 12.1825 7.13424 12.0679C7.2202 11.9533 7.33678 11.8889 7.45833 11.8889H17.5417C17.6632 11.8889 17.7798 11.9533 17.8658 12.0679C17.9517 12.1825 18 12.3379 18 12.5ZM7.45833 8.22222H17.5417C17.6632 8.22222 17.7798 8.15784 17.8658 8.04323C17.9517 7.92863 18 7.77319 18 7.61111C18 7.44903 17.9517 7.2936 17.8658 7.17899C17.7798 7.06438 17.6632 7 17.5417 7H7.45833C7.33678 7 7.2202 7.06438 7.13424 7.17899C7.04829 7.2936 7 7.44903 7 7.61111C7 7.77319 7.04829 7.92863 7.13424 8.04323C7.2202 8.15784 7.33678 8.22222 7.45833 8.22222ZM17.5417 16.7778H7.45833C7.33678 16.7778 7.2202 16.8422 7.13424 16.9568C7.04829 17.0714 7 17.2268 7 17.3889C7 17.551 7.04829 17.7064 7.13424 17.821C7.2202 17.9356 7.33678 18 7.45833 18H17.5417C17.6632 18 17.7798 17.9356 17.8658 17.821C17.9517 17.7064 18 17.551 18 17.3889C18 17.2268 17.9517 17.0714 17.8658 16.9568C17.7798 16.8422 17.6632 16.7778 17.5417 16.7778Z" fill="#6C757D"/>
</svg>
