<svg width="13" height="14" viewBox="0 0 13 14" fill="none" xmlns="http://www.w3.org/2000/svg">
<path d="M11 7.5C11 7.35634 11.0527 7.21857 11.1464 7.11698C11.2402 7.0154 11.3674 6.95833 11.5 6.95833C11.6326 6.95833 11.7598 7.0154 11.8536 7.11698C11.9473 7.21857 12 7.35634 12 7.5V13.4583C12 13.602 11.9473 13.7398 11.8536 13.8414C11.7598 13.9429 11.6326 14 11.5 14H0.5C0.367392 14 0.240215 13.9429 0.146447 13.8414C0.0526785 13.7398 0 13.602 0 13.4583V1.54167C0 1.39801 0.0526785 1.26023 0.146447 1.15865C0.240215 1.05707 0.367392 1 0.5 1H6C6.13261 1 6.25979 1.05707 6.35355 1.15865C6.44732 1.26023 6.5 1.39801 6.5 1.54167C6.5 1.68533 6.44732 1.8231 6.35355 1.92468C6.25979 2.02627 6.13261 2.08333 6 2.08333H1V12.9167H11V7.5Z" fill="#212529"/>
<path d="M5.20581 8.40423L6.11923 8.26333L11.7304 2.21287C11.7833 2.15779 11.8255 2.09191 11.8545 2.01907C11.8835 1.94623 11.8988 1.86788 11.8994 1.78861C11.9 1.70933 11.886 1.63071 11.8582 1.55734C11.8304 1.48396 11.7893 1.4173 11.7373 1.36124C11.6853 1.30518 11.6235 1.26085 11.5555 1.23083C11.4874 1.20081 11.4145 1.18571 11.341 1.18639C11.2675 1.18708 11.1949 1.20355 11.1273 1.23484C11.0598 1.26614 10.9987 1.31162 10.9476 1.36864L5.33535 7.4191L5.2047 8.40423H5.20581ZM12.5132 0.523226C12.6675 0.689564 12.79 0.887068 12.8735 1.10445C12.957 1.32184 13 1.55485 13 1.79016C13 2.02547 12.957 2.25848 12.8735 2.47586C12.79 2.69325 12.6675 2.89075 12.5132 3.05709L6.77247 9.24845C6.68781 9.34009 6.57785 9.39959 6.45913 9.41801L4.63229 9.69982C4.54715 9.71301 4.46033 9.70461 4.37872 9.67531C4.29712 9.64601 4.22296 9.5966 4.16214 9.53101C4.10132 9.46542 4.05551 9.38544 4.02834 9.29743C4.00117 9.20942 3.9934 9.11578 4.00562 9.02396L4.26692 7.05371C4.28369 6.92582 4.33847 6.80725 4.42303 6.71578L10.1649 0.524421C10.4763 0.188634 10.8987 0 11.339 0C11.7794 0 12.2018 0.188634 12.5132 0.524421V0.523226Z" fill="#212529"/>
</svg>
