<svg width="16" height="16" viewBox="0 0 16 16" fill="none" xmlns="http://www.w3.org/2000/svg">
<path d="M1.71317 2.85547C1.41007 2.85547 1.11937 2.97588 0.905048 3.1902C0.69072 3.40453 0.570313 3.69522 0.570312 3.99833V14.284C0.570313 14.5871 0.69072 14.8778 0.905048 15.0922C1.11937 15.3065 1.41007 15.4269 1.71317 15.4269H14.2846C14.5877 15.4269 14.8784 15.3065 15.0927 15.0922C15.307 14.8778 15.4275 14.5871 15.4275 14.284V3.99833C15.4275 3.69522 15.307 3.40453 15.0927 3.1902C14.8784 2.97588 14.5877 2.85547 14.2846 2.85547H11.9989" stroke="#6C757D" stroke-linecap="round" stroke-linejoin="round"/>
<path d="M0.570312 7.42773H15.4275" stroke="#6C757D" stroke-linecap="round" stroke-linejoin="round"/>
<path d="M4.26562 1.06641V4.26641" stroke="#6C757D" stroke-linecap="round" stroke-linejoin="round"/>
<path d="M11.7344 1.06641V4.26641" stroke="#6C757D" stroke-linecap="round" stroke-linejoin="round"/>
<path d="M5.06641 2.85547H9.71707" stroke="#6C757D" stroke-linecap="round" stroke-linejoin="round"/>
</svg>
