<svg width="12" height="12" viewBox="0 0 12 12" fill="none" xmlns="http://www.w3.org/2000/svg">
<path d="M1 1.0918V10.8357" stroke="#6C757D" stroke-linecap="round" stroke-linejoin="round"/>
<path d="M7.04662 1.8418H3.64626C3.22893 1.8418 2.89062 2.17737 2.89062 2.59133V4.09038C2.89062 4.50434 3.22893 4.83991 3.64626 4.83991H7.04662C7.46394 4.83991 7.80225 4.50434 7.80225 4.09038V2.59133C7.80225 2.17737 7.46394 1.8418 7.04662 1.8418Z" fill="white" stroke="#6C757D" stroke-linecap="round" stroke-linejoin="round"/>
<path d="M10.0692 7.08594H3.64626C3.22893 7.08594 2.89062 7.42151 2.89062 7.83547V9.33453C2.89062 9.74848 3.22893 10.0841 3.64626 10.0841H10.0692C10.4865 10.0841 10.8248 9.74848 10.8248 9.33453V7.83547C10.8248 7.42151 10.4865 7.08594 10.0692 7.08594Z" fill="white" stroke="#6C757D" stroke-linecap="round" stroke-linejoin="round"/>
</svg>
