<svg width="16" height="16" viewBox="0 0 16 16" fill="none" xmlns="http://www.w3.org/2000/svg">
<path d="M7.99777 9.14397C9.57572 9.14397 10.8549 7.86479 10.8549 6.28683C10.8549 4.70887 9.57572 3.42969 7.99777 3.42969C6.41981 3.42969 5.14062 4.70887 5.14062 6.28683C5.14062 7.86479 6.41981 9.14397 7.99777 9.14397Z" stroke="#6C757D" stroke-linecap="round" stroke-linejoin="round"/>
<path d="M3.11719 13.6007C3.62718 12.7635 4.34394 12.0717 5.19857 11.5916C6.05319 11.1115 7.01695 10.8594 7.99719 10.8594C8.97742 10.8594 9.94118 11.1115 10.7958 11.5916C11.6504 12.0717 12.3672 12.7635 12.8772 13.6007" stroke="#6C757D" stroke-linecap="round" stroke-linejoin="round"/>
<path d="M7.99888 15.4294C12.1016 15.4294 15.4275 12.1035 15.4275 8.00084C15.4275 3.89815 12.1016 0.572266 7.99888 0.572266C3.8962 0.572266 0.570312 3.89815 0.570312 8.00084C0.570312 12.1035 3.8962 15.4294 7.99888 15.4294Z" stroke="#6C757D" stroke-linecap="round" stroke-linejoin="round"/>
</svg>
