<svg width="18" height="17" viewBox="0 0 18 17" fill="none" xmlns="http://www.w3.org/2000/svg">
<g clip-path="url(#clip0_207_4437)">
<g clip-path="url(#clip1_207_4437)">
<path d="M8.16656 4.48625C8.44322 4.45398 8.7215 4.43787 9 4.43799C12.0607 4.43799 14.5125 6.35719 15.5625 9.06577C15.3083 9.7246 14.9649 10.3449 14.542 10.9089M5.40375 5.44222C4.065 6.2653 3.02812 7.54058 2.4375 9.06577C3.4875 11.7743 5.93925 13.6935 9 13.6935C10.268 13.7003 11.5129 13.3524 12.5962 12.6887M7.60875 7.66421C7.42592 7.8484 7.28089 8.06706 7.18194 8.30771C7.08299 8.54835 7.03207 8.80628 7.03207 9.06676C7.03207 9.32724 7.08299 9.58516 7.18194 9.82581C7.28089 10.0665 7.42592 10.2851 7.60875 10.4693C7.79158 10.6535 8.00863 10.7996 8.24751 10.8993C8.48639 10.999 8.74242 11.0503 9.00098 11.0503C9.25955 11.0503 9.51558 10.999 9.75446 10.8993C9.99334 10.7996 10.2104 10.6535 10.3932 10.4693" stroke="#212529" stroke-linecap="round" stroke-linejoin="round"/>
<path d="M3.75 3.77734L14.25 14.3551" stroke="#212529" stroke-linecap="round"/>
</g>
</g>
<defs>
<clipPath id="clip0_207_4437">
<rect width="18" height="17" fill="white"/>
</clipPath>
<clipPath id="clip1_207_4437">
<rect width="15.75" height="15.8667" fill="white" transform="translate(1.125 1.1333)"/>
</clipPath>
</defs>
</svg>
