<svg width="18" height="17" viewBox="0 0 18 17" fill="none" xmlns="http://www.w3.org/2000/svg">
<path d="M2.49988 8.5L2.03588 8.314C1.98804 8.43338 1.98804 8.56662 2.03588 8.686L2.49988 8.5ZM16.4999 8.5L16.9639 8.686C17.0117 8.56662 17.0117 8.43338 16.9639 8.314L16.4999 8.5ZM9.49988 13C7.18588 13 5.56088 11.848 4.49688 10.666C3.91581 10.0154 3.42814 9.28707 3.04788 8.502L2.96788 8.322L2.96388 8.315L2.49988 8.5L2.03588 8.686V8.688L2.03888 8.692L2.06488 8.755L2.14288 8.928C2.56476 9.80114 3.10667 10.611 3.75288 11.334C4.93988 12.653 6.81388 14 9.49988 14V13ZM2.49988 8.5L2.96388 8.686L2.96788 8.678C2.99257 8.61714 3.01925 8.55711 3.04788 8.498C3.42814 7.71293 3.91581 6.98461 4.49688 6.334C5.55988 5.152 7.18588 4 9.49988 4V3C6.81388 3 4.93888 4.348 3.75288 5.666C3.10667 6.38902 2.56476 7.19886 2.14288 8.072C2.10653 8.14991 2.07186 8.2286 2.03888 8.308L2.03688 8.312V8.313H2.03488L2.49988 8.5ZM9.49988 4C11.8139 4 13.4389 5.152 14.5029 6.334C15.084 6.98461 15.5716 7.71293 15.9519 8.498L16.0319 8.678L16.0359 8.685L16.4999 8.5L16.9639 8.314V8.312L16.9609 8.308L16.9349 8.245L16.8569 8.072C16.435 7.19886 15.8931 6.38902 15.2469 5.666C14.0599 4.348 12.1859 3 9.49988 3V4ZM16.4999 8.5L16.0359 8.314L16.0329 8.322L16.0179 8.357L15.9519 8.502C15.5716 9.28707 15.084 10.0154 14.5029 10.666C13.4399 11.848 11.8139 13 9.49988 13V14C12.1859 14 14.0609 12.652 15.2469 11.335C15.8932 10.6117 16.4351 9.80149 16.8569 8.928C16.8932 8.85009 16.9279 8.7714 16.9609 8.692L16.9629 8.688V8.687L16.9639 8.686L16.4999 8.5ZM9.49988 10C9.10206 10 8.72053 9.84196 8.43922 9.56066C8.15792 9.27936 7.99988 8.89782 7.99988 8.5H6.99988C6.99988 9.16304 7.26328 9.79893 7.73212 10.2678C8.20096 10.7366 8.83684 11 9.49988 11V10ZM10.9999 8.5C10.9999 8.89782 10.8418 9.27936 10.5605 9.56066C10.2792 9.84196 9.89771 10 9.49988 10V11C10.1629 11 10.7988 10.7366 11.2677 10.2678C11.7365 9.79893 11.9999 9.16304 11.9999 8.5H10.9999ZM9.49988 7C9.89771 7 10.2792 7.15804 10.5605 7.43934C10.8418 7.72064 10.9999 8.10218 10.9999 8.5H11.9999C11.9999 7.83696 11.7365 7.20107 11.2677 6.73223C10.7988 6.26339 10.1629 6 9.49988 6V7ZM9.49988 6C8.83684 6 8.20096 6.26339 7.73212 6.73223C7.26328 7.20107 6.99988 7.83696 6.99988 8.5H7.99988C7.99988 8.10218 8.15792 7.72064 8.43922 7.43934C8.72053 7.15804 9.10206 7 9.49988 7V6Z" fill="#212529"/>
</svg>
