<svg width="15" height="15" viewBox="0 0 15 15" fill="none" xmlns="http://www.w3.org/2000/svg">
<rect width="15" height="15" rx="3" fill="#15C7A7"/>
<path d="M3 3V11.9319" stroke="white" stroke-linecap="round" stroke-linejoin="round"/>
<path d="M9.04662 3.6875H5.64626C5.22893 3.6875 4.89062 3.99511 4.89062 4.37457V5.74871C4.89062 6.12816 5.22893 6.43577 5.64626 6.43577H9.04662C9.46394 6.43577 9.80225 6.12816 9.80225 5.74871V4.37457C9.80225 3.99511 9.46394 3.6875 9.04662 3.6875Z" fill="white"/>
<path d="M12.0692 8.49414H5.64626C5.22893 8.49414 4.89062 8.80175 4.89062 9.18121V10.5553C4.89062 10.9348 5.22893 11.2424 5.64626 11.2424H12.0692C12.4865 11.2424 12.8248 10.9348 12.8248 10.5553V9.18121C12.8248 8.80175 12.4865 8.49414 12.0692 8.49414Z" fill="white"/>
</svg>
