<svg width="16" height="16" viewBox="0 0 16 16" fill="none" xmlns="http://www.w3.org/2000/svg">
<path d="M8.83268 5.66732C8.83268 5.4463 8.74488 5.23434 8.5886 5.07806C8.43232 4.92178 8.22036 4.83398 7.99935 4.83398C7.77834 4.83398 7.56637 4.92178 7.41009 5.07806C7.25381 5.23434 7.16602 5.4463 7.16602 5.66732V6.50065H8.83268V5.66732Z" fill="#2D6CDF"/>
<path d="M9.66732 7.5H6.33398C6.20144 7.5002 6.07438 7.55294 5.98065 7.64667C5.88693 7.74039 5.83418 7.86745 5.83398 8V10C5.83418 10.1325 5.88693 10.2596 5.98065 10.3533C6.07438 10.4471 6.20144 10.4998 6.33398 10.5H9.66732C9.79986 10.4998 9.92693 10.4471 10.0207 10.3533C10.1144 10.2596 10.1671 10.1325 10.1673 10V8C10.1671 7.86745 10.1144 7.74039 10.0207 7.64667C9.92693 7.55294 9.79986 7.5002 9.66732 7.5Z" fill="#2D6CDF"/>
<path d="M13.4548 2.78776C12.5608 2.69262 11.681 2.49381 10.833 2.19533C10.0562 1.92079 9.31093 1.56394 8.61 1.13086C8.42643 1.01847 8.21538 0.958984 8.00014 0.958984C7.7849 0.958984 7.57384 1.01847 7.39027 1.13086C6.68922 1.56387 5.94389 1.92072 5.16699 2.19533C4.31932 2.49371 3.43982 2.69253 2.54623 2.78778C2.25915 2.81701 1.99316 2.95182 1.79985 3.16606C1.60653 3.3803 1.49968 3.6587 1.5 3.94727V7.41081C1.5004 8.68873 1.84235 9.94332 2.49045 11.0447C3.13856 12.1461 4.06925 13.0542 5.1862 13.6751L7.43327 14.9238C7.6063 15.0211 7.80148 15.0722 8 15.0722C8.19852 15.0722 8.3937 15.0211 8.56673 14.9238L10.8138 13.6751C11.9307 13.0542 12.8614 12.1461 13.5095 11.0447C14.1577 9.94332 14.4996 8.68873 14.5 7.41081V3.94727C14.5004 3.65885 14.3937 3.38056 14.2005 3.16634C14.0074 2.95211 13.7417 2.81721 13.4548 2.78776ZM11.1667 10C11.1662 10.3977 11.008 10.7789 10.7268 11.0601C10.4456 11.3413 10.0643 11.4995 9.66667 11.5H6.33333C5.93566 11.4995 5.55441 11.3413 5.27322 11.0601C4.99202 10.7789 4.83382 10.3977 4.83333 10V8C4.83455 7.63216 4.97116 7.27764 5.21708 7.00409C5.463 6.73054 5.80103 6.55711 6.16667 6.51689V5.66667C6.16667 5.18044 6.35982 4.71412 6.70364 4.3703C7.04745 4.02649 7.51377 3.83333 8 3.83333C8.48623 3.83333 8.95255 4.02649 9.29636 4.3703C9.64018 4.71412 9.83333 5.18044 9.83333 5.66667V6.51689C10.199 6.55711 10.537 6.73054 10.7829 7.00409C11.0288 7.27764 11.1654 7.63216 11.1667 8V10Z" fill="#2D6CDF"/>
</svg>
