<svg width="139" height="38" viewBox="0 0 139 38" fill="none" xmlns="http://www.w3.org/2000/svg">
<path d="M10 0.25H129C134.385 0.25 138.75 4.61522 138.75 10V28C138.75 33.3848 134.385 37.75 129 37.75H10C4.61522 37.75 0.25 33.3848 0.25 28V10C0.25 4.61522 4.61522 0.25 10 0.25Z" stroke="#D4D8DD" stroke-width="0.5"/>
<path d="M19.776 23.108C18.92 23.108 18.188 22.932 17.58 22.58C16.972 22.228 16.504 21.728 16.176 21.08C15.856 20.424 15.696 19.652 15.696 18.764C15.696 18.1 15.788 17.504 15.972 16.976C16.156 16.44 16.42 15.984 16.764 15.608C17.116 15.224 17.544 14.932 18.048 14.732C18.56 14.532 19.136 14.432 19.776 14.432C20.248 14.432 20.7 14.496 21.132 14.624C21.572 14.752 21.952 14.936 22.272 15.176C22.408 15.264 22.496 15.372 22.536 15.5C22.584 15.62 22.592 15.736 22.56 15.848C22.536 15.96 22.484 16.056 22.404 16.136C22.324 16.208 22.22 16.248 22.092 16.256C21.972 16.264 21.84 16.22 21.696 16.124C21.432 15.924 21.14 15.776 20.82 15.68C20.5 15.584 20.164 15.536 19.812 15.536C19.204 15.536 18.692 15.664 18.276 15.92C17.86 16.168 17.544 16.532 17.328 17.012C17.112 17.492 17.004 18.076 17.004 18.764C17.004 19.452 17.112 20.04 17.328 20.528C17.544 21.008 17.86 21.376 18.276 21.632C18.692 21.88 19.204 22.004 19.812 22.004C20.164 22.004 20.5 21.956 20.82 21.86C21.148 21.756 21.456 21.604 21.744 21.404C21.888 21.316 22.016 21.276 22.128 21.284C22.248 21.292 22.348 21.332 22.428 21.404C22.508 21.476 22.56 21.568 22.584 21.68C22.616 21.784 22.612 21.896 22.572 22.016C22.54 22.128 22.464 22.224 22.344 22.304C22.016 22.568 21.628 22.768 21.18 22.904C20.732 23.04 20.264 23.108 19.776 23.108ZM24.5614 23.084C24.3694 23.084 24.2214 23.032 24.1174 22.928C24.0134 22.816 23.9614 22.664 23.9614 22.472V15.068C23.9614 14.868 24.0134 14.716 24.1174 14.612C24.2214 14.508 24.3694 14.456 24.5614 14.456C24.7534 14.456 24.9014 14.508 25.0054 14.612C25.1174 14.716 25.1734 14.868 25.1734 15.068V18.392H25.0054C25.1814 17.944 25.4574 17.608 25.8334 17.384C26.2094 17.152 26.6414 17.036 27.1294 17.036C27.5934 17.036 27.9774 17.124 28.2814 17.3C28.5934 17.468 28.8254 17.728 28.9774 18.08C29.1294 18.424 29.2054 18.86 29.2054 19.388V22.472C29.2054 22.664 29.1534 22.816 29.0494 22.928C28.9454 23.032 28.7974 23.084 28.6054 23.084C28.4054 23.084 28.2534 23.032 28.1494 22.928C28.0454 22.816 27.9934 22.664 27.9934 22.472V19.46C27.9934 18.956 27.8934 18.588 27.6934 18.356C27.5014 18.124 27.1974 18.008 26.7814 18.008C26.2934 18.008 25.9014 18.16 25.6054 18.464C25.3174 18.768 25.1734 19.176 25.1734 19.688V22.472C25.1734 22.88 24.9694 23.084 24.5614 23.084ZM33.4194 23.108C32.8274 23.108 32.3154 22.984 31.8834 22.736C31.4594 22.488 31.1274 22.136 30.8874 21.68C30.6474 21.224 30.5274 20.688 30.5274 20.072C30.5274 19.6 30.5954 19.18 30.7314 18.812C30.8674 18.444 31.0594 18.128 31.3074 17.864C31.5634 17.592 31.8674 17.388 32.2194 17.252C32.5794 17.108 32.9794 17.036 33.4194 17.036C34.0034 17.036 34.5074 17.16 34.9314 17.408C35.3634 17.656 35.6994 18.008 35.9394 18.464C36.1794 18.912 36.2994 19.448 36.2994 20.072C36.2994 20.536 36.2314 20.956 36.0954 21.332C35.9594 21.708 35.7634 22.028 35.5074 22.292C35.2594 22.556 34.9554 22.76 34.5954 22.904C34.2434 23.04 33.8514 23.108 33.4194 23.108ZM33.4194 22.172C33.7474 22.172 34.0354 22.092 34.2834 21.932C34.5314 21.772 34.7234 21.536 34.8594 21.224C35.0034 20.912 35.0754 20.528 35.0754 20.072C35.0754 19.384 34.9234 18.864 34.6194 18.512C34.3154 18.16 33.9154 17.984 33.4194 17.984C33.0834 17.984 32.7914 18.064 32.5434 18.224C32.2954 18.376 32.0994 18.608 31.9554 18.92C31.8194 19.232 31.7514 19.616 31.7514 20.072C31.7514 20.752 31.9034 21.272 32.2074 21.632C32.5114 21.992 32.9154 22.172 33.4194 22.172ZM40.2046 23.108C39.6126 23.108 39.1006 22.984 38.6686 22.736C38.2446 22.488 37.9126 22.136 37.6726 21.68C37.4326 21.224 37.3126 20.688 37.3126 20.072C37.3126 19.6 37.3806 19.18 37.5166 18.812C37.6526 18.444 37.8446 18.128 38.0926 17.864C38.3486 17.592 38.6526 17.388 39.0046 17.252C39.3646 17.108 39.7646 17.036 40.2046 17.036C40.7886 17.036 41.2926 17.16 41.7166 17.408C42.1486 17.656 42.4846 18.008 42.7246 18.464C42.9646 18.912 43.0846 19.448 43.0846 20.072C43.0846 20.536 43.0166 20.956 42.8806 21.332C42.7446 21.708 42.5486 22.028 42.2926 22.292C42.0446 22.556 41.7406 22.76 41.3806 22.904C41.0286 23.04 40.6366 23.108 40.2046 23.108ZM40.2046 22.172C40.5326 22.172 40.8206 22.092 41.0686 21.932C41.3166 21.772 41.5086 21.536 41.6446 21.224C41.7886 20.912 41.8606 20.528 41.8606 20.072C41.8606 19.384 41.7086 18.864 41.4046 18.512C41.1006 18.16 40.7006 17.984 40.2046 17.984C39.8686 17.984 39.5766 18.064 39.3286 18.224C39.0806 18.376 38.8846 18.608 38.7406 18.92C38.6046 19.232 38.5366 19.616 38.5366 20.072C38.5366 20.752 38.6886 21.272 38.9926 21.632C39.2966 21.992 39.7006 22.172 40.2046 22.172ZM46.4978 23.108C46.1458 23.108 45.7818 23.068 45.4058 22.988C45.0378 22.908 44.6978 22.772 44.3857 22.58C44.2818 22.508 44.2098 22.428 44.1698 22.34C44.1298 22.252 44.1138 22.164 44.1218 22.076C44.1378 21.98 44.1738 21.9 44.2298 21.836C44.2938 21.764 44.3698 21.72 44.4578 21.704C44.5538 21.688 44.6538 21.708 44.7578 21.764C45.0698 21.94 45.3698 22.064 45.6578 22.136C45.9458 22.2 46.2298 22.232 46.5098 22.232C46.9338 22.232 47.2538 22.156 47.4698 22.004C47.6858 21.852 47.7938 21.648 47.7938 21.392C47.7938 21.184 47.7218 21.024 47.5778 20.912C47.4338 20.792 47.2178 20.7 46.9298 20.636L45.7898 20.408C45.2938 20.304 44.9178 20.12 44.6618 19.856C44.4058 19.592 44.2778 19.256 44.2778 18.848C44.2778 18.48 44.3778 18.16 44.5778 17.888C44.7778 17.616 45.0578 17.408 45.4178 17.264C45.7778 17.112 46.1938 17.036 46.6658 17.036C47.0178 17.036 47.3498 17.08 47.6618 17.168C47.9738 17.256 48.2618 17.388 48.5258 17.564C48.6298 17.62 48.6978 17.696 48.7298 17.792C48.7618 17.88 48.7658 17.968 48.7418 18.056C48.7258 18.144 48.6858 18.224 48.6218 18.296C48.5578 18.36 48.4778 18.4 48.3818 18.416C48.2938 18.424 48.1938 18.4 48.0818 18.344C47.8418 18.192 47.6018 18.084 47.3618 18.02C47.1298 17.956 46.8978 17.924 46.6658 17.924C46.2418 17.924 45.9218 18.004 45.7058 18.164C45.4978 18.316 45.3938 18.524 45.3938 18.788C45.3938 18.988 45.4578 19.152 45.5858 19.28C45.7138 19.408 45.9138 19.5 46.1858 19.556L47.3258 19.784C47.8458 19.888 48.2378 20.064 48.5018 20.312C48.7738 20.56 48.9098 20.896 48.9098 21.32C48.9098 21.872 48.6898 22.308 48.2498 22.628C47.8098 22.948 47.2258 23.108 46.4978 23.108ZM53.0063 23.108C52.3663 23.108 51.8143 22.988 51.3503 22.748C50.8943 22.5 50.5383 22.152 50.2823 21.704C50.0343 21.248 49.9103 20.708 49.9103 20.084C49.9103 19.476 50.0343 18.944 50.2823 18.488C50.5303 18.032 50.8703 17.676 51.3023 17.42C51.7343 17.164 52.2263 17.036 52.7783 17.036C53.1863 17.036 53.5503 17.104 53.8703 17.24C54.1903 17.368 54.4623 17.56 54.6863 17.816C54.9183 18.064 55.0903 18.368 55.2023 18.728C55.3223 19.088 55.3823 19.492 55.3823 19.94C55.3823 20.076 55.3423 20.18 55.2623 20.252C55.1823 20.316 55.0623 20.348 54.9023 20.348H50.8703V19.604H54.5663L54.3623 19.772C54.3623 19.372 54.3023 19.032 54.1823 18.752C54.0703 18.472 53.8983 18.26 53.6663 18.116C53.4423 17.964 53.1623 17.888 52.8263 17.888C52.4503 17.888 52.1303 17.976 51.8663 18.152C51.6103 18.328 51.4143 18.572 51.2783 18.884C51.1423 19.196 51.0743 19.56 51.0743 19.976V20.048C51.0743 20.752 51.2383 21.284 51.5663 21.644C51.9023 21.996 52.3863 22.172 53.0183 22.172C53.2583 22.172 53.5103 22.14 53.7743 22.076C54.0463 22.012 54.3023 21.904 54.5423 21.752C54.6783 21.672 54.7983 21.636 54.9023 21.644C55.0143 21.652 55.1023 21.688 55.1663 21.752C55.2383 21.816 55.2823 21.896 55.2983 21.992C55.3143 22.088 55.2983 22.188 55.2503 22.292C55.2023 22.388 55.1183 22.476 54.9983 22.556C54.7263 22.74 54.4103 22.88 54.0503 22.976C53.6903 23.064 53.3423 23.108 53.0063 23.108ZM62.6876 23.084C62.4876 23.084 62.3316 23.028 62.2196 22.916C62.1156 22.804 62.0636 22.648 62.0636 22.448V15.584H59.5196C59.3516 15.584 59.2196 15.54 59.1236 15.452C59.0276 15.356 58.9796 15.224 58.9796 15.056C58.9796 14.888 59.0276 14.76 59.1236 14.672C59.2196 14.584 59.3516 14.54 59.5196 14.54H65.8436C66.0196 14.54 66.1556 14.584 66.2516 14.672C66.3476 14.76 66.3956 14.888 66.3956 15.056C66.3956 15.224 66.3476 15.356 66.2516 15.452C66.1556 15.54 66.0196 15.584 65.8436 15.584H63.2996V22.448C63.2996 22.648 63.2476 22.804 63.1436 22.916C63.0476 23.028 62.8956 23.084 62.6876 23.084ZM69.0258 23.108C68.3858 23.108 67.8338 22.988 67.3698 22.748C66.9138 22.5 66.5578 22.152 66.3018 21.704C66.0538 21.248 65.9298 20.708 65.9298 20.084C65.9298 19.476 66.0538 18.944 66.3018 18.488C66.5498 18.032 66.8898 17.676 67.3218 17.42C67.7538 17.164 68.2458 17.036 68.7978 17.036C69.2058 17.036 69.5698 17.104 69.8898 17.24C70.2098 17.368 70.4818 17.56 70.7058 17.816C70.9378 18.064 71.1098 18.368 71.2218 18.728C71.3418 19.088 71.4018 19.492 71.4018 19.94C71.4018 20.076 71.3618 20.18 71.2818 20.252C71.2018 20.316 71.0818 20.348 70.9218 20.348H66.8898V19.604H70.5858L70.3818 19.772C70.3818 19.372 70.3218 19.032 70.2018 18.752C70.0898 18.472 69.9178 18.26 69.6858 18.116C69.4618 17.964 69.1818 17.888 68.8458 17.888C68.4698 17.888 68.1498 17.976 67.8858 18.152C67.6298 18.328 67.4338 18.572 67.2978 18.884C67.1618 19.196 67.0938 19.56 67.0938 19.976V20.048C67.0938 20.752 67.2578 21.284 67.5858 21.644C67.9218 21.996 68.4058 22.172 69.0378 22.172C69.2778 22.172 69.5298 22.14 69.7938 22.076C70.0658 22.012 70.3218 21.904 70.5618 21.752C70.6978 21.672 70.8178 21.636 70.9218 21.644C71.0338 21.652 71.1218 21.688 71.1858 21.752C71.2578 21.816 71.3018 21.896 71.3178 21.992C71.3338 22.088 71.3178 22.188 71.2698 22.292C71.2218 22.388 71.1378 22.476 71.0178 22.556C70.7458 22.74 70.4298 22.88 70.0698 22.976C69.7098 23.064 69.3618 23.108 69.0258 23.108ZM74.5951 23.108C74.1871 23.108 73.8191 23.028 73.4911 22.868C73.1711 22.708 72.9191 22.492 72.7351 22.22C72.5511 21.948 72.4591 21.64 72.4591 21.296C72.4591 20.864 72.5671 20.524 72.7831 20.276C73.0071 20.02 73.3711 19.84 73.8751 19.736C74.3871 19.624 75.0751 19.568 75.9391 19.568H76.5031V20.312H75.9511C75.3751 20.312 74.9191 20.34 74.5831 20.396C74.2471 20.452 74.0071 20.548 73.8631 20.684C73.7271 20.812 73.6591 20.992 73.6591 21.224C73.6591 21.528 73.7631 21.776 73.9711 21.968C74.1791 22.152 74.4671 22.244 74.8351 22.244C75.1311 22.244 75.3911 22.176 75.6151 22.04C75.8391 21.896 76.0151 21.704 76.1431 21.464C76.2791 21.224 76.3471 20.948 76.3471 20.636V19.256C76.3471 18.8 76.2511 18.472 76.0591 18.272C75.8671 18.072 75.5511 17.972 75.1111 17.972C74.8551 17.972 74.5871 18.004 74.3071 18.068C74.0351 18.132 73.7511 18.24 73.4551 18.392C73.3191 18.456 73.2031 18.476 73.1071 18.452C73.0111 18.428 72.9351 18.376 72.8791 18.296C72.8231 18.208 72.7911 18.116 72.7831 18.02C72.7831 17.916 72.8071 17.816 72.8551 17.72C72.9111 17.624 73.0031 17.552 73.1311 17.504C73.4831 17.336 73.8311 17.216 74.1751 17.144C74.5191 17.072 74.8431 17.036 75.1471 17.036C75.6831 17.036 76.1231 17.12 76.4671 17.288C76.8191 17.456 77.0791 17.712 77.2471 18.056C77.4151 18.4 77.4991 18.844 77.4991 19.388V22.472C77.4991 22.664 77.4511 22.816 77.3551 22.928C77.2591 23.032 77.1191 23.084 76.9351 23.084C76.7591 23.084 76.6191 23.032 76.5151 22.928C76.4111 22.816 76.3591 22.664 76.3591 22.472V21.692H76.4671C76.4031 21.988 76.2831 22.244 76.1071 22.46C75.9391 22.668 75.7271 22.828 75.4711 22.94C75.2151 23.052 74.9231 23.108 74.5951 23.108ZM79.7924 23.084C79.6004 23.084 79.4524 23.032 79.3484 22.928C79.2444 22.816 79.1924 22.664 79.1924 22.472V17.672C79.1924 17.472 79.2444 17.32 79.3484 17.216C79.4524 17.112 79.5964 17.06 79.7804 17.06C79.9724 17.06 80.1164 17.112 80.2124 17.216C80.3164 17.32 80.3684 17.472 80.3684 17.672V18.656L80.2364 18.392C80.3964 17.968 80.6444 17.636 80.9804 17.396C81.3164 17.156 81.7204 17.036 82.1924 17.036C82.6804 17.036 83.0764 17.152 83.3804 17.384C83.6844 17.616 83.8924 17.972 84.0044 18.452H83.8364C83.9884 18.012 84.2484 17.668 84.6164 17.42C84.9844 17.164 85.4124 17.036 85.9004 17.036C86.3484 17.036 86.7164 17.124 87.0044 17.3C87.2924 17.468 87.5084 17.728 87.6524 18.08C87.7964 18.424 87.8684 18.86 87.8684 19.388V22.472C87.8684 22.664 87.8124 22.816 87.7004 22.928C87.5964 23.032 87.4484 23.084 87.2564 23.084C87.0644 23.084 86.9164 23.032 86.8124 22.928C86.7084 22.816 86.6564 22.664 86.6564 22.472V19.448C86.6564 18.952 86.5684 18.588 86.3924 18.356C86.2244 18.124 85.9444 18.008 85.5524 18.008C85.1124 18.008 84.7644 18.16 84.5084 18.464C84.2524 18.768 84.1244 19.188 84.1244 19.724V22.472C84.1244 22.664 84.0724 22.816 83.9684 22.928C83.8644 23.032 83.7164 23.084 83.5244 23.084C83.3324 23.084 83.1804 23.032 83.0684 22.928C82.9644 22.816 82.9124 22.664 82.9124 22.472V19.448C82.9124 18.952 82.8284 18.588 82.6604 18.356C82.4924 18.124 82.2124 18.008 81.8204 18.008C81.3804 18.008 81.0324 18.16 80.7764 18.464C80.5284 18.768 80.4044 19.188 80.4044 19.724V22.472C80.4044 22.88 80.2004 23.084 79.7924 23.084Z" fill="#212529"/>
<path d="M120.918 16.5215C120.831 16.5216 120.747 16.5473 120.675 16.5953C120.603 16.6434 120.547 16.7117 120.514 16.7916C120.481 16.8715 120.472 16.9594 120.489 17.0442C120.506 17.129 120.547 17.207 120.608 17.2682L124.692 21.3515C124.774 21.4334 124.885 21.4794 125.001 21.4794C125.117 21.4794 125.228 21.4334 125.31 21.3515L129.393 17.2682C129.455 17.207 129.496 17.129 129.513 17.0442C129.53 16.9594 129.521 16.8715 129.488 16.7916C129.455 16.7117 129.399 16.6434 129.327 16.5953C129.255 16.5473 129.171 16.5216 129.084 16.5215H120.918Z" fill="#212529"/>
</svg>
