<svg width="139" height="38" viewBox="0 0 139 38" fill="none" xmlns="http://www.w3.org/2000/svg">
<path d="M10 0.25H129C134.385 0.25 138.75 4.61522 138.75 10V28C138.75 33.3848 134.385 37.75 129 37.75H10C4.61522 37.75 0.25 33.3848 0.25 28V10C0.25 4.61522 4.61522 0.25 10 0.25Z" stroke="#D4D8DD" stroke-width="0.5"/>
<path d="M19.776 23.108C18.92 23.108 18.188 22.932 17.58 22.58C16.972 22.228 16.504 21.728 16.176 21.08C15.856 20.424 15.696 19.652 15.696 18.764C15.696 18.1 15.788 17.504 15.972 16.976C16.156 16.44 16.42 15.984 16.764 15.608C17.116 15.224 17.544 14.932 18.048 14.732C18.56 14.532 19.136 14.432 19.776 14.432C20.248 14.432 20.7 14.496 21.132 14.624C21.572 14.752 21.952 14.936 22.272 15.176C22.408 15.264 22.496 15.372 22.536 15.5C22.584 15.62 22.592 15.736 22.56 15.848C22.536 15.96 22.484 16.056 22.404 16.136C22.324 16.208 22.22 16.248 22.092 16.256C21.972 16.264 21.84 16.22 21.696 16.124C21.432 15.924 21.14 15.776 20.82 15.68C20.5 15.584 20.164 15.536 19.812 15.536C19.204 15.536 18.692 15.664 18.276 15.92C17.86 16.168 17.544 16.532 17.328 17.012C17.112 17.492 17.004 18.076 17.004 18.764C17.004 19.452 17.112 20.04 17.328 20.528C17.544 21.008 17.86 21.376 18.276 21.632C18.692 21.88 19.204 22.004 19.812 22.004C20.164 22.004 20.5 21.956 20.82 21.86C21.148 21.756 21.456 21.604 21.744 21.404C21.888 21.316 22.016 21.276 22.128 21.284C22.248 21.292 22.348 21.332 22.428 21.404C22.508 21.476 22.56 21.568 22.584 21.68C22.616 21.784 22.612 21.896 22.572 22.016C22.54 22.128 22.464 22.224 22.344 22.304C22.016 22.568 21.628 22.768 21.18 22.904C20.732 23.04 20.264 23.108 19.776 23.108ZM24.5614 23.084C24.3694 23.084 24.2214 23.032 24.1174 22.928C24.0134 22.816 23.9614 22.664 23.9614 22.472V15.068C23.9614 14.868 24.0134 14.716 24.1174 14.612C24.2214 14.508 24.3694 14.456 24.5614 14.456C24.7534 14.456 24.9014 14.508 25.0054 14.612C25.1174 14.716 25.1734 14.868 25.1734 15.068V18.392H25.0054C25.1814 17.944 25.4574 17.608 25.8334 17.384C26.2094 17.152 26.6414 17.036 27.1294 17.036C27.5934 17.036 27.9774 17.124 28.2814 17.3C28.5934 17.468 28.8254 17.728 28.9774 18.08C29.1294 18.424 29.2054 18.86 29.2054 19.388V22.472C29.2054 22.664 29.1534 22.816 29.0494 22.928C28.9454 23.032 28.7974 23.084 28.6054 23.084C28.4054 23.084 28.2534 23.032 28.1494 22.928C28.0454 22.816 27.9934 22.664 27.9934 22.472V19.46C27.9934 18.956 27.8934 18.588 27.6934 18.356C27.5014 18.124 27.1974 18.008 26.7814 18.008C26.2934 18.008 25.9014 18.16 25.6054 18.464C25.3174 18.768 25.1734 19.176 25.1734 19.688V22.472C25.1734 22.88 24.9694 23.084 24.5614 23.084ZM33.4194 23.108C32.8274 23.108 32.3154 22.984 31.8834 22.736C31.4594 22.488 31.1274 22.136 30.8874 21.68C30.6474 21.224 30.5274 20.688 30.5274 20.072C30.5274 19.6 30.5954 19.18 30.7314 18.812C30.8674 18.444 31.0594 18.128 31.3074 17.864C31.5634 17.592 31.8674 17.388 32.2194 17.252C32.5794 17.108 32.9794 17.036 33.4194 17.036C34.0034 17.036 34.5074 17.16 34.9314 17.408C35.3634 17.656 35.6994 18.008 35.9394 18.464C36.1794 18.912 36.2994 19.448 36.2994 20.072C36.2994 20.536 36.2314 20.956 36.0954 21.332C35.9594 21.708 35.7634 22.028 35.5074 22.292C35.2594 22.556 34.9554 22.76 34.5954 22.904C34.2434 23.04 33.8514 23.108 33.4194 23.108ZM33.4194 22.172C33.7474 22.172 34.0354 22.092 34.2834 21.932C34.5314 21.772 34.7234 21.536 34.8594 21.224C35.0034 20.912 35.0754 20.528 35.0754 20.072C35.0754 19.384 34.9234 18.864 34.6194 18.512C34.3154 18.16 33.9154 17.984 33.4194 17.984C33.0834 17.984 32.7914 18.064 32.5434 18.224C32.2954 18.376 32.0994 18.608 31.9554 18.92C31.8194 19.232 31.7514 19.616 31.7514 20.072C31.7514 20.752 31.9034 21.272 32.2074 21.632C32.5114 21.992 32.9154 22.172 33.4194 22.172ZM40.2046 23.108C39.6126 23.108 39.1006 22.984 38.6686 22.736C38.2446 22.488 37.9126 22.136 37.6726 21.68C37.4326 21.224 37.3126 20.688 37.3126 20.072C37.3126 19.6 37.3806 19.18 37.5166 18.812C37.6526 18.444 37.8446 18.128 38.0926 17.864C38.3486 17.592 38.6526 17.388 39.0046 17.252C39.3646 17.108 39.7646 17.036 40.2046 17.036C40.7886 17.036 41.2926 17.16 41.7166 17.408C42.1486 17.656 42.4846 18.008 42.7246 18.464C42.9646 18.912 43.0846 19.448 43.0846 20.072C43.0846 20.536 43.0166 20.956 42.8806 21.332C42.7446 21.708 42.5486 22.028 42.2926 22.292C42.0446 22.556 41.7406 22.76 41.3806 22.904C41.0286 23.04 40.6366 23.108 40.2046 23.108ZM40.2046 22.172C40.5326 22.172 40.8206 22.092 41.0686 21.932C41.3166 21.772 41.5086 21.536 41.6446 21.224C41.7886 20.912 41.8606 20.528 41.8606 20.072C41.8606 19.384 41.7086 18.864 41.4046 18.512C41.1006 18.16 40.7006 17.984 40.2046 17.984C39.8686 17.984 39.5766 18.064 39.3286 18.224C39.0806 18.376 38.8846 18.608 38.7406 18.92C38.6046 19.232 38.5366 19.616 38.5366 20.072C38.5366 20.752 38.6886 21.272 38.9926 21.632C39.2966 21.992 39.7006 22.172 40.2046 22.172ZM46.4978 23.108C46.1458 23.108 45.7818 23.068 45.4058 22.988C45.0378 22.908 44.6978 22.772 44.3857 22.58C44.2818 22.508 44.2098 22.428 44.1698 22.34C44.1298 22.252 44.1138 22.164 44.1218 22.076C44.1378 21.98 44.1738 21.9 44.2298 21.836C44.2938 21.764 44.3698 21.72 44.4578 21.704C44.5538 21.688 44.6538 21.708 44.7578 21.764C45.0698 21.94 45.3698 22.064 45.6578 22.136C45.9458 22.2 46.2298 22.232 46.5098 22.232C46.9338 22.232 47.2538 22.156 47.4698 22.004C47.6858 21.852 47.7938 21.648 47.7938 21.392C47.7938 21.184 47.7218 21.024 47.5778 20.912C47.4338 20.792 47.2178 20.7 46.9298 20.636L45.7898 20.408C45.2938 20.304 44.9178 20.12 44.6618 19.856C44.4058 19.592 44.2778 19.256 44.2778 18.848C44.2778 18.48 44.3778 18.16 44.5778 17.888C44.7778 17.616 45.0578 17.408 45.4178 17.264C45.7778 17.112 46.1938 17.036 46.6658 17.036C47.0178 17.036 47.3498 17.08 47.6618 17.168C47.9738 17.256 48.2618 17.388 48.5258 17.564C48.6298 17.62 48.6978 17.696 48.7298 17.792C48.7618 17.88 48.7658 17.968 48.7418 18.056C48.7258 18.144 48.6858 18.224 48.6218 18.296C48.5578 18.36 48.4778 18.4 48.3818 18.416C48.2938 18.424 48.1938 18.4 48.0818 18.344C47.8418 18.192 47.6018 18.084 47.3618 18.02C47.1298 17.956 46.8978 17.924 46.6658 17.924C46.2418 17.924 45.9218 18.004 45.7058 18.164C45.4978 18.316 45.3938 18.524 45.3938 18.788C45.3938 18.988 45.4578 19.152 45.5858 19.28C45.7138 19.408 45.9138 19.5 46.1858 19.556L47.3258 19.784C47.8458 19.888 48.2378 20.064 48.5018 20.312C48.7738 20.56 48.9098 20.896 48.9098 21.32C48.9098 21.872 48.6898 22.308 48.2498 22.628C47.8098 22.948 47.2258 23.108 46.4978 23.108ZM53.0063 23.108C52.3663 23.108 51.8143 22.988 51.3503 22.748C50.8943 22.5 50.5383 22.152 50.2823 21.704C50.0343 21.248 49.9103 20.708 49.9103 20.084C49.9103 19.476 50.0343 18.944 50.2823 18.488C50.5303 18.032 50.8703 17.676 51.3023 17.42C51.7343 17.164 52.2263 17.036 52.7783 17.036C53.1863 17.036 53.5503 17.104 53.8703 17.24C54.1903 17.368 54.4623 17.56 54.6863 17.816C54.9183 18.064 55.0903 18.368 55.2023 18.728C55.3223 19.088 55.3823 19.492 55.3823 19.94C55.3823 20.076 55.3423 20.18 55.2623 20.252C55.1823 20.316 55.0623 20.348 54.9023 20.348H50.8703V19.604H54.5663L54.3623 19.772C54.3623 19.372 54.3023 19.032 54.1823 18.752C54.0703 18.472 53.8983 18.26 53.6663 18.116C53.4423 17.964 53.1623 17.888 52.8263 17.888C52.4503 17.888 52.1303 17.976 51.8663 18.152C51.6103 18.328 51.4143 18.572 51.2783 18.884C51.1423 19.196 51.0743 19.56 51.0743 19.976V20.048C51.0743 20.752 51.2383 21.284 51.5663 21.644C51.9023 21.996 52.3863 22.172 53.0183 22.172C53.2583 22.172 53.5103 22.14 53.7743 22.076C54.0463 22.012 54.3023 21.904 54.5423 21.752C54.6783 21.672 54.7983 21.636 54.9023 21.644C55.0143 21.652 55.1023 21.688 55.1663 21.752C55.2383 21.816 55.2823 21.896 55.2983 21.992C55.3143 22.088 55.2983 22.188 55.2503 22.292C55.2023 22.388 55.1183 22.476 54.9983 22.556C54.7263 22.74 54.4103 22.88 54.0503 22.976C53.6903 23.064 53.3423 23.108 53.0063 23.108ZM63.4196 23.108C62.8516 23.108 62.3516 23.036 61.9196 22.892C61.4876 22.74 61.1236 22.516 60.8276 22.22C60.5396 21.924 60.3196 21.556 60.1676 21.116C60.0156 20.676 59.9396 20.168 59.9396 19.592V15.08C59.9396 14.872 59.9916 14.716 60.0956 14.612C60.2076 14.508 60.3636 14.456 60.5636 14.456C60.7636 14.456 60.9156 14.508 61.0196 14.612C61.1316 14.716 61.1876 14.872 61.1876 15.08V19.568C61.1876 20.392 61.3756 21.008 61.7516 21.416C62.1356 21.824 62.6916 22.028 63.4196 22.028C64.1556 22.028 64.7116 21.824 65.0876 21.416C65.4636 21.008 65.6516 20.392 65.6516 19.568V15.08C65.6516 14.872 65.7036 14.716 65.8076 14.612C65.9196 14.508 66.0716 14.456 66.2636 14.456C66.4636 14.456 66.6156 14.508 66.7196 14.612C66.8236 14.716 66.8756 14.872 66.8756 15.08V19.592C66.8756 20.36 66.7436 21.008 66.4796 21.536C66.2236 22.056 65.8396 22.448 65.3276 22.712C64.8156 22.976 64.1796 23.108 63.4196 23.108ZM70.7204 23.108C70.3684 23.108 70.0044 23.068 69.6284 22.988C69.2604 22.908 68.9204 22.772 68.6084 22.58C68.5044 22.508 68.4324 22.428 68.3924 22.34C68.3524 22.252 68.3364 22.164 68.3444 22.076C68.3604 21.98 68.3964 21.9 68.4524 21.836C68.5164 21.764 68.5924 21.72 68.6804 21.704C68.7764 21.688 68.8764 21.708 68.9804 21.764C69.2924 21.94 69.5924 22.064 69.8804 22.136C70.1684 22.2 70.4524 22.232 70.7324 22.232C71.1564 22.232 71.4764 22.156 71.6924 22.004C71.9084 21.852 72.0164 21.648 72.0164 21.392C72.0164 21.184 71.9444 21.024 71.8004 20.912C71.6564 20.792 71.4404 20.7 71.1524 20.636L70.0124 20.408C69.5164 20.304 69.1404 20.12 68.8844 19.856C68.6284 19.592 68.5004 19.256 68.5004 18.848C68.5004 18.48 68.6004 18.16 68.8004 17.888C69.0004 17.616 69.2804 17.408 69.6404 17.264C70.0004 17.112 70.4164 17.036 70.8884 17.036C71.2404 17.036 71.5724 17.08 71.8844 17.168C72.1964 17.256 72.4844 17.388 72.7484 17.564C72.8524 17.62 72.9204 17.696 72.9524 17.792C72.9844 17.88 72.9884 17.968 72.9644 18.056C72.9484 18.144 72.9084 18.224 72.8444 18.296C72.7804 18.36 72.7004 18.4 72.6044 18.416C72.5164 18.424 72.4164 18.4 72.3044 18.344C72.0644 18.192 71.8244 18.084 71.5844 18.02C71.3524 17.956 71.1204 17.924 70.8884 17.924C70.4644 17.924 70.1444 18.004 69.9284 18.164C69.7204 18.316 69.6164 18.524 69.6164 18.788C69.6164 18.988 69.6804 19.152 69.8084 19.28C69.9364 19.408 70.1364 19.5 70.4084 19.556L71.5484 19.784C72.0684 19.888 72.4604 20.064 72.7244 20.312C72.9964 20.56 73.1324 20.896 73.1324 21.32C73.1324 21.872 72.9124 22.308 72.4724 22.628C72.0324 22.948 71.4484 23.108 70.7204 23.108ZM77.2289 23.108C76.5889 23.108 76.0369 22.988 75.5729 22.748C75.1169 22.5 74.7609 22.152 74.5049 21.704C74.2569 21.248 74.1329 20.708 74.1329 20.084C74.1329 19.476 74.2569 18.944 74.5049 18.488C74.7529 18.032 75.0929 17.676 75.5249 17.42C75.9569 17.164 76.4489 17.036 77.0009 17.036C77.4089 17.036 77.7729 17.104 78.0929 17.24C78.4129 17.368 78.6849 17.56 78.9089 17.816C79.1409 18.064 79.3129 18.368 79.4249 18.728C79.5449 19.088 79.6049 19.492 79.6049 19.94C79.6049 20.076 79.5649 20.18 79.4849 20.252C79.4049 20.316 79.2849 20.348 79.1249 20.348H75.0929V19.604H78.7889L78.5849 19.772C78.5849 19.372 78.5249 19.032 78.4049 18.752C78.2929 18.472 78.1209 18.26 77.8889 18.116C77.6649 17.964 77.3849 17.888 77.0489 17.888C76.6729 17.888 76.3529 17.976 76.0889 18.152C75.8329 18.328 75.6369 18.572 75.5009 18.884C75.3649 19.196 75.2969 19.56 75.2969 19.976V20.048C75.2969 20.752 75.4609 21.284 75.7889 21.644C76.1249 21.996 76.6089 22.172 77.2409 22.172C77.4809 22.172 77.7329 22.14 77.9969 22.076C78.2689 22.012 78.5249 21.904 78.7649 21.752C78.9009 21.672 79.0209 21.636 79.1249 21.644C79.2369 21.652 79.3249 21.688 79.3889 21.752C79.4609 21.816 79.5049 21.896 79.5209 21.992C79.5369 22.088 79.5209 22.188 79.4729 22.292C79.4249 22.388 79.3409 22.476 79.2209 22.556C78.9489 22.74 78.6329 22.88 78.2729 22.976C77.9129 23.064 77.5649 23.108 77.2289 23.108ZM81.5382 23.084C81.3382 23.084 81.1862 23.032 81.0822 22.928C80.9782 22.816 80.9262 22.664 80.9262 22.472V17.672C80.9262 17.472 80.9782 17.32 81.0822 17.216C81.1862 17.112 81.3302 17.06 81.5142 17.06C81.7062 17.06 81.8502 17.112 81.9462 17.216C82.0502 17.32 82.1022 17.472 82.1022 17.672V18.548H81.9822C82.1102 18.068 82.3462 17.704 82.6902 17.456C83.0342 17.208 83.4742 17.064 84.0102 17.024C84.1542 17.016 84.2662 17.052 84.3462 17.132C84.4342 17.212 84.4822 17.336 84.4902 17.504C84.5062 17.672 84.4702 17.808 84.3822 17.912C84.2942 18.008 84.1582 18.064 83.9742 18.08L83.7462 18.104C83.2262 18.152 82.8302 18.316 82.5582 18.596C82.2862 18.876 82.1502 19.26 82.1502 19.748V22.472C82.1502 22.664 82.0982 22.816 81.9942 22.928C81.8982 23.032 81.7462 23.084 81.5382 23.084Z" fill="#212529"/>
<path d="M120.918 16.5215C120.831 16.5216 120.747 16.5473 120.675 16.5953C120.603 16.6434 120.547 16.7117 120.514 16.7916C120.481 16.8715 120.472 16.9594 120.489 17.0442C120.506 17.129 120.547 17.207 120.608 17.2682L124.692 21.3515C124.774 21.4334 124.885 21.4794 125.001 21.4794C125.117 21.4794 125.228 21.4334 125.31 21.3515L129.393 17.2682C129.455 17.207 129.496 17.129 129.513 17.0442C129.53 16.9594 129.521 16.8715 129.488 16.7916C129.455 16.7117 129.399 16.6434 129.327 16.5953C129.255 16.5473 129.171 16.5216 129.084 16.5215H120.918Z" fill="#212529"/>
</svg>
