<svg width="139" height="38" viewBox="0 0 139 38" fill="none" xmlns="http://www.w3.org/2000/svg">
<path d="M10 0.25H129C134.385 0.25 138.75 4.61522 138.75 10V28C138.75 33.3848 134.385 37.75 129 37.75H10C4.61522 37.75 0.25 33.3848 0.25 28V10C0.25 4.61522 4.61522 0.25 10 0.25Z" stroke="#D4D8DD" stroke-width="0.5"/>
<path d="M15.936 23.084C15.776 23.084 15.648 23.048 15.552 22.976C15.456 22.904 15.4 22.808 15.384 22.688C15.368 22.568 15.392 22.432 15.456 22.28L18.708 14.984C18.788 14.792 18.888 14.656 19.008 14.576C19.136 14.496 19.276 14.456 19.428 14.456C19.572 14.456 19.704 14.496 19.824 14.576C19.952 14.656 20.056 14.792 20.136 14.984L23.388 22.28C23.46 22.432 23.488 22.572 23.472 22.7C23.456 22.82 23.404 22.916 23.316 22.988C23.228 23.052 23.104 23.084 22.944 23.084C22.768 23.084 22.628 23.04 22.524 22.952C22.42 22.864 22.328 22.728 22.248 22.544L21.408 20.6L21.972 20.936H16.86L17.412 20.6L16.584 22.544C16.504 22.736 16.416 22.876 16.32 22.964C16.224 23.044 16.096 23.084 15.936 23.084ZM19.404 15.92L17.592 20.216L17.292 19.928H21.528L21.252 20.216L19.428 15.92H19.404ZM26.5719 23.108C25.9479 23.108 25.4759 22.928 25.1559 22.568C24.8439 22.2 24.6879 21.672 24.6879 20.984V15.068C24.6879 14.868 24.7399 14.716 24.8439 14.612C24.9479 14.508 25.0959 14.456 25.2879 14.456C25.4799 14.456 25.6279 14.508 25.7319 14.612C25.8439 14.716 25.8999 14.868 25.8999 15.068V20.912C25.8999 21.312 25.9799 21.612 26.1399 21.812C26.3079 22.004 26.5479 22.1 26.8599 22.1C26.9319 22.1 26.9959 22.1 27.0519 22.1C27.1079 22.092 27.1639 22.084 27.2199 22.076C27.3159 22.068 27.3839 22.096 27.4239 22.16C27.4639 22.216 27.4839 22.336 27.4839 22.52C27.4839 22.688 27.4479 22.82 27.3759 22.916C27.3039 23.004 27.1879 23.06 27.0279 23.084C26.9559 23.092 26.8799 23.096 26.7999 23.096C26.7199 23.104 26.6439 23.108 26.5719 23.108ZM30.2399 23.108C29.6159 23.108 29.1439 22.928 28.8239 22.568C28.5119 22.2 28.3559 21.672 28.3559 20.984V15.068C28.3559 14.868 28.4079 14.716 28.5119 14.612C28.6159 14.508 28.7639 14.456 28.9559 14.456C29.1479 14.456 29.2959 14.508 29.3999 14.612C29.5119 14.716 29.5679 14.868 29.5679 15.068V20.912C29.5679 21.312 29.6479 21.612 29.8079 21.812C29.9759 22.004 30.2159 22.1 30.5279 22.1C30.5999 22.1 30.6639 22.1 30.7199 22.1C30.7759 22.092 30.8319 22.084 30.8879 22.076C30.9839 22.068 31.0519 22.096 31.0919 22.16C31.1319 22.216 31.1519 22.336 31.1519 22.52C31.1519 22.688 31.1159 22.82 31.0439 22.916C30.9719 23.004 30.8559 23.06 30.6959 23.084C30.6239 23.092 30.5479 23.096 30.4679 23.096C30.3879 23.104 30.3119 23.108 30.2399 23.108ZM37.0599 23.108C36.6519 23.108 36.2839 23.028 35.9559 22.868C35.6359 22.708 35.3839 22.492 35.1999 22.22C35.0159 21.948 34.9239 21.64 34.9239 21.296C34.9239 20.864 35.0319 20.524 35.2479 20.276C35.4719 20.02 35.8359 19.84 36.3399 19.736C36.8519 19.624 37.5399 19.568 38.4039 19.568H38.9679V20.312H38.4159C37.8399 20.312 37.3839 20.34 37.0479 20.396C36.7119 20.452 36.4719 20.548 36.3279 20.684C36.1919 20.812 36.1239 20.992 36.1239 21.224C36.1239 21.528 36.2279 21.776 36.4359 21.968C36.6439 22.152 36.9319 22.244 37.2999 22.244C37.5959 22.244 37.8559 22.176 38.0799 22.04C38.3039 21.896 38.4799 21.704 38.6079 21.464C38.7439 21.224 38.8119 20.948 38.8119 20.636V19.256C38.8119 18.8 38.7159 18.472 38.5239 18.272C38.3319 18.072 38.0159 17.972 37.5759 17.972C37.3199 17.972 37.0519 18.004 36.7719 18.068C36.4999 18.132 36.2159 18.24 35.9199 18.392C35.7839 18.456 35.6679 18.476 35.5719 18.452C35.4759 18.428 35.3999 18.376 35.3439 18.296C35.2879 18.208 35.2559 18.116 35.2479 18.02C35.2479 17.916 35.2719 17.816 35.3199 17.72C35.3759 17.624 35.4679 17.552 35.5959 17.504C35.9479 17.336 36.2959 17.216 36.6399 17.144C36.9839 17.072 37.3079 17.036 37.6119 17.036C38.1479 17.036 38.5879 17.12 38.9319 17.288C39.2839 17.456 39.5439 17.712 39.7119 18.056C39.8799 18.4 39.9639 18.844 39.9639 19.388V22.472C39.9639 22.664 39.9159 22.816 39.8199 22.928C39.7239 23.032 39.5839 23.084 39.3999 23.084C39.2239 23.084 39.0839 23.032 38.9799 22.928C38.8759 22.816 38.8239 22.664 38.8239 22.472V21.692H38.9319C38.8679 21.988 38.7479 22.244 38.5719 22.46C38.4039 22.668 38.1919 22.828 37.9359 22.94C37.6799 23.052 37.3879 23.108 37.0599 23.108ZM44.2133 23.108C43.6133 23.108 43.0933 22.984 42.6533 22.736C42.2213 22.48 41.8853 22.124 41.6453 21.668C41.4053 21.204 41.2853 20.66 41.2853 20.036C41.2853 19.572 41.3533 19.156 41.4893 18.788C41.6253 18.412 41.8173 18.096 42.0653 17.84C42.3213 17.584 42.6293 17.388 42.9893 17.252C43.3573 17.108 43.7653 17.036 44.2133 17.036C44.4933 17.036 44.7853 17.08 45.0893 17.168C45.4013 17.248 45.6893 17.384 45.9533 17.576C46.0573 17.64 46.1213 17.72 46.1453 17.816C46.1773 17.904 46.1813 17.996 46.1573 18.092C46.1413 18.188 46.0973 18.272 46.0253 18.344C45.9613 18.408 45.8813 18.448 45.7853 18.464C45.6893 18.472 45.5853 18.444 45.4733 18.38C45.2813 18.244 45.0853 18.148 44.8853 18.092C44.6853 18.028 44.4933 17.996 44.3092 17.996C44.0213 17.996 43.7653 18.044 43.5413 18.14C43.3253 18.228 43.1413 18.36 42.9893 18.536C42.8373 18.704 42.7213 18.916 42.6413 19.172C42.5693 19.428 42.5333 19.72 42.5333 20.048C42.5333 20.704 42.6853 21.22 42.9893 21.596C43.3013 21.964 43.7413 22.148 44.3092 22.148C44.4933 22.148 44.6853 22.12 44.8853 22.064C45.0853 22.008 45.2813 21.912 45.4733 21.776C45.5853 21.712 45.6893 21.688 45.7853 21.704C45.8813 21.72 45.9573 21.764 46.0133 21.836C46.0773 21.9 46.1173 21.98 46.1333 22.076C46.1573 22.164 46.1533 22.256 46.1213 22.352C46.0893 22.448 46.0213 22.528 45.9173 22.592C45.6613 22.776 45.3813 22.908 45.0773 22.988C44.7813 23.068 44.4933 23.108 44.2133 23.108ZM49.7425 23.108C49.2625 23.108 48.8585 23.024 48.5305 22.856C48.2025 22.688 47.9585 22.44 47.7985 22.112C47.6385 21.784 47.5585 21.384 47.5585 20.912V18.08H46.8385C46.6785 18.08 46.5545 18.04 46.4665 17.96C46.3785 17.872 46.3345 17.756 46.3345 17.612C46.3345 17.46 46.3785 17.344 46.4665 17.264C46.5545 17.184 46.6785 17.144 46.8385 17.144H47.5585V15.908C47.5585 15.708 47.6105 15.556 47.7145 15.452C47.8265 15.348 47.9785 15.296 48.1705 15.296C48.3625 15.296 48.5105 15.348 48.6145 15.452C48.7185 15.556 48.7705 15.708 48.7705 15.908V17.144H50.1745C50.3345 17.144 50.4585 17.184 50.5465 17.264C50.6345 17.344 50.6785 17.46 50.6785 17.612C50.6785 17.756 50.6345 17.872 50.5465 17.96C50.4585 18.04 50.3345 18.08 50.1745 18.08H48.7705V20.816C48.7705 21.24 48.8585 21.56 49.0345 21.776C49.2185 21.992 49.5145 22.1 49.9225 22.1C50.0665 22.1 50.1905 22.088 50.2945 22.064C50.4065 22.032 50.4985 22.012 50.5705 22.004C50.6585 22.004 50.7305 22.036 50.7865 22.1C50.8425 22.156 50.8705 22.268 50.8705 22.436C50.8705 22.556 50.8465 22.668 50.7985 22.772C50.7585 22.876 50.6825 22.944 50.5705 22.976C50.4745 23.008 50.3425 23.036 50.1745 23.06C50.0145 23.092 49.8705 23.108 49.7425 23.108ZM52.3348 23.072C52.1428 23.072 51.9948 23.016 51.8908 22.904C51.7868 22.784 51.7348 22.62 51.7348 22.412V17.732C51.7348 17.524 51.7868 17.364 51.8908 17.252C51.9948 17.14 52.1428 17.084 52.3348 17.084C52.5268 17.084 52.6748 17.14 52.7788 17.252C52.8908 17.364 52.9468 17.524 52.9468 17.732V22.412C52.9468 22.62 52.8948 22.784 52.7908 22.904C52.6868 23.016 52.5348 23.072 52.3348 23.072ZM52.3348 15.836C52.0948 15.836 51.9068 15.776 51.7708 15.656C51.6428 15.536 51.5788 15.368 51.5788 15.152C51.5788 14.928 51.6428 14.76 51.7708 14.648C51.9068 14.528 52.0948 14.468 52.3348 14.468C52.5748 14.468 52.7588 14.528 52.8868 14.648C53.0228 14.76 53.0908 14.928 53.0908 15.152C53.0908 15.368 53.0228 15.536 52.8868 15.656C52.7588 15.776 52.5748 15.836 52.3348 15.836ZM56.9208 23.084C56.7528 23.084 56.6048 23.04 56.4768 22.952C56.3568 22.864 56.2568 22.728 56.1768 22.544L54.1728 17.888C54.1088 17.744 54.0848 17.608 54.1008 17.48C54.1168 17.352 54.1768 17.252 54.2808 17.18C54.3848 17.1 54.5248 17.06 54.7008 17.06C54.8528 17.06 54.9728 17.096 55.0608 17.168C55.1488 17.24 55.2288 17.364 55.3008 17.54L57.1128 22.004H56.7768L58.6248 17.54C58.6968 17.364 58.7768 17.24 58.8648 17.168C58.9608 17.096 59.0928 17.06 59.2608 17.06C59.4048 17.06 59.5168 17.1 59.5968 17.18C59.6848 17.252 59.7368 17.352 59.7528 17.48C59.7768 17.6 59.7568 17.732 59.6928 17.876L57.6648 22.544C57.5928 22.728 57.4928 22.864 57.3648 22.952C57.2368 23.04 57.0888 23.084 56.9208 23.084ZM61.4872 23.072C61.2952 23.072 61.1472 23.016 61.0432 22.904C60.9392 22.784 60.8872 22.62 60.8872 22.412V17.732C60.8872 17.524 60.9392 17.364 61.0432 17.252C61.1472 17.14 61.2952 17.084 61.4872 17.084C61.6792 17.084 61.8272 17.14 61.9312 17.252C62.0432 17.364 62.0992 17.524 62.0992 17.732V22.412C62.0992 22.62 62.0472 22.784 61.9432 22.904C61.8392 23.016 61.6872 23.072 61.4872 23.072ZM61.4872 15.836C61.2472 15.836 61.0592 15.776 60.9232 15.656C60.7952 15.536 60.7312 15.368 60.7312 15.152C60.7312 14.928 60.7952 14.76 60.9232 14.648C61.0592 14.528 61.2472 14.468 61.4872 14.468C61.7272 14.468 61.9112 14.528 62.0392 14.648C62.1752 14.76 62.2432 14.928 62.2432 15.152C62.2432 15.368 62.1752 15.536 62.0392 15.656C61.9112 15.776 61.7272 15.836 61.4872 15.836ZM66.3011 23.108C65.8211 23.108 65.4171 23.024 65.0891 22.856C64.7611 22.688 64.5171 22.44 64.3571 22.112C64.1971 21.784 64.1171 21.384 64.1171 20.912V18.08H63.3971C63.2371 18.08 63.1131 18.04 63.0251 17.96C62.9371 17.872 62.8931 17.756 62.8931 17.612C62.8931 17.46 62.9371 17.344 63.0251 17.264C63.1131 17.184 63.2371 17.144 63.3971 17.144H64.1171V15.908C64.1171 15.708 64.1691 15.556 64.2731 15.452C64.3851 15.348 64.5371 15.296 64.7291 15.296C64.9211 15.296 65.0691 15.348 65.1731 15.452C65.2771 15.556 65.3291 15.708 65.3291 15.908V17.144H66.7331C66.8931 17.144 67.0171 17.184 67.1051 17.264C67.1931 17.344 67.2371 17.46 67.2371 17.612C67.2371 17.756 67.1931 17.872 67.1051 17.96C67.0171 18.04 66.8931 18.08 66.7331 18.08H65.3291V20.816C65.3291 21.24 65.4171 21.56 65.5931 21.776C65.7771 21.992 66.0731 22.1 66.4811 22.1C66.6251 22.1 66.7491 22.088 66.8531 22.064C66.9651 22.032 67.0571 22.012 67.1291 22.004C67.2171 22.004 67.2891 22.036 67.3451 22.1C67.4011 22.156 67.4291 22.268 67.4291 22.436C67.4291 22.556 67.4051 22.668 67.3571 22.772C67.3171 22.876 67.2411 22.944 67.1291 22.976C67.0331 23.008 66.9011 23.036 66.7331 23.06C66.5731 23.092 66.4291 23.108 66.3011 23.108ZM68.8934 23.072C68.7014 23.072 68.5534 23.016 68.4494 22.904C68.3454 22.784 68.2934 22.62 68.2934 22.412V17.732C68.2934 17.524 68.3454 17.364 68.4494 17.252C68.5534 17.14 68.7014 17.084 68.8934 17.084C69.0854 17.084 69.2334 17.14 69.3374 17.252C69.4494 17.364 69.5054 17.524 69.5054 17.732V22.412C69.5054 22.62 69.4534 22.784 69.3494 22.904C69.2454 23.016 69.0934 23.072 68.8934 23.072ZM68.8934 15.836C68.6534 15.836 68.4654 15.776 68.3294 15.656C68.2014 15.536 68.1374 15.368 68.1374 15.152C68.1374 14.928 68.2014 14.76 68.3294 14.648C68.4654 14.528 68.6534 14.468 68.8934 14.468C69.1334 14.468 69.3174 14.528 69.4454 14.648C69.5814 14.76 69.6494 14.928 69.6494 15.152C69.6494 15.368 69.5814 15.536 69.4454 15.656C69.3174 15.776 69.1334 15.836 68.8934 15.836ZM73.9594 23.108C73.3194 23.108 72.7674 22.988 72.3034 22.748C71.8474 22.5 71.4914 22.152 71.2354 21.704C70.9874 21.248 70.8634 20.708 70.8634 20.084C70.8634 19.476 70.9874 18.944 71.2354 18.488C71.4834 18.032 71.8234 17.676 72.2554 17.42C72.6874 17.164 73.1794 17.036 73.7314 17.036C74.1394 17.036 74.5034 17.104 74.8234 17.24C75.1434 17.368 75.4154 17.56 75.6394 17.816C75.8714 18.064 76.0434 18.368 76.1554 18.728C76.2754 19.088 76.3354 19.492 76.3354 19.94C76.3354 20.076 76.2954 20.18 76.2154 20.252C76.1354 20.316 76.0154 20.348 75.8554 20.348H71.8234V19.604H75.5194L75.3154 19.772C75.3154 19.372 75.2554 19.032 75.1354 18.752C75.0234 18.472 74.8514 18.26 74.6194 18.116C74.3954 17.964 74.1154 17.888 73.7794 17.888C73.4034 17.888 73.0834 17.976 72.8194 18.152C72.5634 18.328 72.3674 18.572 72.2314 18.884C72.0954 19.196 72.0274 19.56 72.0274 19.976V20.048C72.0274 20.752 72.1914 21.284 72.5194 21.644C72.8554 21.996 73.3394 22.172 73.9714 22.172C74.2114 22.172 74.4634 22.14 74.7274 22.076C74.9994 22.012 75.2554 21.904 75.4954 21.752C75.6314 21.672 75.7514 21.636 75.8554 21.644C75.9674 21.652 76.0554 21.688 76.1194 21.752C76.1914 21.816 76.2354 21.896 76.2514 21.992C76.2674 22.088 76.2514 22.188 76.2034 22.292C76.1554 22.388 76.0714 22.476 75.9514 22.556C75.6794 22.74 75.3634 22.88 75.0034 22.976C74.6434 23.064 74.2954 23.108 73.9594 23.108ZM79.7087 23.108C79.3567 23.108 78.9927 23.068 78.6167 22.988C78.2487 22.908 77.9087 22.772 77.5967 22.58C77.4927 22.508 77.4207 22.428 77.3807 22.34C77.3407 22.252 77.3247 22.164 77.3327 22.076C77.3487 21.98 77.3847 21.9 77.4407 21.836C77.5047 21.764 77.5807 21.72 77.6687 21.704C77.7647 21.688 77.8647 21.708 77.9687 21.764C78.2807 21.94 78.5807 22.064 78.8687 22.136C79.1567 22.2 79.4407 22.232 79.7207 22.232C80.1447 22.232 80.4647 22.156 80.6807 22.004C80.8967 21.852 81.0047 21.648 81.0047 21.392C81.0047 21.184 80.9327 21.024 80.7887 20.912C80.6447 20.792 80.4287 20.7 80.1407 20.636L79.0007 20.408C78.5047 20.304 78.1287 20.12 77.8727 19.856C77.6167 19.592 77.4887 19.256 77.4887 18.848C77.4887 18.48 77.5887 18.16 77.7887 17.888C77.9887 17.616 78.2687 17.408 78.6287 17.264C78.9887 17.112 79.4047 17.036 79.8767 17.036C80.2287 17.036 80.5607 17.08 80.8727 17.168C81.1847 17.256 81.4727 17.388 81.7367 17.564C81.8407 17.62 81.9087 17.696 81.9407 17.792C81.9727 17.88 81.9767 17.968 81.9527 18.056C81.9367 18.144 81.8967 18.224 81.8327 18.296C81.7687 18.36 81.6887 18.4 81.5927 18.416C81.5047 18.424 81.4047 18.4 81.2927 18.344C81.0527 18.192 80.8127 18.084 80.5727 18.02C80.3407 17.956 80.1087 17.924 79.8767 17.924C79.4527 17.924 79.1327 18.004 78.9167 18.164C78.7087 18.316 78.6047 18.524 78.6047 18.788C78.6047 18.988 78.6687 19.152 78.7967 19.28C78.9247 19.408 79.1247 19.5 79.3967 19.556L80.5367 19.784C81.0567 19.888 81.4487 20.064 81.7127 20.312C81.9847 20.56 82.1207 20.896 82.1207 21.32C82.1207 21.872 81.9007 22.308 81.4607 22.628C81.0207 22.948 80.4367 23.108 79.7087 23.108Z" fill="#212529"/>
<path d="M120.918 16.5215C120.831 16.5216 120.747 16.5473 120.675 16.5953C120.603 16.6434 120.547 16.7117 120.514 16.7916C120.481 16.8715 120.472 16.9594 120.489 17.0442C120.506 17.129 120.547 17.207 120.608 17.2682L124.692 21.3515C124.774 21.4334 124.885 21.4794 125.001 21.4794C125.117 21.4794 125.228 21.4334 125.31 21.3515L129.393 17.2682C129.455 17.207 129.496 17.129 129.513 17.0442C129.53 16.9594 129.521 16.8715 129.488 16.7916C129.455 16.7117 129.399 16.6434 129.327 16.5953C129.255 16.5473 129.171 16.5216 129.084 16.5215H120.918Z" fill="#212529"/>
</svg>
