<svg width="139" height="38" viewBox="0 0 139 38" fill="none" xmlns="http://www.w3.org/2000/svg">
<path d="M10 0.25H129C134.385 0.25 138.75 4.61522 138.75 10V28C138.75 33.3848 134.385 37.75 129 37.75H10C4.61522 37.75 0.25 33.3848 0.25 28V10C0.25 4.61522 4.61522 0.25 10 0.25Z" stroke="#D4D8DD" stroke-width="0.5"/>
<path d="M15.936 23.084C15.776 23.084 15.648 23.048 15.552 22.976C15.456 22.904 15.4 22.808 15.384 22.688C15.368 22.568 15.392 22.432 15.456 22.28L18.708 14.984C18.788 14.792 18.888 14.656 19.008 14.576C19.136 14.496 19.276 14.456 19.428 14.456C19.572 14.456 19.704 14.496 19.824 14.576C19.952 14.656 20.056 14.792 20.136 14.984L23.388 22.28C23.46 22.432 23.488 22.572 23.472 22.7C23.456 22.82 23.404 22.916 23.316 22.988C23.228 23.052 23.104 23.084 22.944 23.084C22.768 23.084 22.628 23.04 22.524 22.952C22.42 22.864 22.328 22.728 22.248 22.544L21.408 20.6L21.972 20.936H16.86L17.412 20.6L16.584 22.544C16.504 22.736 16.416 22.876 16.32 22.964C16.224 23.044 16.096 23.084 15.936 23.084ZM19.404 15.92L17.592 20.216L17.292 19.928H21.528L21.252 20.216L19.428 15.92H19.404ZM26.5719 23.108C25.9479 23.108 25.4759 22.928 25.1559 22.568C24.8439 22.2 24.6879 21.672 24.6879 20.984V15.068C24.6879 14.868 24.7399 14.716 24.8439 14.612C24.9479 14.508 25.0959 14.456 25.2879 14.456C25.4799 14.456 25.6279 14.508 25.7319 14.612C25.8439 14.716 25.8999 14.868 25.8999 15.068V20.912C25.8999 21.312 25.9799 21.612 26.1399 21.812C26.3079 22.004 26.5479 22.1 26.8599 22.1C26.9319 22.1 26.9959 22.1 27.0519 22.1C27.1079 22.092 27.1639 22.084 27.2199 22.076C27.3159 22.068 27.3839 22.096 27.4239 22.16C27.4639 22.216 27.4839 22.336 27.4839 22.52C27.4839 22.688 27.4479 22.82 27.3759 22.916C27.3039 23.004 27.1879 23.06 27.0279 23.084C26.9559 23.092 26.8799 23.096 26.7999 23.096C26.7199 23.104 26.6439 23.108 26.5719 23.108ZM30.2399 23.108C29.6159 23.108 29.1439 22.928 28.8239 22.568C28.5119 22.2 28.3559 21.672 28.3559 20.984V15.068C28.3559 14.868 28.4079 14.716 28.5119 14.612C28.6159 14.508 28.7639 14.456 28.9559 14.456C29.1479 14.456 29.2959 14.508 29.3999 14.612C29.5119 14.716 29.5679 14.868 29.5679 15.068V20.912C29.5679 21.312 29.6479 21.612 29.8079 21.812C29.9759 22.004 30.2159 22.1 30.5279 22.1C30.5999 22.1 30.6639 22.1 30.7199 22.1C30.7759 22.092 30.8319 22.084 30.8879 22.076C30.9839 22.068 31.0519 22.096 31.0919 22.16C31.1319 22.216 31.1519 22.336 31.1519 22.52C31.1519 22.688 31.1159 22.82 31.0439 22.916C30.9719 23.004 30.8559 23.06 30.6959 23.084C30.6239 23.092 30.5479 23.096 30.4679 23.096C30.3879 23.104 30.3119 23.108 30.2399 23.108ZM35.7879 25.244C35.5959 25.244 35.4479 25.192 35.3439 25.088C35.2399 24.984 35.1879 24.832 35.1879 24.632V17.672C35.1879 17.472 35.2399 17.32 35.3439 17.216C35.4479 17.112 35.5919 17.06 35.7759 17.06C35.9679 17.06 36.1159 17.112 36.2199 17.216C36.3239 17.32 36.3759 17.472 36.3759 17.672V18.716L36.2439 18.464C36.3719 18.032 36.6239 17.688 36.9999 17.432C37.3759 17.168 37.8199 17.036 38.3319 17.036C38.8519 17.036 39.3039 17.16 39.6879 17.408C40.0799 17.656 40.3799 18.004 40.5879 18.452C40.8039 18.9 40.9119 19.44 40.9119 20.072C40.9119 20.688 40.8039 21.228 40.5879 21.692C40.3799 22.148 40.0839 22.5 39.6999 22.748C39.3159 22.988 38.8599 23.108 38.3319 23.108C37.8279 23.108 37.3879 22.98 37.0119 22.724C36.6359 22.468 36.3839 22.128 36.2559 21.704H36.3999V24.632C36.3999 24.832 36.3439 24.984 36.2319 25.088C36.1279 25.192 35.9799 25.244 35.7879 25.244ZM38.0319 22.172C38.3679 22.172 38.6599 22.092 38.9079 21.932C39.1559 21.772 39.3479 21.536 39.4839 21.224C39.6199 20.912 39.6879 20.528 39.6879 20.072C39.6879 19.384 39.5359 18.864 39.2319 18.512C38.9359 18.16 38.5359 17.984 38.0319 17.984C37.7039 17.984 37.4119 18.064 37.1559 18.224C36.9079 18.376 36.7159 18.608 36.5799 18.92C36.4439 19.232 36.3759 19.616 36.3759 20.072C36.3759 20.752 36.5279 21.272 36.8319 21.632C37.1359 21.992 37.5359 22.172 38.0319 22.172ZM42.8898 23.084C42.6898 23.084 42.5378 23.032 42.4338 22.928C42.3298 22.816 42.2778 22.664 42.2778 22.472V17.672C42.2778 17.472 42.3298 17.32 42.4338 17.216C42.5378 17.112 42.6818 17.06 42.8658 17.06C43.0578 17.06 43.2018 17.112 43.2978 17.216C43.4018 17.32 43.4538 17.472 43.4538 17.672V18.548H43.3338C43.4618 18.068 43.6978 17.704 44.0418 17.456C44.3858 17.208 44.8258 17.064 45.3618 17.024C45.5058 17.016 45.6178 17.052 45.6978 17.132C45.7858 17.212 45.8338 17.336 45.8418 17.504C45.8578 17.672 45.8218 17.808 45.7338 17.912C45.6458 18.008 45.5098 18.064 45.3258 18.08L45.0978 18.104C44.5778 18.152 44.1818 18.316 43.9098 18.596C43.6378 18.876 43.5018 19.26 43.5018 19.748V22.472C43.5018 22.664 43.4498 22.816 43.3458 22.928C43.2498 23.032 43.0978 23.084 42.8898 23.084ZM49.2163 23.108C48.6243 23.108 48.1123 22.984 47.6803 22.736C47.2563 22.488 46.9243 22.136 46.6843 21.68C46.4443 21.224 46.3243 20.688 46.3243 20.072C46.3243 19.6 46.3923 19.18 46.5283 18.812C46.6643 18.444 46.8563 18.128 47.1043 17.864C47.3603 17.592 47.6643 17.388 48.0163 17.252C48.3763 17.108 48.7763 17.036 49.2163 17.036C49.8003 17.036 50.3043 17.16 50.7283 17.408C51.1603 17.656 51.4963 18.008 51.7363 18.464C51.9763 18.912 52.0963 19.448 52.0963 20.072C52.0963 20.536 52.0283 20.956 51.8923 21.332C51.7563 21.708 51.5603 22.028 51.3043 22.292C51.0563 22.556 50.7523 22.76 50.3923 22.904C50.0403 23.04 49.6483 23.108 49.2163 23.108ZM49.2163 22.172C49.5443 22.172 49.8323 22.092 50.0803 21.932C50.3283 21.772 50.5203 21.536 50.6563 21.224C50.8003 20.912 50.8723 20.528 50.8723 20.072C50.8723 19.384 50.7203 18.864 50.4163 18.512C50.1123 18.16 49.7123 17.984 49.2163 17.984C48.8803 17.984 48.5883 18.064 48.3403 18.224C48.0923 18.376 47.8963 18.608 47.7523 18.92C47.6163 19.232 47.5483 19.616 47.5483 20.072C47.5483 20.752 47.7003 21.272 48.0043 21.632C48.3083 21.992 48.7123 22.172 49.2163 22.172ZM52.5215 25.28C52.3775 25.288 52.2615 25.264 52.1735 25.208C52.0775 25.152 52.0135 25.08 51.9815 24.992C51.9415 24.904 51.9295 24.812 51.9455 24.716C51.9535 24.628 51.9935 24.548 52.0655 24.476C52.1295 24.412 52.2175 24.376 52.3295 24.368C52.7295 24.344 53.0215 24.236 53.2055 24.044C53.3975 23.852 53.4935 23.548 53.4935 23.132V17.672C53.4935 17.472 53.5455 17.32 53.6495 17.216C53.7615 17.112 53.9135 17.06 54.1055 17.06C54.3055 17.06 54.4535 17.112 54.5495 17.216C54.6535 17.32 54.7055 17.472 54.7055 17.672V23.036C54.7055 23.532 54.6215 23.94 54.4535 24.26C54.2935 24.588 54.0535 24.832 53.7335 24.992C53.4135 25.152 53.0095 25.248 52.5215 25.28ZM54.1055 15.836C53.8655 15.836 53.6775 15.776 53.5415 15.656C53.4135 15.536 53.3495 15.368 53.3495 15.152C53.3495 14.928 53.4135 14.76 53.5415 14.648C53.6775 14.528 53.8655 14.468 54.1055 14.468C54.3455 14.468 54.5295 14.528 54.6575 14.648C54.7855 14.76 54.8495 14.928 54.8495 15.152C54.8495 15.368 54.7855 15.536 54.6575 15.656C54.5295 15.776 54.3455 15.836 54.1055 15.836ZM59.1586 23.108C58.5186 23.108 57.9666 22.988 57.5026 22.748C57.0466 22.5 56.6906 22.152 56.4346 21.704C56.1866 21.248 56.0626 20.708 56.0626 20.084C56.0626 19.476 56.1866 18.944 56.4346 18.488C56.6826 18.032 57.0226 17.676 57.4546 17.42C57.8866 17.164 58.3786 17.036 58.9306 17.036C59.3386 17.036 59.7026 17.104 60.0226 17.24C60.3426 17.368 60.6146 17.56 60.8386 17.816C61.0706 18.064 61.2426 18.368 61.3546 18.728C61.4746 19.088 61.5346 19.492 61.5346 19.94C61.5346 20.076 61.4946 20.18 61.4146 20.252C61.3346 20.316 61.2146 20.348 61.0546 20.348H57.0226V19.604H60.7186L60.5146 19.772C60.5146 19.372 60.4546 19.032 60.3346 18.752C60.2226 18.472 60.0506 18.26 59.8186 18.116C59.5946 17.964 59.3146 17.888 58.9786 17.888C58.6026 17.888 58.2826 17.976 58.0186 18.152C57.7626 18.328 57.5666 18.572 57.4306 18.884C57.2946 19.196 57.2266 19.56 57.2266 19.976V20.048C57.2266 20.752 57.3906 21.284 57.7186 21.644C58.0546 21.996 58.5386 22.172 59.1706 22.172C59.4106 22.172 59.6626 22.14 59.9266 22.076C60.1986 22.012 60.4546 21.904 60.6946 21.752C60.8306 21.672 60.9506 21.636 61.0546 21.644C61.1666 21.652 61.2546 21.688 61.3186 21.752C61.3906 21.816 61.4346 21.896 61.4506 21.992C61.4666 22.088 61.4506 22.188 61.4026 22.292C61.3546 22.388 61.2706 22.476 61.1506 22.556C60.8786 22.74 60.5626 22.88 60.2026 22.976C59.8426 23.064 59.4946 23.108 59.1586 23.108ZM65.4359 23.108C64.8359 23.108 64.3159 22.984 63.8759 22.736C63.4439 22.48 63.1079 22.124 62.8679 21.668C62.6279 21.204 62.5079 20.66 62.5079 20.036C62.5079 19.572 62.5759 19.156 62.7119 18.788C62.8479 18.412 63.0399 18.096 63.2879 17.84C63.5439 17.584 63.8519 17.388 64.2119 17.252C64.5799 17.108 64.9879 17.036 65.4359 17.036C65.7159 17.036 66.0079 17.08 66.3119 17.168C66.6239 17.248 66.9119 17.384 67.1759 17.576C67.2799 17.64 67.3439 17.72 67.3679 17.816C67.3999 17.904 67.4039 17.996 67.3799 18.092C67.3639 18.188 67.3199 18.272 67.2479 18.344C67.1839 18.408 67.1039 18.448 67.0079 18.464C66.9119 18.472 66.8079 18.444 66.6959 18.38C66.5039 18.244 66.3079 18.148 66.1079 18.092C65.9079 18.028 65.7159 17.996 65.5319 17.996C65.2439 17.996 64.9879 18.044 64.7639 18.14C64.5479 18.228 64.3639 18.36 64.2119 18.536C64.0599 18.704 63.9439 18.916 63.8639 19.172C63.7919 19.428 63.7559 19.72 63.7559 20.048C63.7559 20.704 63.9079 21.22 64.2119 21.596C64.5239 21.964 64.9639 22.148 65.5319 22.148C65.7159 22.148 65.9079 22.12 66.1079 22.064C66.3079 22.008 66.5039 21.912 66.6959 21.776C66.8079 21.712 66.9119 21.688 67.0079 21.704C67.1039 21.72 67.1799 21.764 67.2359 21.836C67.2999 21.9 67.3399 21.98 67.3559 22.076C67.3799 22.164 67.3759 22.256 67.3439 22.352C67.3119 22.448 67.2439 22.528 67.1399 22.592C66.8839 22.776 66.6039 22.908 66.2999 22.988C66.0039 23.068 65.7159 23.108 65.4359 23.108ZM70.9652 23.108C70.4852 23.108 70.0812 23.024 69.7532 22.856C69.4252 22.688 69.1812 22.44 69.0212 22.112C68.8612 21.784 68.7812 21.384 68.7812 20.912V18.08H68.0612C67.9012 18.08 67.7772 18.04 67.6892 17.96C67.6012 17.872 67.5572 17.756 67.5572 17.612C67.5572 17.46 67.6012 17.344 67.6892 17.264C67.7772 17.184 67.9012 17.144 68.0612 17.144H68.7812V15.908C68.7812 15.708 68.8332 15.556 68.9372 15.452C69.0492 15.348 69.2012 15.296 69.3932 15.296C69.5852 15.296 69.7332 15.348 69.8372 15.452C69.9412 15.556 69.9932 15.708 69.9932 15.908V17.144H71.3972C71.5572 17.144 71.6812 17.184 71.7692 17.264C71.8572 17.344 71.9012 17.46 71.9012 17.612C71.9012 17.756 71.8572 17.872 71.7692 17.96C71.6812 18.04 71.5572 18.08 71.3972 18.08H69.9932V20.816C69.9932 21.24 70.0812 21.56 70.2572 21.776C70.4412 21.992 70.7372 22.1 71.1452 22.1C71.2892 22.1 71.4132 22.088 71.5172 22.064C71.6292 22.032 71.7212 22.012 71.7932 22.004C71.8812 22.004 71.9532 22.036 72.0092 22.1C72.0652 22.156 72.0932 22.268 72.0932 22.436C72.0932 22.556 72.0692 22.668 72.0212 22.772C71.9812 22.876 71.9052 22.944 71.7932 22.976C71.6972 23.008 71.5652 23.036 71.3972 23.06C71.2372 23.092 71.0932 23.108 70.9652 23.108ZM74.904 23.108C74.552 23.108 74.188 23.068 73.812 22.988C73.444 22.908 73.104 22.772 72.792 22.58C72.688 22.508 72.616 22.428 72.576 22.34C72.536 22.252 72.52 22.164 72.528 22.076C72.544 21.98 72.58 21.9 72.636 21.836C72.7 21.764 72.776 21.72 72.864 21.704C72.96 21.688 73.06 21.708 73.164 21.764C73.476 21.94 73.776 22.064 74.064 22.136C74.352 22.2 74.636 22.232 74.916 22.232C75.34 22.232 75.66 22.156 75.876 22.004C76.092 21.852 76.2 21.648 76.2 21.392C76.2 21.184 76.128 21.024 75.984 20.912C75.84 20.792 75.624 20.7 75.336 20.636L74.196 20.408C73.7 20.304 73.324 20.12 73.068 19.856C72.812 19.592 72.684 19.256 72.684 18.848C72.684 18.48 72.784 18.16 72.984 17.888C73.184 17.616 73.464 17.408 73.824 17.264C74.184 17.112 74.6 17.036 75.072 17.036C75.424 17.036 75.756 17.08 76.068 17.168C76.38 17.256 76.668 17.388 76.932 17.564C77.036 17.62 77.104 17.696 77.136 17.792C77.168 17.88 77.172 17.968 77.148 18.056C77.132 18.144 77.092 18.224 77.028 18.296C76.964 18.36 76.884 18.4 76.788 18.416C76.7 18.424 76.6 18.4 76.488 18.344C76.248 18.192 76.008 18.084 75.768 18.02C75.536 17.956 75.304 17.924 75.072 17.924C74.648 17.924 74.328 18.004 74.112 18.164C73.904 18.316 73.8 18.524 73.8 18.788C73.8 18.988 73.864 19.152 73.992 19.28C74.12 19.408 74.32 19.5 74.592 19.556L75.732 19.784C76.252 19.888 76.644 20.064 76.908 20.312C77.18 20.56 77.316 20.896 77.316 21.32C77.316 21.872 77.096 22.308 76.656 22.628C76.216 22.948 75.632 23.108 74.904 23.108Z" fill="#212529"/>
<path d="M120.918 16.5215C120.831 16.5216 120.747 16.5473 120.675 16.5953C120.603 16.6434 120.547 16.7117 120.514 16.7916C120.481 16.8715 120.472 16.9594 120.489 17.0442C120.506 17.129 120.547 17.207 120.608 17.2682L124.692 21.3515C124.774 21.4334 124.885 21.4794 125.001 21.4794C125.117 21.4794 125.228 21.4334 125.31 21.3515L129.393 17.2682C129.455 17.207 129.496 17.129 129.513 17.0442C129.53 16.9594 129.521 16.8715 129.488 16.7916C129.455 16.7117 129.399 16.6434 129.327 16.5953C129.255 16.5473 129.171 16.5216 129.084 16.5215H120.918Z" fill="#212529"/>
</svg>
