<svg width="139" height="38" viewBox="0 0 139 38" fill="none" xmlns="http://www.w3.org/2000/svg">
<path d="M10 0.25H129C134.385 0.25 138.75 4.61522 138.75 10V28C138.75 33.3848 134.385 37.75 129 37.75H10C4.61522 37.75 0.25 33.3848 0.25 28V10C0.25 4.61522 4.61522 0.25 10 0.25Z" stroke="#D4D8DD" stroke-width="0.5"/>
<path d="M19.776 23.108C18.92 23.108 18.188 22.932 17.58 22.58C16.972 22.228 16.504 21.728 16.176 21.08C15.856 20.424 15.696 19.652 15.696 18.764C15.696 18.1 15.788 17.504 15.972 16.976C16.156 16.44 16.42 15.984 16.764 15.608C17.116 15.224 17.544 14.932 18.048 14.732C18.56 14.532 19.136 14.432 19.776 14.432C20.248 14.432 20.7 14.496 21.132 14.624C21.572 14.752 21.952 14.936 22.272 15.176C22.408 15.264 22.496 15.372 22.536 15.5C22.584 15.62 22.592 15.736 22.56 15.848C22.536 15.96 22.484 16.056 22.404 16.136C22.324 16.208 22.22 16.248 22.092 16.256C21.972 16.264 21.84 16.22 21.696 16.124C21.432 15.924 21.14 15.776 20.82 15.68C20.5 15.584 20.164 15.536 19.812 15.536C19.204 15.536 18.692 15.664 18.276 15.92C17.86 16.168 17.544 16.532 17.328 17.012C17.112 17.492 17.004 18.076 17.004 18.764C17.004 19.452 17.112 20.04 17.328 20.528C17.544 21.008 17.86 21.376 18.276 21.632C18.692 21.88 19.204 22.004 19.812 22.004C20.164 22.004 20.5 21.956 20.82 21.86C21.148 21.756 21.456 21.604 21.744 21.404C21.888 21.316 22.016 21.276 22.128 21.284C22.248 21.292 22.348 21.332 22.428 21.404C22.508 21.476 22.56 21.568 22.584 21.68C22.616 21.784 22.612 21.896 22.572 22.016C22.54 22.128 22.464 22.224 22.344 22.304C22.016 22.568 21.628 22.768 21.18 22.904C20.732 23.04 20.264 23.108 19.776 23.108ZM24.5614 23.084C24.3694 23.084 24.2214 23.032 24.1174 22.928C24.0134 22.816 23.9614 22.664 23.9614 22.472V15.068C23.9614 14.868 24.0134 14.716 24.1174 14.612C24.2214 14.508 24.3694 14.456 24.5614 14.456C24.7534 14.456 24.9014 14.508 25.0054 14.612C25.1174 14.716 25.1734 14.868 25.1734 15.068V18.392H25.0054C25.1814 17.944 25.4574 17.608 25.8334 17.384C26.2094 17.152 26.6414 17.036 27.1294 17.036C27.5934 17.036 27.9774 17.124 28.2814 17.3C28.5934 17.468 28.8254 17.728 28.9774 18.08C29.1294 18.424 29.2054 18.86 29.2054 19.388V22.472C29.2054 22.664 29.1534 22.816 29.0494 22.928C28.9454 23.032 28.7974 23.084 28.6054 23.084C28.4054 23.084 28.2534 23.032 28.1494 22.928C28.0454 22.816 27.9934 22.664 27.9934 22.472V19.46C27.9934 18.956 27.8934 18.588 27.6934 18.356C27.5014 18.124 27.1974 18.008 26.7814 18.008C26.2934 18.008 25.9014 18.16 25.6054 18.464C25.3174 18.768 25.1734 19.176 25.1734 19.688V22.472C25.1734 22.88 24.9694 23.084 24.5614 23.084ZM33.4194 23.108C32.8274 23.108 32.3154 22.984 31.8834 22.736C31.4594 22.488 31.1274 22.136 30.8874 21.68C30.6474 21.224 30.5274 20.688 30.5274 20.072C30.5274 19.6 30.5954 19.18 30.7314 18.812C30.8674 18.444 31.0594 18.128 31.3074 17.864C31.5634 17.592 31.8674 17.388 32.2194 17.252C32.5794 17.108 32.9794 17.036 33.4194 17.036C34.0034 17.036 34.5074 17.16 34.9314 17.408C35.3634 17.656 35.6994 18.008 35.9394 18.464C36.1794 18.912 36.2994 19.448 36.2994 20.072C36.2994 20.536 36.2314 20.956 36.0954 21.332C35.9594 21.708 35.7634 22.028 35.5074 22.292C35.2594 22.556 34.9554 22.76 34.5954 22.904C34.2434 23.04 33.8514 23.108 33.4194 23.108ZM33.4194 22.172C33.7474 22.172 34.0354 22.092 34.2834 21.932C34.5314 21.772 34.7234 21.536 34.8594 21.224C35.0034 20.912 35.0754 20.528 35.0754 20.072C35.0754 19.384 34.9234 18.864 34.6194 18.512C34.3154 18.16 33.9154 17.984 33.4194 17.984C33.0834 17.984 32.7914 18.064 32.5434 18.224C32.2954 18.376 32.0994 18.608 31.9554 18.92C31.8194 19.232 31.7514 19.616 31.7514 20.072C31.7514 20.752 31.9034 21.272 32.2074 21.632C32.5114 21.992 32.9154 22.172 33.4194 22.172ZM40.2046 23.108C39.6126 23.108 39.1006 22.984 38.6686 22.736C38.2446 22.488 37.9126 22.136 37.6726 21.68C37.4326 21.224 37.3126 20.688 37.3126 20.072C37.3126 19.6 37.3806 19.18 37.5166 18.812C37.6526 18.444 37.8446 18.128 38.0926 17.864C38.3486 17.592 38.6526 17.388 39.0046 17.252C39.3646 17.108 39.7646 17.036 40.2046 17.036C40.7886 17.036 41.2926 17.16 41.7166 17.408C42.1486 17.656 42.4846 18.008 42.7246 18.464C42.9646 18.912 43.0846 19.448 43.0846 20.072C43.0846 20.536 43.0166 20.956 42.8806 21.332C42.7446 21.708 42.5486 22.028 42.2926 22.292C42.0446 22.556 41.7406 22.76 41.3806 22.904C41.0286 23.04 40.6366 23.108 40.2046 23.108ZM40.2046 22.172C40.5326 22.172 40.8206 22.092 41.0686 21.932C41.3166 21.772 41.5086 21.536 41.6446 21.224C41.7886 20.912 41.8606 20.528 41.8606 20.072C41.8606 19.384 41.7086 18.864 41.4046 18.512C41.1006 18.16 40.7006 17.984 40.2046 17.984C39.8686 17.984 39.5766 18.064 39.3286 18.224C39.0806 18.376 38.8846 18.608 38.7406 18.92C38.6046 19.232 38.5366 19.616 38.5366 20.072C38.5366 20.752 38.6886 21.272 38.9926 21.632C39.2966 21.992 39.7006 22.172 40.2046 22.172ZM46.4978 23.108C46.1458 23.108 45.7818 23.068 45.4058 22.988C45.0378 22.908 44.6978 22.772 44.3857 22.58C44.2818 22.508 44.2098 22.428 44.1698 22.34C44.1298 22.252 44.1138 22.164 44.1218 22.076C44.1378 21.98 44.1738 21.9 44.2298 21.836C44.2938 21.764 44.3698 21.72 44.4578 21.704C44.5538 21.688 44.6538 21.708 44.7578 21.764C45.0698 21.94 45.3698 22.064 45.6578 22.136C45.9458 22.2 46.2298 22.232 46.5098 22.232C46.9338 22.232 47.2538 22.156 47.4698 22.004C47.6858 21.852 47.7938 21.648 47.7938 21.392C47.7938 21.184 47.7218 21.024 47.5778 20.912C47.4338 20.792 47.2178 20.7 46.9298 20.636L45.7898 20.408C45.2938 20.304 44.9178 20.12 44.6618 19.856C44.4058 19.592 44.2778 19.256 44.2778 18.848C44.2778 18.48 44.3778 18.16 44.5778 17.888C44.7778 17.616 45.0578 17.408 45.4178 17.264C45.7778 17.112 46.1938 17.036 46.6658 17.036C47.0178 17.036 47.3498 17.08 47.6618 17.168C47.9738 17.256 48.2618 17.388 48.5258 17.564C48.6298 17.62 48.6978 17.696 48.7298 17.792C48.7618 17.88 48.7658 17.968 48.7418 18.056C48.7258 18.144 48.6858 18.224 48.6218 18.296C48.5578 18.36 48.4778 18.4 48.3818 18.416C48.2938 18.424 48.1938 18.4 48.0818 18.344C47.8418 18.192 47.6018 18.084 47.3618 18.02C47.1298 17.956 46.8978 17.924 46.6658 17.924C46.2418 17.924 45.9218 18.004 45.7058 18.164C45.4978 18.316 45.3938 18.524 45.3938 18.788C45.3938 18.988 45.4578 19.152 45.5858 19.28C45.7138 19.408 45.9138 19.5 46.1858 19.556L47.3258 19.784C47.8458 19.888 48.2378 20.064 48.5018 20.312C48.7738 20.56 48.9098 20.896 48.9098 21.32C48.9098 21.872 48.6898 22.308 48.2498 22.628C47.8098 22.948 47.2258 23.108 46.4978 23.108ZM53.0063 23.108C52.3663 23.108 51.8143 22.988 51.3503 22.748C50.8943 22.5 50.5383 22.152 50.2823 21.704C50.0343 21.248 49.9103 20.708 49.9103 20.084C49.9103 19.476 50.0343 18.944 50.2823 18.488C50.5303 18.032 50.8703 17.676 51.3023 17.42C51.7343 17.164 52.2263 17.036 52.7783 17.036C53.1863 17.036 53.5503 17.104 53.8703 17.24C54.1903 17.368 54.4623 17.56 54.6863 17.816C54.9183 18.064 55.0903 18.368 55.2023 18.728C55.3223 19.088 55.3823 19.492 55.3823 19.94C55.3823 20.076 55.3423 20.18 55.2623 20.252C55.1823 20.316 55.0623 20.348 54.9023 20.348H50.8703V19.604H54.5663L54.3623 19.772C54.3623 19.372 54.3023 19.032 54.1823 18.752C54.0703 18.472 53.8983 18.26 53.6663 18.116C53.4423 17.964 53.1623 17.888 52.8263 17.888C52.4503 17.888 52.1303 17.976 51.8663 18.152C51.6103 18.328 51.4143 18.572 51.2783 18.884C51.1423 19.196 51.0743 19.56 51.0743 19.976V20.048C51.0743 20.752 51.2383 21.284 51.5663 21.644C51.9023 21.996 52.3863 22.172 53.0183 22.172C53.2583 22.172 53.5103 22.14 53.7743 22.076C54.0463 22.012 54.3023 21.904 54.5423 21.752C54.6783 21.672 54.7983 21.636 54.9023 21.644C55.0143 21.652 55.1023 21.688 55.1663 21.752C55.2383 21.816 55.2823 21.896 55.2983 21.992C55.3143 22.088 55.2983 22.188 55.2503 22.292C55.2023 22.388 55.1183 22.476 54.9983 22.556C54.7263 22.74 54.4103 22.88 54.0503 22.976C53.6903 23.064 53.3423 23.108 53.0063 23.108ZM61.9556 23.108C61.4836 23.108 61.0876 23.02 60.7676 22.844C60.4556 22.668 60.2196 22.408 60.0596 22.064C59.9076 21.712 59.8316 21.272 59.8316 20.744V17.672C59.8316 17.464 59.8836 17.312 59.9876 17.216C60.0916 17.112 60.2396 17.06 60.4316 17.06C60.6236 17.06 60.7716 17.112 60.8756 17.216C60.9876 17.312 61.0436 17.464 61.0436 17.672V20.756C61.0436 21.228 61.1396 21.576 61.3316 21.8C61.5236 22.024 61.8276 22.136 62.2436 22.136C62.6996 22.136 63.0676 21.984 63.3476 21.68C63.6356 21.368 63.7796 20.96 63.7796 20.456V17.672C63.7796 17.464 63.8316 17.312 63.9356 17.216C64.0396 17.112 64.1916 17.06 64.3916 17.06C64.5836 17.06 64.7316 17.112 64.8356 17.216C64.9396 17.312 64.9916 17.464 64.9916 17.672V22.472C64.9916 22.88 64.7956 23.084 64.4036 23.084C64.2196 23.084 64.0756 23.032 63.9716 22.928C63.8676 22.816 63.8156 22.664 63.8156 22.472V21.452L63.9716 21.716C63.8116 22.164 63.5556 22.508 63.2036 22.748C62.8516 22.988 62.4356 23.108 61.9556 23.108ZM68.7517 23.108C68.3997 23.108 68.0357 23.068 67.6597 22.988C67.2917 22.908 66.9517 22.772 66.6397 22.58C66.5357 22.508 66.4637 22.428 66.4237 22.34C66.3837 22.252 66.3677 22.164 66.3757 22.076C66.3917 21.98 66.4277 21.9 66.4837 21.836C66.5477 21.764 66.6237 21.72 66.7117 21.704C66.8077 21.688 66.9077 21.708 67.0117 21.764C67.3237 21.94 67.6237 22.064 67.9117 22.136C68.1997 22.2 68.4837 22.232 68.7637 22.232C69.1877 22.232 69.5077 22.156 69.7237 22.004C69.9397 21.852 70.0477 21.648 70.0477 21.392C70.0477 21.184 69.9757 21.024 69.8317 20.912C69.6877 20.792 69.4717 20.7 69.1837 20.636L68.0437 20.408C67.5477 20.304 67.1717 20.12 66.9157 19.856C66.6597 19.592 66.5317 19.256 66.5317 18.848C66.5317 18.48 66.6317 18.16 66.8317 17.888C67.0317 17.616 67.3117 17.408 67.6717 17.264C68.0317 17.112 68.4477 17.036 68.9197 17.036C69.2717 17.036 69.6037 17.08 69.9157 17.168C70.2277 17.256 70.5157 17.388 70.7797 17.564C70.8837 17.62 70.9517 17.696 70.9837 17.792C71.0157 17.88 71.0197 17.968 70.9957 18.056C70.9797 18.144 70.9397 18.224 70.8757 18.296C70.8117 18.36 70.7317 18.4 70.6357 18.416C70.5477 18.424 70.4477 18.4 70.3357 18.344C70.0957 18.192 69.8557 18.084 69.6157 18.02C69.3837 17.956 69.1517 17.924 68.9197 17.924C68.4957 17.924 68.1757 18.004 67.9597 18.164C67.7517 18.316 67.6477 18.524 67.6477 18.788C67.6477 18.988 67.7117 19.152 67.8397 19.28C67.9677 19.408 68.1677 19.5 68.4397 19.556L69.5797 19.784C70.0997 19.888 70.4917 20.064 70.7557 20.312C71.0277 20.56 71.1637 20.896 71.1637 21.32C71.1637 21.872 70.9437 22.308 70.5037 22.628C70.0637 22.948 69.4797 23.108 68.7517 23.108ZM75.2602 23.108C74.6202 23.108 74.0682 22.988 73.6042 22.748C73.1482 22.5 72.7922 22.152 72.5362 21.704C72.2882 21.248 72.1642 20.708 72.1642 20.084C72.1642 19.476 72.2882 18.944 72.5362 18.488C72.7842 18.032 73.1242 17.676 73.5562 17.42C73.9882 17.164 74.4802 17.036 75.0322 17.036C75.4402 17.036 75.8042 17.104 76.1242 17.24C76.4442 17.368 76.7162 17.56 76.9402 17.816C77.1722 18.064 77.3442 18.368 77.4562 18.728C77.5762 19.088 77.6362 19.492 77.6362 19.94C77.6362 20.076 77.5962 20.18 77.5162 20.252C77.4362 20.316 77.3162 20.348 77.1562 20.348H73.1242V19.604H76.8202L76.6162 19.772C76.6162 19.372 76.5562 19.032 76.4362 18.752C76.3242 18.472 76.1522 18.26 75.9202 18.116C75.6962 17.964 75.4162 17.888 75.0802 17.888C74.7042 17.888 74.3842 17.976 74.1202 18.152C73.8642 18.328 73.6682 18.572 73.5322 18.884C73.3962 19.196 73.3282 19.56 73.3282 19.976V20.048C73.3282 20.752 73.4922 21.284 73.8202 21.644C74.1562 21.996 74.6402 22.172 75.2722 22.172C75.5122 22.172 75.7642 22.14 76.0282 22.076C76.3002 22.012 76.5562 21.904 76.7962 21.752C76.9322 21.672 77.0522 21.636 77.1562 21.644C77.2682 21.652 77.3562 21.688 77.4202 21.752C77.4922 21.816 77.5362 21.896 77.5522 21.992C77.5682 22.088 77.5522 22.188 77.5042 22.292C77.4562 22.388 77.3722 22.476 77.2522 22.556C76.9802 22.74 76.6642 22.88 76.3042 22.976C75.9442 23.064 75.5962 23.108 75.2602 23.108ZM79.5695 23.084C79.3695 23.084 79.2175 23.032 79.1135 22.928C79.0095 22.816 78.9575 22.664 78.9575 22.472V17.672C78.9575 17.472 79.0095 17.32 79.1135 17.216C79.2175 17.112 79.3615 17.06 79.5455 17.06C79.7375 17.06 79.8815 17.112 79.9775 17.216C80.0815 17.32 80.1335 17.472 80.1335 17.672V18.548H80.0135C80.1415 18.068 80.3775 17.704 80.7215 17.456C81.0655 17.208 81.5055 17.064 82.0415 17.024C82.1855 17.016 82.2975 17.052 82.3775 17.132C82.4655 17.212 82.5135 17.336 82.5215 17.504C82.5375 17.672 82.5015 17.808 82.4135 17.912C82.3255 18.008 82.1895 18.064 82.0055 18.08L81.7775 18.104C81.2575 18.152 80.8615 18.316 80.5895 18.596C80.3175 18.876 80.1815 19.26 80.1815 19.748V22.472C80.1815 22.664 80.1295 22.816 80.0255 22.928C79.9295 23.032 79.7775 23.084 79.5695 23.084Z" fill="#212529"/>
<path d="M120.918 16.5215C120.831 16.5216 120.747 16.5473 120.675 16.5953C120.603 16.6434 120.547 16.7117 120.514 16.7916C120.481 16.8715 120.472 16.9594 120.489 17.0442C120.506 17.129 120.547 17.207 120.608 17.2682L124.692 21.3515C124.774 21.4334 124.885 21.4794 125.001 21.4794C125.117 21.4794 125.228 21.4334 125.31 21.3515L129.393 17.2682C129.455 17.207 129.496 17.129 129.513 17.0442C129.53 16.9594 129.521 16.8715 129.488 16.7916C129.455 16.7117 129.399 16.6434 129.327 16.5953C129.255 16.5473 129.171 16.5216 129.084 16.5215H120.918Z" fill="#212529"/>
</svg>
