<svg width="139" height="38" viewBox="0 0 139 38" fill="none" xmlns="http://www.w3.org/2000/svg">
<path d="M10 0.25H129C134.385 0.25 138.75 4.61522 138.75 10V28C138.75 33.3848 134.385 37.75 129 37.75H10C4.61522 37.75 0.25 33.3848 0.25 28V10C0.25 4.61522 4.61522 0.25 10 0.25Z" stroke="#D4D8DD" stroke-width="0.5"/>
<path d="M15.936 23.084C15.776 23.084 15.648 23.048 15.552 22.976C15.456 22.904 15.4 22.808 15.384 22.688C15.368 22.568 15.392 22.432 15.456 22.28L18.708 14.984C18.788 14.792 18.888 14.656 19.008 14.576C19.136 14.496 19.276 14.456 19.428 14.456C19.572 14.456 19.704 14.496 19.824 14.576C19.952 14.656 20.056 14.792 20.136 14.984L23.388 22.28C23.46 22.432 23.488 22.572 23.472 22.7C23.456 22.82 23.404 22.916 23.316 22.988C23.228 23.052 23.104 23.084 22.944 23.084C22.768 23.084 22.628 23.04 22.524 22.952C22.42 22.864 22.328 22.728 22.248 22.544L21.408 20.6L21.972 20.936H16.86L17.412 20.6L16.584 22.544C16.504 22.736 16.416 22.876 16.32 22.964C16.224 23.044 16.096 23.084 15.936 23.084ZM19.404 15.92L17.592 20.216L17.292 19.928H21.528L21.252 20.216L19.428 15.92H19.404ZM26.5719 23.108C25.9479 23.108 25.4759 22.928 25.1559 22.568C24.8439 22.2 24.6879 21.672 24.6879 20.984V15.068C24.6879 14.868 24.7399 14.716 24.8439 14.612C24.9479 14.508 25.0959 14.456 25.2879 14.456C25.4799 14.456 25.6279 14.508 25.7319 14.612C25.8439 14.716 25.8999 14.868 25.8999 15.068V20.912C25.8999 21.312 25.9799 21.612 26.1399 21.812C26.3079 22.004 26.5479 22.1 26.8599 22.1C26.9319 22.1 26.9959 22.1 27.0519 22.1C27.1079 22.092 27.1639 22.084 27.2199 22.076C27.3159 22.068 27.3839 22.096 27.4239 22.16C27.4639 22.216 27.4839 22.336 27.4839 22.52C27.4839 22.688 27.4479 22.82 27.3759 22.916C27.3039 23.004 27.1879 23.06 27.0279 23.084C26.9559 23.092 26.8799 23.096 26.7999 23.096C26.7199 23.104 26.6439 23.108 26.5719 23.108ZM30.2399 23.108C29.6159 23.108 29.1439 22.928 28.8239 22.568C28.5119 22.2 28.3559 21.672 28.3559 20.984V15.068C28.3559 14.868 28.4079 14.716 28.5119 14.612C28.6159 14.508 28.7639 14.456 28.9559 14.456C29.1479 14.456 29.2959 14.508 29.3999 14.612C29.5119 14.716 29.5679 14.868 29.5679 15.068V20.912C29.5679 21.312 29.6479 21.612 29.8079 21.812C29.9759 22.004 30.2159 22.1 30.5279 22.1C30.5999 22.1 30.6639 22.1 30.7199 22.1C30.7759 22.092 30.8319 22.084 30.8879 22.076C30.9839 22.068 31.0519 22.096 31.0919 22.16C31.1319 22.216 31.1519 22.336 31.1519 22.52C31.1519 22.688 31.1159 22.82 31.0439 22.916C30.9719 23.004 30.8559 23.06 30.6959 23.084C30.6239 23.092 30.5479 23.096 30.4679 23.096C30.3879 23.104 30.3119 23.108 30.2399 23.108Z" fill="#212529"/>
<path d="M120.918 16.5215C120.831 16.5216 120.747 16.5473 120.675 16.5953C120.603 16.6434 120.547 16.7117 120.514 16.7916C120.481 16.8715 120.472 16.9594 120.489 17.0442C120.506 17.129 120.547 17.207 120.608 17.2682L124.692 21.3515C124.774 21.4334 124.885 21.4794 125.001 21.4794C125.117 21.4794 125.228 21.4334 125.31 21.3515L129.393 17.2682C129.455 17.207 129.496 17.129 129.513 17.0442C129.53 16.9594 129.521 16.8715 129.488 16.7916C129.455 16.7117 129.399 16.6434 129.327 16.5953C129.255 16.5473 129.171 16.5216 129.084 16.5215H120.918Z" fill="#212529"/>
</svg>
