<svg width="139" height="38" viewBox="0 0 139 38" fill="none" xmlns="http://www.w3.org/2000/svg">
<path d="M10 0.25H129C134.385 0.25 138.75 4.61522 138.75 10V28C138.75 33.3848 134.385 37.75 129 37.75H10C4.61522 37.75 0.25 33.3848 0.25 28V10C0.25 4.61522 4.61522 0.25 10 0.25Z" stroke="#D4D8DD" stroke-width="0.5"/>
<path d="M19.656 23.108C18.856 23.108 18.156 22.932 17.556 22.58C16.964 22.22 16.504 21.716 16.176 21.068C15.856 20.412 15.696 19.644 15.696 18.764C15.696 18.1 15.788 17.504 15.972 16.976C16.156 16.44 16.42 15.984 16.764 15.608C17.108 15.224 17.524 14.932 18.012 14.732C18.5 14.532 19.048 14.432 19.656 14.432C20.464 14.432 21.164 14.608 21.756 14.96C22.348 15.312 22.804 15.812 23.124 16.46C23.452 17.108 23.616 17.872 23.616 18.752C23.616 19.416 23.524 20.016 23.34 20.552C23.156 21.088 22.888 21.548 22.536 21.932C22.192 22.316 21.776 22.608 21.288 22.808C20.8 23.008 20.256 23.108 19.656 23.108ZM19.656 22.028C20.216 22.028 20.692 21.9 21.084 21.644C21.484 21.388 21.788 21.016 21.996 20.528C22.212 20.04 22.32 19.452 22.32 18.764C22.32 17.732 22.088 16.932 21.624 16.364C21.16 15.796 20.504 15.512 19.656 15.512C19.096 15.512 18.616 15.64 18.216 15.896C17.824 16.144 17.52 16.512 17.304 17C17.096 17.488 16.992 18.076 16.992 18.764C16.992 19.788 17.224 20.588 17.688 21.164C18.16 21.74 18.816 22.028 19.656 22.028ZM27.2447 23.108C26.7727 23.108 26.3767 23.02 26.0567 22.844C25.7447 22.668 25.5087 22.408 25.3487 22.064C25.1967 21.712 25.1207 21.272 25.1207 20.744V17.672C25.1207 17.464 25.1727 17.312 25.2767 17.216C25.3807 17.112 25.5287 17.06 25.7207 17.06C25.9127 17.06 26.0607 17.112 26.1647 17.216C26.2767 17.312 26.3327 17.464 26.3327 17.672V20.756C26.3327 21.228 26.4287 21.576 26.6207 21.8C26.8127 22.024 27.1167 22.136 27.5327 22.136C27.9887 22.136 28.3567 21.984 28.6367 21.68C28.9247 21.368 29.0687 20.96 29.0687 20.456V17.672C29.0687 17.464 29.1207 17.312 29.2247 17.216C29.3287 17.112 29.4807 17.06 29.6807 17.06C29.8727 17.06 30.0207 17.112 30.1247 17.216C30.2287 17.312 30.2807 17.464 30.2807 17.672V22.472C30.2807 22.88 30.0847 23.084 29.6927 23.084C29.5087 23.084 29.3647 23.032 29.2607 22.928C29.1567 22.816 29.1047 22.664 29.1047 22.472V21.452L29.2607 21.716C29.1007 22.164 28.8447 22.508 28.4927 22.748C28.1407 22.988 27.7247 23.108 27.2447 23.108ZM34.4847 23.108C34.0047 23.108 33.6007 23.024 33.2727 22.856C32.9447 22.688 32.7007 22.44 32.5407 22.112C32.3807 21.784 32.3007 21.384 32.3007 20.912V18.08H31.5807C31.4207 18.08 31.2967 18.04 31.2087 17.96C31.1207 17.872 31.0767 17.756 31.0767 17.612C31.0767 17.46 31.1207 17.344 31.2087 17.264C31.2967 17.184 31.4207 17.144 31.5807 17.144H32.3007V15.908C32.3007 15.708 32.3527 15.556 32.4567 15.452C32.5687 15.348 32.7207 15.296 32.9127 15.296C33.1047 15.296 33.2527 15.348 33.3567 15.452C33.4607 15.556 33.5127 15.708 33.5127 15.908V17.144H34.9167C35.0767 17.144 35.2007 17.184 35.2887 17.264C35.3767 17.344 35.4207 17.46 35.4207 17.612C35.4207 17.756 35.3767 17.872 35.2887 17.96C35.2007 18.04 35.0767 18.08 34.9167 18.08H33.5127V20.816C33.5127 21.24 33.6007 21.56 33.7767 21.776C33.9607 21.992 34.2567 22.1 34.6647 22.1C34.8087 22.1 34.9327 22.088 35.0367 22.064C35.1487 22.032 35.2407 22.012 35.3127 22.004C35.4007 22.004 35.4727 22.036 35.5287 22.1C35.5847 22.156 35.6127 22.268 35.6127 22.436C35.6127 22.556 35.5887 22.668 35.5407 22.772C35.5007 22.876 35.4247 22.944 35.3127 22.976C35.2167 23.008 35.0847 23.036 34.9167 23.06C34.7567 23.092 34.6127 23.108 34.4847 23.108ZM39.621 23.108C39.109 23.108 38.665 22.98 38.289 22.724C37.913 22.46 37.661 22.112 37.533 21.68L37.665 21.464V22.472C37.665 22.664 37.613 22.816 37.509 22.928C37.405 23.032 37.261 23.084 37.077 23.084C36.885 23.084 36.737 23.032 36.633 22.928C36.529 22.816 36.477 22.664 36.477 22.472V15.068C36.477 14.868 36.529 14.716 36.633 14.612C36.737 14.508 36.885 14.456 37.077 14.456C37.269 14.456 37.417 14.508 37.521 14.612C37.633 14.716 37.689 14.868 37.689 15.068V18.428H37.545C37.673 18.004 37.925 17.668 38.301 17.42C38.677 17.164 39.117 17.036 39.621 17.036C40.149 17.036 40.605 17.16 40.989 17.408C41.373 17.656 41.669 18.004 41.877 18.452C42.093 18.9 42.201 19.44 42.201 20.072C42.201 20.688 42.093 21.228 41.877 21.692C41.669 22.148 41.369 22.5 40.977 22.748C40.593 22.988 40.141 23.108 39.621 23.108ZM39.321 22.172C39.657 22.172 39.949 22.092 40.197 21.932C40.445 21.772 40.637 21.536 40.773 21.224C40.909 20.912 40.977 20.528 40.977 20.072C40.977 19.384 40.825 18.864 40.521 18.512C40.225 18.16 39.825 17.984 39.321 17.984C38.993 17.984 38.701 18.064 38.445 18.224C38.197 18.376 38.005 18.608 37.869 18.92C37.733 19.232 37.665 19.616 37.665 20.072C37.665 20.752 37.817 21.272 38.121 21.632C38.425 21.992 38.825 22.172 39.321 22.172ZM46.1108 23.108C45.5188 23.108 45.0068 22.984 44.5748 22.736C44.1508 22.488 43.8188 22.136 43.5788 21.68C43.3388 21.224 43.2188 20.688 43.2188 20.072C43.2188 19.6 43.2868 19.18 43.4228 18.812C43.5588 18.444 43.7508 18.128 43.9988 17.864C44.2548 17.592 44.5588 17.388 44.9108 17.252C45.2708 17.108 45.6708 17.036 46.1108 17.036C46.6948 17.036 47.1988 17.16 47.6228 17.408C48.0548 17.656 48.3908 18.008 48.6308 18.464C48.8708 18.912 48.9908 19.448 48.9908 20.072C48.9908 20.536 48.9228 20.956 48.7868 21.332C48.6508 21.708 48.4548 22.028 48.1988 22.292C47.9508 22.556 47.6468 22.76 47.2868 22.904C46.9348 23.04 46.5428 23.108 46.1108 23.108ZM46.1108 22.172C46.4388 22.172 46.7268 22.092 46.9748 21.932C47.2228 21.772 47.4148 21.536 47.5508 21.224C47.6948 20.912 47.7668 20.528 47.7668 20.072C47.7668 19.384 47.6148 18.864 47.3108 18.512C47.0068 18.16 46.6068 17.984 46.1108 17.984C45.7748 17.984 45.4828 18.064 45.2348 18.224C44.9868 18.376 44.7908 18.608 44.6468 18.92C44.5108 19.232 44.4428 19.616 44.4428 20.072C44.4428 20.752 44.5948 21.272 44.8988 21.632C45.2028 21.992 45.6068 22.172 46.1108 22.172ZM52.44 23.108C51.968 23.108 51.572 23.02 51.252 22.844C50.94 22.668 50.704 22.408 50.544 22.064C50.392 21.712 50.316 21.272 50.316 20.744V17.672C50.316 17.464 50.368 17.312 50.472 17.216C50.576 17.112 50.724 17.06 50.916 17.06C51.108 17.06 51.256 17.112 51.36 17.216C51.472 17.312 51.528 17.464 51.528 17.672V20.756C51.528 21.228 51.624 21.576 51.816 21.8C52.008 22.024 52.312 22.136 52.728 22.136C53.184 22.136 53.552 21.984 53.832 21.68C54.12 21.368 54.264 20.96 54.264 20.456V17.672C54.264 17.464 54.316 17.312 54.42 17.216C54.524 17.112 54.676 17.06 54.876 17.06C55.068 17.06 55.216 17.112 55.32 17.216C55.424 17.312 55.476 17.464 55.476 17.672V22.472C55.476 22.88 55.28 23.084 54.888 23.084C54.704 23.084 54.56 23.032 54.456 22.928C54.352 22.816 54.3 22.664 54.3 22.472V21.452L54.456 21.716C54.296 22.164 54.04 22.508 53.688 22.748C53.336 22.988 52.92 23.108 52.44 23.108ZM57.784 23.084C57.592 23.084 57.444 23.032 57.34 22.928C57.236 22.816 57.184 22.664 57.184 22.472V17.672C57.184 17.472 57.236 17.32 57.34 17.216C57.444 17.112 57.588 17.06 57.772 17.06C57.964 17.06 58.108 17.112 58.204 17.216C58.308 17.32 58.36 17.472 58.36 17.672V18.608L58.228 18.392C58.404 17.944 58.68 17.608 59.056 17.384C59.432 17.152 59.864 17.036 60.352 17.036C60.816 17.036 61.2 17.124 61.504 17.3C61.816 17.468 62.048 17.728 62.2 18.08C62.352 18.424 62.428 18.86 62.428 19.388V22.472C62.428 22.664 62.376 22.816 62.272 22.928C62.168 23.032 62.02 23.084 61.828 23.084C61.628 23.084 61.476 23.032 61.372 22.928C61.268 22.816 61.216 22.664 61.216 22.472V19.46C61.216 18.956 61.116 18.588 60.916 18.356C60.724 18.124 60.42 18.008 60.004 18.008C59.516 18.008 59.124 18.16 58.828 18.464C58.54 18.768 58.396 19.176 58.396 19.688V22.472C58.396 22.88 58.192 23.084 57.784 23.084ZM66.3301 23.108C65.8181 23.108 65.3661 22.988 64.9741 22.748C64.5901 22.5 64.2901 22.148 64.0741 21.692C63.8581 21.228 63.7501 20.688 63.7501 20.072C63.7501 19.44 63.8581 18.9 64.0741 18.452C64.2901 18.004 64.5901 17.656 64.9741 17.408C65.3661 17.16 65.8181 17.036 66.3301 17.036C66.8421 17.036 67.2821 17.164 67.6501 17.42C68.0261 17.668 68.2781 18.004 68.4061 18.428H68.2741V15.068C68.2741 14.868 68.3261 14.716 68.4301 14.612C68.5341 14.508 68.6821 14.456 68.8741 14.456C69.0661 14.456 69.2141 14.508 69.3181 14.612C69.4301 14.716 69.4861 14.868 69.4861 15.068V22.472C69.4861 22.664 69.4341 22.816 69.3301 22.928C69.2261 23.032 69.0781 23.084 68.8861 23.084C68.6941 23.084 68.5461 23.032 68.4421 22.928C68.3381 22.816 68.2861 22.664 68.2861 22.472V21.416L68.4181 21.68C68.2901 22.112 68.0381 22.46 67.6621 22.724C67.2941 22.98 66.8501 23.108 66.3301 23.108ZM66.6421 22.172C66.9701 22.172 67.2581 22.092 67.5061 21.932C67.7541 21.772 67.9461 21.536 68.0821 21.224C68.2261 20.912 68.2981 20.528 68.2981 20.072C68.2981 19.384 68.1461 18.864 67.8421 18.512C67.5381 18.16 67.1381 17.984 66.6421 17.984C66.3061 17.984 66.0141 18.064 65.7661 18.224C65.5181 18.376 65.3221 18.608 65.1781 18.92C65.0421 19.232 64.9741 19.616 64.9741 20.072C64.9741 20.752 65.1261 21.272 65.4301 21.632C65.7341 21.992 66.1381 22.172 66.6421 22.172ZM77.304 23.108C76.936 23.108 76.576 23.08 76.224 23.024C75.872 22.968 75.54 22.884 75.228 22.772C74.916 22.652 74.636 22.508 74.388 22.34C74.268 22.252 74.184 22.152 74.136 22.04C74.096 21.928 74.084 21.82 74.1 21.716C74.124 21.604 74.172 21.508 74.244 21.428C74.316 21.348 74.404 21.3 74.508 21.284C74.612 21.26 74.728 21.292 74.856 21.38C75.216 21.612 75.596 21.784 75.996 21.896C76.396 22 76.832 22.052 77.304 22.052C77.984 22.052 78.484 21.932 78.804 21.692C79.132 21.444 79.296 21.124 79.296 20.732C79.296 20.412 79.18 20.16 78.948 19.976C78.716 19.784 78.328 19.632 77.784 19.52L76.5 19.256C75.74 19.096 75.172 18.832 74.796 18.464C74.428 18.096 74.244 17.6 74.244 16.976C74.244 16.6 74.32 16.256 74.472 15.944C74.632 15.632 74.852 15.364 75.132 15.14C75.412 14.908 75.748 14.732 76.14 14.612C76.532 14.492 76.96 14.432 77.424 14.432C77.92 14.432 78.384 14.496 78.816 14.624C79.256 14.752 79.648 14.948 79.992 15.212C80.096 15.284 80.164 15.376 80.196 15.488C80.236 15.592 80.244 15.696 80.22 15.8C80.204 15.904 80.16 15.992 80.088 16.064C80.016 16.136 79.924 16.18 79.812 16.196C79.7 16.204 79.576 16.164 79.44 16.076C79.128 15.868 78.808 15.72 78.48 15.632C78.16 15.536 77.804 15.488 77.412 15.488C77.02 15.488 76.676 15.548 76.38 15.668C76.092 15.788 75.868 15.956 75.708 16.172C75.556 16.388 75.48 16.644 75.48 16.94C75.48 17.276 75.588 17.544 75.804 17.744C76.02 17.944 76.38 18.096 76.884 18.2L78.156 18.464C78.956 18.632 79.552 18.892 79.944 19.244C80.336 19.596 80.532 20.064 80.532 20.648C80.532 21.024 80.456 21.364 80.304 21.668C80.152 21.964 79.936 22.22 79.656 22.436C79.376 22.652 79.036 22.82 78.636 22.94C78.244 23.052 77.8 23.108 77.304 23.108ZM83.6888 23.108C83.2808 23.108 82.9128 23.028 82.5848 22.868C82.2648 22.708 82.0128 22.492 81.8288 22.22C81.6448 21.948 81.5528 21.64 81.5528 21.296C81.5528 20.864 81.6608 20.524 81.8768 20.276C82.1008 20.02 82.4648 19.84 82.9688 19.736C83.4808 19.624 84.1688 19.568 85.0328 19.568H85.5968V20.312H85.0448C84.4688 20.312 84.0128 20.34 83.6768 20.396C83.3408 20.452 83.1008 20.548 82.9568 20.684C82.8208 20.812 82.7528 20.992 82.7528 21.224C82.7528 21.528 82.8568 21.776 83.0648 21.968C83.2728 22.152 83.5608 22.244 83.9288 22.244C84.2248 22.244 84.4848 22.176 84.7088 22.04C84.9328 21.896 85.1088 21.704 85.2368 21.464C85.3728 21.224 85.4408 20.948 85.4408 20.636V19.256C85.4408 18.8 85.3448 18.472 85.1528 18.272C84.9608 18.072 84.6448 17.972 84.2048 17.972C83.9488 17.972 83.6808 18.004 83.4008 18.068C83.1288 18.132 82.8448 18.24 82.5488 18.392C82.4128 18.456 82.2968 18.476 82.2008 18.452C82.1048 18.428 82.0288 18.376 81.9728 18.296C81.9168 18.208 81.8848 18.116 81.8768 18.02C81.8768 17.916 81.9008 17.816 81.9488 17.72C82.0048 17.624 82.0968 17.552 82.2248 17.504C82.5768 17.336 82.9248 17.216 83.2688 17.144C83.6128 17.072 83.9368 17.036 84.2408 17.036C84.7768 17.036 85.2168 17.12 85.5608 17.288C85.9128 17.456 86.1728 17.712 86.3408 18.056C86.5088 18.4 86.5928 18.844 86.5928 19.388V22.472C86.5928 22.664 86.5448 22.816 86.4488 22.928C86.3528 23.032 86.2128 23.084 86.0288 23.084C85.8528 23.084 85.7128 23.032 85.6088 22.928C85.5048 22.816 85.4528 22.664 85.4528 22.472V21.692H85.5608C85.4968 21.988 85.3768 22.244 85.2008 22.46C85.0328 22.668 84.8208 22.828 84.5648 22.94C84.3088 23.052 84.0168 23.108 83.6888 23.108ZM90.1462 23.108C89.5222 23.108 89.0502 22.928 88.7302 22.568C88.4182 22.2 88.2622 21.672 88.2622 20.984V15.068C88.2622 14.868 88.3142 14.716 88.4182 14.612C88.5222 14.508 88.6702 14.456 88.8622 14.456C89.0542 14.456 89.2022 14.508 89.3062 14.612C89.4182 14.716 89.4742 14.868 89.4742 15.068V20.912C89.4742 21.312 89.5542 21.612 89.7142 21.812C89.8822 22.004 90.1222 22.1 90.4342 22.1C90.5062 22.1 90.5702 22.1 90.6262 22.1C90.6822 22.092 90.7382 22.084 90.7942 22.076C90.8902 22.068 90.9582 22.096 90.9982 22.16C91.0382 22.216 91.0582 22.336 91.0582 22.52C91.0582 22.688 91.0222 22.82 90.9502 22.916C90.8782 23.004 90.7622 23.06 90.6022 23.084C90.5302 23.092 90.4542 23.096 90.3742 23.096C90.2942 23.104 90.2182 23.108 90.1462 23.108ZM94.6195 23.108C93.9795 23.108 93.4275 22.988 92.9635 22.748C92.5075 22.5 92.1515 22.152 91.8955 21.704C91.6475 21.248 91.5235 20.708 91.5235 20.084C91.5235 19.476 91.6475 18.944 91.8955 18.488C92.1435 18.032 92.4835 17.676 92.9155 17.42C93.3475 17.164 93.8395 17.036 94.3915 17.036C94.7995 17.036 95.1635 17.104 95.4835 17.24C95.8035 17.368 96.0755 17.56 96.2995 17.816C96.5315 18.064 96.7035 18.368 96.8155 18.728C96.9355 19.088 96.9955 19.492 96.9955 19.94C96.9955 20.076 96.9555 20.18 96.8755 20.252C96.7955 20.316 96.6755 20.348 96.5155 20.348H92.4835V19.604H96.1795L95.9755 19.772C95.9755 19.372 95.9155 19.032 95.7955 18.752C95.6835 18.472 95.5115 18.26 95.2795 18.116C95.0555 17.964 94.7755 17.888 94.4395 17.888C94.0635 17.888 93.7435 17.976 93.4795 18.152C93.2235 18.328 93.0275 18.572 92.8915 18.884C92.7555 19.196 92.6875 19.56 92.6875 19.976V20.048C92.6875 20.752 92.8515 21.284 93.1795 21.644C93.5155 21.996 93.9995 22.172 94.6315 22.172C94.8715 22.172 95.1235 22.14 95.3875 22.076C95.6595 22.012 95.9155 21.904 96.1555 21.752C96.2915 21.672 96.4115 21.636 96.5155 21.644C96.6275 21.652 96.7155 21.688 96.7795 21.752C96.8515 21.816 96.8955 21.896 96.9115 21.992C96.9275 22.088 96.9115 22.188 96.8635 22.292C96.8155 22.388 96.7315 22.476 96.6115 22.556C96.3395 22.74 96.0235 22.88 95.6635 22.976C95.3035 23.064 94.9555 23.108 94.6195 23.108ZM100.369 23.108C100.017 23.108 99.6528 23.068 99.2768 22.988C98.9088 22.908 98.5688 22.772 98.2568 22.58C98.1528 22.508 98.0808 22.428 98.0408 22.34C98.0008 22.252 97.9848 22.164 97.9928 22.076C98.0088 21.98 98.0448 21.9 98.1008 21.836C98.1648 21.764 98.2408 21.72 98.3288 21.704C98.4248 21.688 98.5248 21.708 98.6288 21.764C98.9408 21.94 99.2408 22.064 99.5288 22.136C99.8168 22.2 100.101 22.232 100.381 22.232C100.805 22.232 101.125 22.156 101.341 22.004C101.557 21.852 101.665 21.648 101.665 21.392C101.665 21.184 101.593 21.024 101.449 20.912C101.305 20.792 101.089 20.7 100.801 20.636L99.6608 20.408C99.1648 20.304 98.7888 20.12 98.5328 19.856C98.2768 19.592 98.1488 19.256 98.1488 18.848C98.1488 18.48 98.2488 18.16 98.4488 17.888C98.6488 17.616 98.9288 17.408 99.2888 17.264C99.6488 17.112 100.065 17.036 100.537 17.036C100.889 17.036 101.221 17.08 101.533 17.168C101.845 17.256 102.133 17.388 102.397 17.564C102.501 17.62 102.569 17.696 102.601 17.792C102.633 17.88 102.637 17.968 102.613 18.056C102.597 18.144 102.557 18.224 102.493 18.296C102.429 18.36 102.349 18.4 102.253 18.416C102.165 18.424 102.065 18.4 101.953 18.344C101.713 18.192 101.473 18.084 101.233 18.02C101.001 17.956 100.769 17.924 100.537 17.924C100.113 17.924 99.7928 18.004 99.5768 18.164C99.3688 18.316 99.2648 18.524 99.2648 18.788C99.2648 18.988 99.3288 19.152 99.4568 19.28C99.5848 19.408 99.7848 19.5 100.057 19.556L101.197 19.784C101.717 19.888 102.109 20.064 102.373 20.312C102.645 20.56 102.781 20.896 102.781 21.32C102.781 21.872 102.561 22.308 102.121 22.628C101.681 22.948 101.097 23.108 100.369 23.108Z" fill="#212529"/>
<path d="M120.918 16.5215C120.831 16.5216 120.747 16.5473 120.675 16.5953C120.603 16.6434 120.547 16.7117 120.514 16.7916C120.481 16.8715 120.472 16.9594 120.489 17.0442C120.506 17.129 120.547 17.207 120.608 17.2682L124.692 21.3515C124.774 21.4334 124.885 21.4794 125.001 21.4794C125.117 21.4794 125.228 21.4334 125.31 21.3515L129.393 17.2682C129.455 17.207 129.496 17.129 129.513 17.0442C129.53 16.9594 129.521 16.8715 129.488 16.7916C129.455 16.7117 129.399 16.6434 129.327 16.5953C129.255 16.5473 129.171 16.5216 129.084 16.5215H120.918Z" fill="#212529"/>
</svg>
