<svg width="139" height="38" viewBox="0 0 139 38" fill="none" xmlns="http://www.w3.org/2000/svg">
<path d="M10 0.25H129C134.385 0.25 138.75 4.61522 138.75 10V28C138.75 33.3848 134.385 37.75 129 37.75H10C4.61522 37.75 0.25 33.3848 0.25 28V10C0.25 4.61522 4.61522 0.25 10 0.25Z" stroke="#D4D8DD" stroke-width="0.5"/>
<path d="M19.776 23.108C18.92 23.108 18.188 22.932 17.58 22.58C16.972 22.228 16.504 21.728 16.176 21.08C15.856 20.424 15.696 19.652 15.696 18.764C15.696 18.1 15.788 17.504 15.972 16.976C16.156 16.44 16.42 15.984 16.764 15.608C17.116 15.224 17.544 14.932 18.048 14.732C18.56 14.532 19.136 14.432 19.776 14.432C20.248 14.432 20.7 14.496 21.132 14.624C21.572 14.752 21.952 14.936 22.272 15.176C22.408 15.264 22.496 15.372 22.536 15.5C22.584 15.62 22.592 15.736 22.56 15.848C22.536 15.96 22.484 16.056 22.404 16.136C22.324 16.208 22.22 16.248 22.092 16.256C21.972 16.264 21.84 16.22 21.696 16.124C21.432 15.924 21.14 15.776 20.82 15.68C20.5 15.584 20.164 15.536 19.812 15.536C19.204 15.536 18.692 15.664 18.276 15.92C17.86 16.168 17.544 16.532 17.328 17.012C17.112 17.492 17.004 18.076 17.004 18.764C17.004 19.452 17.112 20.04 17.328 20.528C17.544 21.008 17.86 21.376 18.276 21.632C18.692 21.88 19.204 22.004 19.812 22.004C20.164 22.004 20.5 21.956 20.82 21.86C21.148 21.756 21.456 21.604 21.744 21.404C21.888 21.316 22.016 21.276 22.128 21.284C22.248 21.292 22.348 21.332 22.428 21.404C22.508 21.476 22.56 21.568 22.584 21.68C22.616 21.784 22.612 21.896 22.572 22.016C22.54 22.128 22.464 22.224 22.344 22.304C22.016 22.568 21.628 22.768 21.18 22.904C20.732 23.04 20.264 23.108 19.776 23.108ZM24.5614 23.084C24.3694 23.084 24.2214 23.032 24.1174 22.928C24.0134 22.816 23.9614 22.664 23.9614 22.472V15.068C23.9614 14.868 24.0134 14.716 24.1174 14.612C24.2214 14.508 24.3694 14.456 24.5614 14.456C24.7534 14.456 24.9014 14.508 25.0054 14.612C25.1174 14.716 25.1734 14.868 25.1734 15.068V18.392H25.0054C25.1814 17.944 25.4574 17.608 25.8334 17.384C26.2094 17.152 26.6414 17.036 27.1294 17.036C27.5934 17.036 27.9774 17.124 28.2814 17.3C28.5934 17.468 28.8254 17.728 28.9774 18.08C29.1294 18.424 29.2054 18.86 29.2054 19.388V22.472C29.2054 22.664 29.1534 22.816 29.0494 22.928C28.9454 23.032 28.7974 23.084 28.6054 23.084C28.4054 23.084 28.2534 23.032 28.1494 22.928C28.0454 22.816 27.9934 22.664 27.9934 22.472V19.46C27.9934 18.956 27.8934 18.588 27.6934 18.356C27.5014 18.124 27.1974 18.008 26.7814 18.008C26.2934 18.008 25.9014 18.16 25.6054 18.464C25.3174 18.768 25.1734 19.176 25.1734 19.688V22.472C25.1734 22.88 24.9694 23.084 24.5614 23.084ZM32.7474 23.108C32.3394 23.108 31.9714 23.028 31.6434 22.868C31.3234 22.708 31.0714 22.492 30.8874 22.22C30.7034 21.948 30.6114 21.64 30.6114 21.296C30.6114 20.864 30.7194 20.524 30.9354 20.276C31.1594 20.02 31.5234 19.84 32.0274 19.736C32.5394 19.624 33.2274 19.568 34.0914 19.568H34.6554V20.312H34.1034C33.5274 20.312 33.0714 20.34 32.7354 20.396C32.3994 20.452 32.1594 20.548 32.0154 20.684C31.8794 20.812 31.8114 20.992 31.8114 21.224C31.8114 21.528 31.9154 21.776 32.1234 21.968C32.3314 22.152 32.6194 22.244 32.9874 22.244C33.2834 22.244 33.5434 22.176 33.7674 22.04C33.9914 21.896 34.1674 21.704 34.2954 21.464C34.4314 21.224 34.4994 20.948 34.4994 20.636V19.256C34.4994 18.8 34.4034 18.472 34.2114 18.272C34.0194 18.072 33.7034 17.972 33.2634 17.972C33.0074 17.972 32.7394 18.004 32.4594 18.068C32.1874 18.132 31.9034 18.24 31.6074 18.392C31.4714 18.456 31.3554 18.476 31.2594 18.452C31.1634 18.428 31.0874 18.376 31.0314 18.296C30.9754 18.208 30.9434 18.116 30.9354 18.02C30.9354 17.916 30.9594 17.816 31.0074 17.72C31.0634 17.624 31.1554 17.552 31.2834 17.504C31.6354 17.336 31.9834 17.216 32.3274 17.144C32.6714 17.072 32.9954 17.036 33.2994 17.036C33.8354 17.036 34.2754 17.12 34.6194 17.288C34.9714 17.456 35.2314 17.712 35.3994 18.056C35.5674 18.4 35.6514 18.844 35.6514 19.388V22.472C35.6514 22.664 35.6034 22.816 35.5074 22.928C35.4114 23.032 35.2714 23.084 35.0874 23.084C34.9114 23.084 34.7714 23.032 34.6674 22.928C34.5634 22.816 34.5114 22.664 34.5114 22.472V21.692H34.6194C34.5554 21.988 34.4354 22.244 34.2594 22.46C34.0914 22.668 33.8794 22.828 33.6234 22.94C33.3674 23.052 33.0754 23.108 32.7474 23.108ZM37.9328 23.084C37.7328 23.084 37.5808 23.032 37.4768 22.928C37.3728 22.816 37.3208 22.664 37.3208 22.472V17.672C37.3208 17.472 37.3728 17.32 37.4768 17.216C37.5808 17.112 37.7248 17.06 37.9088 17.06C38.1008 17.06 38.2448 17.112 38.3408 17.216C38.4448 17.32 38.4968 17.472 38.4968 17.672V18.548H38.3768C38.5048 18.068 38.7408 17.704 39.0848 17.456C39.4288 17.208 39.8688 17.064 40.4048 17.024C40.5488 17.016 40.6608 17.052 40.7408 17.132C40.8288 17.212 40.8768 17.336 40.8848 17.504C40.9008 17.672 40.8648 17.808 40.7768 17.912C40.6888 18.008 40.5528 18.064 40.3688 18.08L40.1408 18.104C39.6208 18.152 39.2248 18.316 38.9528 18.596C38.6808 18.876 38.5448 19.26 38.5448 19.748V22.472C38.5448 22.664 38.4928 22.816 38.3888 22.928C38.2928 23.032 38.1408 23.084 37.9328 23.084ZM44.6214 23.108C44.1414 23.108 43.7374 23.024 43.4094 22.856C43.0814 22.688 42.8374 22.44 42.6774 22.112C42.5174 21.784 42.4374 21.384 42.4374 20.912V18.08H41.7174C41.5574 18.08 41.4334 18.04 41.3454 17.96C41.2574 17.872 41.2134 17.756 41.2134 17.612C41.2134 17.46 41.2574 17.344 41.3454 17.264C41.4334 17.184 41.5574 17.144 41.7174 17.144H42.4374V15.908C42.4374 15.708 42.4894 15.556 42.5934 15.452C42.7054 15.348 42.8574 15.296 43.0494 15.296C43.2414 15.296 43.3894 15.348 43.4934 15.452C43.5974 15.556 43.6494 15.708 43.6494 15.908V17.144H45.0534C45.2134 17.144 45.3374 17.184 45.4254 17.264C45.5134 17.344 45.5574 17.46 45.5574 17.612C45.5574 17.756 45.5134 17.872 45.4254 17.96C45.3374 18.04 45.2134 18.08 45.0534 18.08H43.6494V20.816C43.6494 21.24 43.7374 21.56 43.9134 21.776C44.0974 21.992 44.3934 22.1 44.8014 22.1C44.9454 22.1 45.0694 22.088 45.1734 22.064C45.2854 22.032 45.3774 22.012 45.4494 22.004C45.5374 22.004 45.6094 22.036 45.6654 22.1C45.7214 22.156 45.7494 22.268 45.7494 22.436C45.7494 22.556 45.7254 22.668 45.6774 22.772C45.6374 22.876 45.5614 22.944 45.4494 22.976C45.3534 23.008 45.2214 23.036 45.0534 23.06C44.8934 23.092 44.7494 23.108 44.6214 23.108ZM51.9403 23.084C51.7723 23.084 51.6243 23.04 51.4963 22.952C51.3763 22.864 51.2763 22.728 51.1963 22.544L49.1923 17.888C49.1283 17.744 49.1043 17.608 49.1203 17.48C49.1363 17.352 49.1963 17.252 49.3003 17.18C49.4043 17.1 49.5443 17.06 49.7203 17.06C49.8723 17.06 49.9923 17.096 50.0803 17.168C50.1683 17.24 50.2483 17.364 50.3203 17.54L52.1323 22.004H51.7963L53.6443 17.54C53.7163 17.364 53.7963 17.24 53.8843 17.168C53.9803 17.096 54.1123 17.06 54.2803 17.06C54.4243 17.06 54.5363 17.1 54.6163 17.18C54.7043 17.252 54.7563 17.352 54.7723 17.48C54.7963 17.6 54.7763 17.732 54.7123 17.876L52.6843 22.544C52.6123 22.728 52.5123 22.864 52.3843 22.952C52.2563 23.04 52.1083 23.084 51.9403 23.084ZM56.5067 23.072C56.3147 23.072 56.1667 23.016 56.0627 22.904C55.9587 22.784 55.9067 22.62 55.9067 22.412V17.732C55.9067 17.524 55.9587 17.364 56.0627 17.252C56.1667 17.14 56.3147 17.084 56.5067 17.084C56.6987 17.084 56.8467 17.14 56.9507 17.252C57.0627 17.364 57.1187 17.524 57.1187 17.732V22.412C57.1187 22.62 57.0667 22.784 56.9627 22.904C56.8587 23.016 56.7067 23.072 56.5067 23.072ZM56.5067 15.836C56.2667 15.836 56.0787 15.776 55.9427 15.656C55.8147 15.536 55.7507 15.368 55.7507 15.152C55.7507 14.928 55.8147 14.76 55.9427 14.648C56.0787 14.528 56.2667 14.468 56.5067 14.468C56.7467 14.468 56.9307 14.528 57.0587 14.648C57.1947 14.76 57.2627 14.928 57.2627 15.152C57.2627 15.368 57.1947 15.536 57.0587 15.656C56.9307 15.776 56.7467 15.836 56.5067 15.836ZM61.5727 23.108C60.9327 23.108 60.3807 22.988 59.9167 22.748C59.4607 22.5 59.1047 22.152 58.8487 21.704C58.6007 21.248 58.4767 20.708 58.4767 20.084C58.4767 19.476 58.6007 18.944 58.8487 18.488C59.0967 18.032 59.4367 17.676 59.8687 17.42C60.3007 17.164 60.7927 17.036 61.3447 17.036C61.7527 17.036 62.1167 17.104 62.4367 17.24C62.7567 17.368 63.0287 17.56 63.2527 17.816C63.4847 18.064 63.6567 18.368 63.7687 18.728C63.8887 19.088 63.9487 19.492 63.9487 19.94C63.9487 20.076 63.9087 20.18 63.8287 20.252C63.7487 20.316 63.6287 20.348 63.4687 20.348H59.4367V19.604H63.1327L62.9287 19.772C62.9287 19.372 62.8687 19.032 62.7487 18.752C62.6367 18.472 62.4647 18.26 62.2327 18.116C62.0087 17.964 61.7287 17.888 61.3927 17.888C61.0167 17.888 60.6967 17.976 60.4327 18.152C60.1767 18.328 59.9807 18.572 59.8447 18.884C59.7087 19.196 59.6407 19.56 59.6407 19.976V20.048C59.6407 20.752 59.8047 21.284 60.1327 21.644C60.4687 21.996 60.9527 22.172 61.5847 22.172C61.8247 22.172 62.0767 22.14 62.3407 22.076C62.6127 22.012 62.8687 21.904 63.1087 21.752C63.2447 21.672 63.3647 21.636 63.4687 21.644C63.5807 21.652 63.6687 21.688 63.7327 21.752C63.8047 21.816 63.8487 21.896 63.8647 21.992C63.8807 22.088 63.8647 22.188 63.8167 22.292C63.7687 22.388 63.6847 22.476 63.5647 22.556C63.2927 22.74 62.9767 22.88 62.6167 22.976C62.2567 23.064 61.9087 23.108 61.5727 23.108ZM67.3239 23.084C67.1559 23.084 67.0079 23.044 66.8799 22.964C66.7599 22.876 66.6639 22.74 66.5919 22.556L64.8279 17.888C64.7639 17.728 64.7439 17.588 64.7679 17.468C64.7919 17.34 64.8519 17.24 64.9479 17.168C65.0519 17.096 65.1839 17.06 65.3439 17.06C65.4879 17.06 65.6039 17.096 65.6919 17.168C65.7879 17.232 65.8679 17.36 65.9319 17.552L67.5039 21.98H67.2159L68.8479 17.504C68.9039 17.352 68.9799 17.24 69.0759 17.168C69.1719 17.096 69.2959 17.06 69.4479 17.06C69.5999 17.06 69.7239 17.096 69.8199 17.168C69.9239 17.24 69.9999 17.352 70.0479 17.504L71.6439 21.98H71.3799L72.9759 17.528C73.0399 17.344 73.1199 17.22 73.2159 17.156C73.3199 17.092 73.4359 17.06 73.5639 17.06C73.7239 17.06 73.8439 17.1 73.9239 17.18C74.0119 17.26 74.0599 17.364 74.0679 17.492C74.0839 17.612 74.0639 17.744 74.0079 17.888L72.2439 22.556C72.1719 22.732 72.0719 22.864 71.9439 22.952C71.8239 23.04 71.6839 23.084 71.5239 23.084C71.3559 23.084 71.2079 23.04 71.0799 22.952C70.9599 22.864 70.8639 22.732 70.7919 22.556L69.1119 18.008H69.7119L68.0439 22.556C67.9799 22.732 67.8839 22.864 67.7559 22.952C67.6359 23.04 67.4919 23.084 67.3239 23.084Z" fill="#212529"/>
<path d="M120.918 16.5215C120.831 16.5216 120.747 16.5473 120.675 16.5953C120.603 16.6434 120.547 16.7117 120.514 16.7916C120.481 16.8715 120.472 16.9594 120.489 17.0442C120.506 17.129 120.547 17.207 120.608 17.2682L124.692 21.3515C124.774 21.4334 124.885 21.4794 125.001 21.4794C125.117 21.4794 125.228 21.4334 125.31 21.3515L129.393 17.2682C129.455 17.207 129.496 17.129 129.513 17.0442C129.53 16.9594 129.521 16.8715 129.488 16.7916C129.455 16.7117 129.399 16.6434 129.327 16.5953C129.255 16.5473 129.171 16.5216 129.084 16.5215H120.918Z" fill="#212529"/>
</svg>
