<svg width="148" height="138" viewBox="0 0 148 138" fill="none" xmlns="http://www.w3.org/2000/svg">
<path d="M130.67 116.994L147.006 107.443L147.012 71.9672L130.67 81.5186V116.994Z" fill="#1D3557"/>
<path d="M130.67 81.5187L107.326 67.8756L107.32 103.345L130.67 116.994V81.5187Z" fill="#0F223D"/>
<path d="M107.325 67.8755L130.67 81.5186L147.012 71.9672L123.661 58.3241L107.325 67.8755Z" fill="#314766"/>
<path d="M120.583 81.0825L117.407 79.2242C116.995 78.9821 116.66 79.0911 116.66 79.4724C116.66 79.8537 116.995 80.3501 117.407 80.5922L120.583 82.4504C120.995 82.6925 121.33 82.5836 121.33 82.2022C121.33 81.827 120.995 81.3246 120.583 81.0825Z" fill="#1D3557"/>
<path d="M128.762 99.5074L110.088 88.5941L109.657 88.8423L110.088 101.735L109.657 101.983L128.331 112.896L128.762 112.648V99.5074Z" fill="#1D3557"/>
<path d="M128.33 99.7616L109.656 88.8423V101.983L128.33 112.896V99.7616Z" fill="#314766"/>
<path d="M121.012 97.7092L117.837 95.851C117.425 95.6088 117.09 95.7178 117.09 96.0991C117.09 96.4804 117.425 96.9768 117.837 97.2189L121.012 99.0771C121.425 99.3192 121.76 99.2103 121.76 98.829C121.76 98.4537 121.425 97.9513 121.012 97.7092Z" fill="#1D3557"/>
<path d="M128.762 83.1648L110.088 72.2515L109.657 72.4996L110.088 85.3922L109.657 85.6404L128.331 96.5537L128.762 96.3055V83.1648Z" fill="#1D3557"/>
<path d="M128.33 83.4192L109.656 72.4999V85.6406L128.33 96.5539V83.4192Z" fill="#314766"/>
<path d="M121.012 81.3673L117.837 79.509C117.425 79.2669 117.09 79.3759 117.09 79.7572C117.09 80.1385 117.425 80.6349 117.837 80.877L121.012 82.7352C121.425 82.9773 121.76 82.8684 121.76 82.487C121.76 82.1118 121.425 81.6094 121.012 81.3673Z" fill="#1D3557"/>
<path d="M130.67 80.011L147.006 70.4596L147.012 34.9839L130.67 44.5353V80.011Z" fill="#1D3557"/>
<path d="M130.67 44.5355L107.326 30.8923L107.32 66.3681L130.67 80.0112V44.5355Z" fill="#0F223D"/>
<path d="M107.325 30.8924L130.67 44.5355L147.012 34.9841L123.661 21.341L107.325 30.8924Z" fill="#314766"/>
<path d="M128.332 45.9032L109.658 34.9839L109.227 35.2381V48.3788L127.902 59.2921L128.332 59.0379V45.9032Z" fill="#1D3557"/>
<path d="M120.583 44.0999L117.407 42.2417C116.995 41.9996 116.66 42.1085 116.66 42.4899C116.66 42.8712 116.995 43.3675 117.407 43.6096L120.583 45.4679C120.995 45.71 121.33 45.601 121.33 45.2197C121.33 44.8444 120.995 44.342 120.583 44.0999Z" fill="#1D3557"/>
<path d="M128.762 62.5246L110.088 51.6113V64.7521L109.657 65.0002L128.331 75.9196L128.762 75.6654V62.5246Z" fill="#1D3557"/>
<path d="M128.33 62.7784L109.656 51.8651V64.9998L128.33 75.9192V62.7784Z" fill="#314766"/>
<path d="M121.012 60.7266L117.837 58.8684C117.425 58.6263 117.09 58.7352 117.09 59.1166C117.09 59.4979 117.425 59.9942 117.837 60.2363L121.012 62.0946C121.425 62.3367 121.76 62.2277 121.76 61.8464C121.76 61.4711 121.425 60.9687 121.012 60.7266Z" fill="#1D3557"/>
<path d="M128.332 45.9032L109.658 34.9839V48.1246L128.332 59.0379V45.9032Z" fill="#1D3557"/>
<path d="M100.318 41.4787L110.543 35.5045V47.0776L100.318 53.0517V41.4787Z" fill="#1D3557"/>
<path d="M121.33 60.9088V44.5359L117.324 42.1874L116.66 43.174L104.988 36.3524V51.3574L121.33 60.9088Z" fill="#F4A261"/>
<g opacity="0.2">
<path d="M121.33 60.9088V44.5359L117.324 42.1874L116.66 43.174L104.988 36.3524V51.3574L121.33 60.9088Z" fill="black"/>
</g>
<path d="M121.33 60.9086L120.164 46.5815L103.822 37.0361L104.988 51.3572L121.33 60.9086Z" fill="#F4A261"/>
<path d="M118.999 52.392L127.908 47.1865V58.7596L118.999 63.965V52.392Z" fill="#0F223D"/>
<path d="M118.998 51.3573L100.318 40.444V53.5847L118.998 64.498V51.3573Z" fill="#314766"/>
<path d="M111.672 49.3055L108.497 47.4473C108.085 47.2051 107.75 47.3141 107.75 47.6954C107.75 48.0768 108.085 48.5731 108.497 48.8152L111.672 50.6734C112.085 50.9155 112.42 50.8066 112.42 50.4253C112.42 50.0439 112.085 49.5476 111.672 49.3055Z" fill="#1D3557"/>
<path d="M118.997 51.3571L119.619 50.9939V64.1346L118.997 64.4978V51.3571Z" fill="#1D3557"/>
<path d="M119.619 50.9939L100.939 40.0806L100.317 40.4437L118.997 51.357L119.619 50.9939Z" fill="#0F223D"/>
<path d="M79.6505 24.0613L78.1195 23.1604L0 68.8178V134.939C0 135.466 0.181005 135.836 0.47514 136.008L2.00615 136.909C2.30029 137.08 2.71133 137.058 3.16007 136.794L78.0139 93.0454C78.9151 92.5187 79.6467 91.2361 79.6467 90.1825V24.0613H79.6505Z" fill="#E6E6E6"/>
<path d="M2.43328 136.828C1.98453 136.828 1.7168 136.458 1.7168 135.84V69.829L79.4629 24.393V90.186C79.4629 91.1785 78.7728 92.3885 77.9244 92.8848L3.07057 136.634C2.84809 136.763 2.6256 136.832 2.43705 136.832L2.43328 136.828Z" fill="#FAFAFA"/>
<path d="M79.2736 24.7249V90.1858C79.2736 91.1019 78.6137 92.2623 77.8293 92.7166L2.97553 136.465C2.77944 136.58 2.59466 136.641 2.43628 136.641C1.96114 136.641 1.90835 136.084 1.90835 135.843V69.9394L79.2736 24.7249ZM79.6507 24.0645L1.53125 69.7218V135.843C1.53125 136.591 1.9008 137.023 2.43628 137.023C2.655 137.023 2.90388 136.95 3.16408 136.797L78.0179 93.0487C78.9191 92.5219 79.6507 91.2393 79.6507 90.1858V24.0607V24.0645Z" fill="#E0E0E0"/>
<path d="M1.53125 69.718V76.8752L79.6507 31.2179V24.0607L1.53125 69.718Z" fill="#D2D2D2"/>
<path d="M50.5469 43.8756V45.4177C50.5469 45.7345 50.7694 45.8605 51.0371 45.704L75.0544 31.6682V28.9809L51.0371 43.0167C50.7694 43.1732 50.5469 43.5625 50.5469 43.8756Z" fill="#FAFAFA"/>
<path d="M77.6303 27.4772C77.9018 27.3207 78.1205 27.4467 78.1205 27.7635V29.3057C78.1205 29.6225 77.9018 30.008 77.6303 30.1645L75.0547 31.6685V28.9812L77.6303 27.4772Z" fill="#455A64"/>
<path d="M77.4406 29.5878L77.154 29.4962C77.1841 29.3741 77.1992 29.2443 77.1992 29.1222C77.1992 28.8244 77.1049 28.5992 76.939 28.5C76.8146 28.4274 76.6675 28.4351 76.5204 28.519C76.1999 28.7061 75.9473 29.2367 75.9473 29.7291C75.9473 30.0268 76.0415 30.252 76.2075 30.3513C76.264 30.3856 76.3244 30.4009 76.3885 30.4009C76.4639 30.4009 76.5468 30.378 76.626 30.3322C76.8184 30.2177 76.9881 29.981 77.0899 29.7024L77.3765 29.794C77.3765 29.794 77.3991 29.7978 77.4066 29.7978C77.4519 29.7978 77.4934 29.7673 77.5084 29.7215C77.5273 29.6642 77.4934 29.6031 77.4368 29.5878H77.4406ZM76.5204 30.1452C76.4413 30.191 76.3734 30.1986 76.3168 30.1642C76.2225 30.107 76.1622 29.9428 76.1622 29.7291C76.1622 29.3245 76.3772 28.855 76.6298 28.7061C76.6751 28.6794 76.7203 28.6641 76.758 28.6641C76.7844 28.6641 76.8108 28.6717 76.8334 28.6832C76.9277 28.7404 76.988 28.9046 76.988 29.1183C76.988 29.523 76.7731 29.9925 76.5204 30.1413V30.1452Z" fill="#FAFAFA"/>
<path d="M77.6556 18.6405C77.3577 18.4572 76.9467 18.4763 76.4866 18.7435L1.63283 62.4923C0.731569 63.0191 0 64.3016 0 65.3552V68.8174L1.53101 69.7182L79.6505 24.0609V20.5987C79.6505 20.0757 79.4695 19.7055 79.1791 19.5337C78.9038 19.3695 77.9234 18.8046 77.6594 18.6366L77.6556 18.6405Z" fill="#263238"/>
<path d="M1.53125 66.256C1.53125 65.2025 2.26282 63.9199 3.16408 63.3931L78.0179 19.6444C78.9191 19.1176 79.6507 19.5451 79.6507 20.5986V24.0608L1.53125 69.7182V66.256Z" fill="#1D3557"/>
<path d="M79.1937 19.5453C78.8957 19.3583 78.4809 19.3774 78.0171 19.6484L3.16331 63.3933C2.7108 63.6567 2.30353 64.111 2.0094 64.6263L0.474609 63.7292C0.772516 63.2101 1.17978 62.7558 1.6323 62.4925L76.4861 18.7437C76.9462 18.4765 77.361 18.4574 77.6551 18.6406C77.9228 18.8048 78.9033 19.3735 79.1786 19.5339C79.1786 19.5377 79.1899 19.5415 79.1937 19.5453Z" fill="#1D3557"/>
<path d="M70.4608 25.8472C70.0385 26.0954 69.6953 26.6946 69.6953 27.1909C69.6953 27.6871 70.0385 27.8856 70.4608 27.6375C70.8832 27.3894 71.2263 26.7901 71.2263 26.2938C71.2263 25.7976 70.8832 25.5991 70.4608 25.8472Z" fill="white"/>
<path d="M73.1425 24.286C72.7201 24.5341 72.377 25.1334 72.377 25.6297C72.377 26.1259 72.7201 26.3244 73.1425 26.0763C73.5648 25.8282 73.908 25.2289 73.908 24.7326C73.908 24.2364 73.5648 24.0379 73.1425 24.286Z" fill="white"/>
<path d="M75.8221 22.7211C75.3998 22.9693 75.0566 23.5686 75.0566 24.0648C75.0566 24.561 75.3998 24.7595 75.8221 24.5114C76.2445 24.2633 76.5877 23.664 76.5877 23.1677C76.5877 22.6715 76.2445 22.473 75.8221 22.7211Z" fill="white"/>
<path d="M2.43328 136.828C1.98453 136.828 1.7168 136.458 1.7168 135.84V76.9862L16.6574 68.2524V128.686L3.0668 136.63C2.84431 136.759 2.62183 136.828 2.43328 136.828Z" fill="#F5F5F5"/>
<path d="M16.4718 68.5847V128.576L2.97553 136.466C2.77944 136.58 2.59466 136.641 2.43628 136.641C1.96114 136.641 1.90835 136.084 1.90835 135.843V77.097L16.4718 68.5847ZM16.8489 67.9243L1.53125 76.8756V135.84C1.53125 136.588 1.9008 137.019 2.43628 137.019C2.655 137.019 2.90388 136.947 3.16408 136.794L16.8489 128.797V67.9243Z" fill="#E0E0E0"/>
<path d="M6.61523 77.4825L13.9422 73.1958C14.2137 73.0393 14.4325 73.1653 14.4325 73.4821V74.1272C14.4325 74.444 14.2137 74.8295 13.9422 74.986L6.61523 79.2727C6.34372 79.4293 6.125 79.3033 6.125 78.9865V78.3414C6.125 78.0245 6.34372 77.639 6.61523 77.4825Z" fill="#E0E0E0"/>
<path d="M4.59351 79.2379V79.883C4.59351 80.1998 4.3748 80.5854 4.10329 80.7419L3.55273 81.0663C3.28122 81.2228 3.0625 81.0969 3.0625 80.78V80.1349C3.0625 79.8181 3.28122 79.4326 3.55273 79.2761L4.10329 78.9554C4.3748 78.7989 4.59351 78.9249 4.59351 79.2417V79.2379Z" fill="#1D3557"/>
<path d="M6.61523 81.0515L13.9422 76.7648C14.2137 76.6083 14.4325 76.7342 14.4325 77.051V77.6962C14.4325 78.013 14.2137 78.3985 13.9422 78.555L6.61523 82.8417C6.34372 82.9982 6.125 82.8723 6.125 82.5554V81.9103C6.125 81.5935 6.34372 81.208 6.61523 81.0515Z" fill="#E0E0E0"/>
<path d="M4.59351 82.8074V83.4525C4.59351 83.7693 4.3748 84.1549 4.10329 84.3114L3.55273 84.6358C3.28122 84.7923 3.0625 84.6664 3.0625 84.3495V83.7044C3.0625 83.3876 3.28122 83.0021 3.55273 82.8456L4.10329 82.5211C4.3748 82.3646 4.59351 82.4906 4.59351 82.8074Z" fill="#1D3557"/>
<path d="M6.61523 84.6203L13.9422 80.3336C14.2137 80.1771 14.4325 80.3031 14.4325 80.6199V81.265C14.4325 81.5818 14.2137 81.9674 13.9422 82.1239L6.61523 86.4106C6.34372 86.5671 6.125 86.4411 6.125 86.1243V85.4792C6.125 85.1623 6.34372 84.7768 6.61523 84.6203Z" fill="#E0E0E0"/>
<path d="M4.59351 86.372V87.0171C4.59351 87.3339 4.3748 87.7194 4.10329 87.8759L3.55273 88.2004C3.28122 88.3569 3.0625 88.2309 3.0625 87.9141V87.269C3.0625 86.9522 3.28122 86.5666 3.55273 86.4101L4.10329 86.0857C4.3748 85.9292 4.59351 86.0551 4.59351 86.372Z" fill="#1D3557"/>
<path d="M6.61523 96.4498L13.9422 92.1631C14.2137 92.0066 14.4325 92.1325 14.4325 92.4494V93.0945C14.4325 93.4113 14.2137 93.7968 13.9422 93.9533L6.61523 98.24C6.34372 98.3965 6.125 98.2706 6.125 97.9537V97.3086C6.125 96.9918 6.34372 96.6063 6.61523 96.4498Z" fill="#E0E0E0"/>
<path d="M4.59351 98.2019V98.847C4.59351 99.1639 4.3748 99.5494 4.10329 99.7059L3.55273 100.03C3.28122 100.187 3.0625 100.061 3.0625 99.7441V99.099C3.0625 98.7821 3.28122 98.3966 3.55273 98.2401L4.10329 97.9156C4.3748 97.7591 4.59351 97.8851 4.59351 98.2019Z" fill="#1D3557"/>
<path d="M6.61523 99.6107L13.9422 95.324C14.2137 95.1675 14.4325 95.2934 14.4325 95.6103V96.2554C14.4325 96.5722 14.2137 96.9577 13.9422 97.1142L6.61523 101.401C6.34372 101.557 6.125 101.431 6.125 101.115V100.47C6.125 100.153 6.34372 99.7672 6.61523 99.6107Z" fill="#E0E0E0"/>
<path d="M4.59351 101.362V102.007C4.59351 102.324 4.3748 102.71 4.10329 102.866L3.55273 103.191C3.28122 103.347 3.0625 103.221 3.0625 102.904V102.259C3.0625 101.943 3.28122 101.557 3.55273 101.401L4.10329 101.076C4.3748 100.92 4.59351 101.045 4.59351 101.362Z" fill="#1D3557"/>
<path d="M6.61523 102.767L13.9422 98.4802C14.2137 98.3237 14.4325 98.4497 14.4325 98.7665V99.4116C14.4325 99.7284 14.2137 100.114 13.9422 100.27L6.61523 104.557C6.34372 104.714 6.125 104.588 6.125 104.271V103.626C6.125 103.309 6.34372 102.923 6.61523 102.767Z" fill="#E0E0E0"/>
<path d="M4.59351 104.523V105.168C4.59351 105.485 4.3748 105.87 4.10329 106.027L3.55273 106.348C3.28122 106.504 3.0625 106.378 3.0625 106.061V105.416C3.0625 105.099 3.28122 104.714 3.55273 104.557L4.10329 104.233C4.3748 104.076 4.59351 104.202 4.59351 104.519V104.523Z" fill="#1D3557"/>
<path d="M6.125 88.5139V89.6247L7.07906 88.5139H6.125Z" fill="#1D3557"/>
<path d="M7.66016 88.2845C7.66016 88.4906 7.80722 88.5746 7.98823 88.4677L14.1123 84.8987C14.2933 84.7918 14.4404 84.5399 14.4404 84.3299C14.4404 84.12 14.2933 84.036 14.1123 84.1429L7.98823 87.7196C7.80722 87.8264 7.66016 88.0784 7.66016 88.2845Z" fill="#E0E0E0"/>
<path d="M6.125 90.3044V91.4152L7.07906 90.3044H6.125Z" fill="#1D3557"/>
<path d="M7.66016 90.075C7.66016 90.2812 7.80722 90.3651 7.98823 90.2583L14.1123 86.6892C14.2933 86.5823 14.4404 86.3304 14.4404 86.1204C14.4404 85.9105 14.2933 85.8265 14.1123 85.9334L7.98823 89.5101C7.80722 89.617 7.66016 89.8689 7.66016 90.075Z" fill="#E0E0E0"/>
<path d="M6.125 92.0939V93.2047L7.07906 92.0939H6.125Z" fill="#1D3557"/>
<path d="M7.66016 91.865C7.66016 92.0711 7.80722 92.1551 7.98823 92.0482L14.1123 88.4791C14.2933 88.3722 14.4404 88.1203 14.4404 87.9103C14.4404 87.7004 14.2933 87.6164 14.1123 87.7233L7.98823 91.3C7.80722 91.4069 7.66016 91.6588 7.66016 91.865Z" fill="#E0E0E0"/>
<path d="M6.125 93.8809V94.9955L7.07906 93.8809H6.125Z" fill="#1D3557"/>
<path d="M7.66016 93.6515C7.66016 93.8576 7.80722 93.9416 7.98823 93.8347L14.1123 90.2656C14.2933 90.1587 14.4404 89.9068 14.4404 89.6968C14.4404 89.4869 14.2933 89.4029 14.1123 89.5098L7.98823 93.0865C7.80722 93.1934 7.66016 93.4453 7.66016 93.6515Z" fill="#E0E0E0"/>
<path d="M21.4453 70.0538V79.383C21.4453 79.7723 21.7168 79.9326 22.0487 79.738L32.1813 73.8137C32.5169 73.619 32.7846 73.1457 32.7846 72.7525V65.08C32.7846 64.6906 32.5131 64.5303 32.1813 64.725L26.3023 68.1604C25.9667 68.3551 25.699 68.1986 25.699 67.8054V67.5611C25.699 67.1718 25.4275 67.0115 25.0956 67.2061L22.0524 68.9849C21.7168 69.1796 21.4491 69.653 21.4491 70.0461L21.4453 70.0538Z" fill="#F4A261"/>
<path d="M23.4355 81.1426V81.7419C23.4355 82.0358 23.6392 82.1541 23.8881 82.0052L31.4903 77.562C31.7392 77.417 31.9429 77.0582 31.9429 76.7681V76.1726C31.9429 75.8787 31.7392 75.7603 31.4903 75.9092L23.8881 80.3524C23.6392 80.4974 23.4355 80.8563 23.4355 81.1464V81.1426Z" fill="#E0E0E0"/>
<path d="M35.5332 61.8664V71.1956C35.5332 71.5849 35.8047 71.7453 36.1366 71.5506L46.2692 65.6263C46.6048 65.4316 46.8725 64.9583 46.8725 64.5651V56.8926C46.8725 56.5032 46.601 56.3429 46.2692 56.5376L40.3902 59.9731C40.0546 60.1677 39.7869 60.0112 39.7869 59.6181V59.3738C39.7869 58.9844 39.5154 58.8241 39.1835 59.0188L36.1403 60.7976C35.8047 60.9922 35.537 61.4656 35.537 61.8587L35.5332 61.8664Z" fill="#F4A261"/>
<path d="M37.5234 72.9548V73.5541C37.5234 73.848 37.7271 73.9664 37.976 73.8175L45.5782 69.3743C45.8271 69.2292 46.0308 68.8704 46.0308 68.5803V67.9848C46.0308 67.6909 45.8271 67.5726 45.5782 67.7214L37.976 72.1647C37.7271 72.3097 37.5234 72.6685 37.5234 72.9586V72.9548Z" fill="#E0E0E0"/>
<path d="M21.4453 88.7964V98.1256C21.4453 98.515 21.7168 98.6753 22.0487 98.4806L32.1813 92.5564C32.5169 92.3617 32.7846 91.8884 32.7846 91.4952V83.8226C32.7846 83.4333 32.5131 83.273 32.1813 83.4676L26.3023 86.9031C25.9667 87.0978 25.699 86.9413 25.699 86.5481V86.3038C25.699 85.9145 25.4275 85.7541 25.0956 85.9488L22.0524 87.7276C21.7168 87.9223 21.4491 88.3956 21.4491 88.7888L21.4453 88.7964Z" fill="#F4A261"/>
<path d="M23.4355 99.8854V100.485C23.4355 100.779 23.6392 100.897 23.8881 100.748L31.4903 96.3048C31.7392 96.1598 31.9429 95.801 31.9429 95.5109V94.9154C31.9429 94.6215 31.7392 94.5031 31.4903 94.652L23.8881 99.0952C23.6392 99.2402 23.4355 99.5991 23.4355 99.8892V99.8854Z" fill="#E0E0E0"/>
<path d="M35.5332 80.6084V89.9376C35.5332 90.327 35.8047 90.4873 36.1366 90.2926L46.2692 84.3684C46.6048 84.1737 46.8725 83.7004 46.8725 83.3072V75.6347C46.8725 75.2453 46.601 75.085 46.2692 75.2797L40.3902 78.7151C40.0546 78.9098 39.7869 78.7533 39.7869 78.3601V78.1158C39.7869 77.7265 39.5154 77.5661 39.1835 77.7608L36.1403 79.5396C35.8047 79.7343 35.537 80.2076 35.537 80.6008L35.5332 80.6084Z" fill="#F4A261"/>
<path d="M37.5234 91.698V92.2973C37.5234 92.5912 37.7271 92.7095 37.976 92.5607L45.5782 88.1175C45.8271 87.9724 46.0308 87.6136 46.0308 87.3235V86.728C46.0308 86.4341 45.8271 86.3157 45.5782 86.4646L37.976 90.9078C37.7271 91.0529 37.5234 91.4117 37.5234 91.7018V91.698Z" fill="#E0E0E0"/>
<path d="M49.7871 53.2281V62.5573C49.7871 62.9466 50.0586 63.107 50.3905 62.9123L60.5231 56.988C60.8587 56.7933 61.1264 56.32 61.1264 55.9268V48.2543C61.1264 47.8649 60.8549 47.7046 60.5231 47.8993L54.6441 51.3347C54.3085 51.5294 54.0408 51.3729 54.0408 50.9798V50.7355C54.0408 50.3461 53.7693 50.1858 53.4374 50.3805L50.3942 52.1593C50.0586 52.3539 49.7909 52.8273 49.7909 53.2204L49.7871 53.2281Z" fill="#F4A261"/>
<path d="M51.6133 64.7636V65.3629C51.6133 65.6569 51.8169 65.7752 52.0658 65.6263L59.6681 61.1831C59.917 61.0381 60.1206 60.6793 60.1206 60.3892V59.7937C60.1206 59.4997 59.917 59.3814 59.6681 59.5303L52.0658 63.9735C51.8169 64.1185 51.6133 64.4774 51.6133 64.7675V64.7636Z" fill="#E0E0E0"/>
<path d="M63.7109 45.4863V54.8155C63.7109 55.2048 63.9824 55.3651 64.3143 55.1705L74.4469 49.2462C74.7825 49.0515 75.0503 48.5782 75.0503 48.185V40.5125C75.0503 40.1231 74.7787 39.9628 74.4469 40.1575L68.568 43.5929C68.2323 43.7876 67.9646 43.6311 67.9646 43.2379V42.9936C67.9646 42.6043 67.6931 42.444 67.3612 42.6386L64.3181 44.4174C63.9824 44.6121 63.7147 45.0854 63.7147 45.4786L63.7109 45.4863Z" fill="#F4A261"/>
<path d="M65.7051 56.5755V57.1748C65.7051 57.4688 65.9087 57.5871 66.1576 57.4382L73.7599 52.995C74.0088 52.85 74.2124 52.4911 74.2124 52.201V51.6056C74.2124 51.3116 74.0088 51.1933 73.7599 51.3422L66.1576 55.7854C65.9087 55.9304 65.7051 56.2892 65.7051 56.5794V56.5755Z" fill="#E0E0E0"/>
<path d="M51.6133 83.4978V84.0971C51.6133 84.391 51.8169 84.5093 52.0658 84.3605L59.6681 79.9173C59.917 79.7722 60.1206 79.4134 60.1206 79.1233V78.5278C60.1206 78.2339 59.917 78.1155 59.6681 78.2644L52.0658 82.7076C51.8169 82.8527 51.6133 83.2115 51.6133 83.5016V83.4978Z" fill="#E0E0E0"/>
<path d="M51.8047 70.3899L59.6898 65.7826C60.0518 65.5727 60.3422 65.7444 60.3422 66.1643V75.379C60.3422 75.7989 60.0481 76.3142 59.6898 76.5242L51.8047 81.1315C51.4427 81.3414 51.1523 81.1697 51.1523 80.7498V71.5351C51.1523 71.1152 51.4465 70.5999 51.8047 70.3899Z" fill="#FAFAFA" stroke="#EBEBEB" stroke-miterlimit="10"/>
<path d="M60.6167 67.0227L58.8594 68.0495C58.4974 68.2595 58.207 68.7748 58.207 69.1947V71.2483C58.207 71.6682 58.5012 71.84 58.8594 71.6301L60.6167 70.6032C60.9787 70.3933 61.2691 69.878 61.2691 69.4581V67.4044C61.2691 66.9845 60.9749 66.8128 60.6167 67.0227Z" fill="#F4A261"/>
<path d="M52.4042 71.3829L56.3525 69.0812C56.5335 68.9743 56.6805 69.0621 56.6805 69.272V69.398C56.6805 69.6079 56.5335 69.8637 56.3525 69.9706L52.4042 72.2761C52.2232 72.383 52.0762 72.2952 52.0762 72.0853V71.9517C52.0762 71.7417 52.2232 71.486 52.4042 71.3791V71.3829Z" fill="#EBEBEB"/>
<path d="M52.4042 73.1727L56.3525 70.871C56.5335 70.7641 56.6805 70.8519 56.6805 71.0618V71.1878C56.6805 71.3977 56.5335 71.6535 56.3525 71.7604L52.4042 74.0659C52.2232 74.1728 52.0762 74.085 52.0762 73.8751V73.7415C52.0762 73.5315 52.2232 73.2758 52.4042 73.1689V73.1727Z" fill="#EBEBEB"/>
<path d="M52.4042 74.9589L56.3525 72.6571C56.5335 72.5502 56.6805 72.638 56.6805 72.8479V72.9739C56.6805 73.1839 56.5335 73.4396 56.3525 73.5465L52.4042 75.8521C52.2232 75.959 52.0762 75.8712 52.0762 75.6612V75.5276C52.0762 75.3177 52.2232 75.0619 52.4042 74.955V74.9589Z" fill="#EBEBEB"/>
<path d="M52.4042 76.7492L58.9657 72.9205C59.1468 72.8136 59.2938 72.9014 59.2938 73.1114V73.2373C59.2938 73.4473 59.1468 73.703 58.9657 73.8099L52.4042 77.6424C52.2232 77.7493 52.0762 77.6615 52.0762 77.4515V77.3179C52.0762 77.108 52.2232 76.8522 52.4042 76.7453V76.7492Z" fill="#EBEBEB"/>
<path d="M52.4042 78.5363L58.9657 74.7076C59.1468 74.6007 59.2938 74.6885 59.2938 74.8985V75.0245C59.2938 75.2344 59.1468 75.4901 58.9657 75.597L52.4042 79.4295C52.2232 79.5364 52.0762 79.4486 52.0762 79.2386V79.105C52.0762 78.8951 52.2232 78.6393 52.4042 78.5324V78.5363Z" fill="#EBEBEB"/>
<path d="M65.4004 75.4438V76.0431C65.4004 76.337 65.604 76.4554 65.8529 76.3065L73.4552 71.8633C73.7041 71.7183 73.9077 71.3594 73.9077 71.0693V70.4738C73.9077 70.1799 73.7041 70.0616 73.4552 70.2105L65.8529 74.6537C65.604 74.7987 65.4004 75.1575 65.4004 75.4476V75.4438Z" fill="#E0E0E0"/>
<path d="M65.5918 62.3318L73.4769 57.7245C73.8389 57.5145 74.1293 57.6863 74.1293 58.1062V67.3209C74.1293 67.7408 73.8352 68.2561 73.4769 68.4661L65.5918 73.0734C65.2298 73.2833 64.9395 73.1116 64.9395 72.6917V63.477C64.9395 63.0571 65.2336 62.5418 65.5918 62.3318Z" fill="#FAFAFA" stroke="#EBEBEB" stroke-miterlimit="10"/>
<path d="M74.4018 58.9688L72.6446 59.9956C72.2826 60.2055 71.9922 60.7208 71.9922 61.1407V63.1944C71.9922 63.6143 72.2863 63.786 72.6446 63.5761L74.4018 62.5493C74.7639 62.3393 75.0542 61.824 75.0542 61.4041V59.3505C75.0542 58.9306 74.7601 58.7588 74.4018 58.9688Z" fill="#F4A261"/>
<path d="M66.1914 63.3285L70.1396 61.0267C70.3206 60.9198 70.4676 61.0076 70.4676 61.2176V61.3435C70.4676 61.5535 70.3206 61.8092 70.1396 61.9161L66.1914 64.2217C66.0103 64.3286 65.8633 64.2408 65.8633 64.0308V63.8972C65.8633 63.6873 66.0103 63.4315 66.1914 63.3247V63.3285Z" fill="#EBEBEB"/>
<path d="M66.1914 65.114L70.1396 62.8122C70.3206 62.7054 70.4676 62.7932 70.4676 63.0031V63.1291C70.4676 63.339 70.3206 63.5948 70.1396 63.7016L66.1914 66.0072C66.0103 66.1141 65.8633 66.0263 65.8633 65.8164V65.6828C65.8633 65.4728 66.0103 65.2171 66.1914 65.1102V65.114Z" fill="#EBEBEB"/>
<path d="M66.1914 66.905L70.1396 64.6033C70.3206 64.4964 70.4676 64.5842 70.4676 64.7941V64.9201C70.4676 65.13 70.3206 65.3858 70.1396 65.4927L66.1914 67.7982C66.0103 67.9051 65.8633 67.8173 65.8633 67.6074V67.4738C65.8633 67.2638 66.0103 67.0081 66.1914 66.9012V66.905Z" fill="#EBEBEB"/>
<path d="M66.1914 68.6909L72.7529 64.8623C72.9339 64.7554 73.0809 64.8432 73.0809 65.0531V65.1791C73.0809 65.3891 72.9339 65.6448 72.7529 65.7517L66.1914 69.5841C66.0103 69.691 65.8633 69.6032 65.8633 69.3933V69.2597C65.8633 69.0497 66.0103 68.794 66.1914 68.6871V68.6909Z" fill="#EBEBEB"/>
<path d="M66.1914 70.4819L72.7529 66.6533C72.9339 66.5464 73.0809 66.6342 73.0809 66.8442V66.9701C73.0809 67.1801 72.9339 67.4358 72.7529 67.5427L66.1914 71.3752C66.0103 71.482 65.8633 71.3942 65.8633 71.1843V71.0507C65.8633 70.8408 66.0103 70.585 66.1914 70.4781V70.4819Z" fill="#EBEBEB"/>
<path d="M51.6133 102.516V103.115C51.6133 103.409 51.8169 103.527 52.0658 103.378L59.6681 98.9352C59.917 98.7902 60.1206 98.4313 60.1206 98.1412V97.5457C60.1206 97.2518 59.917 97.1335 59.6681 97.2824L52.0658 101.726C51.8169 101.871 51.6133 102.229 51.6133 102.52V102.516Z" fill="#E0E0E0"/>
<path d="M51.8047 89.403L59.6898 84.7957C60.0518 84.5857 60.3422 84.7575 60.3422 85.1774V94.3921C60.3422 94.812 60.0481 95.3273 59.6898 95.5372L51.8047 100.145C51.4427 100.355 51.1523 100.183 51.1523 99.7628V90.5482C51.1523 90.1283 51.4465 89.6129 51.8047 89.403Z" fill="#FAFAFA" stroke="#EBEBEB" stroke-miterlimit="10"/>
<path d="M60.6167 86.0402L58.8594 87.067C58.4974 87.2769 58.207 87.7923 58.207 88.2121V90.2658C58.207 90.6857 58.5012 90.8575 58.8594 90.6475L60.6167 89.6207C60.9787 89.4107 61.2691 88.8954 61.2691 88.4755V86.4219C61.2691 86.002 60.9749 85.8302 60.6167 86.0402Z" fill="#F4A261"/>
<path d="M52.4042 90.3998L56.3525 88.098C56.5335 87.9911 56.6805 88.0789 56.6805 88.2889V88.4148C56.6805 88.6248 56.5335 88.8805 56.3525 88.9874L52.4042 91.293C52.2232 91.3999 52.0762 91.3121 52.0762 91.1021V90.9685C52.0762 90.7586 52.2232 90.5028 52.4042 90.396V90.3998Z" fill="#EBEBEB"/>
<path d="M52.4042 92.1897L56.3525 89.8879C56.5335 89.781 56.6805 89.8688 56.6805 90.0788V90.2048C56.6805 90.4147 56.5335 90.6704 56.3525 90.7773L52.4042 93.0829C52.2232 93.1898 52.0762 93.102 52.0762 92.892V92.7584C52.0762 92.5485 52.2232 92.2928 52.4042 92.1859V92.1897Z" fill="#EBEBEB"/>
<path d="M52.4042 93.9763L56.3525 91.6745C56.5335 91.5677 56.6805 91.6555 56.6805 91.8654V91.9914C56.6805 92.2013 56.5335 92.4571 56.3525 92.5639L52.4042 94.8695C52.2232 94.9764 52.0762 94.8886 52.0762 94.6787V94.5451C52.0762 94.3351 52.2232 94.0794 52.4042 93.9725V93.9763Z" fill="#EBEBEB"/>
<path d="M52.4042 95.7666L58.9657 91.938C59.1468 91.8311 59.2938 91.9189 59.2938 92.1288V92.2548C59.2938 92.4647 59.1468 92.7205 58.9657 92.8274L52.4042 96.6598C52.2232 96.7667 52.0762 96.6789 52.0762 96.469V96.3354C52.0762 96.1254 52.2232 95.8697 52.4042 95.7628V95.7666Z" fill="#EBEBEB"/>
<path d="M52.4042 97.5532L58.9657 93.7246C59.1468 93.6177 59.2938 93.7055 59.2938 93.9155V94.0414C59.2938 94.2514 59.1468 94.5071 58.9657 94.614L52.4042 98.4464C52.2232 98.5533 52.0762 98.4655 52.0762 98.2556V98.122C52.0762 97.912 52.2232 97.6563 52.4042 97.5494V97.5532Z" fill="#EBEBEB"/>
<path d="M65.4004 94.4607V95.06C65.4004 95.3539 65.604 95.4722 65.8529 95.3234L73.4552 90.8802C73.7041 90.7351 73.9077 90.3763 73.9077 90.0862V89.4907C73.9077 89.1968 73.7041 89.0784 73.4552 89.2273L65.8529 93.6705C65.604 93.8156 65.4004 94.1744 65.4004 94.4645V94.4607Z" fill="#E0E0E0"/>
<path d="M65.5918 81.3487L73.4769 76.7413C73.8389 76.5314 74.1293 76.7032 74.1293 77.1231V86.3377C74.1293 86.7576 73.8352 87.273 73.4769 87.4829L65.5918 92.0902C65.2298 92.3002 64.9395 92.1284 64.9395 91.7085V82.4938C64.9395 82.0739 65.2336 81.5586 65.5918 81.3487Z" fill="#FAFAFA" stroke="#EBEBEB" stroke-miterlimit="10"/>
<path d="M74.4018 77.9856L72.6446 79.0124C72.2826 79.2224 71.9922 79.7377 71.9922 80.1576V82.2112C71.9922 82.6311 72.2863 82.8029 72.6446 82.5929L74.4018 81.5661C74.7639 81.3562 75.0542 80.8409 75.0542 80.421V78.3673C75.0542 77.9474 74.7601 77.7757 74.4018 77.9856Z" fill="#F4A261"/>
<path d="M66.1914 82.3452L70.1396 80.0434C70.3206 79.9366 70.4676 80.0244 70.4676 80.2343V80.3603C70.4676 80.5702 70.3206 80.826 70.1396 80.9328L66.1914 83.2384C66.0103 83.3453 65.8633 83.2575 65.8633 83.0476V82.914C65.8633 82.704 66.0103 82.4483 66.1914 82.3414V82.3452Z" fill="#EBEBEB"/>
<path d="M66.1914 84.1313L70.1396 81.8296C70.3206 81.7227 70.4676 81.8105 70.4676 82.0204V82.1464C70.4676 82.3563 70.3206 82.6121 70.1396 82.719L66.1914 85.0246C66.0103 85.1314 65.8633 85.0436 65.8633 84.8337V84.7001C65.8633 84.4902 66.0103 84.2344 66.1914 84.1275V84.1313Z" fill="#EBEBEB"/>
<path d="M66.1914 85.9222L70.1396 83.6205C70.3206 83.5136 70.4676 83.6014 70.4676 83.8113V83.9373C70.4676 84.1472 70.3206 84.403 70.1396 84.5099L66.1914 86.8154C66.0103 86.9223 65.8633 86.8345 65.8633 86.6246V86.491C65.8633 86.281 66.0103 86.0253 66.1914 85.9184V85.9222Z" fill="#EBEBEB"/>
<path d="M66.1914 87.7083L72.7529 83.8796C72.9339 83.7727 73.0809 83.8605 73.0809 84.0705V84.1965C73.0809 84.4064 72.9339 84.6621 72.7529 84.769L66.1914 88.6015C66.0103 88.7084 65.8633 88.6206 65.8633 88.4106V88.277C65.8633 88.0671 66.0103 87.8113 66.1914 87.7044V87.7083Z" fill="#EBEBEB"/>
<path d="M66.1914 89.4949L72.7529 85.6662C72.9339 85.5594 73.0809 85.6472 73.0809 85.8571V85.9831C73.0809 86.193 72.9339 86.4488 72.7529 86.5556L66.1914 90.3881C66.0103 90.495 65.8633 90.4072 65.8633 90.1972V90.0636C65.8633 89.8537 66.0103 89.5979 66.1914 89.4911V89.4949Z" fill="#EBEBEB"/>
<path d="M23.4375 118.994V119.593C23.4375 119.887 23.6411 120.005 23.89 119.856L31.4923 115.413C31.7412 115.268 31.9448 114.909 31.9448 114.619V114.024C31.9448 113.73 31.7412 113.612 31.4923 113.76L23.89 118.204C23.6411 118.349 23.4375 118.707 23.4375 118.998V118.994Z" fill="#E0E0E0"/>
<path d="M23.6289 105.882L31.514 101.275C31.8761 101.065 32.1664 101.236 32.1664 101.656V110.871C32.1664 111.291 31.8723 111.806 31.514 112.016L23.6289 116.623C23.2669 116.833 22.9766 116.662 22.9766 116.242V107.027C22.9766 106.607 23.2707 106.092 23.6289 105.882Z" fill="#FAFAFA" stroke="#EBEBEB" stroke-miterlimit="10"/>
<path d="M32.4409 102.519L30.6836 103.546C30.3216 103.756 30.0312 104.271 30.0312 104.691V106.745C30.0312 107.165 30.3254 107.336 30.6836 107.127L32.4409 106.1C32.8029 105.89 33.0933 105.374 33.0933 104.955V102.901C33.0933 102.481 32.7991 102.309 32.4409 102.519Z" fill="#F4A261"/>
<path d="M24.2285 106.878L28.1767 104.576C28.3577 104.469 28.5048 104.557 28.5048 104.767V104.893C28.5048 105.103 28.3577 105.359 28.1767 105.465L24.2285 107.771C24.0475 107.878 23.9004 107.79 23.9004 107.58V107.447C23.9004 107.237 24.0475 106.981 24.2285 106.874V106.878Z" fill="#EBEBEB"/>
<path d="M24.2285 108.665L28.1767 106.363C28.3577 106.256 28.5048 106.344 28.5048 106.554V106.68C28.5048 106.89 28.3577 107.146 28.1767 107.253L24.2285 109.558C24.0475 109.665 23.9004 109.577 23.9004 109.367V109.234C23.9004 109.024 24.0475 108.768 24.2285 108.661V108.665Z" fill="#EBEBEB"/>
<path d="M24.2285 110.455L28.1767 108.153C28.3577 108.046 28.5048 108.134 28.5048 108.344V108.47C28.5048 108.68 28.3577 108.936 28.1767 109.042L24.2285 111.348C24.0475 111.455 23.9004 111.367 23.9004 111.157V111.024C23.9004 110.814 24.0475 110.558 24.2285 110.451V110.455Z" fill="#EBEBEB"/>
<path d="M24.2285 112.241L30.79 108.413C30.971 108.306 31.118 108.394 31.118 108.604V108.73C31.118 108.939 30.971 109.195 30.79 109.302L24.2285 113.135C24.0475 113.241 23.9004 113.154 23.9004 112.944V112.81C23.9004 112.6 24.0475 112.344 24.2285 112.238V112.241Z" fill="#EBEBEB"/>
<path d="M24.2285 114.032L30.79 110.203C30.971 110.096 31.118 110.184 31.118 110.394V110.52C31.118 110.73 30.971 110.986 30.79 111.093L24.2285 114.925C24.0475 115.032 23.9004 114.944 23.9004 114.734V114.601C23.9004 114.391 24.0475 114.135 24.2285 114.028V114.032Z" fill="#EBEBEB"/>
<path d="M37.2246 110.94V111.539C37.2246 111.833 37.4282 111.951 37.6771 111.802L45.2794 107.359C45.5283 107.214 45.7319 106.855 45.7319 106.565V105.97C45.7319 105.676 45.5283 105.557 45.2794 105.706L37.6771 110.15C37.4282 110.295 37.2246 110.653 37.2246 110.943V110.94Z" fill="#E0E0E0"/>
<path d="M37.4161 97.8276L45.3012 93.2202C45.6632 93.0103 45.9535 93.182 45.9535 93.6019V102.817C45.9535 103.237 45.6594 103.752 45.3012 103.962L37.4161 108.569C37.054 108.779 36.7637 108.607 36.7637 108.187V98.9727C36.7637 98.5528 37.0578 98.0375 37.4161 97.8276Z" fill="#FAFAFA" stroke="#EBEBEB" stroke-miterlimit="10"/>
<path d="M46.2261 94.4651L44.4688 95.4919C44.1068 95.7019 43.8164 96.2172 43.8164 96.6371V98.6907C43.8164 99.1106 44.1105 99.2824 44.4688 99.0724L46.2261 98.0456C46.5881 97.8357 46.8784 97.3203 46.8784 96.9005V94.8468C46.8784 94.4269 46.5843 94.2551 46.2261 94.4651Z" fill="#F4A261"/>
<path d="M38.0156 98.8205L41.9638 96.5188C42.1448 96.4119 42.2919 96.4997 42.2919 96.7096V96.8356C42.2919 97.0456 42.1448 97.3013 41.9638 97.4082L38.0156 99.7138C37.8346 99.8207 37.6875 99.7329 37.6875 99.5229V99.3893C37.6875 99.1794 37.8346 98.9236 38.0156 98.8167V98.8205Z" fill="#EBEBEB"/>
<path d="M38.0156 100.611L41.9638 98.3091C42.1448 98.2022 42.2919 98.29 42.2919 98.4999V98.6259C42.2919 98.8358 42.1448 99.0916 41.9638 99.1985L38.0156 101.504C37.8346 101.611 37.6875 101.523 37.6875 101.313V101.18C37.6875 100.97 37.8346 100.714 38.0156 100.607V100.611Z" fill="#EBEBEB"/>
<path d="M38.0156 102.396L41.9638 100.095C42.1448 99.9878 42.2919 100.076 42.2919 100.286V100.412C42.2919 100.621 42.1448 100.877 41.9638 100.984L38.0156 103.29C37.8346 103.397 37.6875 103.309 37.6875 103.099V102.965C37.6875 102.755 37.8346 102.5 38.0156 102.393V102.396Z" fill="#EBEBEB"/>
<path d="M38.0156 104.187L44.5771 100.359C44.7581 100.252 44.9051 100.34 44.9051 100.549V100.675C44.9051 100.885 44.7581 101.141 44.5771 101.248L38.0156 105.08C37.8346 105.187 37.6875 105.1 37.6875 104.89V104.756C37.6875 104.546 37.8346 104.29 38.0156 104.183V104.187Z" fill="#EBEBEB"/>
<path d="M38.0156 105.974L44.5771 102.145C44.7581 102.038 44.9051 102.126 44.9051 102.336V102.462C44.9051 102.672 44.7581 102.928 44.5771 103.035L38.0156 106.867C37.8346 106.974 37.6875 106.886 37.6875 106.676V106.543C37.6875 106.333 37.8346 106.077 38.0156 105.97V105.974Z" fill="#EBEBEB"/>
<path d="M1.53101 69.718L0 68.8171V75.9782L1.53101 76.8752V69.718Z" fill="#A5A5A5"/>
<path d="M40.5819 42.0851L39.9323 42.1061C39.9319 42.0945 39.9318 42.0828 39.9321 42.0712L40.5819 42.0851ZM103.5 33.0002L98.8097 27.1411L106.229 26.0083L103.5 33.0002ZM41.7297 57.4069C41.7414 57.7657 41.46 58.066 41.1012 58.0776C40.7424 58.0893 40.4421 57.8079 40.4304 57.4491L41.7297 57.4069ZM40.4304 57.4491L40.3993 56.4901L41.6986 56.448L41.7297 57.4069L40.4304 57.4491ZM40.337 54.5723L40.2747 52.6544L41.5741 52.6122L41.6363 54.5301L40.337 54.5723ZM40.2125 50.7365L40.1502 48.8187L41.4495 48.7765L41.5118 50.6944L40.2125 50.7365ZM40.0879 46.9008L40.0257 44.9829L41.325 44.9408L41.3873 46.8586L40.0879 46.9008ZM39.9634 43.0651L39.9323 42.1061L41.2316 42.064L41.2627 43.0229L39.9634 43.0651ZM39.9321 42.0712C39.9395 41.7209 39.9501 41.373 39.9637 41.0274L41.2627 41.0785C41.2494 41.4163 41.2391 41.7564 41.2318 42.0989L39.9321 42.0712ZM40.0817 38.9819C40.1342 38.2947 40.199 37.6172 40.2759 36.9497L41.5673 37.0984C41.4924 37.7492 41.4291 38.41 41.3779 39.0808L40.0817 38.9819ZM40.5519 34.9146C40.6586 34.2326 40.7784 33.5615 40.9106 32.9013L42.1853 33.1566C42.0567 33.7986 41.9402 34.4516 41.8362 35.1157L40.5519 34.9146ZM41.3583 30.8976C41.5245 30.2251 41.7041 29.5648 41.8967 28.9167L43.1428 29.287C42.9561 29.9156 42.7817 30.5564 42.6203 31.2095L41.3583 30.8976ZM42.5272 26.9681C42.7575 26.3116 43.0016 25.6688 43.2588 25.0396L44.4621 25.5317C44.2133 26.1403 43.977 26.7625 43.754 27.3984L42.5272 26.9681ZM44.0798 23.1719C44.3775 22.54 44.6891 21.9233 45.014 21.3219L46.1578 21.9396C45.8443 22.5201 45.5434 23.1155 45.2557 23.726L44.0798 23.1719ZM46.0396 19.5434C46.4028 18.9527 46.7793 18.3785 47.1685 17.8206L48.2347 18.5644C47.8599 19.1016 47.4971 19.6549 47.1471 20.2243L46.0396 19.5434ZM48.3993 16.1629C48.8274 15.6208 49.2681 15.0964 49.7206 14.5896L50.6903 15.4554C50.2553 15.9427 49.8314 16.4471 49.4195 16.9686L48.3993 16.1629ZM51.1437 13.0912C51.6362 12.6037 52.1404 12.1352 52.6553 11.6857L53.5103 12.6651C53.0158 13.0967 52.5314 13.5468 52.0581 14.0152L51.1437 13.0912ZM54.2479 10.3814C54.7976 9.95954 55.3575 9.55776 55.9266 9.17612L56.6507 10.2558C56.1046 10.6221 55.5671 11.0077 55.0394 11.4127L54.2479 10.3814ZM57.6779 8.08143C58.2749 7.73443 58.8803 7.40836 59.4929 7.10323L60.0725 8.2669C59.4848 8.55961 58.904 8.87244 58.3312 9.20537L57.6779 8.08143ZM61.3699 6.24309C62.0074 5.97562 62.6512 5.72989 63.3003 5.50594L63.7243 6.73484C63.1018 6.94962 62.4843 7.18529 61.8729 7.44183L61.3699 6.24309ZM65.2723 4.89662C65.9375 4.71461 66.6069 4.55488 67.2792 4.41743L67.5396 5.69109C66.895 5.82286 66.2532 5.97602 65.6154 6.15053L65.2723 4.89662ZM69.3169 4.07024C70.0004 3.97683 70.6857 3.90618 71.3716 3.85831L71.4621 5.15515C70.8048 5.20102 70.1481 5.26874 69.4929 5.35827L69.3169 4.07024ZM73.4353 3.7831C74.1248 3.78096 74.8137 3.8019 75.5006 3.84596L75.4174 5.1433C74.7596 5.10111 74.0998 5.08105 73.4393 5.08309L73.4353 3.7831ZM77.5574 4.04791C78.2404 4.13846 78.9202 4.25224 79.5956 4.38929L79.3371 5.66333C78.6909 5.5322 78.0403 5.42331 77.3866 5.33664L77.5574 4.04791ZM81.6068 4.87017C82.2703 5.05332 82.9283 5.25967 83.5793 5.48926L83.1469 6.71526C82.5246 6.49578 81.8955 6.29847 81.2609 6.12331L81.6068 4.87017ZM85.5034 6.24474C86.1343 6.51849 86.7573 6.81515 87.3709 7.13474L86.7704 8.28774C86.1841 7.9824 85.5889 7.69894 84.9859 7.43734L85.5034 6.24474ZM89.1722 8.1558C89.7559 8.51474 90.3295 8.89585 90.8918 9.29914L90.1341 10.3555C89.5969 9.9702 89.0489 9.60612 88.4913 9.26322L89.1722 8.1558ZM92.5281 10.5629C93.0565 11.0016 93.5728 11.4617 94.0759 11.9431L93.1771 12.8824C92.6961 12.4221 92.2026 11.9823 91.6976 11.5631L92.5281 10.5629ZM95.515 13.4186C95.9741 13.923 96.42 14.4472 96.8517 14.9911L95.8333 15.7992C95.4199 15.2782 94.993 14.7764 94.5537 14.2938L95.515 13.4186ZM98.0865 16.6586C98.4714 17.216 98.8425 17.7915 99.1988 18.3851L98.0841 19.0541C97.742 18.4842 97.3859 17.9319 97.0168 17.3973L98.0865 16.6586ZM100.204 20.1847C100.518 20.7899 100.818 21.4118 101.103 22.0503L99.9152 22.5794C99.6411 21.9643 99.3526 21.3657 99.0504 20.7837L100.204 20.1847ZM101.882 23.941C102.123 24.5777 102.351 25.2294 102.563 25.8961L101.325 26.2908C101.119 25.6463 100.9 25.0169 100.666 24.4024L101.882 23.941ZM103.133 27.8577C103.305 28.5123 103.464 29.18 103.608 29.861L102.336 30.1304C102.196 29.4698 102.043 28.8226 101.876 28.1888L103.133 27.8577Z" fill="url(#paint0_linear_2_11987)"/>
<defs>
<linearGradient id="paint0_linear_2_11987" x1="99.8488" y1="23.0887" x2="41.2524" y2="54.4963" gradientUnits="userSpaceOnUse">
<stop stop-color="#15EFC8"/>
<stop offset="0.5" stop-color="#15DBB8"/>
<stop offset="1" stop-color="#15C7A7"/>
</linearGradient>
</defs>
</svg>
