<svg width="150" height="141" viewBox="0 0 150 141" fill="none" xmlns="http://www.w3.org/2000/svg">
<path d="M112.202 76.5539L136.704 60.8994L147.504 64.3551L112.202 76.5539Z" fill="url(#paint0_linear_103_4974)"/>
<path d="M112.202 76.554L133.379 58.9348L128.674 53.5144L112.202 76.554Z" fill="url(#paint1_linear_103_4974)"/>
<path d="M133.379 58.9346V63.0259L112.202 76.5538L133.379 58.9346Z" fill="#455A64"/>
<path d="M78.069 24.199C93.1218 15.531 112.781 14.7335 128.772 23.7598C144.549 32.6648 146.467 49.2554 136.907 58.0794" stroke="#E0E0E0" stroke-width="1.5" stroke-miterlimit="10" stroke-linecap="round"/>
<path d="M12.9094 134.95V76.0766C12.9094 75.1231 13.3671 73.7073 13.9233 72.933L50.6516 21.9245C52.0247 20.0175 54.4119 19.1334 56.6947 19.6708L91.2328 27.8592C92.1599 28.0788 93.6026 28.6509 94.4311 29.1247L96.1288 30.1013C96.9573 30.581 97.6352 31.7483 97.6352 32.7018V91.575C97.6352 92.5285 96.9573 93.6958 96.1288 94.1754L19.1205 138.521C18.292 138.995 16.9362 138.995 16.1077 138.521L14.41 137.544C13.5815 137.071 12.9036 135.898 12.9036 134.944L12.9094 134.95Z" fill="url(#paint2_linear_103_4974)"/>
<path opacity="0.3" d="M12.9094 134.95V76.0766C12.9094 75.1231 13.3671 73.7073 13.9233 72.933L50.6516 21.9245C52.0247 20.0175 54.4119 19.1334 56.6947 19.6708L91.2328 27.8592C92.1599 28.0788 93.6026 28.6509 94.4311 29.1247L96.1288 30.1013C96.9573 30.581 97.6352 31.7483 97.6352 32.7018V91.575C97.6352 92.5285 96.9573 93.6958 96.1288 94.1754L19.1205 138.521C18.292 138.995 16.9362 138.995 16.1077 138.521L14.41 137.544C13.5815 137.071 12.9036 135.898 12.9036 134.944L12.9094 134.95Z" fill="white"/>
<path d="M19.9665 47.6164V122.757C19.9665 123.716 20.6386 124.103 21.4729 123.624L93.7764 81.9881C94.605 81.5085 95.2829 80.3469 95.2829 79.3877V4.24738C95.2829 3.28812 94.6108 2.90095 93.7764 3.38058L21.4729 45.016C20.6386 45.4957 19.9665 46.6572 19.9665 47.6164Z" fill="white" stroke="#D4D8DD" stroke-miterlimit="10"/>
<path d="M18.4021 77.5096L13.1817 74.5046C13.0079 75.0536 12.9036 75.6199 12.9036 76.0764V134.95C12.9036 135.903 13.5815 137.076 14.41 137.55L16.1077 138.527C16.9362 139.006 18.292 139.006 19.1205 138.527L19.8448 138.111L18.4079 77.5096H18.4021Z" fill="url(#paint3_linear_103_4974)"/>
<g opacity="0.1">
<path d="M18.4021 77.5096L13.1817 74.5046C13.0079 75.0536 12.9036 75.6199 12.9036 76.0764V134.95C12.9036 135.903 13.5815 137.076 14.41 137.55L16.1077 138.527C16.9362 139.006 18.292 139.006 19.1205 138.527L19.8448 138.111L18.4079 77.5096H18.4021Z" fill="black"/>
</g>
<path d="M97.6352 32.7131V91.5864C97.6352 92.0776 97.4556 92.6266 97.1659 93.1062C96.9283 93.4991 96.6271 93.8517 96.2852 94.0886L96.2273 94.1232C96.1925 94.1464 96.1635 94.1695 96.1288 94.1868L19.1205 138.527H19.1089C18.7091 138.758 18.3499 138.787 18.0834 138.648C17.7937 138.498 17.6141 138.157 17.6141 137.66V78.7866C17.6141 77.8331 18.3673 77.2321 19.3059 77.4575L51.6887 85.1374L55.9299 86.1429C56.8685 86.3625 58.0795 85.9117 58.6357 85.1316L63.549 78.307L96.6213 32.3837C97.1775 31.6094 97.6352 31.7539 97.6352 32.7131Z" fill="url(#paint4_linear_103_4974)"/>
<path opacity="0.3" d="M97.6352 32.7131V91.5864C97.6352 92.0776 97.4556 92.6266 97.1659 93.1062C96.9283 93.4991 96.6271 93.8517 96.2852 94.0886L96.2273 94.1232C96.1925 94.1464 96.1635 94.1695 96.1288 94.1868L19.1205 138.527H19.1089C18.7091 138.758 18.3499 138.787 18.0834 138.648C17.7937 138.498 17.6141 138.157 17.6141 137.66V78.7866C17.6141 77.8331 18.3673 77.2321 19.3059 77.4575L51.6887 85.1374L55.9299 86.1429C56.8685 86.3625 58.0795 85.9117 58.6357 85.1316L63.549 78.307L96.6213 32.3837C97.1775 31.6094 97.6352 31.7539 97.6352 32.7131Z" fill="white"/>
<path d="M96.1288 94.187C96.1636 94.1696 96.1925 94.1465 96.2273 94.1234L96.2853 94.0887C96.6271 93.8518 96.9284 93.4993 97.1659 93.1063C97.4498 92.6325 97.6295 92.0951 97.6353 91.6097L63.5491 78.3071L86.3717 99.8039L96.1288 94.187Z" fill="url(#paint5_linear_103_4974)"/>
<path d="M17.6141 137.66C17.6141 138.157 17.7937 138.498 18.0834 138.648C18.3499 138.787 18.7091 138.758 19.1089 138.533H19.1205L45.6339 123.259L51.6887 85.1375L17.6141 136.683V137.66Z" fill="url(#paint6_linear_103_4974)"/>
<path d="M97.1659 93.1063C96.9284 93.4993 96.6271 93.8518 96.2853 94.0887L96.2273 94.1234L19.1206 138.527H19.109C18.7092 138.758 18.35 138.787 18.0834 138.648L54.9623 79.9309C56.492 77.4981 59.5802 76.5504 62.2107 77.7119L97.1659 93.1005V93.1063Z" fill="url(#paint7_linear_103_4974)"/>
<path opacity="0.3" d="M97.1659 93.1063C96.9284 93.4993 96.6271 93.8518 96.2853 94.0887L96.2273 94.1234L19.1206 138.527H19.109C18.7092 138.758 18.35 138.787 18.0834 138.648L54.9623 79.9309C56.492 77.4981 59.5802 76.5504 62.2107 77.7119L97.1659 93.1005V93.1063Z" fill="white"/>
<path d="M51.8046 64.9236C50.2112 65.0565 48.9713 64.6289 48.0906 63.6523C47.2099 62.6699 46.7696 61.1674 46.7696 59.1391C46.7696 56.8219 47.2389 54.6086 48.1833 52.5052C49.122 50.4017 50.4488 48.4659 52.1638 46.7034C53.8789 44.9409 55.8952 43.3864 58.2186 42.0515C60.3913 40.8033 62.2454 40.1099 63.7866 39.9712C65.3278 39.8383 66.4982 40.2313 67.2978 41.1616C68.0916 42.092 68.4914 43.502 68.4914 45.3916C68.4914 47.4026 68.0568 49.2056 67.1935 50.7947C66.3302 52.3838 65.183 53.5858 63.7634 54.4064C63.0682 54.8051 62.4946 54.9611 62.0484 54.8629C61.5965 54.7647 61.301 54.4757 61.1445 53.9903C60.6694 54.8918 60.0611 55.7181 59.3252 56.4694C58.5894 57.2264 57.7608 57.862 56.8454 58.3937C55.2694 59.2836 54.0121 59.5667 53.0793 59.2431C52.1464 58.9195 51.6829 57.9776 51.6829 56.4231C51.6829 54.4931 52.2623 52.667 53.4153 50.9392C54.5683 49.2113 56.1443 47.7667 58.1432 46.6167C59.0066 46.1197 59.8583 45.7788 60.6868 45.5939C61.5154 45.4147 62.1933 45.409 62.7205 45.5765V51.6615C62.7205 52.1527 62.8074 52.4532 62.9755 52.5688C63.1435 52.6843 63.4216 52.6265 63.8156 52.4012C64.4761 52.0198 64.9918 51.3437 65.3568 50.3729C65.7218 49.402 65.9014 48.2347 65.9014 46.8652C65.9014 45.3454 65.5712 44.2417 64.9107 43.554C64.2501 42.8663 63.3405 42.589 62.1759 42.7161C61.0171 42.8432 59.6902 43.3402 58.1954 44.1954C55.4664 45.7672 53.311 47.6973 51.7351 49.9799C50.1591 52.2683 49.3711 54.8224 49.3711 57.6424C49.3711 59.3009 49.713 60.5087 50.4024 61.2715C51.0919 62.0343 52.0306 62.3579 53.2241 62.2481C54.4177 62.1325 55.7793 61.6413 57.3031 60.7572C58.1317 60.2775 58.937 59.717 59.7076 59.0698C60.4782 58.4226 61.1098 57.7811 61.6023 57.1397C61.6834 57.0415 61.7529 56.9779 61.8051 56.949C61.8572 56.9201 61.9036 56.9432 61.9557 57.0126L62.5931 58.1683C62.6278 58.2492 62.6452 58.3012 62.6452 58.3186C62.6452 58.4052 62.5873 58.515 62.4656 58.6479C61.8398 59.4165 61.0692 60.1793 60.1654 60.9363C59.2557 61.6933 58.3113 62.3579 57.3321 62.9242C55.2462 64.1261 53.4095 64.7907 51.8104 64.9236H51.8046ZM59.36 54.0539C59.9684 53.2564 60.2754 52.4821 60.2754 51.7366V48.2116C59.6497 48.2174 58.8791 48.4832 57.9636 49.0091C56.8106 49.6736 55.8952 50.5231 55.2173 51.5517C54.5394 52.5861 54.1975 53.6783 54.1975 54.8282C54.1975 55.8106 54.4409 56.3885 54.9334 56.5734C55.4259 56.7583 56.1907 56.5503 57.222 55.9551C58.0332 55.487 58.7458 54.8513 59.36 54.0539Z" fill="#F1F1F1"/>
<defs>
<linearGradient id="paint0_linear_103_4974" x1="129.853" y1="60.8994" x2="129.853" y2="76.5539" gradientUnits="userSpaceOnUse">
<stop offset="0.265" stop-color="#00F59E"/>
<stop offset="1" stop-color="#008E95"/>
</linearGradient>
<linearGradient id="paint1_linear_103_4974" x1="122.79" y1="53.5144" x2="122.79" y2="76.554" gradientUnits="userSpaceOnUse">
<stop offset="0.265" stop-color="#00F59E"/>
<stop offset="1" stop-color="#008E95"/>
</linearGradient>
<linearGradient id="paint2_linear_103_4974" x1="55.2694" y1="19.5156" x2="55.2694" y2="138.876" gradientUnits="userSpaceOnUse">
<stop offset="0.265" stop-color="#00F59E"/>
<stop offset="1" stop-color="#008E95"/>
</linearGradient>
<linearGradient id="paint3_linear_103_4974" x1="16.3742" y1="74.5046" x2="16.3742" y2="138.886" gradientUnits="userSpaceOnUse">
<stop offset="0.265" stop-color="#00F59E"/>
<stop offset="1" stop-color="#008E95"/>
</linearGradient>
<linearGradient id="paint4_linear_103_4974" x1="57.6246" y1="31.8862" x2="57.6246" y2="138.732" gradientUnits="userSpaceOnUse">
<stop offset="0.265" stop-color="#00F59E"/>
<stop offset="1" stop-color="#008E95"/>
</linearGradient>
<linearGradient id="paint5_linear_103_4974" x1="80.5922" y1="78.3071" x2="80.5922" y2="99.8039" gradientUnits="userSpaceOnUse">
<stop offset="0.265" stop-color="#00F59E"/>
<stop offset="1" stop-color="#008E95"/>
</linearGradient>
<linearGradient id="paint6_linear_103_4974" x1="34.6514" y1="85.1375" x2="34.6514" y2="138.732" gradientUnits="userSpaceOnUse">
<stop offset="0.265" stop-color="#00F59E"/>
<stop offset="1" stop-color="#008E95"/>
</linearGradient>
<linearGradient id="paint7_linear_103_4974" x1="57.6247" y1="77.2183" x2="57.6247" y2="138.732" gradientUnits="userSpaceOnUse">
<stop offset="0.265" stop-color="#00F59E"/>
<stop offset="1" stop-color="#008E95"/>
</linearGradient>
</defs>
</svg>
