<svg width="22" height="22" viewBox="0 0 22 22" fill="none" xmlns="http://www.w3.org/2000/svg">
<path d="M9.857 5.06257C10.2364 5.02073 10.6181 4.99984 11 5C15.1976 5 18.56 7.48826 20 10.9999C19.6514 11.8541 19.1804 12.6583 18.6005 13.3896M6.068 6.30199C4.232 7.36912 2.81 9.02253 2 10.9999C3.44 14.5116 6.8024 16.9999 11 16.9999C12.7389 17.0086 14.4463 16.5576 15.932 15.697M9.092 9.18281C8.84126 9.42161 8.64236 9.7051 8.50666 10.0171C8.37096 10.3291 8.30112 10.6635 8.30112 11.0012C8.30112 11.3389 8.37096 11.6733 8.50666 11.9853C8.64236 12.2973 8.84126 12.5808 9.092 12.8196C9.34274 13.0584 9.64041 13.2479 9.96802 13.3771C10.2956 13.5063 10.6468 13.5728 11.0013 13.5728C11.3559 13.5728 11.7071 13.5063 12.0347 13.3771C12.3623 13.2479 12.66 13.0584 12.9107 12.8196" stroke="#212529" stroke-width="1.5" stroke-linecap="round" stroke-linejoin="round"/>
<path d="M4 3L18.4 18" stroke="#212529" stroke-width="1.5" stroke-linecap="round"/>
</svg>
