<svg width="22" height="22" viewBox="0 0 22 22" fill="none" xmlns="http://www.w3.org/2000/svg">
<path d="M16.5385 11.1067C16.5385 10.9323 16.6033 10.765 16.7187 10.6416C16.8341 10.5183 16.9906 10.449 17.1538 10.449C17.3171 10.449 17.4736 10.5183 17.589 10.6416C17.7044 10.765 17.7692 10.9323 17.7692 11.1067V18.3418C17.7692 18.5163 17.7044 18.6836 17.589 18.8069C17.4736 18.9303 17.3171 18.9996 17.1538 18.9996H3.61538C3.45217 18.9996 3.29565 18.9303 3.18024 18.8069C3.06484 18.6836 3 18.5163 3 18.3418V3.87161C3 3.69716 3.06484 3.52986 3.18024 3.40651C3.29565 3.28316 3.45217 3.21387 3.61538 3.21387H10.3846C10.5478 3.21387 10.7044 3.28316 10.8198 3.40651C10.9352 3.52986 11 3.69716 11 3.87161C11 4.04605 10.9352 4.21335 10.8198 4.3367C10.7044 4.46005 10.5478 4.52934 10.3846 4.52934H4.23077V17.6841H16.5385V11.1067Z" fill="#212529"/>
<path d="M9.40692 12.2051L10.5311 12.034L17.4372 4.68705C17.5023 4.62017 17.5542 4.54018 17.5899 4.45172C17.6256 4.36327 17.6444 4.26814 17.6452 4.17188C17.646 4.07562 17.6287 3.98015 17.5945 3.89105C17.5602 3.80195 17.5096 3.72101 17.4457 3.65294C17.3817 3.58487 17.3056 3.53103 17.2219 3.49458C17.1381 3.45813 17.0484 3.43979 16.958 3.44062C16.8675 3.44146 16.7781 3.46146 16.695 3.49945C16.6118 3.53745 16.5366 3.59268 16.4738 3.66192L9.56635 11.0089L9.40556 12.2051H9.40692ZM18.4006 2.63535C18.5906 2.83733 18.7413 3.07715 18.8441 3.34112C18.9469 3.60509 18.9998 3.88803 18.9998 4.17376C18.9998 4.4595 18.9469 4.74243 18.8441 5.0064C18.7413 5.27037 18.5906 5.5102 18.4006 5.71218L11.3351 13.2303C11.2309 13.3415 11.0956 13.4138 10.9495 13.4362L8.70105 13.7784C8.59626 13.7944 8.48941 13.7842 8.38897 13.7486C8.28853 13.713 8.19727 13.653 8.12241 13.5734C8.04756 13.4937 7.99117 13.3966 7.95774 13.2897C7.9243 13.1829 7.91472 13.0692 7.92977 12.9577L8.25136 10.5652C8.27201 10.4099 8.33943 10.2659 8.4435 10.1549L15.5104 2.6368C15.8937 2.22906 16.4135 2 16.9555 2C17.4975 2 18.0173 2.22906 18.4006 2.6368V2.63535Z" fill="#212529"/>
</svg>
