<svg width="22" height="22" viewBox="0 0 22 22" fill="none" xmlns="http://www.w3.org/2000/svg">
<path d="M13.6998 11.0001C13.6998 11.6821 13.4153 12.3362 12.909 12.8184C12.4026 13.3007 11.7159 13.5716 10.9998 13.5716C10.2837 13.5716 9.59696 13.3007 9.09062 12.8184C8.58427 12.3362 8.2998 11.6821 8.2998 11.0001C8.2998 10.3182 8.58427 9.6641 9.09062 9.18186C9.59696 8.69963 10.2837 8.42871 10.9998 8.42871C11.7159 8.42871 12.4026 8.69963 12.909 9.18186C13.4153 9.6641 13.6998 10.3182 13.6998 11.0001Z" stroke="#212529" stroke-width="1.5" stroke-linecap="round" stroke-linejoin="round"/>
<path d="M2 11C3.44 7.48829 6.8024 5 11 5C15.1976 5 18.56 7.48829 20 11C18.56 14.5117 15.1976 17 11 17C6.8024 17 3.44 14.5117 2 11Z" stroke="#212529" stroke-width="1.5" stroke-linecap="round" stroke-linejoin="round"/>
</svg>
