<svg width="32" height="32" viewBox="0 0 32 32" fill="none" xmlns="http://www.w3.org/2000/svg">
<g clip-path="url(#clip0_13474_30571)">
<path d="M28.2727 17.2273C27.9045 17.2273 27.6591 17.4728 27.6591 17.8409V25.8182C27.6591 26.1864 27.4136 26.4318 27.0455 26.4318H4.9545C4.58631 26.4318 4.34088 26.1863 4.34088 25.8182V17.8409C4.34088 17.4727 4.0954 17.2273 3.72726 17.2273C3.35913 17.2273 3.11365 17.4728 3.11365 17.8409V25.8182C3.11365 26.8614 3.91136 27.6591 4.95455 27.6591H27.0455C28.0886 27.6591 28.8864 26.8614 28.8864 25.8182V17.8409C28.8864 17.4727 28.6409 17.2273 28.2727 17.2273Z" fill="#15C7A7"/>
<path d="M27.6591 8.63638H4.3409C3.29771 8.63638 2.5 9.4341 2.5 10.4773V14.4046C2.5 15.2636 3.11362 16 3.91138 16.1841L13.5455 18.3318V20.2954C13.5455 20.6636 13.791 20.909 14.1591 20.909H17.8409C18.2091 20.909 18.4545 20.6636 18.4545 20.2954V18.3318L28.0886 16.1841C28.8864 16 29.5 15.2636 29.5 14.4045V10.4772C29.5 9.4341 28.7023 8.63638 27.6591 8.63638ZM17.2273 19.6818H14.7728V17.2273H17.2273V19.6818ZM28.2727 14.4045C28.2727 14.7113 28.0886 14.9568 27.7818 15.0181L18.4545 17.1045V16.6136C18.4545 16.2454 18.209 16 17.8409 16H14.1591C13.7909 16 13.5455 16.2455 13.5455 16.6136V17.1045L4.21819 15.0182C3.91138 14.9568 3.72729 14.7114 3.72729 14.4046V10.4773C3.72729 10.1091 3.97277 9.86367 4.3409 9.86367H27.6591C28.0273 9.86367 28.2727 10.1091 28.2727 10.4773V14.4045Z" fill="#15C7A7"/>
<path d="M19.0682 4.34091H12.9318C11.8886 4.34091 11.0909 5.13862 11.0909 6.18182V6.79543C11.0909 7.16362 11.3364 7.40905 11.7045 7.40905C12.0726 7.40905 12.3181 7.16357 12.3181 6.79543V6.18182C12.3181 5.81362 12.5636 5.5682 12.9317 5.5682H19.0681C19.4363 5.5682 19.6817 5.81368 19.6817 6.18182V6.79543C19.6817 7.16362 19.9272 7.40905 20.2954 7.40905C20.6635 7.40905 20.909 7.16357 20.909 6.79543V6.18182C20.9091 5.13862 20.1114 4.34091 19.0682 4.34091Z" fill="#15C7A7"/>
</g>
<defs>
<clipPath id="clip0_13474_30571">
<rect width="27" height="27" fill="white" transform="translate(2.5 2.5)"/>
</clipPath>
</defs>
</svg>
