<svg width="32" height="32" viewBox="0 0 32 32" fill="none" xmlns="http://www.w3.org/2000/svg">
<g clip-path="url(#clip0_13474_30564)">
<path d="M12.4286 14.2143C14.6476 14.2143 16.4465 12.4154 16.4465 10.1964C16.4465 7.97742 14.6476 6.17856 12.4286 6.17856C10.2096 6.17856 8.41077 7.97742 8.41077 10.1964C8.41077 12.4154 10.2096 14.2143 12.4286 14.2143Z" stroke="#9141DB" stroke-linecap="round" stroke-linejoin="round"/>
<path d="M20.4643 27.6071H4.39282V25.8214C4.39282 23.6902 5.23944 21.6462 6.74643 20.1393C8.25341 18.6323 10.2973 17.7857 12.4285 17.7857C14.5597 17.7857 16.6037 18.6323 18.1106 20.1393C19.6176 21.6462 20.4643 23.6902 20.4643 25.8214V27.6071Z" stroke="#9141DB" stroke-linecap="round" stroke-linejoin="round"/>
<path d="M19.5714 6.17856C20.637 6.17856 21.6589 6.60186 22.4125 7.35536C23.1659 8.10886 23.5893 9.13081 23.5893 10.1964C23.5893 11.262 23.1659 12.284 22.4125 13.0375C21.6589 13.791 20.637 14.2143 19.5714 14.2143" stroke="#9141DB" stroke-linecap="round" stroke-linejoin="round"/>
<path d="M22.4287 18.1249C23.9498 18.7035 25.2594 19.7304 26.1841 21.0697C27.1089 22.4089 27.6051 23.9975 27.6073 25.6248V27.6069H24.9287" stroke="#9141DB" stroke-linecap="round" stroke-linejoin="round"/>
</g>
<defs>
<clipPath id="clip0_13474_30564">
<rect width="25" height="25" fill="white" transform="translate(3.5 3.5)"/>
</clipPath>
</defs>
</svg>
