<svg width="59" height="26" viewBox="0 0 59 26" fill="none" xmlns="http://www.w3.org/2000/svg">
<rect width="59" height="26" rx="13" fill="#6C757D" fill-opacity="0.1"/>
<path d="M15.0676 17.12C14.2516 17.12 13.5356 16.94 12.9196 16.58C12.3116 16.22 11.8396 15.716 11.5036 15.068C11.1676 14.412 10.9996 13.644 10.9996 12.764C10.9996 12.1 11.0956 11.504 11.2876 10.976C11.4796 10.44 11.7516 9.984 12.1036 9.608C12.4636 9.224 12.8916 8.932 13.3876 8.732C13.8916 8.524 14.4516 8.42 15.0676 8.42C15.8916 8.42 16.6076 8.6 17.2156 8.96C17.8236 9.312 18.2956 9.812 18.6316 10.46C18.9676 11.108 19.1356 11.872 19.1356 12.752C19.1356 13.416 19.0396 14.016 18.8476 14.552C18.6556 15.088 18.3796 15.548 18.0196 15.932C17.6676 16.316 17.2396 16.612 16.7356 16.82C16.2396 17.02 15.6836 17.12 15.0676 17.12ZM15.0676 15.8C15.5876 15.8 16.0276 15.68 16.3876 15.44C16.7556 15.2 17.0356 14.852 17.2276 14.396C17.4276 13.94 17.5276 13.396 17.5276 12.764C17.5276 11.804 17.3116 11.06 16.8796 10.532C16.4556 10.004 15.8516 9.74 15.0676 9.74C14.5556 9.74 14.1156 9.86 13.7476 10.1C13.3796 10.332 13.0956 10.676 12.8956 11.132C12.7036 11.58 12.6076 12.124 12.6076 12.764C12.6076 13.716 12.8236 14.46 13.2556 14.996C13.6876 15.532 14.2916 15.8 15.0676 15.8ZM21.7054 17.096C21.4654 17.096 21.2774 17.032 21.1414 16.904C21.0134 16.768 20.9494 16.576 20.9494 16.328V12.26H20.3974C20.2054 12.26 20.0574 12.212 19.9534 12.116C19.8494 12.012 19.7974 11.872 19.7974 11.696C19.7974 11.512 19.8494 11.372 19.9534 11.276C20.0574 11.18 20.2054 11.132 20.3974 11.132H21.3814L20.9494 11.528V11.12C20.9494 10.296 21.1574 9.68 21.5734 9.272C21.9894 8.856 22.5894 8.612 23.3734 8.54L23.7814 8.504C23.9414 8.488 24.0694 8.516 24.1654 8.588C24.2614 8.652 24.3254 8.74 24.3574 8.852C24.3894 8.956 24.3934 9.064 24.3694 9.176C24.3454 9.288 24.2934 9.388 24.2134 9.476C24.1414 9.556 24.0454 9.6 23.9254 9.608L23.7574 9.62C23.3014 9.652 22.9694 9.768 22.7614 9.968C22.5534 10.168 22.4494 10.472 22.4494 10.88V11.324L22.2574 11.132H23.4694C23.6614 11.132 23.8094 11.18 23.9134 11.276C24.0174 11.372 24.0694 11.512 24.0694 11.696C24.0694 11.872 24.0174 12.012 23.9134 12.116C23.8094 12.212 23.6614 12.26 23.4694 12.26H22.4494V16.328C22.4494 16.84 22.2014 17.096 21.7054 17.096ZM25.807 17.096C25.567 17.096 25.379 17.032 25.243 16.904C25.115 16.768 25.051 16.576 25.051 16.328V12.26H24.499C24.307 12.26 24.159 12.212 24.055 12.116C23.951 12.012 23.899 11.872 23.899 11.696C23.899 11.512 23.951 11.372 24.055 11.276C24.159 11.18 24.307 11.132 24.499 11.132H25.483L25.051 11.528V11.12C25.051 10.296 25.259 9.68 25.675 9.272C26.091 8.856 26.691 8.612 27.475 8.54L27.883 8.504C28.043 8.488 28.171 8.516 28.267 8.588C28.363 8.652 28.427 8.74 28.459 8.852C28.491 8.956 28.495 9.064 28.471 9.176C28.447 9.288 28.395 9.388 28.315 9.476C28.243 9.556 28.147 9.6 28.027 9.608L27.859 9.62C27.403 9.652 27.071 9.768 26.863 9.968C26.655 10.168 26.551 10.472 26.551 10.88V11.324L26.359 11.132H27.571C27.763 11.132 27.911 11.18 28.015 11.276C28.119 11.372 28.171 11.512 28.171 11.696C28.171 11.872 28.119 12.012 28.015 12.116C27.911 12.212 27.763 12.26 27.571 12.26H26.551V16.328C26.551 16.84 26.303 17.096 25.807 17.096ZM31.027 17.12C30.363 17.12 29.863 16.932 29.527 16.556C29.191 16.172 29.023 15.612 29.023 14.876V9.2C29.023 8.952 29.087 8.764 29.215 8.636C29.343 8.508 29.527 8.444 29.767 8.444C30.007 8.444 30.191 8.508 30.319 8.636C30.455 8.764 30.523 8.952 30.523 9.2V14.804C30.523 15.172 30.599 15.444 30.751 15.62C30.911 15.796 31.135 15.884 31.423 15.884C31.487 15.884 31.547 15.884 31.603 15.884C31.659 15.876 31.715 15.868 31.771 15.86C31.883 15.844 31.959 15.876 31.999 15.956C32.039 16.028 32.059 16.18 32.059 16.412C32.059 16.612 32.019 16.768 31.939 16.88C31.859 16.992 31.727 17.06 31.543 17.084C31.463 17.092 31.379 17.1 31.291 17.108C31.203 17.116 31.115 17.12 31.027 17.12ZM33.5904 17.084C33.3504 17.084 33.1664 17.012 33.0384 16.868C32.9104 16.724 32.8464 16.524 32.8464 16.268V11.864C32.8464 11.6 32.9104 11.4 33.0384 11.264C33.1664 11.12 33.3504 11.048 33.5904 11.048C33.8304 11.048 34.0144 11.12 34.1424 11.264C34.2784 11.4 34.3464 11.6 34.3464 11.864V16.268C34.3464 16.524 34.2824 16.724 34.1544 16.868C34.0264 17.012 33.8384 17.084 33.5904 17.084ZM33.5904 9.932C33.3104 9.932 33.0904 9.864 32.9304 9.728C32.7784 9.584 32.7024 9.388 32.7024 9.14C32.7024 8.884 32.7784 8.688 32.9304 8.552C33.0904 8.416 33.3104 8.348 33.5904 8.348C33.8784 8.348 34.0984 8.416 34.2504 8.552C34.4024 8.688 34.4784 8.884 34.4784 9.14C34.4784 9.388 34.4024 9.584 34.2504 9.728C34.0984 9.864 33.8784 9.932 33.5904 9.932ZM36.649 17.096C36.409 17.096 36.225 17.032 36.097 16.904C35.969 16.768 35.905 16.576 35.905 16.328V11.792C35.905 11.544 35.969 11.356 36.097 11.228C36.225 11.1 36.405 11.036 36.637 11.036C36.869 11.036 37.049 11.1 37.177 11.228C37.305 11.356 37.369 11.544 37.369 11.792V12.608L37.237 12.308C37.413 11.884 37.685 11.564 38.053 11.348C38.429 11.124 38.853 11.012 39.325 11.012C39.797 11.012 40.185 11.1 40.489 11.276C40.793 11.452 41.021 11.72 41.173 12.08C41.325 12.432 41.401 12.88 41.401 13.424V16.328C41.401 16.576 41.337 16.768 41.209 16.904C41.081 17.032 40.897 17.096 40.657 17.096C40.417 17.096 40.229 17.032 40.093 16.904C39.965 16.768 39.901 16.576 39.901 16.328V13.496C39.901 13.04 39.813 12.708 39.637 12.5C39.469 12.292 39.205 12.188 38.845 12.188C38.405 12.188 38.053 12.328 37.789 12.608C37.533 12.88 37.405 13.244 37.405 13.7V16.328C37.405 16.84 37.153 17.096 36.649 17.096ZM45.8165 17.12C45.1525 17.12 44.5805 16.996 44.1005 16.748C43.6205 16.5 43.2485 16.148 42.9845 15.692C42.7285 15.236 42.6005 14.696 42.6005 14.072C42.6005 13.464 42.7245 12.932 42.9725 12.476C43.2285 12.02 43.5765 11.664 44.0165 11.408C44.4645 11.144 44.9725 11.012 45.5405 11.012C45.9565 11.012 46.3285 11.08 46.6565 11.216C46.9925 11.352 47.2765 11.548 47.5085 11.804C47.7485 12.06 47.9285 12.372 48.0485 12.74C48.1765 13.1 48.2405 13.508 48.2405 13.964C48.2405 14.108 48.1885 14.22 48.0845 14.3C47.9885 14.372 47.8485 14.408 47.6645 14.408H43.8125V13.544H47.1845L46.9925 13.724C46.9925 13.356 46.9365 13.048 46.8245 12.8C46.7205 12.552 46.5645 12.364 46.3565 12.236C46.1565 12.1 45.9045 12.032 45.6005 12.032C45.2645 12.032 44.9765 12.112 44.7365 12.272C44.5045 12.424 44.3245 12.644 44.1965 12.932C44.0765 13.212 44.0165 13.548 44.0165 13.94V14.024C44.0165 14.68 44.1685 15.172 44.4725 15.5C44.7845 15.82 45.2405 15.98 45.8405 15.98C46.0485 15.98 46.2805 15.956 46.5365 15.908C46.8005 15.852 47.0485 15.76 47.2805 15.632C47.4485 15.536 47.5965 15.496 47.7245 15.512C47.8525 15.52 47.9525 15.564 48.0245 15.644C48.1045 15.724 48.1525 15.824 48.1685 15.944C48.1845 16.056 48.1605 16.172 48.0965 16.292C48.0405 16.412 47.9405 16.516 47.7965 16.604C47.5165 16.78 47.1925 16.912 46.8245 17C46.4645 17.08 46.1285 17.12 45.8165 17.12Z" fill="#6C757D"/>
</svg>
