<svg width="59" height="26" viewBox="0 0 59 26" fill="none" xmlns="http://www.w3.org/2000/svg">
<rect width="59" height="26" rx="13" fill="#15C7A7" fill-opacity="0.1"/>
<path d="M15.7883 17.12C14.9723 17.12 14.2563 16.94 13.6403 16.58C13.0323 16.22 12.5603 15.716 12.2243 15.068C11.8883 14.412 11.7203 13.644 11.7203 12.764C11.7203 12.1 11.8163 11.504 12.0083 10.976C12.2003 10.44 12.4723 9.984 12.8243 9.608C13.1843 9.224 13.6123 8.932 14.1083 8.732C14.6123 8.524 15.1723 8.42 15.7883 8.42C16.6123 8.42 17.3283 8.6 17.9363 8.96C18.5443 9.312 19.0163 9.812 19.3523 10.46C19.6883 11.108 19.8563 11.872 19.8563 12.752C19.8563 13.416 19.7603 14.016 19.5683 14.552C19.3763 15.088 19.1003 15.548 18.7403 15.932C18.3883 16.316 17.9603 16.612 17.4563 16.82C16.9603 17.02 16.4043 17.12 15.7883 17.12ZM15.7883 15.8C16.3083 15.8 16.7483 15.68 17.1083 15.44C17.4763 15.2 17.7563 14.852 17.9483 14.396C18.1483 13.94 18.2483 13.396 18.2483 12.764C18.2483 11.804 18.0323 11.06 17.6003 10.532C17.1763 10.004 16.5723 9.74 15.7883 9.74C15.2763 9.74 14.8363 9.86 14.4683 10.1C14.1003 10.332 13.8163 10.676 13.6163 11.132C13.4243 11.58 13.3283 12.124 13.3283 12.764C13.3283 13.716 13.5443 14.46 13.9763 14.996C14.4083 15.532 15.0123 15.8 15.7883 15.8ZM22.0181 17.096C21.7781 17.096 21.5941 17.032 21.4661 16.904C21.3381 16.768 21.2741 16.576 21.2741 16.328V11.792C21.2741 11.544 21.3381 11.356 21.4661 11.228C21.5941 11.1 21.7741 11.036 22.0061 11.036C22.2381 11.036 22.4181 11.1 22.5461 11.228C22.6741 11.356 22.7381 11.544 22.7381 11.792V12.608L22.6061 12.308C22.7821 11.884 23.0541 11.564 23.4221 11.348C23.7981 11.124 24.2221 11.012 24.6941 11.012C25.1661 11.012 25.5541 11.1 25.8581 11.276C26.1621 11.452 26.3901 11.72 26.5421 12.08C26.6941 12.432 26.7701 12.88 26.7701 13.424V16.328C26.7701 16.576 26.7061 16.768 26.5781 16.904C26.4501 17.032 26.2661 17.096 26.0261 17.096C25.7861 17.096 25.5981 17.032 25.4621 16.904C25.3341 16.768 25.2701 16.576 25.2701 16.328V13.496C25.2701 13.04 25.1821 12.708 25.0061 12.5C24.8381 12.292 24.5741 12.188 24.2141 12.188C23.7741 12.188 23.4221 12.328 23.1581 12.608C22.9021 12.88 22.7741 13.244 22.7741 13.7V16.328C22.7741 16.84 22.5221 17.096 22.0181 17.096ZM30.2977 17.12C29.6337 17.12 29.1337 16.932 28.7977 16.556C28.4617 16.172 28.2937 15.612 28.2937 14.876V9.2C28.2937 8.952 28.3577 8.764 28.4857 8.636C28.6137 8.508 28.7977 8.444 29.0377 8.444C29.2777 8.444 29.4617 8.508 29.5897 8.636C29.7257 8.764 29.7937 8.952 29.7937 9.2V14.804C29.7937 15.172 29.8697 15.444 30.0217 15.62C30.1817 15.796 30.4057 15.884 30.6937 15.884C30.7577 15.884 30.8177 15.884 30.8737 15.884C30.9297 15.876 30.9857 15.868 31.0417 15.86C31.1537 15.844 31.2297 15.876 31.2697 15.956C31.3097 16.028 31.3297 16.18 31.3297 16.412C31.3297 16.612 31.2897 16.768 31.2097 16.88C31.1297 16.992 30.9977 17.06 30.8137 17.084C30.7337 17.092 30.6497 17.1 30.5617 17.108C30.4737 17.116 30.3857 17.12 30.2977 17.12ZM32.8697 17.084C32.6297 17.084 32.4457 17.012 32.3177 16.868C32.1897 16.724 32.1257 16.524 32.1257 16.268V11.864C32.1257 11.6 32.1897 11.4 32.3177 11.264C32.4457 11.12 32.6297 11.048 32.8697 11.048C33.1097 11.048 33.2937 11.12 33.4217 11.264C33.5577 11.4 33.6257 11.6 33.6257 11.864V16.268C33.6257 16.524 33.5617 16.724 33.4337 16.868C33.3057 17.012 33.1177 17.084 32.8697 17.084ZM32.8697 9.932C32.5897 9.932 32.3697 9.864 32.2097 9.728C32.0577 9.584 31.9817 9.388 31.9817 9.14C31.9817 8.884 32.0577 8.688 32.2097 8.552C32.3697 8.416 32.5897 8.348 32.8697 8.348C33.1577 8.348 33.3777 8.416 33.5297 8.552C33.6817 8.688 33.7577 8.884 33.7577 9.14C33.7577 9.388 33.6817 9.584 33.5297 9.728C33.3777 9.864 33.1577 9.932 32.8697 9.932ZM35.9283 17.096C35.6883 17.096 35.5043 17.032 35.3763 16.904C35.2483 16.768 35.1843 16.576 35.1843 16.328V11.792C35.1843 11.544 35.2483 11.356 35.3763 11.228C35.5043 11.1 35.6843 11.036 35.9163 11.036C36.1483 11.036 36.3283 11.1 36.4563 11.228C36.5843 11.356 36.6483 11.544 36.6483 11.792V12.608L36.5163 12.308C36.6923 11.884 36.9643 11.564 37.3323 11.348C37.7083 11.124 38.1323 11.012 38.6043 11.012C39.0763 11.012 39.4643 11.1 39.7683 11.276C40.0723 11.452 40.3003 11.72 40.4523 12.08C40.6043 12.432 40.6803 12.88 40.6803 13.424V16.328C40.6803 16.576 40.6163 16.768 40.4883 16.904C40.3603 17.032 40.1763 17.096 39.9363 17.096C39.6963 17.096 39.5083 17.032 39.3723 16.904C39.2443 16.768 39.1803 16.576 39.1803 16.328V13.496C39.1803 13.04 39.0923 12.708 38.9163 12.5C38.7483 12.292 38.4843 12.188 38.1243 12.188C37.6843 12.188 37.3323 12.328 37.0683 12.608C36.8123 12.88 36.6843 13.244 36.6843 13.7V16.328C36.6843 16.84 36.4323 17.096 35.9283 17.096ZM45.0958 17.12C44.4318 17.12 43.8598 16.996 43.3798 16.748C42.8998 16.5 42.5278 16.148 42.2638 15.692C42.0078 15.236 41.8798 14.696 41.8798 14.072C41.8798 13.464 42.0038 12.932 42.2518 12.476C42.5078 12.02 42.8558 11.664 43.2958 11.408C43.7438 11.144 44.2518 11.012 44.8198 11.012C45.2358 11.012 45.6078 11.08 45.9358 11.216C46.2718 11.352 46.5558 11.548 46.7878 11.804C47.0278 12.06 47.2078 12.372 47.3278 12.74C47.4558 13.1 47.5198 13.508 47.5198 13.964C47.5198 14.108 47.4678 14.22 47.3638 14.3C47.2678 14.372 47.1278 14.408 46.9438 14.408H43.0918V13.544H46.4638L46.2718 13.724C46.2718 13.356 46.2158 13.048 46.1038 12.8C45.9998 12.552 45.8438 12.364 45.6358 12.236C45.4358 12.1 45.1838 12.032 44.8798 12.032C44.5438 12.032 44.2558 12.112 44.0158 12.272C43.7838 12.424 43.6038 12.644 43.4758 12.932C43.3558 13.212 43.2958 13.548 43.2958 13.94V14.024C43.2958 14.68 43.4478 15.172 43.7518 15.5C44.0638 15.82 44.5198 15.98 45.1198 15.98C45.3278 15.98 45.5598 15.956 45.8158 15.908C46.0798 15.852 46.3278 15.76 46.5598 15.632C46.7278 15.536 46.8758 15.496 47.0038 15.512C47.1318 15.52 47.2318 15.564 47.3038 15.644C47.3838 15.724 47.4318 15.824 47.4478 15.944C47.4638 16.056 47.4398 16.172 47.3758 16.292C47.3198 16.412 47.2198 16.516 47.0758 16.604C46.7958 16.78 46.4718 16.912 46.1038 17C45.7438 17.08 45.4078 17.12 45.0958 17.12Z" fill="#15C7A7"/>
</svg>
