<svg width="22" height="22" viewBox="0 0 22 22" fill="none" xmlns="http://www.w3.org/2000/svg">
<path d="M13.7993 22C13.5587 21.9359 13.1179 21.8206 12.679 21.697C12.3787 21.6125 12.0793 21.5186 11.7817 21.4182C11.271 21.2468 10.7193 21.2468 10.2086 21.4182C9.61764 21.6253 9.01619 21.8002 8.4068 21.9424C7.45631 22.1384 6.67387 21.7974 6.1045 21.0131C5.76287 20.5391 5.45614 20.0392 5.14574 19.5429C4.87215 19.0934 4.46293 18.7448 3.97852 18.5486C3.4771 18.3423 2.98119 18.1211 2.48528 17.8981C1.45765 17.4437 0.929595 16.4735 1.08112 15.3481C1.15551 14.7971 1.21704 14.2441 1.27765 13.6912C1.33227 13.2197 1.24455 12.7425 1.02602 12.3224C0.780823 11.8429 0.54297 11.3587 0.30328 10.8755C-0.234872 9.79006 -0.0539572 8.76598 0.823067 7.92962C1.20694 7.56441 1.58989 7.19828 1.97743 6.83678C2.34582 6.49483 2.5992 6.04477 2.70201 5.54972C2.82048 5.01445 2.94537 4.48104 3.06935 3.94856C3.33475 2.83341 4.17872 2.13738 5.31655 2.08998C5.88042 2.06675 6.4452 2.03144 7.00907 1.99706C7.45389 1.96499 7.87929 1.80004 8.23139 1.52312C8.66363 1.19353 9.0974 0.864561 9.5327 0.536213C10.4712 -0.174692 11.5117 -0.179337 12.4521 0.525992C12.8746 0.843808 13.2979 1.1607 13.7158 1.48502C14.1342 1.81526 14.6472 1.99918 15.1778 2.00914C15.7352 2.02586 16.2917 2.06118 16.8473 2.10207C17.875 2.18106 18.6758 2.88917 18.9256 3.93183C19.0554 4.47268 19.18 5.01414 19.2993 5.55623C19.4029 6.05111 19.6573 6.50064 20.0267 6.84143C20.4259 7.21315 20.8217 7.58827 21.2141 7.9668C22.0461 8.77156 22.2243 9.80028 21.7155 10.8411C21.5254 11.2286 21.3482 11.6245 21.1314 11.9953C20.7522 12.6373 20.6229 13.3993 20.7687 14.1326C20.844 14.5657 20.8817 15.0061 20.9322 15.4429C20.9962 15.93 20.9045 16.425 20.6705 16.8556C20.4366 17.2861 20.0726 17.6296 19.6318 17.8358C19.0946 18.0923 18.5435 18.3209 17.9944 18.5532C17.5314 18.7439 17.1392 19.0767 16.8731 19.5048C16.5682 19.9862 16.2614 20.4666 15.9446 20.9397C15.4827 21.6366 14.8003 22.0037 13.7993 22Z" fill="#F4A261"/>
<path d="M11.6449 8.42186V10.6355L13.4803 11.7366C13.5545 11.7793 13.6195 11.8364 13.6714 11.9045C13.7233 11.9726 13.7612 12.0503 13.7827 12.1332C13.8043 12.2161 13.8091 12.3024 13.7969 12.3872C13.7847 12.4719 13.7557 12.5534 13.7117 12.6268C13.6677 12.7003 13.6094 12.7642 13.5404 12.8149C13.4714 12.8656 13.393 12.902 13.3097 12.922C13.2265 12.9421 13.1401 12.9453 13.0556 12.9316C12.971 12.9179 12.8901 12.8875 12.8175 12.8421L10.6688 11.5529C10.5734 11.4957 10.4943 11.4147 10.4394 11.3178C10.3846 11.221 10.3557 11.1115 10.3557 11.0002V8.42186C10.3557 8.25091 10.4236 8.08696 10.5445 7.96607C10.6654 7.84519 10.8293 7.77728 11.0003 7.77728C11.1712 7.77728 11.3352 7.84519 11.4561 7.96607C11.5769 8.08696 11.6449 8.25091 11.6449 8.42186ZM16.1569 6.91783C15.986 6.91783 15.822 6.98574 15.7012 7.10663C15.5803 7.22751 15.5124 7.39146 15.5124 7.56242V7.9583C15.2862 7.70745 15.0515 7.45821 14.7985 7.20199C14.0519 6.45549 13.1019 5.94555 12.0672 5.73589C11.0324 5.52623 9.95884 5.62614 8.98057 6.02315C8.00229 6.42015 7.1627 7.09663 6.56669 7.96808C5.97069 8.83952 5.6447 9.86728 5.62947 10.9229C5.61423 11.9786 5.91042 13.0153 6.48103 13.9036C7.05164 14.7919 7.87137 15.4923 8.83778 15.9174C9.8042 16.3425 10.8744 16.4733 11.9148 16.2936C12.9552 16.1139 13.9195 15.6316 14.6873 14.9069C14.8117 14.7895 14.8843 14.6275 14.8892 14.4566C14.8942 14.2856 14.831 14.1197 14.7136 13.9954C14.5962 13.871 14.4342 13.7984 14.2633 13.7934C14.0923 13.7885 13.9264 13.8517 13.8021 13.969C13.2186 14.5197 12.4859 14.8862 11.6954 15.0228C10.9049 15.1594 10.0916 15.0601 9.35721 14.7373C8.62281 14.4144 7.99981 13.8823 7.56603 13.2075C7.13224 12.5326 6.90691 11.745 6.91816 10.9428C6.92941 10.1406 7.17676 9.35959 7.6293 8.69718C8.08185 8.03477 8.71953 7.52038 9.4627 7.21826C10.2059 6.91614 11.0216 6.83967 11.8079 6.99842C12.5943 7.15717 13.3165 7.54409 13.8842 8.11085C14.2022 8.43261 14.4918 8.74415 14.7727 9.06645H14.0083C13.8374 9.06645 13.6734 9.13436 13.5525 9.25524C13.4317 9.37612 13.3637 9.54008 13.3637 9.71103C13.3637 9.88199 13.4317 10.0459 13.5525 10.1668C13.6734 10.2877 13.8374 10.3556 14.0083 10.3556H16.1569C16.3279 10.3556 16.4919 10.2877 16.6127 10.1668C16.7336 10.0459 16.8015 9.88199 16.8015 9.71103V7.56242C16.8015 7.39146 16.7336 7.22751 16.6127 7.10663C16.4919 6.98574 16.3279 6.91783 16.1569 6.91783Z" fill="white"/>
</svg>
