<svg width="22" height="22" viewBox="0 0 22 22" fill="none" xmlns="http://www.w3.org/2000/svg">
<path d="M13.7993 22C13.5587 21.9359 13.1179 21.8206 12.679 21.697C12.3787 21.6125 12.0793 21.5186 11.7817 21.4182C11.271 21.2468 10.7193 21.2468 10.2086 21.4182C9.61764 21.6253 9.01619 21.8002 8.4068 21.9424C7.45631 22.1384 6.67387 21.7974 6.1045 21.0131C5.76287 20.5391 5.45614 20.0392 5.14574 19.5429C4.87215 19.0934 4.46293 18.7448 3.97852 18.5486C3.4771 18.3423 2.98119 18.1211 2.48528 17.8981C1.45765 17.4437 0.929595 16.4735 1.08112 15.3481C1.15551 14.7971 1.21704 14.2441 1.27765 13.6912C1.33227 13.2197 1.24455 12.7425 1.02602 12.3224C0.780823 11.8429 0.54297 11.3587 0.30328 10.8755C-0.234872 9.79006 -0.0539572 8.76598 0.823067 7.92962C1.20694 7.56441 1.58989 7.19828 1.97743 6.83678C2.34582 6.49483 2.5992 6.04477 2.70201 5.54972C2.82048 5.01445 2.94537 4.48104 3.06935 3.94856C3.33475 2.83341 4.17872 2.13738 5.31655 2.08998C5.88042 2.06675 6.4452 2.03144 7.00907 1.99706C7.45389 1.96499 7.87929 1.80004 8.23139 1.52312C8.66363 1.19353 9.0974 0.864561 9.5327 0.536213C10.4712 -0.174692 11.5117 -0.179337 12.4521 0.525992C12.8746 0.843808 13.2979 1.1607 13.7158 1.48502C14.1342 1.81526 14.6472 1.99918 15.1778 2.00914C15.7352 2.02586 16.2917 2.06118 16.8473 2.10207C17.875 2.18106 18.6758 2.88917 18.9256 3.93183C19.0554 4.47268 19.18 5.01414 19.2993 5.55623C19.4029 6.05111 19.6573 6.50064 20.0267 6.84143C20.4259 7.21315 20.8217 7.58827 21.2141 7.9668C22.0461 8.77156 22.2243 9.80028 21.7155 10.8411C21.5254 11.2286 21.3482 11.6245 21.1314 11.9953C20.7522 12.6373 20.6229 13.3993 20.7687 14.1326C20.844 14.5657 20.8817 15.0061 20.9322 15.4429C20.9962 15.93 20.9045 16.425 20.6705 16.8556C20.4366 17.2861 20.0726 17.6296 19.6318 17.8358C19.0946 18.0923 18.5435 18.3209 17.9944 18.5532C17.5314 18.7439 17.1392 19.0767 16.8731 19.5048C16.5682 19.9862 16.2614 20.4666 15.9446 20.9397C15.4827 21.6366 14.8003 22.0037 13.7993 22Z" fill="#2D6CDF"/>
<path d="M9.7613 11.7605C10.8908 10.6363 12.0043 9.52453 13.1142 8.41154C13.4703 8.05553 13.8105 7.68329 14.1666 7.32728C14.7466 6.74643 15.564 6.72519 16.1036 7.26982C16.6433 7.81445 16.6359 8.65513 16.0645 9.24722C14.3162 11.0593 12.5623 12.8677 10.8026 14.6723C10.2116 15.2794 9.42111 15.2769 8.82518 14.6723C7.85684 13.6929 6.89299 12.709 5.93362 11.7205C5.36461 11.1334 5.35726 10.2953 5.9018 9.74439C6.44634 9.19351 7.26743 9.21974 7.84011 9.79934C8.50213 10.4639 9.14946 11.1334 9.7613 11.7605Z" fill="white"/>
</svg>
