<svg width="294" height="292" viewBox="0 0 294 292" fill="none" xmlns="http://www.w3.org/2000/svg">
<g opacity="0.9">
<path d="M258.167 250.786C250.529 258.661 243.693 263.289 238.461 266.784C187.427 300.862 129.08 291.039 111.042 287.683C81.9445 282.266 57.3735 278.445 36.2637 259.376C-11.6929 216.046 -9.36109 125.655 27.2903 69.6606C31.6356 63.0221 68.228 8.78102 126.696 1.13738C128.127 0.950182 129.193 0.844373 130.128 0.745687C139.173 -0.212694 195.223 -5.26708 240.922 33.0234C247.463 38.504 257.991 48.3859 267.754 63.4687C303.453 118.602 303.567 203.986 258.167 250.786Z" fill="#2D6CDF" fill-opacity="0.1"/>
<g opacity="0.86">
<path d="M116.391 259.114C119.487 259.869 122.274 257.054 121.5 253.964C114.462 225.86 84.128 115.881 25.974 51.7942C21.466 46.8263 12.9515 48.683 10.9767 55.0844C-2.0245 97.2511 -27.8672 223.94 116.391 259.114Z" fill="#C3D5FD" fill-opacity="0.7"/>
<path opacity="0.24" d="M109.354 251.89C109.689 252.214 109.224 252.719 108.846 252.443C94.9307 242.24 41.3764 192.195 23.4764 92.9638C23.4184 92.6444 23.9078 92.5264 23.9943 92.8387C30.3306 115.853 56.447 200.731 109.354 251.89Z" fill="white"/>
</g>
<path d="M267.528 88.3795L141.39 87.6073C140.408 87.6018 139.435 87.7966 138.531 88.1796C137.627 88.5627 136.811 89.126 136.132 89.8351C135.453 90.5443 134.926 91.3844 134.582 92.3042C134.239 93.224 134.087 94.2042 134.135 95.1848L142.812 274.396H283.18L290.973 114.28L267.528 88.3795Z" fill="#94B0EB" fill-opacity="0.6"/>
<path d="M272.772 113.512C271.799 113.477 270.842 113.246 269.96 112.832C269.078 112.417 268.288 111.829 267.64 111.102C266.991 110.374 266.496 109.523 266.185 108.6C265.874 107.676 265.753 106.7 265.829 105.728L267.181 88.6145L290.998 114.175L272.772 113.512Z" fill="#7D97F4"/>
<path opacity="0.78" d="M155.983 111.559C173.464 112.05 240.572 113.863 257.519 114.32C259.655 114.378 261.355 115.744 261.274 117.349C261.196 118.875 259.523 120.037 257.488 119.994L156 117.602C154.044 117.556 152.413 116.401 152.235 114.939L152.192 114.569C151.989 112.891 153.752 111.497 155.983 111.559Z" fill="white"/>
<path opacity="0.78" d="M153.973 129.28C154.25 129.666 154.779 129.918 155.358 129.939L225.005 132.381C225.88 132.411 226.606 131.913 226.64 131.261L226.816 127.828C226.851 127.146 226.122 126.561 225.21 126.54L157.464 124.958C154.448 124.885 152.531 127.262 153.973 129.28Z" fill="white"/>
<path opacity="0.78" d="M154.269 142.611C171.751 143.103 238.859 144.916 255.805 145.373C257.941 145.431 259.641 146.797 259.559 148.401C259.482 149.922 257.809 151.089 255.774 151.041L154.286 148.65C152.33 148.604 150.699 147.449 150.521 145.987L150.477 145.617C150.276 143.944 152.034 142.549 154.269 142.611Z" fill="white"/>
<path opacity="0.78" d="M152.26 160.332C152.537 160.719 153.067 160.971 153.646 160.992L223.292 163.433C224.167 163.464 224.894 162.965 224.927 162.314L225.103 158.88C225.139 158.199 224.409 157.614 223.497 157.592L155.752 156.01C152.734 155.938 150.816 158.315 152.26 160.332Z" fill="white"/>
<path opacity="0.78" d="M156.436 174.299C173.917 174.789 241.026 176.602 257.972 177.06C260.108 177.117 261.808 178.484 261.726 180.088C261.647 181.614 259.976 182.776 257.941 182.733L156.451 180.342C154.497 180.295 152.866 179.142 152.687 177.679L152.642 177.308C152.443 175.631 154.201 174.236 156.436 174.299Z" fill="white"/>
<path opacity="0.78" d="M154.301 192.032C154.717 192.427 155.496 192.691 156.343 192.726L258.238 196.826C259.518 196.878 260.568 196.396 260.601 195.742L260.777 192.309C260.813 191.626 259.733 191.024 258.399 190.98L159.305 187.788C154.891 187.645 152.141 189.978 154.301 192.032Z" fill="white"/>
<path opacity="0.78" d="M154.079 207.954C154.412 208.344 155.044 208.601 155.731 208.627L238.489 211.745C239.529 211.784 240.386 211.292 240.422 210.638L240.598 207.204C240.634 206.522 239.762 205.931 238.678 205.9L158.187 203.662C154.6 203.566 152.344 205.925 154.079 207.954Z" fill="white"/>
<path d="M213.847 248.888C214.261 243.597 216.053 238.421 218.867 233.876C220.28 231.594 221.95 229.483 223.846 227.584C224.335 227.123 224.811 226.649 225.31 226.199C225.824 225.767 226.328 225.318 226.853 224.899C227.391 224.492 227.923 224.085 228.475 223.698L229.319 223.142L229.741 222.864L229.953 222.726C230.029 222.678 230.132 222.617 230.223 222.568C231.706 221.754 233.833 221.711 235.27 223.155C235.599 223.494 235.862 223.892 236.045 224.328C236.13 224.528 236.2 224.735 236.255 224.946C236.311 225.146 236.355 225.35 236.386 225.556C236.491 226.306 236.497 227.067 236.402 227.819C236.364 228.178 236.305 228.531 236.242 228.874L236.05 229.842C235.927 230.49 235.782 231.133 235.643 231.775C235.358 233.062 235.032 234.34 234.699 235.613C233.322 240.702 231.496 245.659 229.242 250.425L228.38 252.201C228.075 252.786 227.784 253.376 227.475 253.957L227.008 254.827L226.774 255.263L226.517 255.717C226.157 256.331 225.749 256.915 225.296 257.464C224.82 258.051 224.266 258.568 223.648 259.003C222.998 259.446 222.178 259.806 221.268 259.851C221.043 259.866 220.816 259.858 220.593 259.826C220.371 259.8 220.153 259.754 219.939 259.688C219.511 259.567 219.107 259.372 218.745 259.112C218.051 258.609 217.51 257.923 217.185 257.13C216.889 256.398 216.735 255.616 216.734 254.826C216.734 254.092 216.823 253.361 216.996 252.648C217.154 251.984 217.347 251.328 217.575 250.685L217.899 249.733L218.263 248.797C220.255 243.817 223.338 239.347 227.286 235.716L227.652 235.375L228.034 235.051L228.797 234.405C229.057 234.202 229.324 233.998 229.587 233.795C229.851 233.591 230.111 233.388 230.388 233.198C230.934 232.816 231.475 232.427 232.045 232.079L232.468 231.812L232.679 231.679C232.717 231.656 232.744 231.637 232.79 231.611L232.93 231.532C233.306 231.332 233.717 231.205 234.14 231.158C234.573 231.105 235.012 231.145 235.428 231.275C235.845 231.404 236.229 231.621 236.555 231.91C236.904 232.222 237.158 232.626 237.289 233.076C237.399 233.482 237.429 233.907 237.377 234.325C237.334 234.686 237.264 235.043 237.166 235.393L236.901 236.34L236.374 238.218C235.676 240.723 234.95 243.22 234.238 245.722V245.727L233.14 245.53C233.209 244.664 233.473 243.825 233.912 243.075C234.15 242.689 234.45 242.345 234.801 242.058C235.165 241.766 235.583 241.55 236.031 241.422C236.485 241.29 236.963 241.259 237.431 241.331C237.674 241.368 237.909 241.439 238.131 241.542C238.245 241.593 238.354 241.652 238.459 241.718L238.681 241.858C238.946 242.01 239.242 242.1 239.547 242.12C239.852 242.14 240.157 242.09 240.44 241.974C240.578 241.915 240.708 241.84 240.829 241.751C240.888 241.706 240.945 241.656 240.998 241.603L241.082 241.523L241.184 241.421L241.983 240.568L243.588 238.852L245.188 237.145L245.988 236.292C246.201 236.065 246.477 235.907 246.78 235.84C247.088 235.775 247.409 235.811 247.696 235.942C247.978 236.068 248.216 236.277 248.378 236.541C248.542 236.814 248.611 237.134 248.575 237.451C248.57 237.527 248.556 237.602 248.534 237.675C248.516 237.743 248.49 237.833 248.476 237.865L248.381 238.135L248.2 238.677C247.965 239.403 247.765 240.138 247.6 240.883C247.435 241.628 247.306 242.379 247.211 243.136C247.2 243.229 247.186 243.329 247.179 243.416L247.172 243.647C247.166 243.723 247.171 243.8 247.186 243.874C247.191 243.949 247.203 244.024 247.223 244.097C247.293 244.388 247.433 244.659 247.63 244.884C247.831 245.115 248.083 245.295 248.367 245.408C248.508 245.467 248.655 245.51 248.805 245.54C248.955 245.562 249.106 245.567 249.258 245.557C249.559 245.541 249.851 245.448 250.106 245.286L250.208 245.23L250.296 245.157L250.477 245.01L250.89 244.603C251.991 243.522 253.043 242.394 254.044 241.217C256.042 238.862 257.825 236.333 259.372 233.662L259.939 232.653L260.213 232.145L260.35 231.889L260.384 231.826C260.384 231.819 260.384 231.826 260.384 231.821C260.384 231.816 260.379 231.828 260.384 231.834C260.384 231.877 260.401 231.885 260.397 231.882C260.405 231.885 260.414 231.885 260.422 231.882C260.439 231.882 260.462 231.875 260.462 231.871L260.412 231.921L260.311 232.023C260.244 232.089 260.18 232.157 260.116 232.226C259.987 232.361 259.864 232.502 259.741 232.642C259.252 233.21 258.81 233.817 258.418 234.456C258.222 234.776 258.039 235.104 257.868 235.438C257.783 235.605 257.701 235.774 257.623 235.947L257.508 236.204L257.452 236.332L257.414 236.448C257.299 236.743 257.244 237.058 257.252 237.375C257.261 237.692 257.333 238.004 257.465 238.292C257.736 238.875 258.223 239.331 258.824 239.561C259.117 239.677 259.431 239.733 259.746 239.726C260.063 239.709 260.374 239.632 260.662 239.498L260.881 239.397L261.129 239.252C261.293 239.15 261.461 239.062 261.623 238.96C261.951 238.763 262.273 238.553 262.594 238.35C265.152 236.66 267.428 234.577 269.337 232.177C269.429 232.061 269.564 231.986 269.711 231.969C269.859 231.952 270.007 231.994 270.123 232.087C270.24 232.179 270.314 232.314 270.331 232.461C270.348 232.609 270.306 232.757 270.214 232.873C268.231 235.365 265.867 237.528 263.209 239.283C262.877 239.5 262.543 239.714 262.202 239.92C262.034 240.021 261.86 240.123 261.693 240.225L261.435 240.374L261.129 240.521C260.708 240.715 260.254 240.826 259.791 240.848C259.324 240.86 258.861 240.778 258.426 240.608C257.555 240.273 256.847 239.611 256.455 238.764C256.048 237.925 256.048 236.909 256.372 236.061L256.427 235.899L256.488 235.759L256.612 235.483C256.696 235.299 256.785 235.116 256.877 234.935C257.061 234.575 257.259 234.223 257.471 233.877C257.894 233.186 258.373 232.531 258.902 231.917C259.036 231.765 259.17 231.612 259.309 231.466C259.378 231.392 259.448 231.318 259.519 231.246L259.626 231.137L259.68 231.084C259.713 231.052 259.752 231.02 259.79 230.99C259.956 230.861 260.157 230.785 260.366 230.773C260.519 230.766 260.671 230.791 260.814 230.846C260.956 230.901 261.085 230.986 261.193 231.095C261.301 231.203 261.384 231.333 261.438 231.476C261.492 231.619 261.516 231.771 261.507 231.924C261.499 232.025 261.477 232.125 261.44 232.22C261.422 232.264 261.402 232.314 261.384 232.35L261.348 232.415L261.209 232.676L260.929 233.197L260.35 234.227C258.769 236.958 256.946 239.541 254.905 241.947C253.888 243.148 252.814 244.301 251.684 245.406L251.261 245.819L250.99 246.044L250.853 246.155L250.698 246.246C250.29 246.5 249.824 246.649 249.344 246.677C249.106 246.693 248.867 246.682 248.632 246.647C248.399 246.603 248.171 246.534 247.952 246.443C247.51 246.265 247.116 245.984 246.803 245.624C246.484 245.262 246.257 244.829 246.142 244.36C246.113 244.245 246.093 244.127 246.083 244.007C246.063 243.89 246.055 243.771 246.061 243.652L246.074 243.299L246.109 242.994C246.211 242.203 246.344 241.416 246.516 240.638C246.688 239.86 246.896 239.089 247.142 238.33L247.333 237.764L247.434 237.482C247.445 237.452 247.454 237.422 247.461 237.391C247.469 237.372 247.473 237.351 247.473 237.329C247.483 237.256 247.468 237.181 247.43 237.118C247.385 237.047 247.321 236.992 247.244 236.958C247.172 236.923 247.091 236.914 247.013 236.931C246.935 236.948 246.865 236.991 246.815 237.053L246.014 237.905L244.414 239.612L242.807 241.325L242.007 242.177L241.905 242.279L241.78 242.403C241.693 242.486 241.602 242.564 241.507 242.636C241.315 242.781 241.105 242.901 240.883 242.994C240.443 243.177 239.966 243.257 239.49 243.227C239.014 243.197 238.551 243.059 238.136 242.822L237.863 242.651C237.803 242.613 237.74 242.579 237.676 242.55C237.543 242.488 237.403 242.446 237.26 242.424C236.953 242.378 236.641 242.4 236.344 242.487C235.722 242.675 235.195 243.092 234.872 243.655C234.523 244.259 234.314 244.933 234.261 245.628L233.164 245.432V245.426C233.793 242.903 234.408 240.376 235.05 237.856L235.528 235.966L235.763 235.029C235.834 234.751 235.883 234.467 235.909 234.181C235.936 233.952 235.917 233.72 235.853 233.499C235.797 233.323 235.691 233.166 235.548 233.048C235.381 232.911 235.187 232.81 234.978 232.754C234.769 232.697 234.55 232.686 234.337 232.721C234.114 232.752 233.899 232.825 233.703 232.936L233.63 232.98L233.536 233.042L233.339 233.174L232.943 233.439C232.409 233.781 231.904 234.166 231.394 234.542C231.136 234.725 230.895 234.931 230.648 235.13C230.4 235.328 230.154 235.526 229.913 235.731L229.201 236.364L228.845 236.679L228.503 237.009C226.662 238.752 225.024 240.697 223.619 242.808C222.213 244.907 221.05 247.16 220.153 249.523L219.823 250.41L219.535 251.309C219.337 251.894 219.17 252.49 219.037 253.093C218.78 254.254 218.771 255.369 219.165 256.276C219.341 256.691 219.63 257.05 219.997 257.311C220.165 257.43 220.354 257.516 220.554 257.565C220.747 257.622 220.949 257.643 221.15 257.628C221.597 257.585 222.023 257.421 222.383 257.153C222.826 256.832 223.223 256.451 223.562 256.023C223.933 255.564 224.266 255.076 224.558 254.565L224.778 254.168L225.002 253.743L225.451 252.891C225.747 252.322 226.029 251.746 226.319 251.173L227.145 249.434C229.297 244.773 231.049 239.938 232.382 234.98C232.708 233.74 233.018 232.496 233.292 231.242C233.427 230.616 233.566 229.99 233.684 229.359L233.87 228.416C233.922 228.12 233.971 227.83 233.999 227.542C234.068 227.001 234.066 226.454 233.993 225.914C233.911 225.428 233.754 225.036 233.529 224.817C233.413 224.696 233.275 224.6 233.122 224.533C232.943 224.456 232.754 224.408 232.56 224.39C232.136 224.359 231.712 224.452 231.339 224.656C231.287 224.684 231.25 224.706 231.189 224.743L230.991 224.871L230.598 225.127L229.81 225.635C229.291 225.987 228.799 226.376 228.284 226.738C227.786 227.119 227.309 227.529 226.82 227.923C226.345 228.329 225.892 228.768 225.425 229.189C219.912 234.512 216.241 241.455 214.946 249.008C214.921 249.149 214.842 249.274 214.727 249.359C214.612 249.444 214.468 249.482 214.326 249.464C214.184 249.447 214.054 249.376 213.963 249.266C213.872 249.155 213.826 249.014 213.835 248.872L213.847 248.888Z" fill="white"/>
<path d="M272.074 231.875C271.953 231.875 271.835 231.836 271.738 231.762C271.641 231.689 271.57 231.587 271.536 231.47C271.503 231.353 271.508 231.229 271.552 231.115C271.595 231.002 271.674 230.906 271.777 230.841L277.367 227.34C277.492 227.264 277.643 227.24 277.786 227.274C277.928 227.308 278.052 227.397 278.13 227.521C278.208 227.646 278.234 227.796 278.202 227.939C278.171 228.083 278.084 228.208 277.961 228.288L272.371 231.79C272.282 231.846 272.179 231.875 272.074 231.875Z" fill="white"/>
<path d="M168.736 278.181C168.736 278.181 149.955 113.616 85.4022 16.6474C81.0631 10.129 71.7509 11.1912 68.9907 18.5337C50.5668 67.6644 9.26086 218.618 168.736 278.181Z" fill="#C3D5FD" fill-opacity="0.7"/>
<path opacity="0.24" d="M154.857 265.894C155.184 266.323 154.635 266.862 154.258 266.483C140.353 252.468 87.9143 185.71 78.6163 65.2726C78.6091 65.2344 78.6097 65.1951 78.6181 65.1571C78.6265 65.1192 78.6426 65.0833 78.6653 65.0517C78.688 65.0201 78.7168 64.9935 78.7501 64.9734C78.7834 64.9534 78.8205 64.9403 78.859 64.9349C78.8975 64.9296 78.9367 64.9322 78.9742 64.9425C79.0117 64.9528 79.0468 64.9706 79.0772 64.9949C79.1076 65.0191 79.1327 65.0493 79.1511 65.0836C79.1695 65.1179 79.1807 65.1555 79.184 65.1943C83.6829 93.4217 103.224 197.898 154.857 265.894Z" fill="white"/>
<path d="M162.515 278.711H137.178L148.558 0.196289L150.131 0.391629L162.515 278.711Z" fill="#2D6CDF"/>
<path d="M209.005 243.032H90.3408V254.925H209.005V243.032Z" fill="#3B7BF0"/>
<path d="M220 254.924H80.2607V266.817H220V254.924Z" fill="url(#paint0_linear_9266_69364)"/>
<path d="M230.079 266.817H69.2646V278.711H230.079V266.817Z" fill="#3360B1"/>
<path d="M248.428 61.7921H60.459V66.5077H248.428V61.7921Z" fill="#2D6CDF"/>
<path d="M6.18553 139.357L4.77441 138.299L63.6629 59.7166L108.114 138.394L106.578 139.261L63.4554 62.9346L6.18553 139.357Z" fill="#2D6CDF"/>
<path d="M69.6409 64.7239C70.4341 61.3629 68.3526 57.9952 64.9916 57.2019C61.6305 56.4086 58.2628 58.4902 57.4695 61.8512C56.6763 65.2122 58.7578 68.58 62.1189 69.3732C65.4799 70.1665 68.8476 68.0849 69.6409 64.7239Z" fill="url(#paint1_linear_9266_69364)" fill-opacity="0.8"/>
<path d="M188.529 141.026L187.118 139.969L246.007 61.3872L290.458 140.064L288.922 140.931L245.799 64.6052L188.529 141.026Z" fill="#2D6CDF"/>
<path d="M149.56 85.076C159.549 85.076 167.647 76.9781 167.647 66.9889C167.647 56.9996 159.549 48.9017 149.56 48.9017C139.571 48.9017 131.473 56.9996 131.473 66.9889C131.473 76.9781 139.571 85.076 149.56 85.076Z" fill="url(#paint2_linear_9266_69364)"/>
<path d="M250.46 65.0849C251.253 61.7238 249.172 58.3561 245.811 57.5629C242.45 56.7696 239.082 58.8511 238.289 62.2122C237.496 65.5732 239.577 68.9409 242.938 69.7342C246.299 70.5275 249.667 68.4459 250.46 65.0849Z" fill="url(#paint3_linear_9266_69364)" fill-opacity="0.8"/>
<path d="M238.757 191.431C266.887 191.431 289.69 168.627 289.69 140.497H187.823C187.823 168.627 210.624 191.431 238.757 191.431Z" fill="url(#paint4_linear_9266_69364)"/>
<path d="M292.586 135.252H183.68C183.083 135.252 182.6 135.735 182.6 136.332V141.928C182.6 142.524 183.083 143.008 183.68 143.008H292.586C293.183 143.008 293.667 142.524 293.667 141.928V136.332C293.667 135.735 293.183 135.252 292.586 135.252Z" fill="#2D6CDF"/>
<path d="M56.4121 189.76C84.5418 189.76 107.346 166.958 107.346 138.828H5.47852C5.47852 166.953 28.2823 189.76 56.4121 189.76Z" fill="url(#paint5_linear_9266_69364)"/>
<path d="M110.242 133.582H1.33535C0.738627 133.582 0.254883 134.066 0.254883 134.662V140.258C0.254883 140.855 0.738627 141.339 1.33535 141.339H110.242C110.838 141.339 111.322 140.855 111.322 140.258V134.662C111.322 134.066 110.838 133.582 110.242 133.582Z" fill="#2D6CDF"/>
<path d="M134.22 112.787C138.657 108.35 138.657 101.157 134.22 96.7197C129.783 92.2829 122.59 92.2829 118.153 96.7197C113.716 101.157 113.716 108.35 118.153 112.787C122.59 117.224 129.783 117.224 134.22 112.787Z" fill="white"/>
<path d="M125.062 113.671C124.764 113.694 124.466 113.635 124.199 113.501C123.932 113.367 123.706 113.163 123.547 112.91L118.167 104.27C117.659 103.456 117.935 102.352 118.778 101.794C119.62 101.235 120.705 101.44 121.208 102.249L124.939 108.251L129.862 98.2248C130.304 97.3244 131.366 96.9113 132.233 97.302C133.099 97.6927 133.444 98.7375 133.003 99.642L126.641 112.61C126.499 112.9 126.286 113.151 126.022 113.337C125.757 113.523 125.45 113.64 125.128 113.676L125.062 113.671Z" fill="#FF6A00"/>
</g>
<defs>
<linearGradient id="paint0_linear_9266_69364" x1="150.131" y1="272.083" x2="150.131" y2="343.641" gradientUnits="userSpaceOnUse">
<stop stop-color="#2D6CDF"/>
<stop offset="1" stop-color="#4042E2"/>
</linearGradient>
<linearGradient id="paint1_linear_9266_69364" x1="65.9913" y1="57.5351" x2="61.1098" y2="69.0509" gradientUnits="userSpaceOnUse">
<stop stop-color="#4F52FF"/>
<stop offset="1" stop-color="#4042E2"/>
</linearGradient>
<linearGradient id="paint2_linear_9266_69364" x1="156.62" y1="50.3312" x2="142.498" y2="83.6466" gradientUnits="userSpaceOnUse">
<stop stop-color="#2D6CDF"/>
<stop offset="1" stop-color="#2D6CF4"/>
</linearGradient>
<linearGradient id="paint3_linear_9266_69364" x1="246.81" y1="57.9027" x2="241.929" y2="69.4195" gradientUnits="userSpaceOnUse">
<stop stop-color="#4F52FF"/>
<stop offset="1" stop-color="#4042E2"/>
</linearGradient>
<linearGradient id="paint4_linear_9266_69364" x1="236.199" y1="200.894" x2="238.844" y2="138.997" gradientUnits="userSpaceOnUse">
<stop stop-color="#2D6CDF"/>
<stop offset="1" stop-color="#5F7FFF"/>
</linearGradient>
<linearGradient id="paint5_linear_9266_69364" x1="53.4576" y1="189.405" x2="57.1609" y2="126.978" gradientUnits="userSpaceOnUse">
<stop stop-color="#2D6CDF"/>
<stop offset="1" stop-color="#5F7FFF"/>
</linearGradient>
</defs>
</svg>
