<svg width="30" height="30" viewBox="0 0 30 30" fill="none" xmlns="http://www.w3.org/2000/svg">
<path d="M20.625 7.50195C22.1759 7.50195 23.4375 8.76355 23.4375 10.3145V10.8638L23.1628 10.5891C22.7966 10.2229 22.2034 10.2229 21.8372 10.5891C21.4709 10.9553 21.4709 11.5486 21.8372 11.9148L23.7122 13.7898C23.8953 13.9729 24.1351 14.0645 24.375 14.0645C24.6149 14.0645 24.8547 13.9729 25.0378 13.7898L26.9128 11.9148C27.2791 11.5486 27.2791 10.9553 26.9128 10.5891C26.5466 10.2229 25.9534 10.2229 25.5872 10.5891L25.3125 10.8638V10.3145C25.3125 7.72992 23.2095 5.62695 20.625 5.62695C20.1068 5.62695 19.6875 6.04626 19.6875 6.56445C19.6875 7.08264 20.1068 7.50195 20.625 7.50195Z" fill="#2D6CDF"/>
<path d="M9.375 23.4395C7.8241 23.4395 6.5625 22.1779 6.5625 20.627V20.0776L6.83716 20.3523C7.02026 20.5354 7.26013 20.627 7.5 20.627C7.73987 20.627 7.97974 20.5354 8.16284 20.3523C8.52905 19.9861 8.52905 19.3928 8.16284 19.0266L6.28784 17.1516C5.92163 16.7854 5.32837 16.7854 4.96216 17.1516L3.08716 19.0266C2.72095 19.3928 2.72095 19.9861 3.08716 20.3523C3.45337 20.7185 4.04663 20.7185 4.41284 20.3523L4.6875 20.0776V20.627C4.6875 23.2115 6.79047 25.3145 9.375 25.3145C9.89319 25.3145 10.3125 24.8951 10.3125 24.377C10.3125 23.8588 9.89319 23.4395 9.375 23.4395Z" fill="#2D6CDF"/>
<path d="M15.9375 15.0011C16.4557 15.0011 16.875 14.5818 16.875 14.0636V8.02539L14.2722 9.32681C14.2072 9.35886 14.1348 9.37625 14.0625 9.37625H10.3125V10.3136H8.4375V9.37625H4.6875C4.61517 9.37625 4.54285 9.35886 4.47784 9.32681L1.875 8.02539V14.0636C1.875 14.5818 2.29431 15.0011 2.8125 15.0011H15.9375Z" fill="#2D6CDF"/>
<path d="M8.4375 8.43962V7.50195H10.3125V8.43962H13.9517L16.875 6.97799V5.62695C16.875 5.10876 16.4557 4.68945 15.9375 4.68945H13.125V2.81445C13.125 2.29626 12.7057 1.87695 12.1875 1.87695H6.5625C6.04431 1.87695 5.625 2.29626 5.625 2.81445V4.68945H2.8125C2.29431 4.68945 1.875 5.10876 1.875 5.62695V6.97799L4.79828 8.43962H8.4375ZM7.5 3.75195H11.25V4.68945H7.5V3.75195Z" fill="#2D6CDF"/>
<path d="M25.3125 22.5013H21.5625V23.4386H19.6875V22.5013H15.9375C15.8652 22.5013 15.7928 22.4839 15.7278 22.4518L13.125 21.1504V27.1886C13.125 27.7068 13.5443 28.1261 14.0625 28.1261H27.1875C27.7057 28.1261 28.125 27.7068 28.125 27.1886V21.1504L25.5222 22.4518C25.4572 22.4839 25.3848 22.5013 25.3125 22.5013Z" fill="#2D6CDF"/>
<path d="M27.1875 17.8145H24.375V15.9395C24.375 15.4213 23.9557 15.002 23.4375 15.002H17.8125C17.2943 15.002 16.875 15.4213 16.875 15.9395V17.8145H14.0625C13.5443 17.8145 13.125 18.2338 13.125 18.752V20.103L16.0483 21.5646H19.6875V20.627H21.5625V21.5646H25.2017L28.125 20.103V18.752C28.125 18.2338 27.7057 17.8145 27.1875 17.8145ZM22.5 17.8145H18.75V16.877H22.5V17.8145Z" fill="#2D6CDF"/>
</svg>
