<svg width="13" height="13" viewBox="0 0 13 13" fill="none" xmlns="http://www.w3.org/2000/svg">
<g clip-path="url(#clip0_8110_62790)">
<path d="M9.20833 7.58333C9.35199 7.58333 9.48977 7.52627 9.59135 7.42468C9.69293 7.3231 9.75 7.18533 9.75 7.04167C9.75 6.89801 9.69293 6.76023 9.59135 6.65865C9.48977 6.55707 9.35199 6.5 9.20833 6.5C9.06467 6.5 8.9269 6.55707 8.82532 6.65865C8.72373 6.76023 8.66667 6.89801 8.66667 7.04167C8.66667 7.18533 8.72373 7.3231 8.82532 7.42468C8.9269 7.52627 9.06467 7.58333 9.20833 7.58333ZM9.20833 9.75C9.35199 9.75 9.48977 9.69293 9.59135 9.59135C9.69293 9.48977 9.75 9.35199 9.75 9.20833C9.75 9.06467 9.69293 8.9269 9.59135 8.82532C9.48977 8.72373 9.35199 8.66667 9.20833 8.66667C9.06467 8.66667 8.9269 8.72373 8.82532 8.82532C8.72373 8.9269 8.66667 9.06467 8.66667 9.20833C8.66667 9.35199 8.72373 9.48977 8.82532 9.59135C8.9269 9.69293 9.06467 9.75 9.20833 9.75ZM7.04167 7.04167C7.04167 7.18533 6.9846 7.3231 6.88302 7.42468C6.78143 7.52627 6.64366 7.58333 6.5 7.58333C6.35634 7.58333 6.21857 7.52627 6.11698 7.42468C6.0154 7.3231 5.95833 7.18533 5.95833 7.04167C5.95833 6.89801 6.0154 6.76023 6.11698 6.65865C6.21857 6.55707 6.35634 6.5 6.5 6.5C6.64366 6.5 6.78143 6.55707 6.88302 6.65865C6.9846 6.76023 7.04167 6.89801 7.04167 7.04167ZM7.04167 9.20833C7.04167 9.35199 6.9846 9.48977 6.88302 9.59135C6.78143 9.69293 6.64366 9.75 6.5 9.75C6.35634 9.75 6.21857 9.69293 6.11698 9.59135C6.0154 9.48977 5.95833 9.35199 5.95833 9.20833C5.95833 9.06467 6.0154 8.9269 6.11698 8.82532C6.21857 8.72373 6.35634 8.66667 6.5 8.66667C6.64366 8.66667 6.78143 8.72373 6.88302 8.82532C6.9846 8.9269 7.04167 9.06467 7.04167 9.20833ZM3.79167 7.58333C3.93533 7.58333 4.0731 7.52627 4.17468 7.42468C4.27627 7.3231 4.33333 7.18533 4.33333 7.04167C4.33333 6.89801 4.27627 6.76023 4.17468 6.65865C4.0731 6.55707 3.93533 6.5 3.79167 6.5C3.64801 6.5 3.51023 6.55707 3.40865 6.65865C3.30707 6.76023 3.25 6.89801 3.25 7.04167C3.25 7.18533 3.30707 7.3231 3.40865 7.42468C3.51023 7.52627 3.64801 7.58333 3.79167 7.58333ZM3.79167 9.75C3.93533 9.75 4.0731 9.69293 4.17468 9.59135C4.27627 9.48977 4.33333 9.35199 4.33333 9.20833C4.33333 9.06467 4.27627 8.9269 4.17468 8.82532C4.0731 8.72373 3.93533 8.66667 3.79167 8.66667C3.64801 8.66667 3.51023 8.72373 3.40865 8.82532C3.30707 8.9269 3.25 9.06467 3.25 9.20833C3.25 9.35199 3.30707 9.48977 3.40865 9.59135C3.51023 9.69293 3.64801 9.75 3.79167 9.75Z" fill="#212529"/>
<path fill-rule="evenodd" clip-rule="evenodd" d="M3.79373 0.947266C3.90147 0.947266 4.0048 0.990067 4.08099 1.06625C4.15718 1.14244 4.19998 1.24577 4.19998 1.35352V1.76681C4.55856 1.75977 4.95344 1.75977 5.38785 1.75977H7.61573C8.05069 1.75977 8.44556 1.75977 8.80415 1.76681V1.35352C8.80415 1.24577 8.84695 1.14244 8.92313 1.06625C8.99932 0.990067 9.10265 0.947266 9.2104 0.947266C9.31814 0.947266 9.42147 0.990067 9.49766 1.06625C9.57385 1.14244 9.61665 1.24577 9.61665 1.35352V1.80147C9.75748 1.81231 9.89091 1.82603 10.0169 1.84264C10.6518 1.92822 11.1658 2.10806 11.5715 2.51322C11.9767 2.91893 12.1565 3.43297 12.2421 4.06781C12.325 4.68531 12.325 5.47343 12.325 6.46902V7.61302C12.325 8.6086 12.325 9.39727 12.2421 10.0142C12.1565 10.6491 11.9767 11.1631 11.5715 11.5688C11.1658 11.974 10.6518 12.1538 10.0169 12.2394C9.39944 12.3223 8.61131 12.3223 7.61573 12.3223H5.38894C4.39335 12.3223 3.60469 12.3223 2.98773 12.2394C2.3529 12.1538 1.83885 11.974 1.43315 11.5688C1.02798 11.1631 0.848146 10.6491 0.762562 10.0142C0.679688 9.39672 0.679688 8.6086 0.679688 7.61302V6.46902C0.679688 5.47343 0.679688 4.68477 0.762562 4.06781C0.848146 3.43297 1.02798 2.91893 1.43315 2.51322C1.83885 2.10806 2.3529 1.92822 2.98773 1.84264C3.11412 1.82603 3.24755 1.81231 3.38802 1.80147V1.35352C3.38802 1.24587 3.43075 1.14262 3.50682 1.06644C3.58289 0.990274 3.68608 0.947409 3.79373 0.947266ZM3.09498 2.6481C2.5506 2.72122 2.23644 2.85881 2.00731 3.08793C1.77819 3.31706 1.6406 3.63122 1.56748 4.1756C1.5552 4.26768 1.54473 4.365 1.53606 4.46756H11.4681C11.4594 4.365 11.4489 4.2675 11.4366 4.17506C11.3635 3.63068 11.2259 3.31652 10.9968 3.08739C10.7677 2.85827 10.4535 2.72068 9.9086 2.64756C9.35231 2.57281 8.61835 2.57172 7.5854 2.57172H5.41873C4.38577 2.57172 3.65235 2.57335 3.09498 2.6481ZM1.49165 6.49935C1.49165 6.03677 1.49165 5.63431 1.49869 5.2806H11.5054C11.5125 5.63431 11.5125 6.03677 11.5125 6.49935V7.58268C11.5125 8.61564 11.5114 9.3496 11.4366 9.90643C11.3635 10.4508 11.2259 10.765 10.9968 10.9941C10.7677 11.2232 10.4535 11.3608 9.9086 11.4339C9.35231 11.5087 8.61835 11.5098 7.5854 11.5098H5.41873C4.38577 11.5098 3.65235 11.5087 3.09498 11.4339C2.5506 11.3608 2.23644 11.2232 2.00731 10.9941C1.77819 10.765 1.6406 10.4508 1.56748 9.90589C1.49273 9.3496 1.49165 8.61564 1.49165 7.58268V6.49935Z" fill="#212529"/>
</g>
<defs>
<clipPath id="clip0_8110_62790">
<rect width="13" height="13" fill="white"/>
</clipPath>
</defs>
</svg>
