<svg width="67" height="77" viewBox="0 0 67 77" fill="none" xmlns="http://www.w3.org/2000/svg">
<path d="M64.6127 45.8862C61.6358 58.782 51.136 71.977 33.1812 77C15.2265 71.977 4.72665 58.7824 1.74977 45.8862C-1.15427 33.3082 -0.256466 20.0465 3.06488 7.56419C13.7104 9.15487 25.1378 6.30832 33.1812 0C41.2246 6.30832 52.6516 9.15443 63.2975 7.56419C66.6189 20.047 67.5167 33.3082 64.6127 45.8862Z" fill="#FF6A00"/>
<path d="M64.6121 45.8863C61.6352 58.782 51.1354 71.977 33.1807 77V0.000488281C41.224 6.3088 52.6511 9.15492 63.297 7.56468C66.6183 20.047 67.5161 33.3083 64.6121 45.8863Z" fill="#DD6006"/>
<path d="M60.9825 45.0486C60.2988 48.0101 59.1909 50.926 57.6897 53.7168C56.1157 56.6423 54.1367 59.3739 51.8079 61.8348C49.3339 64.4487 46.4794 66.7393 43.324 68.6429C40.2251 70.5126 36.8129 72.0186 33.1813 73.12C29.5502 72.0191 26.1376 70.5126 23.0387 68.6433C19.8828 66.7398 17.0283 64.4487 14.5548 61.8348C12.226 59.3739 10.247 56.6423 8.67297 53.7168C7.17137 50.9264 6.06337 48.0101 5.38015 45.0486C4.05626 39.3151 3.52355 33.1919 3.79561 26.849C4.00799 21.8895 4.71579 16.7656 5.89838 11.617C6.91554 11.6877 7.94498 11.7232 8.96039 11.7232C13.7706 11.7232 18.5194 10.9654 23.0742 9.47169C26.7449 8.2676 30.1452 6.62821 33.1818 4.59784C36.2183 6.62821 39.6182 8.26804 43.2893 9.47169C47.8446 10.9654 52.5929 11.7232 57.4031 11.7232C58.4186 11.7232 59.4476 11.6877 60.4652 11.617C61.6482 16.7656 62.3555 21.8895 62.5684 26.849C62.8391 33.1915 62.3064 39.3146 60.9825 45.0486Z" fill="#F4A261"/>
<path d="M60.9818 45.0486C60.2982 48.0101 59.1902 50.926 57.689 53.7168C56.115 56.6423 54.136 59.3739 51.8072 61.8348C49.3332 64.4487 46.4788 66.7393 43.3233 68.6429C40.2244 70.5126 36.8122 72.0186 33.1807 73.12V4.59784C36.2172 6.62821 39.6171 8.26804 43.2882 9.47169C47.8435 10.9654 52.5918 11.7232 57.402 11.7232C58.4174 11.7232 59.4464 11.6877 60.464 11.617C61.6471 16.7656 62.3544 21.8895 62.5673 26.849C62.8384 33.1915 62.3057 39.3146 60.9818 45.0486Z" fill="#F4A261"/>
<path d="M42.7085 35.5734C40.2705 33.135 36.9018 31.6268 33.1811 31.6268C29.4604 31.6268 26.0921 33.135 23.6537 35.5734C21.2152 38.0114 19.707 41.3797 19.707 45.1008C19.707 52.5422 25.7398 58.5749 33.1811 58.5749C36.9018 58.5749 40.2705 57.0663 42.7085 54.6283C45.147 52.1902 46.6552 48.8215 46.6552 45.1008C46.6552 41.3797 45.1474 38.0114 42.7085 35.5734ZM34.8547 46.3808L35.3133 49.2041C35.3852 49.6465 35.0438 50.0475 34.5958 50.0475H31.7673C31.317 50.0475 30.9748 49.6421 31.0507 49.1984L31.5285 46.3931C30.5224 45.8183 29.844 44.7349 29.844 43.4926C29.844 41.6492 31.3377 40.1546 33.1815 40.1546C35.0254 40.1546 36.5191 41.6492 36.5191 43.4926C36.5187 44.7261 35.8495 45.8029 34.8547 46.3808Z" fill="white"/>
<path d="M40.3583 23.8514C40.3583 24.6343 39.7238 25.2688 38.941 25.2688C38.1581 25.2688 37.5236 24.6343 37.5236 23.8514C37.5236 21.4573 35.5757 19.5099 33.1816 19.5099C30.7875 19.5099 28.8396 21.4573 28.8396 23.8514V29.6801C27.8479 29.9785 26.8992 30.377 26.0049 30.8636V23.8514C26.0049 19.8943 29.224 16.6756 33.1812 16.6756C37.1383 16.6756 40.3583 19.8943 40.3583 23.8514Z" fill="white"/>
</svg>
