<svg width="10" height="6" viewBox="0 0 10 6" fill="none" xmlns="http://www.w3.org/2000/svg">
<path d="M9.08242 5.47852C9.16889 5.47844 9.2534 5.45274 9.32528 5.40466C9.39715 5.35658 9.45317 5.28828 9.48625 5.20839C9.51933 5.12849 9.52799 5.04059 9.51115 4.95577C9.4943 4.87095 9.45269 4.79303 9.39158 4.73185L5.30825 0.648515C5.22622 0.566586 5.11502 0.520567 4.99908 0.520567C4.88314 0.520567 4.77195 0.566586 4.68992 0.648515L0.606583 4.73185C0.545474 4.79303 0.503869 4.87095 0.48702 4.95577C0.470171 5.04059 0.478833 5.12849 0.511915 5.20839C0.544996 5.28828 0.601013 5.35658 0.672889 5.40466C0.744764 5.45274 0.829276 5.47844 0.91575 5.47852L9.08242 5.47852Z" fill="#2D6CDF"/>
</svg>
