<svg width="26" height="26" viewBox="0 0 26 26" fill="none" xmlns="http://www.w3.org/2000/svg">
<circle cx="13" cy="13" r="13" fill="#F4A261" fill-opacity="0.1"/>
<path d="M14.1148 10.953V13.1232L15.9142 14.2028C15.987 14.2447 16.0507 14.3006 16.1016 14.3674C16.1525 14.4341 16.1896 14.5103 16.2107 14.5916C16.2318 14.6728 16.2366 14.7575 16.2246 14.8406C16.2126 14.9237 16.1843 15.0036 16.1411 15.0755C16.0979 15.1475 16.0408 15.2102 15.9732 15.2599C15.9055 15.3096 15.8286 15.3453 15.747 15.365C15.6654 15.3846 15.5807 15.3878 15.4978 15.3743C15.4149 15.3609 15.3356 15.3311 15.2644 15.2866L13.1579 14.0227C13.0643 13.9666 12.9868 13.8872 12.933 13.7922C12.8792 13.6972 12.8509 13.59 12.8509 13.4808V10.953C12.8509 10.7854 12.9175 10.6247 13.036 10.5062C13.1545 10.3877 13.3152 10.3211 13.4828 10.3211C13.6504 10.3211 13.8112 10.3877 13.9297 10.5062C14.0482 10.6247 14.1148 10.7854 14.1148 10.953ZM18.5384 9.47849C18.3708 9.47849 18.21 9.54507 18.0915 9.66359C17.973 9.7821 17.9064 9.94284 17.9064 10.1104V10.4986C17.6847 10.2526 17.4546 10.0083 17.2066 9.75708C16.4746 9.02522 15.5432 8.52528 14.5288 8.31973C13.5144 8.11418 12.4618 8.21214 11.5027 8.60135C10.5436 8.99057 9.72051 9.65379 9.13619 10.5081C8.55187 11.3625 8.23228 12.3701 8.21735 13.4051C8.20241 14.44 8.49279 15.4564 9.05221 16.3273C9.61164 17.1981 10.4153 17.8848 11.3627 18.3016C12.3102 18.7183 13.3595 18.8466 14.3794 18.6704C15.3994 18.4942 16.3448 18.0214 17.0976 17.3109C17.2195 17.1958 17.2907 17.037 17.2955 16.8694C17.3004 16.7018 17.2384 16.5392 17.1234 16.4172C17.0083 16.2953 16.8495 16.2241 16.6819 16.2193C16.5143 16.2144 16.3516 16.2764 16.2297 16.3914C15.6577 16.9313 14.9393 17.2906 14.1643 17.4245C13.3893 17.5585 12.592 17.4611 11.872 17.1446C11.152 16.8281 10.5412 16.3064 10.1159 15.6448C9.69065 14.9832 9.46974 14.211 9.48077 13.4245C9.4918 12.6381 9.7343 11.8724 10.178 11.223C10.6216 10.5735 11.2468 10.0692 11.9754 9.77303C12.704 9.47683 13.5037 9.40187 14.2747 9.5575C15.0456 9.71314 15.7536 10.0925 16.3103 10.6481C16.622 10.9636 16.9059 11.269 17.1813 11.585H16.4319C16.2643 11.585 16.1036 11.6516 15.9851 11.7701C15.8665 11.8886 15.8 12.0493 15.8 12.2169C15.8 12.3845 15.8665 12.5453 15.9851 12.6638C16.1036 12.7823 16.2643 12.8489 16.4319 12.8489H18.5384C18.706 12.8489 18.8667 12.7823 18.9852 12.6638C19.1038 12.5453 19.1703 12.3845 19.1703 12.2169V10.1104C19.1703 9.94284 19.1038 9.7821 18.9852 9.66359C18.8667 9.54507 18.706 9.47849 18.5384 9.47849Z" fill="#F4A261"/>
</svg>
