<svg width="32" height="32" viewBox="0 0 32 32" fill="none" xmlns="http://www.w3.org/2000/svg">
<path d="M21.8259 16.5711C21.8259 16.407 21.8873 16.2495 21.9967 16.1334C22.106 16.0173 22.2543 15.9521 22.4089 15.9521C22.5635 15.9521 22.7118 16.0173 22.8211 16.1334C22.9305 16.2495 22.9919 16.407 22.9919 16.5711V23.3807C22.9919 23.5449 22.9305 23.7023 22.8211 23.8184C22.7118 23.9345 22.5635 23.9997 22.4089 23.9997H9.583C9.42838 23.9997 9.28009 23.9345 9.17076 23.8184C9.06142 23.7023 9 23.5449 9 23.3807V9.76163C9 9.59744 9.06142 9.43999 9.17076 9.32389C9.28009 9.2078 9.42838 9.14258 9.583 9.14258H15.996C16.1506 9.14258 16.2989 9.2078 16.4082 9.32389C16.5175 9.43999 16.5789 9.59744 16.5789 9.76163C16.5789 9.92581 16.5175 10.0833 16.4082 10.1994C16.2989 10.3155 16.1506 10.3807 15.996 10.3807H10.166V22.7616H21.8259V16.5711Z" fill="#212529"/>
<path d="M15.07 17.6048L16.1351 17.4438L22.6777 10.529C22.7393 10.466 22.7885 10.3908 22.8223 10.3075C22.8561 10.2243 22.874 10.1347 22.8747 10.0441C22.8754 9.95352 22.8591 9.86367 22.8267 9.77981C22.7942 9.69596 22.7463 9.61977 22.6857 9.55571C22.6251 9.49164 22.553 9.44097 22.4737 9.40667C22.3943 9.37236 22.3093 9.35509 22.2236 9.35588C22.1379 9.35667 22.0532 9.37549 21.9745 9.41125C21.8957 9.44701 21.8245 9.49899 21.765 9.56416L15.2211 16.479L15.0687 17.6048H15.07ZM23.5904 8.59797C23.7703 8.78807 23.9131 9.01379 24.0105 9.26223C24.1079 9.51067 24.158 9.77697 24.158 10.0459C24.158 10.3148 24.1079 10.5811 24.0105 10.8296C23.9131 11.078 23.7703 11.3037 23.5904 11.4938L16.8967 18.5697C16.798 18.6744 16.6698 18.7424 16.5314 18.7634L14.4013 19.0855C14.302 19.1006 14.2008 19.091 14.1057 19.0575C14.0105 19.024 13.924 18.9675 13.8531 18.8926C13.7822 18.8176 13.7288 18.7262 13.6971 18.6256C13.6654 18.525 13.6564 18.418 13.6706 18.3131L13.9753 16.0614C13.9948 15.9152 14.0587 15.7797 14.1573 15.6752L20.8522 8.59934C21.2154 8.21558 21.7078 8 22.2213 8C22.7348 8 23.2272 8.21558 23.5904 8.59934V8.59797Z" fill="#212529"/>
</svg>
