<svg width="14" height="14" viewBox="0 0 14 14" fill="none" xmlns="http://www.w3.org/2000/svg">
<path d="M7.47944 2.58442C7.42593 2.5067 7.35432 2.44315 7.27079 2.39925C7.18726 2.35534 7.09431 2.33241 6.99995 2.33241C6.90558 2.33241 6.81263 2.35534 6.7291 2.39925C6.64557 2.44315 6.57396 2.5067 6.52045 2.58442L1.27044 10.1678C1.20968 10.2552 1.17404 10.3577 1.16741 10.464C1.16078 10.5703 1.1834 10.6764 1.23283 10.7707C1.28226 10.865 1.35659 10.944 1.44776 10.9991C1.53893 11.0542 1.64344 11.0832 1.74995 11.083L12.2499 11.083C12.3562 11.0826 12.4603 11.0532 12.5511 10.998C12.6419 10.9428 12.716 10.8639 12.7653 10.7698C12.8146 10.6756 12.8373 10.5699 12.831 10.4638C12.8247 10.3577 12.7896 10.2554 12.7294 10.1678L7.47944 2.58442Z" fill="#6C757D"/>
</svg>
