<svg width="14" height="14" viewBox="0 0 14 14" fill="none" xmlns="http://www.w3.org/2000/svg">
<path d="M7 1.42188C5.89675 1.42187 4.81828 1.74903 3.90096 2.36196C2.98364 2.97489 2.26868 3.84608 1.84649 4.86534C1.42429 5.88461 1.31383 7.00619 1.52906 8.08824C1.74429 9.17029 2.27556 10.1642 3.05567 10.9443C3.83579 11.7244 4.82971 12.2557 5.91176 12.4709C6.99381 12.6862 8.11539 12.5757 9.13466 12.1535C10.1539 11.7313 11.0251 11.0164 11.638 10.099C12.251 9.18172 12.5781 8.10325 12.5781 7C12.5764 5.52112 11.9881 4.10331 10.9424 3.05759C9.89669 2.01186 8.47888 1.42361 7 1.42188ZM3.90688 10.8281C4.22778 10.2945 4.68127 9.85301 5.22326 9.5465C5.76526 9.23999 6.37734 9.0789 7 9.0789C7.62267 9.0789 8.23474 9.23999 8.77674 9.5465C9.31874 9.85301 9.77223 10.2945 10.0931 10.8281C9.21833 11.5375 8.12628 11.9246 7 11.9246C5.87373 11.9246 4.78168 11.5375 3.90688 10.8281ZM5.14063 6.5625C5.14063 6.19475 5.24968 5.83526 5.45399 5.52949C5.6583 5.22371 5.94869 4.98539 6.28845 4.84466C6.62821 4.70393 7.00207 4.66711 7.36275 4.73885C7.72343 4.8106 8.05474 4.98768 8.31478 5.24772C8.57482 5.50776 8.75191 5.83907 8.82365 6.19975C8.89539 6.56044 8.85857 6.9343 8.71784 7.27405C8.57711 7.61381 8.33879 7.9042 8.03302 8.10851C7.72724 8.31283 7.36775 8.42188 7 8.42188C6.50687 8.42188 6.03393 8.22598 5.68523 7.87728C5.33653 7.52858 5.14063 7.05564 5.14063 6.5625ZM10.5826 10.3709C10.067 9.5693 9.29641 8.96475 8.39508 8.65484C8.84452 8.35549 9.1857 7.91946 9.36819 7.41123C9.55067 6.90299 9.56476 6.34952 9.40839 5.83265C9.25201 5.31578 8.93347 4.86295 8.49985 4.54111C8.06623 4.21927 7.54056 4.0455 7.00055 4.0455C6.46054 4.0455 5.93487 4.21927 5.50125 4.54111C5.06763 4.86295 4.74909 5.31578 4.59271 5.83265C4.43633 6.34952 4.45043 6.90299 4.63291 7.41123C4.8154 7.91946 5.15658 8.35549 5.60602 8.65484C4.70469 8.96475 3.93407 9.5693 3.41852 10.3709C2.75944 9.67153 2.31953 8.79448 2.15307 7.84798C1.98661 6.90149 2.10088 5.92698 2.48178 5.04467C2.86268 4.16236 3.49354 3.41086 4.29654 2.88289C5.09954 2.35492 6.03953 2.07358 7.00055 2.07358C7.96157 2.07358 8.90156 2.35492 9.70456 2.88289C10.5076 3.41086 11.1384 4.16236 11.5193 5.04467C11.9002 5.92698 12.0145 6.90149 11.848 7.84798C11.6816 8.79448 11.2417 9.67153 10.5826 10.3709Z" fill="#212529" stroke="#212529" stroke-width="0.2"/>
</svg>
