<svg width="15" height="15" viewBox="0 0 15 15" fill="none" xmlns="http://www.w3.org/2000/svg">
<path d="M9.5331 9.5331C9.94287 9.12333 10.2679 8.63687 10.4897 8.10149C10.7114 7.5661 10.8256 6.99228 10.8256 6.41279C10.8256 5.83329 10.7114 5.25947 10.4897 4.72409C10.2679 4.1887 9.94287 3.70224 9.5331 3.29248C9.12334 2.88271 8.63687 2.55767 8.10149 2.3359C7.5661 2.11414 6.99228 2 6.41279 2C5.83329 2 5.25947 2.11414 4.72409 2.3359C4.1887 2.55767 3.70224 2.88271 3.29248 3.29248C2.46492 4.12003 2 5.24244 2 6.41279C2 7.58313 2.46492 8.70554 3.29248 9.5331C4.12003 10.3607 5.24244 10.8256 6.41279 10.8256C7.58313 10.8256 8.70554 10.3607 9.5331 9.5331ZM9.5331 9.5331L12.3125 12.3125" stroke="#DFDFDF" stroke-width="0.7" stroke-linecap="round" stroke-linejoin="round"/>
</svg>
