<svg width="7" height="7" viewBox="0 0 7 7" fill="none" xmlns="http://www.w3.org/2000/svg">
<path d="M0.774869 0.774869C0.812606 0.737036 0.857436 0.70702 0.906791 0.68654C0.956147 0.666059 1.00906 0.655518 1.06249 0.655518C1.11593 0.655518 1.16884 0.666059 1.2182 0.68654C1.26755 0.70702 1.31238 0.737036 1.35012 0.774869L3.49999 2.92556L5.64987 0.774869C5.68764 0.737097 5.73248 0.707135 5.78183 0.686693C5.83118 0.666252 5.88408 0.65573 5.93749 0.65573C5.99091 0.65573 6.0438 0.666252 6.09316 0.686693C6.14251 0.707135 6.18735 0.737097 6.22512 0.774869C6.26289 0.81264 6.29285 0.857481 6.31329 0.906832C6.33374 0.956183 6.34426 1.00908 6.34426 1.06249C6.34426 1.11591 6.33374 1.1688 6.31329 1.21816C6.29285 1.26751 6.26289 1.31235 6.22512 1.35012L4.07443 3.49999L6.22512 5.64987C6.26289 5.68764 6.29285 5.73248 6.31329 5.78183C6.33374 5.83118 6.34426 5.88408 6.34426 5.93749C6.34426 5.99091 6.33374 6.0438 6.31329 6.09316C6.29285 6.14251 6.26289 6.18735 6.22512 6.22512C6.18735 6.26289 6.14251 6.29285 6.09316 6.31329C6.0438 6.33374 5.99091 6.34426 5.93749 6.34426C5.88408 6.34426 5.83118 6.33374 5.78183 6.31329C5.73248 6.29285 5.68764 6.26289 5.64987 6.22512L3.49999 4.07443L1.35012 6.22512C1.31235 6.26289 1.26751 6.29285 1.21816 6.31329C1.1688 6.33374 1.11591 6.34426 1.06249 6.34426C1.00908 6.34426 0.956183 6.33374 0.906832 6.31329C0.857481 6.29285 0.81264 6.26289 0.774869 6.22512C0.737097 6.18735 0.707135 6.14251 0.686693 6.09316C0.666252 6.0438 0.65573 5.99091 0.65573 5.93749C0.65573 5.88408 0.666252 5.83118 0.686693 5.78183C0.707135 5.73248 0.737097 5.68764 0.774869 5.64987L2.92556 3.49999L0.774869 1.35012C0.737036 1.31238 0.70702 1.26755 0.68654 1.2182C0.666059 1.16884 0.655518 1.11593 0.655518 1.06249C0.655518 1.00906 0.666059 0.956147 0.68654 0.906791C0.70702 0.857436 0.737036 0.812606 0.774869 0.774869Z" fill="#212529"/>
</svg>
