<svg width="7" height="7" viewBox="0 0 7 7" fill="none" xmlns="http://www.w3.org/2000/svg">
<path d="M0.775113 0.774869C0.81285 0.737036 0.85768 0.70702 0.907035 0.68654C0.956391 0.666059 1.0093 0.655518 1.06274 0.655518C1.11617 0.655518 1.16908 0.666059 1.21844 0.68654C1.2678 0.70702 1.31263 0.737036 1.35036 0.774869L3.50024 2.92556L5.65011 0.774869C5.68788 0.737097 5.73273 0.707135 5.78208 0.686693C5.83143 0.666252 5.88432 0.65573 5.93774 0.65573C5.99115 0.65573 6.04405 0.666252 6.0934 0.686693C6.14275 0.707135 6.18759 0.737097 6.22536 0.774869C6.26313 0.81264 6.2931 0.857481 6.31354 0.906832C6.33398 0.956183 6.3445 1.00908 6.3445 1.06249C6.3445 1.11591 6.33398 1.1688 6.31354 1.21816C6.2931 1.26751 6.26313 1.31235 6.22536 1.35012L4.07468 3.49999L6.22536 5.64987C6.26313 5.68764 6.2931 5.73248 6.31354 5.78183C6.33398 5.83118 6.3445 5.88408 6.3445 5.93749C6.3445 5.99091 6.33398 6.0438 6.31354 6.09316C6.2931 6.14251 6.26313 6.18735 6.22536 6.22512C6.18759 6.26289 6.14275 6.29285 6.0934 6.31329C6.04405 6.33374 5.99115 6.34426 5.93774 6.34426C5.88432 6.34426 5.83143 6.33374 5.78208 6.31329C5.73273 6.29285 5.68788 6.26289 5.65011 6.22512L3.50024 4.07443L1.35036 6.22512C1.31259 6.26289 1.26775 6.29285 1.2184 6.31329C1.16905 6.33374 1.11615 6.34426 1.06274 6.34426C1.00932 6.34426 0.956427 6.33374 0.907076 6.31329C0.857725 6.29285 0.812884 6.26289 0.775113 6.22512C0.737341 6.18735 0.707379 6.14251 0.686937 6.09316C0.666496 6.0438 0.655974 5.99091 0.655974 5.93749C0.655974 5.88408 0.666496 5.83118 0.686937 5.78183C0.707379 5.73248 0.737341 5.68764 0.775113 5.64987L2.9258 3.49999L0.775113 1.35012C0.73728 1.31238 0.707264 1.26755 0.686784 1.2182C0.666303 1.16884 0.655762 1.11593 0.655762 1.06249C0.655762 1.00906 0.666303 0.956147 0.686784 0.906791C0.707264 0.857436 0.73728 0.812606 0.775113 0.774869Z" fill="white"/>
</svg>
