<svg width="14" height="14" viewBox="0 0 14 14" fill="none" xmlns="http://www.w3.org/2000/svg">
<path d="M2.91807 4.52148C2.8316 4.52156 2.74709 4.54726 2.67521 4.59534C2.60334 4.64342 2.54732 4.71172 2.51424 4.79161C2.48116 4.87151 2.47249 4.95941 2.48934 5.04423C2.50619 5.12905 2.5478 5.20697 2.60891 5.26815L6.69224 9.35148C6.77427 9.43341 6.88547 9.47943 7.00141 9.47943C7.11734 9.47943 7.22854 9.43341 7.31057 9.35148L11.3939 5.26815C11.455 5.20697 11.4966 5.12905 11.5135 5.04423C11.5303 4.95941 11.5217 4.87151 11.4886 4.79161C11.4555 4.71172 11.3995 4.64342 11.3276 4.59534C11.2557 4.54726 11.1712 4.52156 11.0847 4.52148H2.91807Z" fill="#6C757D"/>
</svg>
