<svg width="17" height="17" viewBox="0 0 17 17" fill="none" xmlns="http://www.w3.org/2000/svg">
<path d="M1.49988 8.5L1.03588 8.314C0.988039 8.43338 0.988039 8.56662 1.03588 8.686L1.49988 8.5ZM15.4999 8.5L15.9639 8.686C16.0117 8.56662 16.0117 8.43338 15.9639 8.314L15.4999 8.5ZM8.49988 13C6.18588 13 4.56088 11.848 3.49688 10.666C2.91581 10.0154 2.42814 9.28707 2.04788 8.502L1.96788 8.322L1.96388 8.315L1.49988 8.5L1.03588 8.686V8.688L1.03888 8.692L1.06488 8.755L1.14288 8.928C1.56476 9.80114 2.10667 10.611 2.75288 11.334C3.93988 12.653 5.81388 14 8.49988 14V13ZM1.49988 8.5L1.96388 8.686L1.96788 8.678C1.99257 8.61714 2.01925 8.55711 2.04788 8.498C2.42814 7.71293 2.91581 6.98461 3.49688 6.334C4.55988 5.152 6.18588 4 8.49988 4V3C5.81388 3 3.93888 4.348 2.75288 5.666C2.10667 6.38902 1.56476 7.19886 1.14288 8.072C1.10653 8.14991 1.07186 8.2286 1.03888 8.308L1.03688 8.312V8.313H1.03488L1.49988 8.5ZM8.49988 4C10.8139 4 12.4389 5.152 13.5029 6.334C14.084 6.98461 14.5716 7.71293 14.9519 8.498L15.0319 8.678L15.0359 8.685L15.4999 8.5L15.9639 8.314V8.312L15.9609 8.308L15.9349 8.245L15.8569 8.072C15.435 7.19886 14.8931 6.38902 14.2469 5.666C13.0599 4.348 11.1859 3 8.49988 3V4ZM15.4999 8.5L15.0359 8.314L15.0329 8.322L15.0179 8.357L14.9519 8.502C14.5716 9.28707 14.084 10.0154 13.5029 10.666C12.4399 11.848 10.8139 13 8.49988 13V14C11.1859 14 13.0609 12.652 14.2469 11.335C14.8932 10.6117 15.4351 9.80149 15.8569 8.928C15.8932 8.85009 15.9279 8.7714 15.9609 8.692L15.9629 8.688V8.687L15.9639 8.686L15.4999 8.5ZM8.49988 10C8.10206 10 7.72053 9.84196 7.43922 9.56066C7.15792 9.27936 6.99988 8.89782 6.99988 8.5H5.99988C5.99988 9.16304 6.26328 9.79893 6.73212 10.2678C7.20096 10.7366 7.83684 11 8.49988 11V10ZM9.99988 8.5C9.99988 8.89782 9.84185 9.27936 9.56054 9.56066C9.27924 9.84196 8.89771 10 8.49988 10V11C9.16292 11 9.79881 10.7366 10.2677 10.2678C10.7365 9.79893 10.9999 9.16304 10.9999 8.5H9.99988ZM8.49988 7C8.89771 7 9.27924 7.15804 9.56054 7.43934C9.84185 7.72064 9.99988 8.10218 9.99988 8.5H10.9999C10.9999 7.83696 10.7365 7.20107 10.2677 6.73223C9.79881 6.26339 9.16292 6 8.49988 6V7ZM8.49988 6C7.83684 6 7.20096 6.26339 6.73212 6.73223C6.26328 7.20107 5.99988 7.83696 5.99988 8.5H6.99988C6.99988 8.10218 7.15792 7.72064 7.43922 7.43934C7.72053 7.15804 8.10206 7 8.49988 7V6Z" fill="#212529"/>
</svg>
