<svg width="15" height="15" viewBox="0 0 15 15" fill="none" xmlns="http://www.w3.org/2000/svg">
<path d="M10.1363 10.6963L9.81752 12.5456C9.77636 12.6938 9.68931 12.8251 9.56886 12.9207C9.4484 13.0164 9.30075 13.0713 9.1471 13.0778C8.99345 13.0843 8.8417 13.0419 8.71365 12.9567C8.5856 12.8715 8.48784 12.748 8.43439 12.6038L6.69189 7.6775C6.64417 7.54729 6.63466 7.40616 6.66448 7.27073C6.6943 7.13529 6.7622 7.0112 6.8602 6.91308C6.95819 6.81495 7.08219 6.74688 7.21758 6.71688C7.35297 6.68688 7.49412 6.6962 7.62439 6.74375L12.6469 8.48625C12.7961 8.53775 12.9245 8.63636 13.0127 8.76721C13.1009 8.89806 13.1442 9.05405 13.136 9.21166C13.1278 9.36926 13.0686 9.51993 12.9673 9.64094C12.866 9.76195 12.7281 9.84673 12.5744 9.8825L10.6294 10.2013C10.5124 10.2359 10.4059 10.2993 10.3197 10.3857C10.2334 10.472 10.1702 10.5786 10.1356 10.6956" stroke="#212529" stroke-linecap="round" stroke-linejoin="round"/>
<path d="M13.4386 5.82125C13.1259 4.82415 12.5615 3.92449 11.7998 3.20911C11.0381 2.49373 10.1048 1.98679 9.09008 1.73723C8.07535 1.48766 7.01341 1.5039 6.00678 1.78437C5.00016 2.06484 4.08283 2.60007 3.34334 3.3384C2.60386 4.07673 2.0672 4.99323 1.78516 5.99942C1.50313 7.00561 1.48523 8.06752 1.73322 9.08264C1.9812 10.0978 2.48669 11.0318 3.20088 11.7946C3.91507 12.5575 4.81385 13.1233 5.81046 13.4375" stroke="#212529" stroke-linecap="round"/>
</svg>
