<svg width="16" height="16" viewBox="0 0 16 16" fill="none" xmlns="http://www.w3.org/2000/svg">
<g clip-path="url(#clip0_15052_88147)">
<path d="M3.53434 6.87887C3.42435 6.87887 3.31937 6.83313 3.24471 6.75243L2.7184 6.18397C2.57024 6.02387 2.57988 5.77407 2.73985 5.62604C2.89996 5.47751 3.14962 5.48804 3.29765 5.64737L3.53434 5.90308L4.03418 5.36314C4.18234 5.20381 4.432 5.19353 4.59198 5.34181C4.75196 5.48984 4.76159 5.73963 4.61344 5.89974L3.82396 6.75243C3.74931 6.83313 3.64433 6.87887 3.53434 6.87887Z" fill="#1D3557"/>
<path d="M10.904 6.59489H5.64083C5.42278 6.59489 5.24609 6.41808 5.24609 6.20016C5.24609 5.98223 5.42278 5.80542 5.64083 5.80542H10.904C11.122 5.80542 11.2987 5.98223 11.2987 6.20016C11.2987 6.41808 11.122 6.59489 10.904 6.59489Z" fill="#1D3557"/>
<path d="M3.53434 10.0053C3.42435 10.0053 3.31937 9.95959 3.24471 9.8789L2.7184 9.31044C2.57024 9.15033 2.57988 8.90054 2.73985 8.75251C2.89996 8.60397 3.14962 8.61451 3.29765 8.77384L3.53434 9.02954L4.03418 8.48961C4.18234 8.33027 4.432 8.31999 4.59198 8.46828C4.75196 8.6163 4.76159 8.8661 4.61344 9.0262L3.82396 9.8789C3.74931 9.95959 3.64433 10.0053 3.53434 10.0053Z" fill="#1D3557"/>
<path d="M8.53557 9.72111H5.64083C5.42278 9.72111 5.24609 9.5443 5.24609 9.32638C5.24609 9.10845 5.42278 8.93164 5.64083 8.93164H8.53557C8.75362 8.93164 8.9303 9.10845 8.9303 9.32638C8.9303 9.5443 8.75362 9.72111 8.53557 9.72111Z" fill="#1D3557"/>
<path d="M3.53434 13.1317C3.42435 13.1317 3.31937 13.086 3.24471 13.0053L2.7184 12.4368C2.57024 12.2767 2.57988 12.0269 2.73985 11.8789C2.89996 11.7303 3.14962 11.7409 3.29765 11.9002L3.53434 12.1559L4.03418 11.616C4.18234 11.4566 4.432 11.4466 4.59198 11.5946C4.75196 11.7427 4.76159 11.9925 4.61344 12.1526L3.82396 13.0053C3.74931 13.086 3.64433 13.1317 3.53434 13.1317Z" fill="#1D3557"/>
<path d="M8.53557 12.8473H5.64083C5.42278 12.8473 5.24609 12.6705 5.24609 12.4526C5.24609 12.2347 5.42278 12.0579 5.64083 12.0579H8.53557C8.75362 12.0579 8.9303 12.2347 8.9303 12.4526C8.9303 12.6705 8.75362 12.8473 8.53557 12.8473Z" fill="#1D3557"/>
<path d="M10.6062 15.5H2.21937C1.56635 15.5 1.03516 14.9688 1.03516 14.3158V2.73684C1.03516 2.08383 1.56635 1.55263 2.21937 1.55263H5.56345C5.6295 1.31928 5.75427 1.10418 5.9303 0.925576C6.21004 0.649826 6.57291 0.5 6.95621 0.5C7.33951 0.5 7.70238 0.649826 7.97813 0.921463C8.15674 1.10264 8.28241 1.31877 8.34884 1.55263H11.6931C12.3461 1.55263 12.8773 2.08383 12.8773 2.73684V8C12.8773 8.21793 12.7006 8.39474 12.4825 8.39474C12.2645 8.39474 12.0878 8.21793 12.0878 8V2.73684C12.0878 2.51917 11.9107 2.34211 11.6931 2.34211H8.00884C7.79078 2.34211 7.6141 2.16529 7.6141 1.94737C7.6141 1.77287 7.5451 1.60686 7.41982 1.47965C7.17388 1.23705 6.74252 1.23294 6.48862 1.48376C6.36732 1.60686 6.29832 1.77287 6.29832 1.94737C6.29832 2.16529 6.12163 2.34211 5.90358 2.34211H2.21937C2.0017 2.34211 1.82463 2.51917 1.82463 2.73684V14.3158C1.82463 14.5335 2.0017 14.7105 2.21937 14.7105H10.6062C10.8243 14.7105 11.001 14.8873 11.001 15.1053C11.001 15.3232 10.8243 15.5 10.6062 15.5Z" fill="#1D3557"/>
<path d="M8.53351 3.92116H5.37562C4.7226 3.92116 4.19141 3.38996 4.19141 2.73694V1.94747C4.19141 1.72954 4.36809 1.55273 4.58614 1.55273C4.8042 1.55273 4.98088 1.72954 4.98088 1.94747V2.73694C4.98088 2.95462 5.15795 3.13168 5.37562 3.13168H8.53351C8.75118 3.13168 8.92825 2.95462 8.92825 2.73694V1.94747C8.92825 1.72954 9.10493 1.55273 9.32299 1.55273C9.54104 1.55273 9.71772 1.72954 9.71772 1.94747V2.73694C9.71772 3.38996 9.18652 3.92116 8.53351 3.92116Z" fill="#1D3557"/>
<g clip-path="url(#clip1_15052_88147)">
<path fill-rule="evenodd" clip-rule="evenodd" d="M10.7033 9.40792C10.5787 9.40792 10.4648 9.47832 10.409 9.58976L10.171 10.0658H14.2692L14.0311 9.58976C13.9754 9.47832 13.8615 9.40792 13.7369 9.40792H10.7033ZM14.3911 10.4606H10.049V13.4211C10.049 13.6027 10.1963 13.75 10.378 13.75H14.0622C14.2439 13.75 14.3911 13.6027 14.3911 13.4211V10.4606ZM10.056 9.41323C10.1786 9.16805 10.4292 9.01318 10.7033 9.01318H13.7369C14.011 9.01318 14.2616 9.16805 14.3842 9.41323L14.765 10.1749C14.7787 10.2023 14.7859 10.2325 14.7859 10.2632V13.4211C14.7859 13.8208 14.4619 14.1448 14.0622 14.1448H10.378C9.9783 14.1448 9.6543 13.8208 9.6543 13.4211V10.2632C9.6543 10.2325 9.66143 10.2023 9.67513 10.1749L10.056 9.41323Z" fill="#1D3557"/>
<path fill-rule="evenodd" clip-rule="evenodd" d="M11.3652 12.8949C11.3652 12.7859 11.4536 12.6975 11.5626 12.6975H12.8784C12.9874 12.6975 13.0758 12.7859 13.0758 12.8949C13.0758 13.0039 12.9874 13.0922 12.8784 13.0922H11.5626C11.4536 13.0922 11.3652 13.0039 11.3652 12.8949Z" fill="#1D3557"/>
</g>
</g>
<defs>
<clipPath id="clip0_15052_88147">
<rect width="15" height="15" fill="white" transform="translate(1 0.5)"/>
</clipPath>
<clipPath id="clip1_15052_88147">
<rect width="6.31579" height="6.31579" fill="white" transform="translate(9.0625 8.42114)"/>
</clipPath>
</defs>
</svg>
