<svg width="14" height="14" viewBox="0 0 14 14" fill="none" xmlns="http://www.w3.org/2000/svg">
<g clip-path="url(#clip0_10976_89068)">
<path d="M0.500235 7.08203C0.509899 5.97087 0.762467 4.87528 1.24023 3.87203" stroke="#6C757D" stroke-width="1.2" stroke-linecap="round" stroke-linejoin="round"/>
<path d="M7 0.582031C7.85359 0.582031 8.69883 0.750159 9.48744 1.07681C10.2761 1.40347 10.9926 1.88226 11.5962 2.48584C12.8152 3.70482 13.5 5.35812 13.5 7.08203" stroke="#6C757D" stroke-width="1.2" stroke-linecap="round" stroke-linejoin="round"/>
<path d="M5 5.08203L7 7.58203L10 7.58203" stroke="#6C757D" stroke-width="1.2" stroke-linecap="round" stroke-linejoin="round"/>
<path d="M2 1.08203C1.17157 1.08203 0.5 1.7536 0.5 2.58203C0.5 3.41046 1.17157 4.08203 2 4.08203C2.82843 4.08203 3.5 3.41046 3.5 2.58203C3.5 1.7536 2.82843 1.08203 2 1.08203Z" stroke="#6C757D" stroke-width="1.2" stroke-linecap="round" stroke-linejoin="round"/>
<path d="M13.0801 9.48C12.8621 10.0246 12.5693 10.5362 12.2101 11" stroke="#6C757D" stroke-width="1.2" stroke-linecap="round" stroke-linejoin="round"/>
<path d="M10.2812 12.7219C9.71769 13.0473 9.10712 13.2834 8.47125 13.4219" stroke="#6C757D" stroke-width="1.2" stroke-linecap="round" stroke-linejoin="round"/>
<path d="M0.919063 9.48C1.137 10.0246 1.42982 10.5362 1.78906 11" stroke="#6C757D" stroke-width="1.2" stroke-linecap="round" stroke-linejoin="round"/>
<path d="M3.72125 12.7219C4.28481 13.0473 4.89538 13.2834 5.53125 13.4219" stroke="#6C757D" stroke-width="1.2" stroke-linecap="round" stroke-linejoin="round"/>
</g>
<defs>
<clipPath id="clip0_10976_89068">
<rect width="14" height="14" fill="white" transform="matrix(-1 0 0 -1 14 14)"/>
</clipPath>
</defs>
</svg>
