<svg width="14" height="14" viewBox="0 0 14 14" fill="none" xmlns="http://www.w3.org/2000/svg">
<path d="M10.0043 9.47852C10.0908 9.47844 10.1753 9.45274 10.2472 9.40466C10.319 9.35658 10.375 9.28828 10.4081 9.20839C10.4412 9.12849 10.4499 9.04059 10.433 8.95577C10.4162 8.87095 10.3746 8.79303 10.3135 8.73185L6.23012 4.64852C6.14809 4.56659 6.0369 4.52057 5.92096 4.52057C5.80502 4.52057 5.69382 4.56659 5.61179 4.64852L1.52846 8.73185C1.46735 8.79303 1.42574 8.87095 1.4089 8.95577C1.39205 9.04059 1.40071 9.12849 1.43379 9.20839C1.46687 9.28828 1.52289 9.35658 1.59476 9.40466C1.66664 9.45274 1.75115 9.47844 1.83762 9.47852L10.0043 9.47852Z" fill="#2D6CDF"/>
</svg>
