<svg width="13" height="15" viewBox="0 0 13 15" fill="none" xmlns="http://www.w3.org/2000/svg">
<path d="M11 7.77647C11 7.6345 11.0527 7.49835 11.1464 7.39796C11.2402 7.29757 11.3674 7.24118 11.5 7.24118C11.6326 7.24118 11.7598 7.29757 11.8536 7.39796C11.9473 7.49835 12 7.6345 12 7.77647V13.6647C12 13.8067 11.9473 13.9428 11.8536 14.0432C11.7598 14.1436 11.6326 14.2 11.5 14.2H0.5C0.367392 14.2 0.240215 14.1436 0.146447 14.0432C0.0526785 13.9428 0 13.8067 0 13.6647V1.88823C0 1.74626 0.0526785 1.61011 0.146447 1.50972C0.240215 1.40934 0.367392 1.35294 0.5 1.35294H6C6.13261 1.35294 6.25979 1.40934 6.35355 1.50972C6.44732 1.61011 6.5 1.74626 6.5 1.88823C6.5 2.0302 6.44732 2.16636 6.35355 2.26674C6.25979 2.36713 6.13261 2.42353 6 2.42353H1V13.1294H11V7.77647Z" fill="#212529"/>
<path d="M5.20581 8.67006L6.11923 8.53081L11.7304 2.55154C11.7833 2.49711 11.8255 2.432 11.8545 2.36002C11.8835 2.28803 11.8988 2.21061 11.8994 2.13227C11.9 2.05392 11.886 1.97623 11.8582 1.90372C11.8304 1.83121 11.7893 1.76533 11.7373 1.70993C11.6853 1.65453 11.6235 1.61072 11.5555 1.58106C11.4874 1.55139 11.4145 1.53646 11.341 1.53714C11.2675 1.53782 11.1949 1.5541 11.1273 1.58502C11.0598 1.61594 10.9987 1.66089 10.9476 1.71725L5.33535 7.69652L5.2047 8.67006H5.20581ZM12.5132 0.881775C12.6675 1.04616 12.79 1.24134 12.8735 1.45616C12.957 1.67099 13 1.90126 13 2.1338C13 2.36634 12.957 2.59661 12.8735 2.81144C12.79 3.02627 12.6675 3.22145 12.5132 3.38583L6.77247 9.50435C6.68781 9.59491 6.57785 9.65371 6.45913 9.67192L4.63229 9.95041C4.54715 9.96344 4.46033 9.95515 4.37872 9.92619C4.29712 9.89723 4.22296 9.84841 4.16214 9.78358C4.10132 9.71876 4.05551 9.63973 4.02834 9.55275C4.00117 9.46577 3.9934 9.37324 4.00562 9.2825L4.26692 7.33543C4.28369 7.20905 4.33847 7.09187 4.42303 7.00148L10.1649 0.882955C10.4763 0.551119 10.8987 0.364704 11.339 0.364704C11.7794 0.364704 12.2018 0.551119 12.5132 0.882955V0.881775Z" fill="#212529"/>
</svg>
