<svg width="13" height="13" viewBox="0 0 13 13" fill="none" xmlns="http://www.w3.org/2000/svg">
<g clip-path="url(#clip0_348_18207)">
<path d="M9.20833 7.58333C9.35199 7.58333 9.48977 7.52627 9.59135 7.42468C9.69293 7.3231 9.75 7.18533 9.75 7.04167C9.75 6.89801 9.69293 6.76023 9.59135 6.65865C9.48977 6.55707 9.35199 6.5 9.20833 6.5C9.06467 6.5 8.9269 6.55707 8.82532 6.65865C8.72373 6.76023 8.66667 6.89801 8.66667 7.04167C8.66667 7.18533 8.72373 7.3231 8.82532 7.42468C8.9269 7.52627 9.06467 7.58333 9.20833 7.58333ZM9.20833 9.75C9.35199 9.75 9.48977 9.69293 9.59135 9.59135C9.69293 9.48977 9.75 9.35199 9.75 9.20833C9.75 9.06467 9.69293 8.9269 9.59135 8.82532C9.48977 8.72373 9.35199 8.66667 9.20833 8.66667C9.06467 8.66667 8.9269 8.72373 8.82532 8.82532C8.72373 8.9269 8.66667 9.06467 8.66667 9.20833C8.66667 9.35199 8.72373 9.48977 8.82532 9.59135C8.9269 9.69293 9.06467 9.75 9.20833 9.75ZM7.04167 7.04167C7.04167 7.18533 6.9846 7.3231 6.88302 7.42468C6.78143 7.52627 6.64366 7.58333 6.5 7.58333C6.35634 7.58333 6.21857 7.52627 6.11698 7.42468C6.0154 7.3231 5.95833 7.18533 5.95833 7.04167C5.95833 6.89801 6.0154 6.76023 6.11698 6.65865C6.21857 6.55707 6.35634 6.5 6.5 6.5C6.64366 6.5 6.78143 6.55707 6.88302 6.65865C6.9846 6.76023 7.04167 6.89801 7.04167 7.04167ZM7.04167 9.20833C7.04167 9.35199 6.9846 9.48977 6.88302 9.59135C6.78143 9.69293 6.64366 9.75 6.5 9.75C6.35634 9.75 6.21857 9.69293 6.11698 9.59135C6.0154 9.48977 5.95833 9.35199 5.95833 9.20833C5.95833 9.06467 6.0154 8.9269 6.11698 8.82532C6.21857 8.72373 6.35634 8.66667 6.5 8.66667C6.64366 8.66667 6.78143 8.72373 6.88302 8.82532C6.9846 8.9269 7.04167 9.06467 7.04167 9.20833ZM3.79167 7.58333C3.93533 7.58333 4.0731 7.52627 4.17468 7.42468C4.27627 7.3231 4.33333 7.18533 4.33333 7.04167C4.33333 6.89801 4.27627 6.76023 4.17468 6.65865C4.0731 6.55707 3.93533 6.5 3.79167 6.5C3.64801 6.5 3.51023 6.55707 3.40865 6.65865C3.30707 6.76023 3.25 6.89801 3.25 7.04167C3.25 7.18533 3.30707 7.3231 3.40865 7.42468C3.51023 7.52627 3.64801 7.58333 3.79167 7.58333ZM3.79167 9.75C3.93533 9.75 4.0731 9.69293 4.17468 9.59135C4.27627 9.48977 4.33333 9.35199 4.33333 9.20833C4.33333 9.06467 4.27627 8.9269 4.17468 8.82532C4.0731 8.72373 3.93533 8.66667 3.79167 8.66667C3.64801 8.66667 3.51023 8.72373 3.40865 8.82532C3.30707 8.9269 3.25 9.06467 3.25 9.20833C3.25 9.35199 3.30707 9.48977 3.40865 9.59135C3.51023 9.69293 3.64801 9.75 3.79167 9.75Z" fill="#212529"/>
<path fill-rule="evenodd" clip-rule="evenodd" d="M3.78982 0.947754C3.89757 0.947754 4.0009 0.990555 4.07709 1.06674C4.15327 1.14293 4.19607 1.24626 4.19607 1.354V1.7673C4.55466 1.76025 4.94953 1.76025 5.38395 1.76025H7.61182C8.04678 1.76025 8.44166 1.76025 8.80024 1.7673V1.354C8.80024 1.24626 8.84304 1.14293 8.91923 1.06674C8.99541 0.990555 9.09875 0.947754 9.20649 0.947754C9.31423 0.947754 9.41757 0.990555 9.49375 1.06674C9.56994 1.14293 9.61274 1.24626 9.61274 1.354V1.80196C9.75357 1.8128 9.887 1.82652 10.013 1.84313C10.6479 1.92871 11.1619 2.10855 11.5676 2.51371C11.9728 2.91942 12.1526 3.43346 12.2382 4.0683C12.3211 4.6858 12.3211 5.47392 12.3211 6.4695V7.6135C12.3211 8.60909 12.3211 9.39775 12.2382 10.0147C12.1526 10.6495 11.9728 11.1636 11.5676 11.5693C11.1619 11.9745 10.6479 12.1543 10.013 12.2399C9.39553 12.3228 8.60741 12.3228 7.61182 12.3228H5.38503C4.38945 12.3228 3.60078 12.3228 2.98382 12.2399C2.34899 12.1543 1.83495 11.9745 1.42924 11.5693C1.02407 11.1636 0.84424 10.6495 0.758656 10.0147C0.675781 9.39721 0.675781 8.60909 0.675781 7.6135V6.4695C0.675781 5.47392 0.675781 4.68525 0.758656 4.0683C0.84424 3.43346 1.02407 2.91942 1.42924 2.51371C1.83495 2.10855 2.34899 1.92871 2.98382 1.84313C3.11021 1.82652 3.24364 1.8128 3.38411 1.80196V1.354C3.38411 1.24635 3.42684 1.1431 3.50291 1.06693C3.57898 0.990762 3.68217 0.947897 3.78982 0.947754ZM3.09107 2.64859C2.5467 2.72171 2.23253 2.8593 2.00341 3.08842C1.77428 3.31755 1.6367 3.63171 1.56357 4.17609C1.5513 4.26817 1.54082 4.36549 1.53216 4.46805H11.4642C11.4555 4.36549 11.445 4.26799 11.4327 4.17555C11.3596 3.63117 11.222 3.317 10.9929 3.08788C10.7638 2.85875 10.4496 2.72117 9.9047 2.64805C9.34841 2.5733 8.61445 2.57221 7.58149 2.57221H5.41482C4.38186 2.57221 3.64845 2.57384 3.09107 2.64859ZM1.48774 6.49984C1.48774 6.03725 1.48774 5.6348 1.49478 5.28109H11.5015C11.5086 5.6348 11.5086 6.03725 11.5086 6.49984V7.58317C11.5086 8.61613 11.5075 9.35009 11.4327 9.90692C11.3596 10.4513 11.222 10.7655 10.9929 10.9946C10.7638 11.2237 10.4496 11.3613 9.9047 11.4344C9.34841 11.5092 8.61445 11.5103 7.58149 11.5103H5.41482C4.38186 11.5103 3.64845 11.5092 3.09107 11.4344C2.5467 11.3613 2.23253 11.2237 2.00341 10.9946C1.77428 10.7655 1.6367 10.4513 1.56357 9.90638C1.48882 9.35009 1.48774 8.61613 1.48774 7.58317V6.49984Z" fill="#212529"/>
</g>
<defs>
<clipPath id="clip0_348_18207">
<rect width="13" height="13" fill="white"/>
</clipPath>
</defs>
</svg>
