<svg width="13" height="13" viewBox="0 0 13 13" fill="none" xmlns="http://www.w3.org/2000/svg">
<path d="M4.35085 3.7756L4.45694 3.66955L4.45699 3.6696C4.45701 3.66963 4.45703 3.66965 4.45705 3.66967L6.50073 5.71412L8.54451 3.66955L8.54453 3.66954C8.59623 3.61783 8.65761 3.57682 8.72516 3.54884C8.79271 3.52086 8.86511 3.50646 8.93823 3.50646C9.01134 3.50646 9.08374 3.52086 9.15129 3.54884C9.21884 3.57682 9.28022 3.61783 9.33192 3.66954C9.38362 3.72123 9.42463 3.78261 9.45261 3.85016C9.48059 3.91771 9.49499 3.99011 9.49499 4.06323C9.49499 4.13634 9.48059 4.20874 9.45261 4.27629C9.42463 4.34384 9.38362 4.40522 9.33192 4.45692L9.3319 4.45694L7.28734 6.50073L9.3319 8.54451L9.33192 8.54453C9.38362 8.59623 9.42463 8.65761 9.45261 8.72516C9.48059 8.79271 9.49499 8.86511 9.49499 8.93823C9.49499 9.01134 9.48059 9.08374 9.45261 9.15129C9.42463 9.21884 9.38362 9.28022 9.33192 9.33192C9.28022 9.38362 9.21884 9.42463 9.15129 9.45261C9.08374 9.48059 9.01134 9.49499 8.93823 9.49499C8.86511 9.49499 8.79271 9.48059 8.72516 9.45261C8.65761 9.42463 8.59623 9.38362 8.54453 9.33192L8.54451 9.3319L6.50073 7.28734L4.45694 9.3319L4.45692 9.33192C4.40522 9.38362 4.34384 9.42463 4.27629 9.45261C4.20874 9.48059 4.13634 9.49499 4.06323 9.49499C3.99011 9.49499 3.91771 9.48059 3.85016 9.45261C3.78261 9.42463 3.72123 9.38362 3.66954 9.33192C3.61783 9.28022 3.57682 9.21884 3.54884 9.15129C3.52086 9.08374 3.50646 9.01134 3.50646 8.93823C3.50646 8.86511 3.52086 8.79271 3.54884 8.72516C3.57682 8.65761 3.61783 8.59623 3.66954 8.54453L3.66955 8.54451L5.71412 6.50073L3.66967 4.45705L3.7756 4.35085L3.66955 4.45694L3.6696 4.45699C3.61783 4.40533 3.57676 4.34397 3.54873 4.27642C3.52068 4.20884 3.50625 4.13639 3.50625 4.06323C3.50625 3.99006 3.52068 3.91761 3.54873 3.85003C3.57677 3.78245 3.61787 3.72107 3.66967 3.6694L3.7756 3.7756C3.81334 3.73777 3.85817 3.70775 3.90752 3.68727C3.95688 3.66679 4.00979 3.65625 4.06323 3.65625C4.11666 3.65625 4.16957 3.66679 4.21893 3.68727C4.26828 3.70775 4.31311 3.73777 4.35085 3.7756ZM4.35085 3.7756L6.39468 5.8202L4.35085 3.7756Z" fill="#2D6CDF" stroke="#2D6CDF" stroke-width="0.3"/>
</svg>
