<svg width="24" height="24" viewBox="0 0 24 24" fill="none" xmlns="http://www.w3.org/2000/svg">
<circle opacity="0.1" cx="12" cy="12" r="12" fill="#2D6CDF"/>
<path d="M14.7083 13.0833C14.852 13.0833 14.9898 13.0263 15.0914 12.9247C15.1929 12.8231 15.25 12.6853 15.25 12.5417C15.25 12.398 15.1929 12.2602 15.0914 12.1587C14.9898 12.0571 14.852 12 14.7083 12C14.5647 12 14.4269 12.0571 14.3253 12.1587C14.2237 12.2602 14.1667 12.398 14.1667 12.5417C14.1667 12.6853 14.2237 12.8231 14.3253 12.9247C14.4269 13.0263 14.5647 13.0833 14.7083 13.0833ZM14.7083 15.25C14.852 15.25 14.9898 15.1929 15.0914 15.0914C15.1929 14.9898 15.25 14.852 15.25 14.7083C15.25 14.5647 15.1929 14.4269 15.0914 14.3253C14.9898 14.2237 14.852 14.1667 14.7083 14.1667C14.5647 14.1667 14.4269 14.2237 14.3253 14.3253C14.2237 14.4269 14.1667 14.5647 14.1667 14.7083C14.1667 14.852 14.2237 14.9898 14.3253 15.0914C14.4269 15.1929 14.5647 15.25 14.7083 15.25ZM12.5417 12.5417C12.5417 12.6853 12.4846 12.8231 12.383 12.9247C12.2814 13.0263 12.1437 13.0833 12 13.0833C11.8563 13.0833 11.7186 13.0263 11.617 12.9247C11.5154 12.8231 11.4583 12.6853 11.4583 12.5417C11.4583 12.398 11.5154 12.2602 11.617 12.1587C11.7186 12.0571 11.8563 12 12 12C12.1437 12 12.2814 12.0571 12.383 12.1587C12.4846 12.2602 12.5417 12.398 12.5417 12.5417ZM12.5417 14.7083C12.5417 14.852 12.4846 14.9898 12.383 15.0914C12.2814 15.1929 12.1437 15.25 12 15.25C11.8563 15.25 11.7186 15.1929 11.617 15.0914C11.5154 14.9898 11.4583 14.852 11.4583 14.7083C11.4583 14.5647 11.5154 14.4269 11.617 14.3253C11.7186 14.2237 11.8563 14.1667 12 14.1667C12.1437 14.1667 12.2814 14.2237 12.383 14.3253C12.4846 14.4269 12.5417 14.5647 12.5417 14.7083ZM9.29167 13.0833C9.43533 13.0833 9.5731 13.0263 9.67468 12.9247C9.77627 12.8231 9.83333 12.6853 9.83333 12.5417C9.83333 12.398 9.77627 12.2602 9.67468 12.1587C9.5731 12.0571 9.43533 12 9.29167 12C9.14801 12 9.01023 12.0571 8.90865 12.1587C8.80707 12.2602 8.75 12.398 8.75 12.5417C8.75 12.6853 8.80707 12.8231 8.90865 12.9247C9.01023 13.0263 9.14801 13.0833 9.29167 13.0833ZM9.29167 15.25C9.43533 15.25 9.5731 15.1929 9.67468 15.0914C9.77627 14.9898 9.83333 14.852 9.83333 14.7083C9.83333 14.5647 9.77627 14.4269 9.67468 14.3253C9.5731 14.2237 9.43533 14.1667 9.29167 14.1667C9.14801 14.1667 9.01023 14.2237 8.90865 14.3253C8.80707 14.4269 8.75 14.5647 8.75 14.7083C8.75 14.852 8.80707 14.9898 8.90865 15.0914C9.01023 15.1929 9.14801 15.25 9.29167 15.25Z" fill="#2D6CDF"/>
<path fill-rule="evenodd" clip-rule="evenodd" d="M9.29178 6.44922C9.39952 6.44922 9.50285 6.49202 9.57904 6.56821C9.65523 6.64439 9.69803 6.74772 9.69803 6.85547V7.26876C10.0566 7.26172 10.4515 7.26172 10.8859 7.26172H13.1138C13.5487 7.26172 13.9436 7.26172 14.3022 7.26876V6.85547C14.3022 6.74772 14.345 6.64439 14.4212 6.56821C14.4974 6.49202 14.6007 6.44922 14.7084 6.44922C14.8162 6.44922 14.9195 6.49202 14.9957 6.56821C15.0719 6.64439 15.1147 6.74772 15.1147 6.85547V7.30343C15.2555 7.31426 15.389 7.32798 15.515 7.34459C16.1498 7.43018 16.6639 7.61001 17.0696 8.01518C17.4747 8.42089 17.6546 8.93493 17.7402 9.56976C17.823 10.1873 17.823 10.9754 17.823 11.971V13.115C17.823 14.1106 17.823 14.8992 17.7402 15.5162C17.6546 16.151 17.4747 16.6651 17.0696 17.0708C16.6639 17.4759 16.1498 17.6558 15.515 17.7413C14.8975 17.8242 14.1094 17.8242 13.1138 17.8242H10.887C9.8914 17.8242 9.10273 17.8242 8.48578 17.7413C7.85094 17.6558 7.3369 17.4759 6.93119 17.0708C6.52603 16.6651 6.34619 16.151 6.26061 15.5162C6.17773 14.8987 6.17773 14.1106 6.17773 13.115V11.971C6.17773 10.9754 6.17773 10.1867 6.26061 9.56976C6.34619 8.93493 6.52603 8.42089 6.93119 8.01518C7.3369 7.61001 7.85094 7.43018 8.48578 7.34459C8.61217 7.32798 8.7456 7.31426 8.88607 7.30343V6.85547C8.88607 6.74782 8.92879 6.64457 9.00486 6.5684C9.08093 6.49223 9.18413 6.44936 9.29178 6.44922ZM8.59303 8.15005C8.04865 8.22318 7.73448 8.36076 7.50536 8.58989C7.27623 8.81901 7.13865 9.13318 7.06553 9.67755C7.05325 9.76964 7.04278 9.86695 7.03411 9.96951H16.9661C16.9574 9.86695 16.947 9.76945 16.9347 9.67701C16.8616 9.13264 16.724 8.81847 16.4949 8.58934C16.2657 8.36022 15.9516 8.22264 15.4067 8.14951C14.8504 8.07476 14.1164 8.07368 13.0834 8.07368H10.9168C9.88382 8.07368 9.1504 8.0753 8.59303 8.15005ZM6.98969 12.0013C6.98969 11.5387 6.98969 11.1363 6.99673 10.7826H17.0035C17.0105 11.1363 17.0105 11.5387 17.0105 12.0013V13.0846C17.0105 14.1176 17.0094 14.8516 16.9347 15.4084C16.8616 15.9528 16.724 16.2669 16.4949 16.4961C16.2657 16.7252 15.9516 16.8628 15.4067 16.9359C14.8504 17.0106 14.1164 17.0117 13.0834 17.0117H10.9168C9.88382 17.0117 9.1504 17.0106 8.59303 16.9359C8.04865 16.8628 7.73448 16.7252 7.50536 16.4961C7.27623 16.2669 7.13865 15.9528 7.06553 15.4078C6.99078 14.8516 6.98969 14.1176 6.98969 13.0846V12.0013Z" fill="#2D6CDF"/>
</svg>
