<svg width="17" height="18" viewBox="0 0 17 18" fill="none" xmlns="http://www.w3.org/2000/svg">
<g clip-path="url(#clip0_13255_135761)">
<path d="M8.5 0.5C3.81281 0.5 0 4.31281 0 9C0 13.6872 3.81281 17.5 8.5 17.5C13.1872 17.5 17 13.6865 17 9C17 4.31348 13.1872 0.5 8.5 0.5ZM8.5 16.1832C4.5397 16.1832 1.3168 12.961 1.3168 9C1.3168 5.03903 4.5397 1.8168 8.5 1.8168C12.4603 1.8168 15.6832 5.03903 15.6832 9C15.6832 12.961 12.461 16.1832 8.5 16.1832Z" fill="#1D3557"/>
<path d="M11.792 8.28226H9.15842V5.64865C9.15842 5.28521 8.86411 4.99023 8.5 4.99023C8.1359 4.99023 7.84158 5.28521 7.84158 5.64865V8.28226H5.20798C4.84387 8.28226 4.54956 8.57723 4.54956 8.94068C4.54956 9.30412 4.84387 9.59909 5.20798 9.59909H7.84158V12.2327C7.84158 12.5961 8.1359 12.8911 8.5 12.8911C8.86411 12.8911 9.15842 12.5961 9.15842 12.2327V9.59909H11.792C12.1561 9.59909 12.4504 9.30412 12.4504 8.94068C12.4504 8.57723 12.1561 8.28226 11.792 8.28226Z" fill="#1D3557"/>
</g>
<defs>
<clipPath id="clip0_13255_135761">
<rect width="17" height="17" fill="white" transform="translate(0 0.5)"/>
</clipPath>
</defs>
</svg>
