<svg width="17" height="17" viewBox="0 0 17 17" fill="none" xmlns="http://www.w3.org/2000/svg">
<path d="M12.0417 9.91667C12.2295 9.91667 12.4097 9.84204 12.5425 9.7092C12.6754 9.57636 12.75 9.39619 12.75 9.20833C12.75 9.02047 12.6754 8.8403 12.5425 8.70747C12.4097 8.57463 12.2295 8.5 12.0417 8.5C11.8538 8.5 11.6736 8.57463 11.5408 8.70747C11.408 8.8403 11.3333 9.02047 11.3333 9.20833C11.3333 9.39619 11.408 9.57636 11.5408 9.7092C11.6736 9.84204 11.8538 9.91667 12.0417 9.91667ZM12.0417 12.75C12.2295 12.75 12.4097 12.6754 12.5425 12.5425C12.6754 12.4097 12.75 12.2295 12.75 12.0417C12.75 11.8538 12.6754 11.6736 12.5425 11.5408C12.4097 11.408 12.2295 11.3333 12.0417 11.3333C11.8538 11.3333 11.6736 11.408 11.5408 11.5408C11.408 11.6736 11.3333 11.8538 11.3333 12.0417C11.3333 12.2295 11.408 12.4097 11.5408 12.5425C11.6736 12.6754 11.8538 12.75 12.0417 12.75ZM9.20833 9.20833C9.20833 9.39619 9.13371 9.57636 9.00087 9.7092C8.86803 9.84204 8.68786 9.91667 8.5 9.91667C8.31214 9.91667 8.13197 9.84204 7.99913 9.7092C7.86629 9.57636 7.79167 9.39619 7.79167 9.20833C7.79167 9.02047 7.86629 8.8403 7.99913 8.70747C8.13197 8.57463 8.31214 8.5 8.5 8.5C8.68786 8.5 8.86803 8.57463 9.00087 8.70747C9.13371 8.8403 9.20833 9.02047 9.20833 9.20833ZM9.20833 12.0417C9.20833 12.2295 9.13371 12.4097 9.00087 12.5425C8.86803 12.6754 8.68786 12.75 8.5 12.75C8.31214 12.75 8.13197 12.6754 7.99913 12.5425C7.86629 12.4097 7.79167 12.2295 7.79167 12.0417C7.79167 11.8538 7.86629 11.6736 7.99913 11.5408C8.13197 11.408 8.31214 11.3333 8.5 11.3333C8.68786 11.3333 8.86803 11.408 9.00087 11.5408C9.13371 11.6736 9.20833 11.8538 9.20833 12.0417ZM4.95833 9.91667C5.14619 9.91667 5.32636 9.84204 5.4592 9.7092C5.59204 9.57636 5.66667 9.39619 5.66667 9.20833C5.66667 9.02047 5.59204 8.8403 5.4592 8.70747C5.32636 8.57463 5.14619 8.5 4.95833 8.5C4.77047 8.5 4.5903 8.57463 4.45747 8.70747C4.32463 8.8403 4.25 9.02047 4.25 9.20833C4.25 9.39619 4.32463 9.57636 4.45747 9.7092C4.5903 9.84204 4.77047 9.91667 4.95833 9.91667ZM4.95833 12.75C5.14619 12.75 5.32636 12.6754 5.4592 12.5425C5.59204 12.4097 5.66667 12.2295 5.66667 12.0417C5.66667 11.8538 5.59204 11.6736 5.4592 11.5408C5.32636 11.408 5.14619 11.3333 4.95833 11.3333C4.77047 11.3333 4.5903 11.408 4.45747 11.5408C4.32463 11.6736 4.25 11.8538 4.25 12.0417C4.25 12.2295 4.32463 12.4097 4.45747 12.5425C4.5903 12.6754 4.77047 12.75 4.95833 12.75Z" fill="#6C757D"/>
<path fill-rule="evenodd" clip-rule="evenodd" d="M4.95868 1.23828C5.09958 1.23828 5.23471 1.29425 5.33433 1.39388C5.43396 1.49351 5.48993 1.62863 5.48993 1.76953V2.30999C5.95885 2.30078 6.47522 2.30078 7.04331 2.30078H9.95668C10.5255 2.30078 11.0419 2.30078 11.5108 2.30999V1.76953C11.5108 1.62863 11.5667 1.49351 11.6664 1.39388C11.766 1.29425 11.9011 1.23828 12.042 1.23828C12.1829 1.23828 12.318 1.29425 12.4177 1.39388C12.5173 1.49351 12.5733 1.62863 12.5733 1.76953V2.35532C12.7574 2.36949 12.9319 2.38743 13.0967 2.40916C13.9269 2.52107 14.5991 2.75624 15.1296 3.28607C15.6595 3.81661 15.8946 4.48882 16.0066 5.31899C16.1149 6.12649 16.1149 7.15711 16.1149 8.45903V9.95503C16.1149 11.2569 16.1149 12.2883 16.0066 13.0951C15.8946 13.9252 15.6595 14.5974 15.1296 15.128C14.5991 15.6578 13.9269 15.893 13.0967 16.0049C12.2892 16.1133 11.2586 16.1133 9.95668 16.1133H7.04472C5.74281 16.1133 4.71148 16.1133 3.90468 16.0049C3.07452 15.893 2.40231 15.6578 1.87177 15.128C1.34193 14.5974 1.10677 13.9252 0.99485 13.0951C0.886475 12.2876 0.886475 11.2569 0.886475 9.95503V8.45903C0.886475 7.15711 0.886475 6.12578 0.99485 5.31899C1.10677 4.48882 1.34193 3.81661 1.87177 3.28607C2.40231 2.75624 3.07452 2.52107 3.90468 2.40916C4.06996 2.38743 4.24445 2.36949 4.42814 2.35532V1.76953C4.42814 1.62876 4.48402 1.49374 4.58349 1.39413C4.68297 1.29452 4.81791 1.23847 4.95868 1.23828ZM4.04493 3.46245C3.33306 3.55807 2.92222 3.73799 2.6226 4.03761C2.32297 4.33724 2.14306 4.74807 2.04743 5.45995C2.03138 5.58036 2.01768 5.70763 2.00635 5.84174H14.9944C14.983 5.70763 14.9693 5.58013 14.9533 5.45924C14.8576 4.74736 14.6777 4.33653 14.3781 4.03691C14.0785 3.73728 13.6676 3.55736 12.9551 3.46174C12.2276 3.36399 11.2678 3.36257 9.91702 3.36257H7.08368C5.73289 3.36257 4.77381 3.3647 4.04493 3.46245ZM1.94827 8.4987C1.94827 7.89378 1.94827 7.36749 1.95747 6.90495H15.0432C15.0524 7.36749 15.0524 7.89378 15.0524 8.4987V9.91536C15.0524 11.2662 15.051 12.2259 14.9533 12.9541C14.8576 13.666 14.6777 14.0768 14.3781 14.3764C14.0785 14.6761 13.6676 14.856 12.9551 14.9516C12.2276 15.0494 11.2678 15.0508 9.91702 15.0508H7.08368C5.73289 15.0508 4.77381 15.0494 4.04493 14.9516C3.33306 14.856 2.92222 14.6761 2.6226 14.3764C2.32297 14.0768 2.14306 13.666 2.04743 12.9534C1.94968 12.2259 1.94827 11.2662 1.94827 9.91536V8.4987Z" fill="#6C757D"/>
</svg>
