<svg width="14" height="14" viewBox="0 0 14 14" fill="none" xmlns="http://www.w3.org/2000/svg">
<path d="M6.03942 2.484H8.64726C8.64726 2.12886 8.50988 1.78826 8.26535 1.53713C8.02082 1.28601 7.68916 1.14493 7.34334 1.14493C6.99752 1.14493 6.66586 1.28601 6.42133 1.53713C6.17679 1.78826 6.03942 2.12886 6.03942 2.484ZM5.06148 2.484C5.06148 2.17626 5.1205 1.87154 5.23517 1.58723C5.34985 1.30292 5.51793 1.04459 5.72982 0.826984C5.94171 0.609381 6.19326 0.43677 6.47011 0.319004C6.74696 0.201238 7.04368 0.140625 7.34334 0.140625C7.643 0.140625 7.93972 0.201238 8.21657 0.319004C8.49342 0.43677 8.74497 0.609381 8.95686 0.826984C9.16875 1.04459 9.33683 1.30292 9.4515 1.58723C9.56618 1.87154 9.6252 2.17626 9.6252 2.484H13.374C13.5037 2.484 13.628 2.53691 13.7197 2.63108C13.8114 2.72525 13.8629 2.85297 13.8629 2.98615C13.8629 3.11933 13.8114 3.24706 13.7197 3.34123C13.628 3.4354 13.5037 3.48831 13.374 3.48831H12.5134L11.7506 11.5971C11.6921 12.2184 11.4103 12.795 10.9602 13.2145C10.5101 13.6341 9.924 13.8663 9.31617 13.8661H5.3705C4.76279 13.8662 4.17683 13.6338 3.72688 13.2143C3.27693 12.7948 2.99524 12.2183 2.93674 11.5971L2.17329 3.48831H1.3127C1.18302 3.48831 1.05865 3.4354 0.966947 3.34123C0.875247 3.24706 0.82373 3.11933 0.82373 2.98615C0.82373 2.85297 0.875247 2.72525 0.966947 2.63108C1.05865 2.53691 1.18302 2.484 1.3127 2.484H5.06148ZM6.3654 5.6643C6.3654 5.53112 6.31388 5.40339 6.22218 5.30922C6.13048 5.21505 6.00611 5.16215 5.87643 5.16215C5.74674 5.16215 5.62237 5.21505 5.53067 5.30922C5.43897 5.40339 5.38746 5.53112 5.38746 5.6643V10.6858C5.38746 10.819 5.43897 10.9467 5.53067 11.0409C5.62237 11.1351 5.74674 11.188 5.87643 11.188C6.00611 11.188 6.13048 11.1351 6.22218 11.0409C6.31388 10.9467 6.3654 10.819 6.3654 10.6858V5.6643ZM8.81025 5.16215C8.93993 5.16215 9.0643 5.21505 9.156 5.30922C9.2477 5.40339 9.29922 5.53112 9.29922 5.6643V10.6858C9.29922 10.819 9.2477 10.9467 9.156 11.0409C9.0643 11.1351 8.93993 11.188 8.81025 11.188C8.68057 11.188 8.5562 11.1351 8.4645 11.0409C8.3728 10.9467 8.32128 10.819 8.32128 10.6858V5.6643C8.32128 5.53112 8.3728 5.40339 8.4645 5.30922C8.5562 5.21505 8.68057 5.16215 8.81025 5.16215ZM3.91011 11.5006C3.94528 11.8733 4.11434 12.2192 4.38433 12.4709C4.65432 12.7225 5.00589 12.8619 5.3705 12.8618H9.31617C9.68078 12.8619 10.0324 12.7225 10.3023 12.4709C10.5723 12.2192 10.7414 11.8733 10.7766 11.5006L11.5315 3.48831H3.15514L3.91011 11.5006Z" fill="#212529"/>
</svg>
