<svg width="26" height="26" viewBox="0 0 26 26" fill="none" xmlns="http://www.w3.org/2000/svg">
<circle cx="13" cy="13" r="13" fill="#E63946" fill-opacity="0.1"/>
<path d="M8.33333 19.2632C7.90556 19.2632 7.53948 19.119 7.23511 18.8306C6.93074 18.5423 6.7783 18.1952 6.77778 17.7895V8.21053H6.75833C6.53796 8.21053 6.35648 8.13979 6.21389 7.99832C6.0713 7.85684 6 7.68196 6 7.47368C6 7.2654 6.07467 7.09053 6.224 6.94905C6.37333 6.80758 6.55793 6.73684 6.77778 6.73684H9.88889C9.88889 6.52807 9.96356 6.35319 10.1129 6.21221C10.2622 6.07123 10.4468 6.00049 10.6667 6H13.7778C13.9981 6 14.183 6.07074 14.3323 6.21221C14.4817 6.35368 14.5561 6.52856 14.5556 6.73684H17.6667C17.887 6.73684 18.0719 6.80758 18.2212 6.94905C18.3706 7.09053 18.445 7.2654 18.4444 7.47368C18.4439 7.68196 18.3693 7.85709 18.2204 7.99905C18.0716 8.14102 17.887 8.21151 17.6667 8.21053V10.7895C17.6667 10.9982 17.592 11.1734 17.4427 11.3148C17.2933 11.4563 17.1087 11.5268 16.8889 11.5263C16.669 11.5258 16.4844 11.4551 16.3351 11.3141C16.1858 11.1731 16.1111 10.9982 16.1111 10.7895V8.21053H8.33333V17.7895H10.4139C10.6343 17.7895 10.8191 17.8602 10.9684 18.0017C11.1178 18.1432 11.1922 18.318 11.1917 18.5263C11.1917 18.7228 11.117 18.8947 10.9677 19.0421C10.8183 19.1895 10.6337 19.2632 10.4139 19.2632H8.33333ZM10.6667 9.68421C10.4463 9.68421 10.2617 9.75495 10.1129 9.89642C9.96407 10.0379 9.88941 10.2128 9.88889 10.4211V15.5789C9.88889 15.7877 9.96356 15.9628 10.1129 16.1043C10.2622 16.2458 10.4468 16.3163 10.6667 16.3158C10.8865 16.3153 11.0714 16.2446 11.2212 16.1036C11.3711 15.9626 11.4455 15.7877 11.4444 15.5789V10.4211C11.4444 10.2123 11.3698 10.0374 11.2204 9.89642C11.0711 9.75544 10.8865 9.6847 10.6667 9.68421ZM13.7778 9.68421C13.5574 9.68421 13.3728 9.75495 13.224 9.89642C13.0752 10.0379 13.0005 10.2128 13 10.4211V11.5263C13 11.7351 13.0747 11.9102 13.224 12.0517C13.3733 12.1932 13.5579 12.2636 13.7778 12.2632C13.9976 12.2627 14.1825 12.1919 14.3323 12.0509C14.4822 11.91 14.5566 11.7351 14.5556 11.5263V10.4211C14.5556 10.2123 14.4809 10.0374 14.3316 9.89642C14.1822 9.75544 13.9976 9.6847 13.7778 9.68421ZM16.1111 20C15.0352 20 14.1182 19.6407 13.3601 18.922C12.602 18.2033 12.2227 17.3346 12.2222 16.3158C12.2217 15.297 12.601 14.4282 13.3601 13.7096C14.1192 12.9909 15.0362 12.6316 16.1111 12.6316C16.6426 12.6316 17.145 12.7298 17.6184 12.9263C18.0919 13.1228 18.5033 13.3868 18.8528 13.7184C19.2023 14.05 19.481 14.44 19.6889 14.8885C19.8968 15.337 20.0005 15.8128 20 16.3158C20 17.3351 19.6207 18.2041 18.8621 18.9227C18.1035 19.6414 17.1865 20.0005 16.1111 20ZM16.5 16.1684V14.4737C16.5 14.3754 16.4611 14.2895 16.3833 14.2158C16.3056 14.1421 16.2148 14.1053 16.1111 14.1053C16.0074 14.1053 15.9167 14.1421 15.8389 14.2158C15.7611 14.2895 15.7222 14.3754 15.7222 14.4737V16.15C15.7222 16.2482 15.7417 16.3435 15.7806 16.4359C15.8194 16.5282 15.8778 16.611 15.9556 16.6842L17.1222 17.7895C17.2 17.8632 17.2907 17.9 17.3944 17.9C17.4981 17.9 17.5889 17.8632 17.6667 17.7895C17.7444 17.7158 17.7833 17.6298 17.7833 17.5316C17.7833 17.4333 17.7444 17.3474 17.6667 17.2737L16.5 16.1684Z" fill="#E63946"/>
</svg>
