<svg width="34" height="34" viewBox="0 0 34 34" fill="none" xmlns="http://www.w3.org/2000/svg">
<path d="M15.6 10.4146H19.4C19.4 9.89714 19.1998 9.40084 18.8435 9.03491C18.4872 8.66899 18.0039 8.46341 17.5 8.46341C16.9961 8.46341 16.5128 8.66899 16.1565 9.03491C15.8002 9.40084 15.6 9.89714 15.6 10.4146ZM14.175 10.4146C14.175 9.96622 14.261 9.52219 14.4281 9.10791C14.5952 8.69363 14.8401 8.3172 15.1489 8.00012C15.4576 7.68305 15.8242 7.43153 16.2276 7.25992C16.631 7.08832 17.0634 7 17.5 7C17.9366 7 18.369 7.08832 18.7724 7.25992C19.1758 7.43153 19.5424 7.68305 19.8511 8.00012C20.1599 8.3172 20.4048 8.69363 20.5719 9.10791C20.739 9.52219 20.825 9.96622 20.825 10.4146H26.2875C26.4765 10.4146 26.6577 10.4917 26.7913 10.6289C26.9249 10.7662 27 10.9523 27 11.1463C27 11.3404 26.9249 11.5265 26.7913 11.6637C26.6577 11.801 26.4765 11.878 26.2875 11.878H25.0335L23.922 23.6937C23.8367 24.599 23.4261 25.4393 22.7703 26.0506C22.1145 26.6619 21.2604 27.0003 20.3747 27H14.6253C13.7398 27.0001 12.8859 26.6615 12.2303 26.0502C11.5747 25.439 11.1642 24.5988 11.079 23.6937L9.9665 11.878H8.7125C8.52353 11.878 8.34231 11.801 8.20869 11.6637C8.07507 11.5265 8 11.3404 8 11.1463C8 10.9523 8.07507 10.7662 8.20869 10.6289C8.34231 10.4917 8.52353 10.4146 8.7125 10.4146H14.175ZM16.075 15.0488C16.075 14.8547 15.9999 14.6686 15.8663 14.5314C15.7327 14.3942 15.5515 14.3171 15.3625 14.3171C15.1735 14.3171 14.9923 14.3942 14.8587 14.5314C14.7251 14.6686 14.65 14.8547 14.65 15.0488V22.3659C14.65 22.5599 14.7251 22.746 14.8587 22.8832C14.9923 23.0205 15.1735 23.0976 15.3625 23.0976C15.5515 23.0976 15.7327 23.0205 15.8663 22.8832C15.9999 22.746 16.075 22.5599 16.075 22.3659V15.0488ZM19.6375 14.3171C19.8265 14.3171 20.0077 14.3942 20.1413 14.5314C20.2749 14.6686 20.35 14.8547 20.35 15.0488V22.3659C20.35 22.5599 20.2749 22.746 20.1413 22.8832C20.0077 23.0205 19.8265 23.0976 19.6375 23.0976C19.4485 23.0976 19.2673 23.0205 19.1337 22.8832C19.0001 22.746 18.925 22.5599 18.925 22.3659V15.0488C18.925 14.8547 19.0001 14.6686 19.1337 14.5314C19.2673 14.3942 19.4485 14.3171 19.6375 14.3171ZM12.4973 23.5532C12.5485 24.0962 12.7949 24.6002 13.1883 24.9669C13.5817 25.3336 14.094 25.5367 14.6253 25.5366H20.3747C20.906 25.5367 21.4183 25.3336 21.8117 24.9669C22.2051 24.6002 22.4515 24.0962 22.5027 23.5532L23.6028 11.878H11.3972L12.4973 23.5532Z" fill="#6C757D"/>
</svg>
