<svg width="27" height="27" viewBox="0 0 27 27" fill="none" xmlns="http://www.w3.org/2000/svg">
<rect width="27" height="27" rx="13.5" fill="#6C757D" fill-opacity="0.1"/>
<path d="M8.38604 11.5636C8.35986 11.4832 8.34965 11.3982 8.356 11.3137C8.36236 11.2291 8.38516 11.1468 8.42305 11.0715C8.46093 10.9961 8.51314 10.9294 8.57657 10.8753C8.64 10.8211 8.71336 10.7806 8.79231 10.7561C8.87125 10.7316 8.95417 10.7237 9.03615 10.7328C9.11812 10.7419 9.19749 10.7678 9.26954 10.809C9.34159 10.8503 9.40486 10.9059 9.45559 10.9728C9.50633 11.0396 9.54349 11.1163 9.56489 11.1981C10.8497 15.6228 16.9447 15.6234 18.2307 11.2007C18.2537 11.1209 18.2918 11.0466 18.3428 10.982C18.3938 10.9174 18.4566 10.8637 18.5278 10.8241C18.5989 10.7844 18.677 10.7596 18.7575 10.7509C18.8379 10.7423 18.9193 10.7501 18.9969 10.7738C19.0744 10.7975 19.1467 10.8367 19.2095 10.8891C19.2724 10.9415 19.3245 11.0062 19.3631 11.0793C19.4016 11.1525 19.4258 11.2327 19.4342 11.3155C19.4426 11.3983 19.435 11.4819 19.412 11.5617C19.188 12.3542 18.8079 13.0909 18.2953 13.7259L19.0806 14.534C19.1928 14.6535 19.2549 14.8135 19.2535 14.9795C19.2521 15.1456 19.1873 15.3045 19.0731 15.4219C18.9589 15.5393 18.8044 15.6059 18.643 15.6074C18.4815 15.6088 18.3259 15.545 18.2097 15.4296L17.4023 14.5993C16.9666 14.9373 16.4852 15.2081 15.9734 15.403L16.1933 16.2485C16.2167 16.3296 16.2241 16.4148 16.2151 16.4989C16.206 16.583 16.1806 16.6643 16.1405 16.7382C16.1003 16.812 16.0462 16.8769 15.9813 16.9289C15.9163 16.9808 15.842 17.0189 15.7625 17.0408C15.683 17.0628 15.6001 17.0681 15.5186 17.0565C15.4371 17.0449 15.3586 17.0166 15.2879 16.9734C15.2172 16.9301 15.1557 16.8727 15.1069 16.8046C15.0581 16.7364 15.0231 16.6589 15.0039 16.5766L14.7798 15.7172C14.1965 15.8058 13.6003 15.8058 13.017 15.7172L12.7928 16.5766C12.7737 16.6589 12.7387 16.7364 12.6899 16.8046C12.6411 16.8727 12.5796 16.9301 12.5089 16.9734C12.4381 17.0166 12.3597 17.0449 12.2782 17.0565C12.1967 17.0681 12.1138 17.0628 12.0343 17.0408C11.9548 17.0189 11.8804 16.9808 11.8155 16.9289C11.7506 16.8769 11.6965 16.812 11.6563 16.7382C11.6161 16.6643 11.5908 16.583 11.5817 16.4989C11.5727 16.4148 11.5801 16.3296 11.6035 16.2485L11.8234 15.403C11.3116 15.2079 10.8302 14.9369 10.3945 14.5986L9.58767 15.4296C9.47219 15.5485 9.31549 15.6154 9.15205 15.6155C8.98861 15.6157 8.83182 15.549 8.71617 15.4302C8.60052 15.3115 8.53548 15.1503 8.53537 14.9823C8.53525 14.8142 8.60007 14.653 8.71555 14.534L9.50083 13.7265C9.01796 13.1337 8.63241 12.4129 8.38481 11.5642L8.38604 11.5636Z" fill="#6C757D"/>
</svg>
