<svg width="22" height="22" viewBox="0 0 22 22" fill="none" xmlns="http://www.w3.org/2000/svg">
<path d="M16.5385 11.1068C16.5385 10.9324 16.6033 10.7651 16.7187 10.6418C16.8341 10.5184 16.9906 10.4491 17.1538 10.4491C17.3171 10.4491 17.4736 10.5184 17.589 10.6418C17.7044 10.7651 17.7692 10.9324 17.7692 11.1068V18.342C17.7692 18.5164 17.7044 18.6837 17.589 18.8071C17.4736 18.9304 17.3171 18.9997 17.1538 18.9997H3.61538C3.45217 18.9997 3.29565 18.9304 3.18024 18.8071C3.06484 18.6837 3 18.5164 3 18.342V3.87173C3 3.69728 3.06484 3.52999 3.18024 3.40664C3.29565 3.28329 3.45217 3.21399 3.61538 3.21399H10.3846C10.5478 3.21399 10.7044 3.28329 10.8198 3.40664C10.9352 3.52999 11 3.69728 11 3.87173C11 4.04617 10.9352 4.21347 10.8198 4.33682C10.7044 4.46017 10.5478 4.52947 10.3846 4.52947H4.23077V17.6842H16.5385V11.1068Z" fill="#6C757D"/>
<path d="M9.4079 12.2051L10.5321 12.034L17.4382 4.68705C17.5033 4.62017 17.5552 4.54018 17.5909 4.45172C17.6266 4.36327 17.6454 4.26814 17.6462 4.17188C17.647 4.07562 17.6297 3.98015 17.5955 3.89105C17.5612 3.80195 17.5106 3.72101 17.4466 3.65294C17.3827 3.58487 17.3066 3.53103 17.2229 3.49458C17.1391 3.45813 17.0494 3.43979 16.9589 3.44062C16.8685 3.44146 16.7791 3.46146 16.6959 3.49945C16.6128 3.53745 16.5376 3.59268 16.4748 3.66192L9.56733 11.0089L9.40653 12.2051H9.4079ZM18.4016 2.63535C18.5915 2.83733 18.7422 3.07715 18.845 3.34112C18.9478 3.60509 19.0008 3.88803 19.0008 4.17376C19.0008 4.4595 18.9478 4.74243 18.845 5.0064C18.7422 5.27037 18.5915 5.5102 18.4016 5.71218L11.3361 13.2303C11.2319 13.3415 11.0966 13.4138 10.9505 13.4362L8.70203 13.7784C8.59724 13.7944 8.49039 13.7842 8.38995 13.7486C8.28951 13.713 8.19824 13.653 8.12339 13.5734C8.04853 13.4937 7.99215 13.3966 7.95871 13.2897C7.92527 13.1829 7.9157 13.0692 7.93075 12.9577L8.25234 10.5652C8.27299 10.4099 8.34041 10.2659 8.44448 10.1549L15.5114 2.6368C15.8947 2.22906 16.4145 2 16.9565 2C17.4985 2 18.0183 2.22906 18.4016 2.6368V2.63535Z" fill="#6C757D"/>
</svg>
