<svg width="19" height="19" viewBox="0 0 19 19" fill="none" xmlns="http://www.w3.org/2000/svg">
<path d="M11.1126 16.5751C10.968 16.575 10.8262 16.5353 10.7026 16.4603L8.06315 14.877C7.76617 14.6979 7.52035 14.4453 7.34938 14.1435C7.17841 13.8418 7.08805 13.5011 7.08702 13.1543V9.57203C7.08753 9.3192 7.00891 9.07255 6.86219 8.86666L3.17698 3.68757C3.09093 3.56801 3.03958 3.427 3.02859 3.2801C3.01761 3.13321 3.04742 2.98613 3.11474 2.8551C3.18205 2.72407 3.28426 2.61419 3.41007 2.53757C3.53589 2.46095 3.68042 2.42058 3.82773 2.42091H15.1723C15.3197 2.42029 15.4645 2.46049 15.5904 2.53704C15.7164 2.6136 15.8188 2.72353 15.8862 2.85467C15.9535 2.9858 15.9833 3.13302 15.9721 3.28002C15.961 3.42703 15.9094 3.56808 15.8231 3.68757L12.1379 8.86666C11.9908 9.07246 11.912 9.31912 11.9122 9.57203V15.7739C11.912 15.9861 11.8278 16.1895 11.6779 16.3397C11.528 16.4898 11.3248 16.5745 11.1126 16.5751ZM3.82773 3.21653L7.5066 8.40749C7.75042 8.74668 7.88066 9.15431 7.87869 9.57203V13.1535C7.87898 13.3637 7.93358 13.5702 8.0372 13.753C8.14081 13.9358 8.28992 14.0887 8.47006 14.1969L11.1095 15.7803L11.1206 9.57124C11.1188 9.15343 11.2493 8.74579 11.4934 8.4067L15.1779 3.22761L3.82773 3.21653Z" fill="#212529"/>
<path d="M11.1126 16.5751C10.968 16.575 10.8262 16.5353 10.7026 16.4603L8.06315 14.877C7.76617 14.6979 7.52035 14.4453 7.34938 14.1435C7.17841 13.8418 7.08805 13.5011 7.08702 13.1543V9.57203C7.08753 9.3192 7.00891 9.07255 6.86219 8.86666L3.17698 3.68757C3.09093 3.56801 3.03958 3.427 3.02859 3.2801C3.01761 3.13321 3.04742 2.98613 3.11474 2.8551C3.18205 2.72407 3.28426 2.61419 3.41007 2.53757C3.53589 2.46095 3.68042 2.42058 3.82773 2.42091H15.1723C15.3197 2.42029 15.4645 2.46049 15.5904 2.53704C15.7164 2.6136 15.8188 2.72353 15.8862 2.85467C15.9535 2.9858 15.9833 3.13302 15.9721 3.28002C15.961 3.42703 15.9094 3.56808 15.8231 3.68757L12.1379 8.86666C11.9908 9.07246 11.912 9.31912 11.9122 9.57203V15.7739C11.912 15.9861 11.8278 16.1895 11.6779 16.3397C11.528 16.4898 11.3248 16.5745 11.1126 16.5751ZM3.82773 3.21653L7.5066 8.40749C7.75042 8.74668 7.88066 9.15431 7.87869 9.57203V13.1535C7.87898 13.3637 7.93358 13.5702 8.0372 13.753C8.14081 13.9358 8.28992 14.0887 8.47006 14.1969L11.1095 15.7803L11.1206 9.57124C11.1188 9.15343 11.2493 8.74579 11.4934 8.4067L15.1779 3.22761L3.82773 3.21653Z" fill="black" fill-opacity="0.2"/>
<path d="M11.1126 16.5751C10.968 16.575 10.8262 16.5353 10.7026 16.4603L8.06315 14.877C7.76617 14.6979 7.52035 14.4453 7.34938 14.1435C7.17841 13.8418 7.08805 13.5011 7.08702 13.1543V9.57203C7.08753 9.3192 7.00891 9.07255 6.86219 8.86666L3.17698 3.68757C3.09093 3.56801 3.03958 3.427 3.02859 3.2801C3.01761 3.13321 3.04742 2.98613 3.11474 2.8551C3.18205 2.72407 3.28426 2.61419 3.41007 2.53757C3.53589 2.46095 3.68042 2.42058 3.82773 2.42091H15.1723C15.3197 2.42029 15.4645 2.46049 15.5904 2.53704C15.7164 2.6136 15.8188 2.72353 15.8862 2.85467C15.9535 2.9858 15.9833 3.13302 15.9721 3.28002C15.961 3.42703 15.9094 3.56808 15.8231 3.68757L12.1379 8.86666C11.9908 9.07246 11.912 9.31912 11.9122 9.57203V15.7739C11.912 15.9861 11.8278 16.1895 11.6779 16.3397C11.528 16.4898 11.3248 16.5745 11.1126 16.5751ZM3.82773 3.21653L7.5066 8.40749C7.75042 8.74668 7.88066 9.15431 7.87869 9.57203V13.1535C7.87898 13.3637 7.93358 13.5702 8.0372 13.753C8.14081 13.9358 8.28992 14.0887 8.47006 14.1969L11.1095 15.7803L11.1206 9.57124C11.1188 9.15343 11.2493 8.74579 11.4934 8.4067L15.1779 3.22761L3.82773 3.21653Z" fill="black" fill-opacity="0.2"/>
<path d="M11.1126 16.5751C10.968 16.575 10.8262 16.5353 10.7026 16.4603L8.06315 14.877C7.76617 14.6979 7.52035 14.4453 7.34938 14.1435C7.17841 13.8418 7.08805 13.5011 7.08702 13.1543V9.57203C7.08753 9.3192 7.00891 9.07255 6.86219 8.86666L3.17698 3.68757C3.09093 3.56801 3.03958 3.427 3.02859 3.2801C3.01761 3.13321 3.04742 2.98613 3.11474 2.8551C3.18205 2.72407 3.28426 2.61419 3.41007 2.53757C3.53589 2.46095 3.68042 2.42058 3.82773 2.42091H15.1723C15.3197 2.42029 15.4645 2.46049 15.5904 2.53704C15.7164 2.6136 15.8188 2.72353 15.8862 2.85467C15.9535 2.9858 15.9833 3.13302 15.9721 3.28002C15.961 3.42703 15.9094 3.56808 15.8231 3.68757L12.1379 8.86666C11.9908 9.07246 11.912 9.31912 11.9122 9.57203V15.7739C11.912 15.9861 11.8278 16.1895 11.6779 16.3397C11.528 16.4898 11.3248 16.5745 11.1126 16.5751ZM3.82773 3.21653L7.5066 8.40749C7.75042 8.74668 7.88066 9.15431 7.87869 9.57203V13.1535C7.87898 13.3637 7.93358 13.5702 8.0372 13.753C8.14081 13.9358 8.28992 14.0887 8.47006 14.1969L11.1095 15.7803L11.1206 9.57124C11.1188 9.15343 11.2493 8.74579 11.4934 8.4067L15.1779 3.22761L3.82773 3.21653Z" fill="black" fill-opacity="0.2"/>
<path d="M11.1126 16.5751C10.968 16.575 10.8262 16.5353 10.7026 16.4603L8.06315 14.877C7.76617 14.6979 7.52035 14.4453 7.34938 14.1435C7.17841 13.8418 7.08805 13.5011 7.08702 13.1543V9.57203C7.08753 9.3192 7.00891 9.07255 6.86219 8.86666L3.17698 3.68757C3.09093 3.56801 3.03958 3.427 3.02859 3.2801C3.01761 3.13321 3.04742 2.98613 3.11474 2.8551C3.18205 2.72407 3.28426 2.61419 3.41007 2.53757C3.53589 2.46095 3.68042 2.42058 3.82773 2.42091H15.1723C15.3197 2.42029 15.4645 2.46049 15.5904 2.53704C15.7164 2.6136 15.8188 2.72353 15.8862 2.85467C15.9535 2.9858 15.9833 3.13302 15.9721 3.28002C15.961 3.42703 15.9094 3.56808 15.8231 3.68757L12.1379 8.86666C11.9908 9.07246 11.912 9.31912 11.9122 9.57203V15.7739C11.912 15.9861 11.8278 16.1895 11.6779 16.3397C11.528 16.4898 11.3248 16.5745 11.1126 16.5751ZM3.82773 3.21653L7.5066 8.40749C7.75042 8.74668 7.88066 9.15431 7.87869 9.57203V13.1535C7.87898 13.3637 7.93358 13.5702 8.0372 13.753C8.14081 13.9358 8.28992 14.0887 8.47006 14.1969L11.1095 15.7803L11.1206 9.57124C11.1188 9.15343 11.2493 8.74579 11.4934 8.4067L15.1779 3.22761L3.82773 3.21653Z" fill="black" fill-opacity="0.2"/>
<path d="M11.1126 16.5751C10.968 16.575 10.8262 16.5353 10.7026 16.4603L8.06315 14.877C7.76617 14.6979 7.52035 14.4453 7.34938 14.1435C7.17841 13.8418 7.08805 13.5011 7.08702 13.1543V9.57203C7.08753 9.3192 7.00891 9.07255 6.86219 8.86666L3.17698 3.68757C3.09093 3.56801 3.03958 3.427 3.02859 3.2801C3.01761 3.13321 3.04742 2.98613 3.11474 2.8551C3.18205 2.72407 3.28426 2.61419 3.41007 2.53757C3.53589 2.46095 3.68042 2.42058 3.82773 2.42091H15.1723C15.3197 2.42029 15.4645 2.46049 15.5904 2.53704C15.7164 2.6136 15.8188 2.72353 15.8862 2.85467C15.9535 2.9858 15.9833 3.13302 15.9721 3.28002C15.961 3.42703 15.9094 3.56808 15.8231 3.68757L12.1379 8.86666C11.9908 9.07246 11.912 9.31912 11.9122 9.57203V15.7739C11.912 15.9861 11.8278 16.1895 11.6779 16.3397C11.528 16.4898 11.3248 16.5745 11.1126 16.5751ZM3.82773 3.21653L7.5066 8.40749C7.75042 8.74668 7.88066 9.15431 7.87869 9.57203V13.1535C7.87898 13.3637 7.93358 13.5702 8.0372 13.753C8.14081 13.9358 8.28992 14.0887 8.47006 14.1969L11.1095 15.7803L11.1206 9.57124C11.1188 9.15343 11.2493 8.74579 11.4934 8.4067L15.1779 3.22761L3.82773 3.21653Z" fill="black" fill-opacity="0.2"/>
</svg>
