<svg width="32" height="32" viewBox="0 0 32 32" fill="none" xmlns="http://www.w3.org/2000/svg">
<path d="M24 8.61538V12.3077C24 12.6475 23.7245 12.9231 23.3846 12.9231C23.0448 12.9231 22.7692 12.6475 22.7692 12.3077V10.1009L18.8966 13.9735C18.7765 14.0937 18.6189 14.1538 18.4615 14.1538C18.3042 14.1538 18.1466 14.0937 18.0265 13.9735C17.786 13.7331 17.786 13.3437 18.0265 13.1034L21.8991 9.23077H19.6923C19.3525 9.23077 19.0769 8.95523 19.0769 8.61538C19.0769 8.27554 19.3525 8 19.6923 8H23.3846C23.7245 8 24 8.27554 24 8.61538ZM13.9735 13.1034L10.1009 9.23077H12.3077C12.6475 9.23077 12.9231 8.95523 12.9231 8.61538C12.9231 8.27554 12.6475 8 12.3077 8H8.61538C8.27554 8 8 8.27554 8 8.61538V12.3077C8 12.6475 8.27554 12.9231 8.61538 12.9231C8.95523 12.9231 9.23077 12.6475 9.23077 12.3077V10.1009L13.1034 13.9735C13.2235 14.0937 13.3811 14.1538 13.5385 14.1538C13.6958 14.1538 13.8534 14.0937 13.9735 13.9735C14.214 13.7332 14.214 13.3437 13.9735 13.1034ZM23.3846 19.0769C23.0448 19.0769 22.7692 19.3525 22.7692 19.6923V21.8991L18.8966 18.0265C18.6562 17.786 18.2668 17.786 18.0265 18.0265C17.7862 18.2669 17.786 18.6563 18.0265 18.8966L21.8991 22.7692H19.6923C19.3525 22.7692 19.0769 23.0448 19.0769 23.3846C19.0769 23.7245 19.3525 24 19.6923 24H23.3846C23.7245 24 24 23.7245 24 23.3846V19.6923C24 19.3525 23.7245 19.0769 23.3846 19.0769ZM13.9735 18.0265C13.7331 17.786 13.3437 17.786 13.1034 18.0265L9.23077 21.8991V19.6923C9.23077 19.3525 8.95523 19.0769 8.61538 19.0769C8.27554 19.0769 8 19.3525 8 19.6923V23.3846C8 23.7245 8.27554 24 8.61538 24H12.3077C12.6475 24 12.9231 23.7245 12.9231 23.3846C12.9231 23.0448 12.6475 22.7692 12.3077 22.7692H10.1009L13.9735 18.8966C14.214 18.6563 14.214 18.2668 13.9735 18.0265Z" fill="#1D3557"/>
</svg>
