<svg width="15" height="15" viewBox="0 0 15 15" fill="none" xmlns="http://www.w3.org/2000/svg">
<path d="M10.9392 8.93262C11.1227 8.93262 11.2987 8.85972 11.4285 8.72997C11.5582 8.60021 11.6311 8.42423 11.6311 8.24072C11.6311 8.05722 11.5582 7.88124 11.4285 7.75148C11.2987 7.62172 11.1227 7.54883 10.9392 7.54883C10.7557 7.54883 10.5797 7.62172 10.45 7.75148C10.3202 7.88124 10.2473 8.05722 10.2473 8.24072C10.2473 8.42423 10.3202 8.60021 10.45 8.72997C10.5797 8.85972 10.7557 8.93262 10.9392 8.93262ZM10.9392 11.7002C11.1227 11.7002 11.2987 11.6273 11.4285 11.4975C11.5582 11.3678 11.6311 11.1918 11.6311 11.0083C11.6311 10.8248 11.5582 10.6488 11.4285 10.5191C11.2987 10.3893 11.1227 10.3164 10.9392 10.3164C10.7557 10.3164 10.5797 10.3893 10.45 10.5191C10.3202 10.6488 10.2473 10.8248 10.2473 11.0083C10.2473 11.1918 10.3202 11.3678 10.45 11.4975C10.5797 11.6273 10.7557 11.7002 10.9392 11.7002ZM8.17163 8.24072C8.17163 8.42423 8.09874 8.60021 7.96898 8.72997C7.83923 8.85972 7.66324 8.93262 7.47974 8.93262C7.29624 8.93262 7.12025 8.85972 6.9905 8.72997C6.86074 8.60021 6.78784 8.42423 6.78784 8.24072C6.78784 8.05722 6.86074 7.88124 6.9905 7.75148C7.12025 7.62172 7.29624 7.54883 7.47974 7.54883C7.66324 7.54883 7.83923 7.62172 7.96898 7.75148C8.09874 7.88124 8.17163 8.05722 8.17163 8.24072ZM8.17163 11.0083C8.17163 11.1918 8.09874 11.3678 7.96898 11.4975C7.83923 11.6273 7.66324 11.7002 7.47974 11.7002C7.29624 11.7002 7.12025 11.6273 6.9905 11.4975C6.86074 11.3678 6.78784 11.1918 6.78784 11.0083C6.78784 10.8248 6.86074 10.6488 6.9905 10.5191C7.12025 10.3893 7.29624 10.3164 7.47974 10.3164C7.66324 10.3164 7.83923 10.3893 7.96898 10.5191C8.09874 10.6488 8.17163 10.8248 8.17163 11.0083ZM4.02026 8.93262C4.20377 8.93262 4.37975 8.85972 4.50951 8.72997C4.63926 8.60021 4.71216 8.42423 4.71216 8.24072C4.71216 8.05722 4.63926 7.88124 4.50951 7.75148C4.37975 7.62172 4.20377 7.54883 4.02026 7.54883C3.83676 7.54883 3.66078 7.62172 3.53102 7.75148C3.40127 7.88124 3.32837 8.05722 3.32837 8.24072C3.32837 8.42423 3.40127 8.60021 3.53102 8.72997C3.66078 8.85972 3.83676 8.93262 4.02026 8.93262ZM4.02026 11.7002C4.20377 11.7002 4.37975 11.6273 4.50951 11.4975C4.63926 11.3678 4.71216 11.1918 4.71216 11.0083C4.71216 10.8248 4.63926 10.6488 4.50951 10.5191C4.37975 10.3893 4.20377 10.3164 4.02026 10.3164C3.83676 10.3164 3.66078 10.3893 3.53102 10.5191C3.40127 10.6488 3.32837 10.8248 3.32837 11.0083C3.32837 11.1918 3.40127 11.3678 3.53102 11.4975C3.66078 11.6273 3.83676 11.7002 4.02026 11.7002Z" fill="#212529"/>
<path fill-rule="evenodd" clip-rule="evenodd" d="M4.02086 0.458984C4.15849 0.458984 4.29048 0.513659 4.3878 0.61098C4.48513 0.708301 4.5398 0.840297 4.5398 0.977929V1.50587C4.99786 1.49687 5.50227 1.49687 6.0572 1.49687H8.90309C9.45871 1.49687 9.96312 1.49687 10.4212 1.50587V0.977929C10.4212 0.840297 10.4759 0.708301 10.5732 0.61098C10.6705 0.513659 10.8025 0.458984 10.9401 0.458984C11.0778 0.458984 11.2098 0.513659 11.3071 0.61098C11.4044 0.708301 11.4591 0.840297 11.4591 0.977929V1.55015C11.639 1.56399 11.8094 1.58152 11.9704 1.60274C12.7813 1.71206 13.438 1.94178 13.9562 2.45934C14.4738 2.9776 14.7035 3.63424 14.8128 4.44517C14.9187 5.23397 14.9187 6.24072 14.9187 7.51249V8.97383C14.9187 10.2456 14.9187 11.253 14.8128 12.0411C14.7035 12.8521 14.4738 13.5087 13.9562 14.027C13.438 14.5445 12.7813 14.7743 11.9704 14.8836C11.1816 14.9894 10.1749 14.9894 8.90309 14.9894H6.05858C4.78682 14.9894 3.77937 14.9894 2.99127 14.8836C2.18033 14.7743 1.52369 14.5445 1.00544 14.027C0.487878 13.5087 0.258158 12.8521 0.148834 12.0411C0.0429688 11.2523 0.0429688 10.2456 0.0429688 8.97383V7.51249C0.0429688 6.24072 0.0429688 5.23328 0.148834 4.44517C0.258158 3.63424 0.487878 2.9776 1.00544 2.45934C1.52369 1.94178 2.18033 1.71206 2.99127 1.60274C3.15272 1.58152 3.32316 1.56399 3.5026 1.55015V0.977929C3.5026 0.840416 3.55718 0.708525 3.65435 0.611224C3.75152 0.513923 3.88334 0.459168 4.02086 0.458984ZM3.12827 2.63163C2.43288 2.72504 2.03157 2.90079 1.73888 3.19348C1.4462 3.48616 1.27045 3.88748 1.17704 4.58287C1.16135 4.70049 1.14798 4.82481 1.1369 4.95582H13.8241C13.813 4.82481 13.7996 4.70026 13.7839 4.58218C13.6905 3.88679 13.5148 3.48547 13.2221 3.19279C12.9294 2.9001 12.5281 2.72435 11.832 2.63094C11.1214 2.53546 10.1838 2.53407 8.86434 2.53407H6.09664C4.77713 2.53407 3.84026 2.53615 3.12827 2.63163ZM1.08017 7.55123C1.08017 6.96033 1.08017 6.44623 1.08916 5.9944H13.8718C13.8808 6.44623 13.8808 6.96033 13.8808 7.55123V8.93509C13.8808 10.2546 13.8794 11.1922 13.7839 11.9035C13.6905 12.5988 13.5148 13.0002 13.2221 13.2928C12.9294 13.5855 12.5281 13.7613 11.832 13.8547C11.1214 13.9502 10.1838 13.9516 8.86434 13.9516H6.09664C4.77713 13.9516 3.84026 13.9502 3.12827 13.8547C2.43288 13.7613 2.03157 13.5855 1.73888 13.2928C1.4462 13.0002 1.27045 12.5988 1.17704 11.9028C1.08155 11.1922 1.08017 10.2546 1.08017 8.93509V7.55123Z" fill="#212529"/>
</svg>
