<svg width="16" height="16" viewBox="0 0 16 16" fill="none" xmlns="http://www.w3.org/2000/svg">
<path d="M7.48239 1.41797C7.48239 1.66953 7.27733 1.87419 7.0253 1.87419C6.77373 1.87419 6.56911 1.6695 6.56911 1.41797C6.56911 1.16594 6.77377 0.960906 7.0253 0.960906C7.27733 0.960906 7.48239 1.16594 7.48239 1.41797ZM2.84464 6.166V4.65806C2.84464 4.52062 2.95605 4.40922 3.09348 4.40922H4.60058C4.73802 4.40922 4.84942 4.52062 4.84942 4.65806V6.166C4.84942 6.30344 4.73802 6.41484 4.60058 6.41484H3.09348C2.95605 6.41484 2.84464 6.30341 2.84464 6.166ZM3.34233 5.91716H4.35173V4.90688H3.34233V5.91716ZM5.73352 6.41484H8.08239C8.21983 6.41484 8.33123 6.30344 8.33123 6.166C8.33123 6.02856 8.21983 5.91716 8.08239 5.91716H5.73352C5.59608 5.91716 5.48467 6.02856 5.48467 6.166C5.48467 6.30341 5.59608 6.41484 5.73352 6.41484ZM5.73352 4.90688H10.4313C10.5687 4.90688 10.6801 4.79547 10.6801 4.65803C10.6801 4.52059 10.5687 4.40919 10.4313 4.40919H5.73352C5.59608 4.40919 5.48467 4.52059 5.48467 4.65803C5.48467 4.79547 5.59608 4.90688 5.73352 4.90688ZM2.84464 7.57338C2.84464 7.43594 2.95605 7.32453 3.09348 7.32453H4.60058C4.73802 7.32453 4.84942 7.43594 4.84942 7.57338V9.08134C4.84942 9.21878 4.73802 9.33019 4.60058 9.33019H3.09348C2.95605 9.33019 2.84464 9.21878 2.84464 9.08134V7.57338ZM3.34233 8.8325H4.35173V7.82222H3.34233V8.8325ZM5.73352 9.33019H8.08239C8.21983 9.33019 8.33123 9.21878 8.33123 9.08134C8.33123 8.94391 8.21983 8.8325 8.08239 8.8325H5.73352C5.59608 8.8325 5.48467 8.94391 5.48467 9.08134C5.48467 9.21878 5.59608 9.33019 5.73352 9.33019ZM5.73352 7.82222H10.4313C10.5687 7.82222 10.6801 7.71081 10.6801 7.57338C10.6801 7.43594 10.5687 7.32453 10.4313 7.32453H5.73352C5.59608 7.32453 5.48467 7.43594 5.48467 7.57338C5.48467 7.71081 5.59608 7.82222 5.73352 7.82222ZM14.732 6.73731L12.3442 9.68303V13.3088C12.3442 13.951 11.8217 14.4735 11.1795 14.4735H7.20708C7.06964 14.4735 6.95823 14.3621 6.95823 14.2247C6.95823 14.0872 7.06964 13.9758 7.20708 13.9758H11.1795C11.5473 13.9758 11.8465 13.6766 11.8465 13.3088V10.297L10.1701 12.3651C10.1428 12.3989 10.1071 12.4248 10.0666 12.4405L8.56127 13.0228C8.53217 13.0341 8.50173 13.0396 8.47152 13.0396C8.41533 13.0396 8.35986 13.0206 8.31483 12.9841C8.24555 12.928 8.21161 12.8391 8.22583 12.7511L8.48348 11.1575C8.49042 11.1147 8.50848 11.0743 8.53583 11.0406L11.8465 6.95556V3.21272C11.8465 2.84491 11.5473 2.54566 11.1795 2.54566H9.79239V2.813C9.79239 3.15066 9.5173 3.42537 9.17914 3.42537H4.87145C4.5338 3.42537 4.25908 3.15066 4.25908 2.813V2.54566H2.87111C2.50377 2.54566 2.20495 2.84491 2.20495 3.21272V9.73784C2.20495 9.87528 2.09355 9.98669 1.95611 9.98669C1.81867 9.98669 1.70727 9.87528 1.70727 9.73784V3.21272C1.70727 2.5705 2.22936 2.04797 2.87111 2.04797H4.25908V1.7815C4.25908 1.44384 4.5338 1.16912 4.87145 1.16912H5.63008C5.74792 0.505469 6.3287 0 7.0253 0C7.72233 0 8.30348 0.505469 8.42142 1.16912H9.17917C9.51733 1.16912 9.79242 1.44384 9.79242 1.7815V2.04797H11.1795C11.8217 2.04797 12.3442 2.5705 12.3442 3.21272V6.34147L13.0968 5.41284C13.2737 5.19506 13.5252 5.05906 13.8051 5.02966C14.0855 5.00031 14.3597 5.08138 14.5773 5.25816C14.7947 5.43416 14.9307 5.6855 14.96 5.96566C14.9892 6.24563 14.9083 6.51969 14.732 6.73731ZM9.29477 1.7815C9.29477 1.71934 9.24183 1.66681 9.1792 1.66681H8.19448C8.05705 1.66681 7.94564 1.55541 7.94564 1.41797C7.94564 0.910531 7.5328 0.497687 7.02533 0.497687C6.51836 0.497687 6.10592 0.910531 6.10592 1.41797C6.10592 1.55541 5.99452 1.66681 5.85708 1.66681H4.87148C4.80823 1.66681 4.7568 1.71825 4.7568 1.7815V2.813C4.7568 2.87625 4.80823 2.92769 4.87148 2.92769H9.17917C9.24183 2.92769 9.29473 2.87516 9.29473 2.813V1.7815H9.29477ZM13.6857 7.23778L12.824 6.53984L12.2902 7.1985C12.2886 7.20056 12.287 7.20263 12.2852 7.20463L8.9642 11.3024L8.78639 12.4022L9.82526 12.0003L13.6857 7.23778ZM14.465 6.01737C14.4496 5.86956 14.3781 5.73722 14.2639 5.64466C14.1493 5.55159 14.005 5.50913 13.8571 5.52459C13.7091 5.54013 13.5764 5.61181 13.4833 5.72641L13.1374 6.15322L13.9991 6.85119L14.3454 6.42406C14.438 6.30969 14.4805 6.16525 14.465 6.01737ZM6.57442 11.3826V14.2952C6.57442 14.3841 6.52698 14.4663 6.45002 14.5107L3.92823 15.9667C3.88973 15.9889 3.84677 16 3.80383 16C3.76089 16 3.71792 15.9889 3.67942 15.9667L1.15761 14.5107C1.08064 14.4663 1.0332 14.3841 1.0332 14.2952V11.3826C1.0332 11.2937 1.08064 11.2115 1.15761 11.1671L3.67942 9.71113C3.75639 9.66669 3.85123 9.66669 3.92827 9.71113L6.45005 11.1671C6.52698 11.2115 6.57442 11.2937 6.57442 11.3826ZM1.77958 11.3826L3.8038 12.552L5.82842 11.3829L3.80377 10.214L1.77958 11.3826ZM1.5308 14.1516L3.55492 15.3202V12.983L1.5308 11.8136V14.1516ZM6.07673 14.1516V11.8142L4.05261 12.983V15.3202L6.07673 14.1516Z" fill="#1D3557"/>
</svg>
