<svg width="12" height="12" viewBox="0 0 12 12" fill="none" xmlns="http://www.w3.org/2000/svg">
<g clip-path="url(#clip0_11805_66676)">
<path d="M6.00014 11.5725C4.89822 11.5725 3.82104 11.2458 2.90482 10.6336C1.98861 10.0214 1.2745 9.15126 0.852813 8.13321C0.431125 7.11517 0.320792 5.99494 0.535767 4.91419C0.750742 3.83344 1.28137 2.8407 2.06055 2.06152C2.83973 1.28235 3.83246 0.751718 4.91321 0.536743C5.99396 0.321769 7.11419 0.432102 8.13223 0.85379C9.15028 1.27548 10.0204 1.98958 10.6326 2.9058C11.2448 3.82202 11.5716 4.89919 11.5716 6.00112C11.5733 7.59714 10.9593 9.13231 9.85728 10.2868" stroke="#000001" stroke-linecap="round" stroke-linejoin="round"/>
<path d="M11.5716 9.85993L9.85728 10.2885L9.42871 8.57422" stroke="#000001" stroke-linecap="round" stroke-linejoin="round"/>
<path d="M7.71442 7.71708L6.00014 5.57422H3.42871" stroke="#000001" stroke-linecap="round" stroke-linejoin="round"/>
</g>
<defs>
<clipPath id="clip0_11805_66676">
<rect width="12" height="12" fill="white"/>
</clipPath>
</defs>
</svg>
