<svg width="23" height="22" viewBox="0 0 23 22" fill="none" xmlns="http://www.w3.org/2000/svg">
<path d="M18.8149 7.51813L18.8149 7.51818L21.8087 10.433C21.8088 10.433 21.8088 10.4331 21.8088 10.4331L18.8149 7.51813ZM18.8149 7.51813C18.4949 7.20734 17.9791 7.20716 17.6611 7.52037M18.8149 7.51813L21.9923 10.8937M21.9923 10.8937C21.9939 10.9063 21.9954 10.9195 21.9967 10.9328M21.9923 10.8937C21.9894 10.8743 21.9858 10.8551 21.9813 10.836C21.9777 10.8203 21.9736 10.8047 21.9691 10.7891C21.9632 10.7693 21.9564 10.7498 21.9487 10.7308M21.9923 10.8937L21.949 10.6151C21.9587 10.6318 21.9676 10.649 21.9756 10.6662L21.976 10.667C21.9826 10.6818 21.9891 10.6969 21.9953 10.7124L21.9487 10.7308M21.9967 10.9328C21.999 10.9556 22 10.9777 22 11L22.0499 11.0038L22.0498 11.0042L22.0434 11.0897L22.0426 11.1044L22.0424 11.1086L22.0422 11.1086L22.0414 11.114L21.9919 11.1086C21.9892 11.1272 21.9857 11.1456 21.9815 11.1639C21.9777 11.1797 21.9736 11.1953 21.969 11.2107C21.9632 11.2307 21.9564 11.2502 21.9489 11.2695C21.943 11.2838 21.9368 11.2982 21.9302 11.3123C21.9227 11.3288 21.9145 11.3448 21.9057 11.3605C21.8946 11.3797 21.8827 11.3988 21.87 11.4172M21.9967 10.9328L22.0464 10.9282C22.0464 10.9281 22.0464 10.928 22.0464 10.9279L22.0464 10.9277L21.9967 10.9328ZM21.87 11.4172C21.8629 11.4282 21.855 11.439 21.8468 11.4497C21.8225 11.481 21.7959 11.5104 21.7672 11.5377L18.78 14.447M21.87 11.4172L21.9113 11.4455C21.9114 11.4454 21.9115 11.4452 21.9116 11.4451M21.87 11.4172L21.9119 11.4446C21.9118 11.4448 21.9117 11.4449 21.9116 11.4451M18.78 14.447C18.6307 14.593 18.4344 14.666 18.2391 14.666C18.0428 14.666 17.8454 14.593 17.6961 14.445M18.78 14.447L18.815 14.4827M18.78 14.447L18.8149 14.4828L18.815 14.4827M17.6961 14.445C17.3976 14.151 17.3986 13.677 17.6982 13.385L19.3238 11.8H19.2521M17.6961 14.445L17.6609 14.4805C17.661 14.4805 17.661 14.4806 17.6611 14.4806M17.6961 14.445L17.6611 14.4806M19.2521 11.8L19.3034 11.75H8.92039C8.49706 11.75 8.15348 11.414 8.15348 11C8.15348 10.586 8.49706 10.25 8.92039 10.25H19.3054L19.254 10.2M19.2521 11.8H8.92039C8.4705 11.8 8.10348 11.4427 8.10348 11C8.10348 10.5573 8.4705 10.2 8.92039 10.2H19.254M19.2521 11.8L17.6633 13.3492C17.3436 13.6608 17.3425 14.167 17.6611 14.4806M19.254 10.2H19.3257L17.6982 8.616C17.3986 8.324 17.3965 7.85 17.6961 7.556L17.6611 7.52037M19.254 10.2L17.6633 8.65183L17.6633 8.65181C17.3437 8.34031 17.3414 7.83409 17.6611 7.52037M17.6611 7.52037L22.05 11C22.05 11.0593 22.0433 11.118 22.0302 11.1751L22.0301 11.1756C22.0261 11.1921 22.0218 11.2085 22.0169 11.2248C22.0107 11.2464 22.0035 11.2673 21.9954 11.2878L21.9952 11.2884C21.9891 11.3032 21.9826 11.3183 21.9756 11.3332C21.9675 11.3511 21.9587 11.3683 21.9493 11.3849L21.949 11.3855C21.9374 11.4055 21.925 11.4255 21.9116 11.4451M17.6611 14.4806C17.8203 14.6385 18.0306 14.716 18.2391 14.716C18.4467 14.716 18.6558 14.6384 18.815 14.4827M18.815 14.4827L21.8017 11.574L21.7673 11.5378L21.8021 11.5736L21.8019 11.5738C21.8324 11.5448 21.8605 11.5135 21.8863 11.4803L21.8864 11.4802C21.895 11.469 21.9036 11.4572 21.9116 11.4451M21.9487 10.7308C21.943 10.7162 21.9368 10.7018 21.9303 10.6875L22.0419 10.8874L22.0417 10.8865C22.0387 10.8658 22.0349 10.8451 22.0299 10.8244L21.9813 10.836L22.03 10.8249C22.0262 10.8081 22.0218 10.7916 22.0172 10.7754L22.017 10.7748C22.0107 10.7537 22.0034 10.7326 21.9951 10.712L21.9487 10.7308ZM15.1038 5.436C15.1038 2.96134 13.0455 0.95 10.5178 0.95H5.53292C3.00724 0.95 0.95 2.96137 0.95 5.436V16.565C0.95 19.0396 3.00726 21.05 5.53292 21.05H10.529C13.0496 21.05 15.1038 19.0447 15.1038 16.576V15.633C15.1038 15.1903 14.7368 14.833 14.2869 14.833C13.837 14.833 13.47 15.1903 13.47 15.633V16.576C13.47 18.1593 12.1508 19.45 10.529 19.45H5.53292C3.90605 19.45 2.58381 18.1554 2.58381 16.565V5.436C2.58381 3.84463 3.90606 2.55 5.53292 2.55H10.5178C12.1467 2.55 13.47 3.84467 13.47 5.436V6.368C13.47 6.81066 13.837 7.168 14.2869 7.168C14.7368 7.168 15.1038 6.81066 15.1038 6.368V5.436Z" fill="white" stroke="white" stroke-width="0.1"/>
</svg>
