<svg width="14" height="14" viewBox="0 0 14 14" fill="none" xmlns="http://www.w3.org/2000/svg">
<path d="M11.4986 7.31343C11.5763 7.25991 11.6399 7.18831 11.6838 7.10478C11.7277 7.02125 11.7506 6.9283 11.7506 6.83393C11.7506 6.73956 11.7277 6.64661 11.6838 6.56308C11.6399 6.47955 11.5763 6.40795 11.4986 6.35443L3.91525 1.10443C3.82778 1.04366 3.72534 1.00803 3.61904 1.00139C3.51274 0.994761 3.40666 1.01739 3.31231 1.06681C3.21797 1.11624 3.13898 1.19057 3.08392 1.28174C3.02886 1.37291 2.99983 1.47742 3 1.58393L3 12.0839C3.00044 12.1902 3.02984 12.2943 3.08503 12.3851C3.14022 12.4759 3.21912 12.55 3.31325 12.5993C3.40737 12.6486 3.51316 12.6713 3.61923 12.665C3.7253 12.6587 3.82764 12.6236 3.91525 12.5634L11.4986 7.31343Z" fill="white"/>
</svg>
