<svg width="14" height="14" viewBox="0 0 14 14" fill="none" xmlns="http://www.w3.org/2000/svg">
<path fill-rule="evenodd" clip-rule="evenodd" d="M6.71719 0C10.2422 0 13.1095 2.95111 13.1095 6.57919C13.1095 8.2909 12.4713 9.85208 11.4268 11.0238L13.482 13.1345C13.6743 13.3325 13.675 13.6527 13.4826 13.8507C13.3868 13.9507 13.2601 14 13.1341 14C13.0087 14 12.8826 13.9507 12.7861 13.852L10.7062 11.7173C9.61209 12.6191 8.2248 13.1591 6.71719 13.1591C3.19216 13.1591 0.324219 10.2073 0.324219 6.57919C0.324219 2.95111 3.19216 0 6.71719 0ZM6.71719 1.01343C3.73503 1.01343 1.30886 3.50985 1.30886 6.57919C1.30886 9.64853 3.73503 12.1456 6.71719 12.1456C9.6987 12.1456 12.1249 9.64853 12.1249 6.57919C12.1249 3.50985 9.6987 1.01343 6.71719 1.01343Z" fill="#2D6CDF"/>
</svg>
