<svg width="22" height="22" viewBox="0 0 22 22" fill="none" xmlns="http://www.w3.org/2000/svg">
<path d="M9.836 4.6509C10.2224 4.60616 10.6111 4.58382 11.0002 4.58399C15.2755 4.58399 18.7002 7.24507 20.1668 11.0007C19.8117 11.9142 19.3321 12.7742 18.7414 13.5563M5.97683 5.9764C4.10683 7.11765 2.6585 8.8859 1.8335 11.0007C3.30016 14.7562 6.72483 17.4173 11.0002 17.4173C12.7713 17.4267 14.5102 16.9443 16.0235 16.024M9.05683 9.05732C8.80145 9.3127 8.59887 9.61588 8.46065 9.94956C8.32244 10.2832 8.2513 10.6409 8.2513 11.002C8.2513 11.3632 8.32244 11.7208 8.46065 12.0545C8.59887 12.3882 8.80145 12.6914 9.05683 12.9467C9.31221 13.2021 9.6154 13.4047 9.94907 13.5429C10.2827 13.6811 10.6404 13.7523 11.0015 13.7523C11.3627 13.7523 11.7203 13.6811 12.054 13.5429C12.3877 13.4047 12.6909 13.2021 12.9462 12.9467" stroke="#6C757D" stroke-width="1.5" stroke-linecap="round" stroke-linejoin="round"/>
<path d="M3.66699 3.66699L18.3337 18.3337" stroke="#6C757D" stroke-width="1.5" stroke-linecap="round"/>
</svg>
