<svg width="22" height="22" viewBox="0 0 22 22" fill="none" xmlns="http://www.w3.org/2000/svg">
<path d="M13.75 11C13.75 11.7293 13.4603 12.4288 12.9445 12.9445C12.4288 13.4603 11.7293 13.75 11 13.75C10.2707 13.75 9.57118 13.4603 9.05546 12.9445C8.53973 12.4288 8.25 11.7293 8.25 11C8.25 10.2707 8.53973 9.57118 9.05546 9.05546C9.57118 8.53973 10.2707 8.25 11 8.25C11.7293 8.25 12.4288 8.53973 12.9445 9.05546C13.4603 9.57118 13.75 10.2707 13.75 11Z" stroke="#6C757D" stroke-width="1.5" stroke-linecap="round" stroke-linejoin="round"/>
<path d="M1.8335 10.9997C3.30016 7.24409 6.72483 4.58301 11.0002 4.58301C15.2755 4.58301 18.7002 7.24409 20.1668 10.9997C18.7002 14.7553 15.2755 17.4163 11.0002 17.4163C6.72483 17.4163 3.30016 14.7553 1.8335 10.9997Z" stroke="#6C757D" stroke-width="1.5" stroke-linecap="round" stroke-linejoin="round"/>
</svg>
