<svg width="16" height="16" viewBox="0 0 16 16" fill="none" xmlns="http://www.w3.org/2000/svg">
<path d="M12.5953 3.1279C12.3297 2.86164 12.0142 2.65033 11.6669 2.50602C11.3196 2.36172 10.9473 2.28725 10.5712 2.28688C10.1952 2.28651 9.82269 2.36024 9.47512 2.50386C9.12755 2.64748 8.81167 2.85817 8.54555 3.1239L2.11812 9.54676C2.06503 9.59981 2.00201 9.64189 1.93266 9.67059C1.8633 9.69929 1.78898 9.71404 1.71392 9.71402C1.63886 9.71399 1.56455 9.69918 1.49522 9.67043C1.42588 9.64169 1.36289 9.59957 1.30984 9.54647C1.25678 9.49338 1.21471 9.43036 1.18601 9.36101C1.15731 9.29165 1.14255 9.21733 1.14258 9.14227C1.1426 9.06722 1.15741 8.9929 1.18616 8.92357C1.21491 8.85423 1.25703 8.79124 1.31012 8.73819L7.73812 2.31533C8.10935 1.93957 8.55124 1.64094 9.03835 1.43666C9.52546 1.23237 10.0482 1.12646 10.5764 1.12501C11.1046 1.12357 11.6279 1.22663 12.1161 1.42824C12.6043 1.62986 13.0478 1.92606 13.4211 2.29979C13.7944 2.67352 14.0901 3.1174 14.2911 3.60586C14.4921 4.09433 14.5945 4.61773 14.5924 5.14594C14.5904 5.67415 14.4838 6.19673 14.2789 6.68359C14.0741 7.17046 13.7749 7.61199 13.3987 7.98276L7.21298 14.1605C6.76432 14.6041 6.15828 14.8522 5.5273 14.8503C4.89632 14.8485 4.29173 14.5969 3.84568 14.1506C3.39962 13.7044 3.14837 13.0996 3.14685 12.4687C3.14533 11.8377 3.39365 11.2318 3.83755 10.7833L10.0244 4.59533C10.1322 4.49124 10.2765 4.43364 10.4264 4.43495C10.5762 4.43625 10.7195 4.49634 10.8254 4.60229C10.9314 4.70824 10.9915 4.85156 10.9928 5.00139C10.9941 5.15121 10.9365 5.29556 10.8324 5.40333L4.64555 11.5919C4.41604 11.8261 4.28823 12.1414 4.28989 12.4693C4.29154 12.7972 4.42253 13.1112 4.6544 13.3431C4.88626 13.5749 5.20026 13.7059 5.52815 13.7076C5.85605 13.7092 6.17136 13.5814 6.40555 13.3519L12.5913 7.17419C13.128 6.63793 13.4298 5.91056 13.4306 5.15187C13.4313 4.39318 13.1309 3.66522 12.5953 3.1279Z" fill="#212529"/>
</svg>
