<svg width="18" height="18" viewBox="0 0 18 18" fill="none" xmlns="http://www.w3.org/2000/svg">
<path d="M12.375 9C12.375 9.89511 12.0194 10.7536 11.3865 11.3865C10.7536 12.0194 9.89511 12.375 9 12.375C8.10489 12.375 7.24645 12.0194 6.61351 11.3865C5.98058 10.7536 5.625 9.89511 5.625 9C5.625 8.10489 5.98058 7.24645 6.61351 6.61351C7.24645 5.98058 8.10489 5.625 9 5.625C9.89511 5.625 10.7536 5.98058 11.3865 6.61351C12.0194 7.24645 12.375 8.10489 12.375 9ZM11.25 9C11.25 8.40326 11.0129 7.83097 10.591 7.40901C10.169 6.98705 9.59674 6.75 9 6.75C8.40326 6.75 7.83097 6.98705 7.40901 7.40901C6.98705 7.83097 6.75 8.40326 6.75 9C6.75 9.59674 6.98705 10.169 7.40901 10.591C7.83097 11.0129 8.40326 11.25 9 11.25C9.59674 11.25 10.169 11.0129 10.591 10.591C11.0129 10.169 11.25 9.59674 11.25 9ZM7.44525 2.25C7.1317 2.25001 6.82435 2.33738 6.55767 2.50231C6.291 2.66724 6.07555 2.90321 5.9355 3.18375L5.27737 4.5H4.5C3.90326 4.5 3.33097 4.73705 2.90901 5.15901C2.48705 5.58097 2.25 6.15326 2.25 6.75V12.375C2.25 12.9717 2.48705 13.544 2.90901 13.966C3.33097 14.3879 3.90326 14.625 4.5 14.625H13.5C14.0967 14.625 14.669 14.3879 15.091 13.966C15.5129 13.544 15.75 12.9717 15.75 12.375V6.75C15.75 6.15326 15.5129 5.58097 15.091 5.15901C14.669 4.73705 14.0967 4.5 13.5 4.5H12.7226L12.0645 3.18375C11.9244 2.90321 11.709 2.66724 11.4423 2.50231C11.1757 2.33738 10.8683 2.25001 10.5548 2.25H7.44525ZM6.94238 3.6855C6.98914 3.59218 7.06094 3.51372 7.14975 3.45888C7.23856 3.40405 7.34087 3.375 7.44525 3.375H10.5548C10.6591 3.375 10.7614 3.40405 10.8503 3.45888C10.9391 3.51372 11.0109 3.59218 11.0576 3.6855L11.8721 5.3145C11.9189 5.40782 11.9907 5.48628 12.0795 5.54112C12.1683 5.59595 12.2706 5.625 12.375 5.625H13.5C13.7984 5.625 14.0845 5.74353 14.2955 5.9545C14.5065 6.16548 14.625 6.45163 14.625 6.75V12.375C14.625 12.6734 14.5065 12.9595 14.2955 13.1705C14.0845 13.3815 13.7984 13.5 13.5 13.5H4.5C4.20163 13.5 3.91548 13.3815 3.7045 13.1705C3.49353 12.9595 3.375 12.6734 3.375 12.375V6.75C3.375 6.45163 3.49353 6.16548 3.7045 5.9545C3.91548 5.74353 4.20163 5.625 4.5 5.625H5.625C5.72938 5.625 5.83169 5.59595 5.9205 5.54112C6.00931 5.48628 6.08111 5.40782 6.12788 5.3145L6.94238 3.6855Z" fill="#212529"/>
</svg>
