<svg width="20" height="20" viewBox="0 0 20 20" fill="none" xmlns="http://www.w3.org/2000/svg">
<path d="M15.7769 2.28223H5.75797C4.69136 2.28223 3.82365 3.15255 3.82365 4.22236V4.82306H3.21655C2.14993 4.82306 1.28223 5.69338 1.28223 6.76379V16.777C1.28223 17.8468 2.14993 18.7171 3.21655 18.7171H13.2358C14.3058 18.7171 15.1762 17.8468 15.1762 16.777V16.1763H15.7769C16.847 16.1763 17.7176 15.306 17.7176 14.2355V4.2223C17.7176 3.15255 16.847 2.28223 15.7769 2.28223ZM13.9887 16.7769C13.9887 17.1921 13.651 17.5295 13.2358 17.5295H3.21655C2.80484 17.5295 2.46973 17.1921 2.46973 16.7769V6.76373C2.46973 6.34858 2.8049 6.0105 3.21655 6.0105H4.4174H13.2358C13.6509 6.0105 13.9887 6.34852 13.9887 6.76373V15.5824V16.7769ZM16.5301 14.2355C16.5301 14.6506 16.1924 14.9887 15.7769 14.9887H15.1762V6.76373C15.1762 5.69338 14.3058 4.823 13.2357 4.823H5.0111V4.2223C5.0111 3.80715 5.34627 3.46967 5.75791 3.46967H15.7769C16.1923 3.46967 16.5301 3.80715 16.5301 4.2223V14.2355Z" fill="#212529"/>
</svg>
