<svg width="18" height="18" viewBox="0 0 18 18" fill="none" xmlns="http://www.w3.org/2000/svg">
<g clip-path="url(#clip0_19850_210754)">
<path fill-rule="evenodd" clip-rule="evenodd" d="M8.4375 1.70888C4.84988 1.98225 1.98225 4.84988 1.70888 8.4375H1.125C0.8145 8.4375 0.5625 8.6895 0.5625 9C0.5625 9.3105 0.8145 9.5625 1.125 9.5625H1.70888C1.98225 13.1501 4.84988 16.0178 8.4375 16.2911V16.875C8.4375 17.1855 8.6895 17.4375 9 17.4375C9.3105 17.4375 9.5625 17.1855 9.5625 16.875V16.2911C13.1501 16.0178 16.0178 13.1501 16.2911 9.5625H16.875C17.1855 9.5625 17.4375 9.3105 17.4375 9C17.4375 8.6895 17.1855 8.4375 16.875 8.4375H16.2911C16.0178 4.84988 13.1501 1.98225 9.5625 1.70888V1.125C9.5625 0.8145 9.3105 0.5625 9 0.5625C8.6895 0.5625 8.4375 0.8145 8.4375 1.125V1.70888ZM9.5625 2.83781V3.375C9.5625 3.6855 9.3105 3.9375 9 3.9375C8.6895 3.9375 8.4375 3.6855 8.4375 3.375V2.83781C5.47087 3.10556 3.10556 5.47087 2.83781 8.4375H3.375C3.6855 8.4375 3.9375 8.6895 3.9375 9C3.9375 9.3105 3.6855 9.5625 3.375 9.5625H2.83781C3.10556 12.5291 5.47087 14.8944 8.4375 15.1622V14.625C8.4375 14.3145 8.6895 14.0625 9 14.0625C9.3105 14.0625 9.5625 14.3145 9.5625 14.625V15.1622C12.5291 14.8944 14.8944 12.5291 15.1622 9.5625H14.625C14.3145 9.5625 14.0625 9.3105 14.0625 9C14.0625 8.6895 14.3145 8.4375 14.625 8.4375H15.1622C14.8944 5.47087 12.5291 3.10556 9.5625 2.83781Z" fill="#2D6CDF"/>
</g>
<path d="M11.814 11.9187C11.7072 11.9187 11.6127 11.8455 11.5913 11.7357C11.5669 11.6107 11.6462 11.4917 11.7682 11.4643C11.9604 11.4246 12.1373 11.3484 12.2745 11.2417C12.4484 11.1105 12.5429 10.9458 12.5429 10.772C12.5429 10.5981 12.4484 10.4334 12.2776 10.3053C12.1434 10.2016 11.9756 10.1284 11.7774 10.0827C11.6554 10.0552 11.5761 9.93324 11.6035 9.80819C11.631 9.68619 11.753 9.6069 11.878 9.63434C12.1403 9.69229 12.3691 9.79599 12.5551 9.93934C12.8387 10.1528 13.0004 10.4548 13.0004 10.772C13.0004 11.0892 12.8357 11.3911 12.552 11.6076C12.363 11.754 12.1251 11.8608 11.8628 11.9126C11.8445 11.9187 11.8292 11.9187 11.814 11.9187Z" fill="#2D6CDF"/>
<path d="M6.18603 11.9187C6.29278 11.9187 6.38733 11.8455 6.40868 11.7357C6.43307 11.6107 6.35378 11.4917 6.23178 11.4643C6.03964 11.4246 5.86274 11.3484 5.72549 11.2417C5.55165 11.1105 5.4571 10.9458 5.4571 10.772C5.4571 10.5981 5.55165 10.4334 5.72244 10.3053C5.85664 10.2016 6.02439 10.1284 6.22263 10.0827C6.34463 10.0552 6.42393 9.93324 6.39648 9.80819C6.36903 9.68619 6.24703 9.6069 6.12198 9.63434C5.85969 9.69229 5.63095 9.79599 5.4449 9.93934C5.16126 10.1528 4.99961 10.4548 4.99961 10.772C4.99961 11.0892 5.16431 11.3911 5.44795 11.6076C5.63705 11.754 5.87494 11.8608 6.13723 11.9126C6.15553 11.9187 6.17078 11.9187 6.18603 11.9187Z" fill="#2D6CDF"/>
<path d="M11.2648 9.17397C11.2556 9.17397 11.2465 9.17397 11.2373 9.17092C11.1123 9.18312 10.9842 9.09468 10.972 8.96963C10.9598 8.84458 11.036 8.73174 11.1611 8.71649C11.1977 8.71344 11.2373 8.71344 11.2709 8.71344C11.7162 8.68904 12.0638 8.32305 12.0638 7.87471C12.0638 7.41112 11.6887 7.03598 11.2251 7.03598C11.1001 7.03903 10.9964 6.93533 10.9964 6.81029C10.9964 6.68524 11.1001 6.58154 11.2251 6.58154C11.9388 6.58154 12.5213 7.16408 12.5213 7.87776C12.5213 8.57924 11.9724 9.14652 11.2739 9.17397C11.2709 9.17397 11.2678 9.17397 11.2648 9.17397Z" fill="#2D6CDF"/>
<path d="M6.73523 9.17397C6.74438 9.17397 6.75353 9.17397 6.76268 9.17092C6.88773 9.18312 7.01582 9.09468 7.02802 8.96963C7.04022 8.84458 6.96397 8.73174 6.83893 8.71649C6.80233 8.71344 6.76268 8.71344 6.72913 8.71344C6.28384 8.68904 5.93615 8.32305 5.93615 7.87471C5.93615 7.41112 6.31129 7.03598 6.77488 7.03598C6.89992 7.03903 7.00362 6.93533 7.00362 6.81029C7.00362 6.68524 6.89992 6.58154 6.77488 6.58154C6.0612 6.58154 5.47866 7.16408 5.47866 7.87776C5.47866 8.57924 6.02765 9.14652 6.72608 9.17397C6.72913 9.17397 6.73218 9.17397 6.73523 9.17397Z" fill="#2D6CDF"/>
<path d="M9.13887 12.1628C8.54108 12.1628 7.94025 12.0103 7.48581 11.7054C7.06187 11.4248 6.83008 11.0405 6.83008 10.6226C6.83008 10.2048 7.06187 9.81746 7.48581 9.53381C8.40079 8.92688 9.88305 8.92688 10.7919 9.53381C11.2128 9.81441 11.4477 10.1987 11.4477 10.6165C11.4477 11.0344 11.2159 11.4217 10.7919 11.7054C10.3344 12.0103 9.73665 12.1628 9.13887 12.1628ZM7.73895 9.9181C7.44616 10.1133 7.28757 10.3634 7.28757 10.6257C7.28757 10.8849 7.44921 11.135 7.73895 11.3272C8.49838 11.8365 9.77935 11.8365 10.5388 11.3272C10.8316 11.132 10.9902 10.8819 10.9902 10.6196C10.9902 10.3603 10.8285 10.1102 10.5388 9.9181C9.77935 9.41182 8.49838 9.41182 7.73895 9.9181Z" fill="#2D6CDF"/>
<path d="M9.13561 8.82927C9.12646 8.82927 9.12036 8.82927 9.11121 8.82927C9.09596 8.82622 9.07461 8.82622 9.05631 8.82927C8.17184 8.80182 7.50391 8.10644 7.50391 7.24941C7.50391 6.37713 8.21454 5.6665 9.08681 5.6665C9.95909 5.6665 10.6697 6.37713 10.6697 7.24941C10.6667 8.10644 9.99569 8.80182 9.14476 8.82927C9.14171 8.82927 9.13866 8.82927 9.13561 8.82927ZM9.08681 6.12399C8.46768 6.12399 7.96139 6.63028 7.96139 7.24941C7.96139 7.8594 8.43718 8.35043 9.04411 8.37178C9.06241 8.36873 9.10206 8.36873 9.14171 8.37178C9.7395 8.34433 10.2092 7.8533 10.2122 7.24941C10.2122 6.63028 9.70595 6.12399 9.08681 6.12399Z" fill="#2D6CDF"/>
<defs>
<clipPath id="clip0_19850_210754">
<rect width="18" height="18" fill="white"/>
</clipPath>
</defs>
</svg>
