<svg width="18" height="18" viewBox="0 0 18 18" fill="none" xmlns="http://www.w3.org/2000/svg">
<g clip-path="url(#clip0_19947_120165)">
<path fill-rule="evenodd" clip-rule="evenodd" d="M8.4375 1.70888C4.84988 1.98225 1.98225 4.84988 1.70888 8.4375H1.125C0.8145 8.4375 0.5625 8.6895 0.5625 9C0.5625 9.3105 0.8145 9.5625 1.125 9.5625H1.70888C1.98225 13.1501 4.84988 16.0178 8.4375 16.2911V16.875C8.4375 17.1855 8.6895 17.4375 9 17.4375C9.3105 17.4375 9.5625 17.1855 9.5625 16.875V16.2911C13.1501 16.0178 16.0178 13.1501 16.2911 9.5625H16.875C17.1855 9.5625 17.4375 9.3105 17.4375 9C17.4375 8.6895 17.1855 8.4375 16.875 8.4375H16.2911C16.0178 4.84988 13.1501 1.98225 9.5625 1.70888V1.125C9.5625 0.8145 9.3105 0.5625 9 0.5625C8.6895 0.5625 8.4375 0.8145 8.4375 1.125V1.70888ZM9.5625 2.83781V3.375C9.5625 3.6855 9.3105 3.9375 9 3.9375C8.6895 3.9375 8.4375 3.6855 8.4375 3.375V2.83781C5.47087 3.10556 3.10556 5.47087 2.83781 8.4375H3.375C3.6855 8.4375 3.9375 8.6895 3.9375 9C3.9375 9.3105 3.6855 9.5625 3.375 9.5625H2.83781C3.10556 12.5291 5.47087 14.8944 8.4375 15.1622V14.625C8.4375 14.3145 8.6895 14.0625 9 14.0625C9.3105 14.0625 9.5625 14.3145 9.5625 14.625V15.1622C12.5291 14.8944 14.8944 12.5291 15.1622 9.5625H14.625C14.3145 9.5625 14.0625 9.3105 14.0625 9C14.0625 8.6895 14.3145 8.4375 14.625 8.4375H15.1622C14.8944 5.47087 12.5291 3.10556 9.5625 2.83781Z" fill="#2D6CDF"/>
</g>
<path d="M11.813 11.9197C11.7062 11.9197 11.6117 11.8465 11.5903 11.7367C11.5659 11.6117 11.6452 11.4927 11.7672 11.4653C11.9594 11.4256 12.1363 11.3494 12.2735 11.2426C12.4474 11.1115 12.5419 10.9468 12.5419 10.7729C12.5419 10.5991 12.4474 10.4344 12.2766 10.3063C12.1424 10.2026 11.9746 10.1294 11.7764 10.0837C11.6544 10.0562 11.5751 9.93421 11.6025 9.80917C11.63 9.68717 11.752 9.60787 11.877 9.63532C12.1393 9.69327 12.3681 9.79697 12.5541 9.94031C12.8378 10.1538 12.9994 10.4557 12.9994 10.7729C12.9994 11.0901 12.8347 11.3921 12.5511 11.6086C12.362 11.755 12.1241 11.8618 11.8618 11.9136C11.8435 11.9197 11.8282 11.9197 11.813 11.9197Z" fill="#2D6CDF"/>
<path d="M6.18505 11.9197C6.2918 11.9197 6.38635 11.8465 6.4077 11.7367C6.4321 11.6117 6.3528 11.4927 6.2308 11.4653C6.03866 11.4256 5.86176 11.3494 5.72452 11.2426C5.55067 11.1115 5.45612 10.9468 5.45612 10.7729C5.45612 10.5991 5.55067 10.4344 5.72147 10.3063C5.85566 10.2026 6.02341 10.1294 6.22165 10.0837C6.34365 10.0562 6.42295 9.93421 6.3955 9.80917C6.36805 9.68717 6.24605 9.60787 6.12101 9.63532C5.85871 9.69327 5.62997 9.79697 5.44392 9.94031C5.16028 10.1538 4.99864 10.4557 4.99864 10.7729C4.99864 11.0901 5.16333 11.3921 5.44697 11.6086C5.63607 11.755 5.87396 11.8618 6.13626 11.9136C6.15456 11.9197 6.16981 11.9197 6.18505 11.9197Z" fill="#2D6CDF"/>
<path d="M11.2648 9.17446C11.2556 9.17446 11.2465 9.17446 11.2373 9.17141C11.1123 9.18361 10.9842 9.09516 10.972 8.97012C10.9598 8.84507 11.036 8.73222 11.1611 8.71697C11.1977 8.71392 11.2373 8.71392 11.2709 8.71392C11.7162 8.68952 12.0638 8.32353 12.0638 7.8752C12.0638 7.41161 11.6887 7.03647 11.2251 7.03647C11.1001 7.03952 10.9964 6.93582 10.9964 6.81078C10.9964 6.68573 11.1001 6.58203 11.2251 6.58203C11.9388 6.58203 12.5213 7.16457 12.5213 7.87825C12.5213 8.57973 11.9724 9.14701 11.2739 9.17446C11.2709 9.17446 11.2678 9.17446 11.2648 9.17446Z" fill="#2D6CDF"/>
<path d="M6.73523 9.17446C6.74438 9.17446 6.75353 9.17446 6.76268 9.17141C6.88773 9.18361 7.01582 9.09516 7.02802 8.97012C7.04022 8.84507 6.96397 8.73222 6.83893 8.71697C6.80233 8.71392 6.76268 8.71392 6.72913 8.71392C6.28384 8.68952 5.93615 8.32353 5.93615 7.8752C5.93615 7.41161 6.31129 7.03647 6.77488 7.03647C6.89992 7.03952 7.00362 6.93582 7.00362 6.81078C7.00362 6.68573 6.89992 6.58203 6.77488 6.58203C6.0612 6.58203 5.47866 7.16457 5.47866 7.87825C5.47866 8.57973 6.02765 9.14701 6.72608 9.17446C6.72913 9.17446 6.73218 9.17446 6.73523 9.17446Z" fill="#2D6CDF"/>
<path d="M9.13887 12.1633C8.54108 12.1633 7.94025 12.0108 7.48581 11.7058C7.06187 11.4253 6.83008 11.041 6.83008 10.6231C6.83008 10.2053 7.06187 9.81794 7.48581 9.5343C8.40079 8.92737 9.88305 8.92737 10.7919 9.5343C11.2128 9.81489 11.4477 10.1992 11.4477 10.617C11.4477 11.0349 11.2159 11.4222 10.7919 11.7058C10.3344 12.0108 9.73665 12.1633 9.13887 12.1633ZM7.73895 9.91859C7.44616 10.1138 7.28757 10.3639 7.28757 10.6262C7.28757 10.8854 7.44921 11.1355 7.73895 11.3277C8.49838 11.837 9.77935 11.837 10.5388 11.3277C10.8316 11.1325 10.9902 10.8824 10.9902 10.6201C10.9902 10.3608 10.8285 10.1107 10.5388 9.91859C9.77935 9.4123 8.49838 9.4123 7.73895 9.91859Z" fill="#2D6CDF"/>
<path d="M9.13561 8.82976C9.12646 8.82976 9.12036 8.82976 9.11121 8.82976C9.09596 8.82671 9.07461 8.82671 9.05631 8.82976C8.17184 8.80231 7.50391 8.10693 7.50391 7.2499C7.50391 6.37762 8.21454 5.66699 9.08681 5.66699C9.95909 5.66699 10.6697 6.37762 10.6697 7.2499C10.6667 8.10693 9.99569 8.80231 9.14476 8.82976C9.14171 8.82976 9.13866 8.82976 9.13561 8.82976ZM9.08681 6.12448C8.46768 6.12448 7.96139 6.63077 7.96139 7.2499C7.96139 7.85988 8.43718 8.35092 9.04411 8.37227C9.06241 8.36922 9.10206 8.36922 9.14171 8.37227C9.7395 8.34482 10.2092 7.85378 10.2122 7.2499C10.2122 6.63077 9.70595 6.12448 9.08681 6.12448Z" fill="#2D6CDF"/>
<defs>
<clipPath id="clip0_19947_120165">
<rect width="18" height="18" fill="white"/>
</clipPath>
</defs>
</svg>
