<svg width="17" height="17" viewBox="0 0 17 17" fill="none" xmlns="http://www.w3.org/2000/svg">
<path fill-rule="evenodd" clip-rule="evenodd" d="M15.891 6.01075C15.7446 6.14629 15.6912 6.35376 15.743 6.54641C15.9106 7.16928 16 7.8242 16 8.5C16 12.6421 12.6421 16 8.5 16C4.35786 16 1 12.6421 1 8.5C1 4.35786 4.35786 1 8.5 1C8.81269 1 9.12092 1.01914 9.42356 1.0563C9.58403 1.07601 9.74633 1.02774 9.86497 0.917894C10.1725 0.633193 10.039 0.128456 9.62352 0.0735955C9.2559 0.0250511 8.88088 0 8.5 0C3.80558 0 0 3.80558 0 8.5C0 13.1944 3.80558 17 8.5 17C13.1944 17 17 13.1944 17 8.5C17 7.70937 16.8921 6.94394 16.6901 6.21767C16.5922 5.86556 16.1592 5.76245 15.891 6.01075Z" fill="#6C757D"/>
</svg>
