<svg width="17" height="17" viewBox="0 0 17 17" fill="none" xmlns="http://www.w3.org/2000/svg">
<path fill-rule="evenodd" clip-rule="evenodd" d="M1 1H16V7.49915L1 7.49915L1 1ZM0 1C0 0.447716 0.447715 0 1 0H16C16.5523 0 17 0.447715 17 1V7.49915C17 8.05143 16.5523 8.49915 16 8.49915H2V14.1644H7V12.3322C7 11.7799 7.44772 11.3322 8 11.3322H11C11.5523 11.3322 12 11.7799 12 12.3322V15.9983C12 16.5506 11.5523 16.9983 11 16.9983H8C7.44772 16.9983 7 16.5506 7 15.9983V15.1644H1V14.1644L1 8.49915C0.447715 8.49915 0 8.05143 0 7.49915V1ZM8 12.3322H11V15.9983H8V12.3322Z" fill="#6C757D"/>
</svg>
