<svg width="184" height="154" viewBox="0 0 184 154" fill="none" xmlns="http://www.w3.org/2000/svg">
<path fill-rule="evenodd" clip-rule="evenodd" d="M152.352 50.0498C155.197 50.0498 157.504 52.463 157.504 55.4398C157.504 58.4166 155.197 60.8298 152.352 60.8298H122.912C125.757 60.8298 128.064 63.243 128.064 66.2198C128.064 69.1966 125.757 71.6098 122.912 71.6098H139.104C141.949 71.6098 144.256 74.023 144.256 76.9998C144.256 79.9766 141.949 82.3898 139.104 82.3898H131.616C128.028 82.3898 125.12 84.803 125.12 87.7798C125.12 89.7643 126.592 91.561 129.536 93.1698C132.381 93.1698 134.688 95.583 134.688 98.5598C134.688 101.537 132.381 103.95 129.536 103.95H68.4478C65.6024 103.95 63.2958 101.537 63.2958 98.5598C63.2958 95.583 65.6024 93.1698 68.4478 93.1698H39.7438C36.8984 93.1698 34.5918 90.7566 34.5918 87.7798C34.5918 84.803 36.8984 82.3898 39.7438 82.3898H69.1838C72.0292 82.3898 74.3358 79.9766 74.3358 76.9998C74.3358 74.023 72.0292 71.6098 69.1838 71.6098H50.7838C47.9384 71.6098 45.6318 69.1966 45.6318 66.2198C45.6318 63.243 47.9384 60.8298 50.7838 60.8298H80.2238C77.3784 60.8298 75.0718 58.4166 75.0718 55.4398C75.0718 52.463 77.3784 50.0498 80.2238 50.0498H152.352ZM152.352 71.6098C155.197 71.6098 157.504 74.023 157.504 76.9998C157.504 79.9766 155.197 82.3898 152.352 82.3898C149.506 82.3898 147.2 79.9766 147.2 76.9998C147.2 74.023 149.506 71.6098 152.352 71.6098Z" fill="#EBF2FF"/>
<path fill-rule="evenodd" clip-rule="evenodd" d="M113.365 49.2817L119.984 101.299L120.576 106.518C120.767 108.2 119.606 109.737 117.984 109.953L74.6457 115.714C73.023 115.929 71.553 114.741 71.3623 113.06L64.9761 56.7558C64.8808 55.9152 65.4612 55.1462 66.2726 55.0384C66.2777 55.0377 66.2828 55.0371 66.2879 55.0364L69.8832 54.5981M72.7452 54.0372L76.1248 53.6283L72.7452 54.0372Z" fill="white"/>
<path d="M114.604 49.1103C114.516 48.4256 113.891 47.9472 113.208 48.0418C112.524 48.1365 112.04 48.7683 112.127 49.453L114.604 49.1103ZM119.984 101.299L121.225 101.145C121.224 101.139 121.224 101.134 121.223 101.128L119.984 101.299ZM120.576 106.518L119.336 106.673L120.576 106.518ZM117.984 109.953L118.135 111.194L117.984 109.953ZM74.6457 115.714L74.7969 116.954L74.6457 115.714ZM71.3623 113.06L72.6026 112.905L71.3623 113.06ZM64.9761 56.7558L63.7358 56.9103L64.9761 56.7558ZM66.2726 55.0384L66.4237 56.2792L66.2726 55.0384ZM66.2879 55.0364L66.4257 56.2789L66.2879 55.0364ZM70.0209 55.8406C70.7062 55.757 71.2 55.133 71.1239 54.4468C71.0479 53.7606 70.4307 53.2721 69.7455 53.3556L70.0209 55.8406ZM72.6086 52.7946C71.9233 52.8776 71.4289 53.5011 71.5043 54.1874C71.5798 54.8737 72.1965 55.3628 72.8818 55.2799L72.6086 52.7946ZM76.2614 54.8709C76.9467 54.788 77.4411 54.1644 77.3657 53.4781C77.2902 52.7918 76.6735 52.3027 75.9882 52.3857L76.2614 54.8709ZM112.127 49.453L118.746 101.471L121.223 101.128L114.604 49.1103L112.127 49.453ZM118.744 101.454L119.336 106.673L121.817 106.364L121.225 101.145L118.744 101.454ZM119.336 106.673C119.454 107.711 118.737 108.592 117.832 108.712L118.135 111.194C120.476 110.883 122.08 108.689 121.817 106.364L119.336 106.673ZM117.832 108.712L74.4946 114.473L74.7969 116.954L118.135 111.194L117.832 108.712ZM74.4946 114.473C73.5991 114.592 72.7196 113.936 72.6026 112.905L70.1219 113.214C70.3864 115.546 72.4469 117.267 74.7969 116.954L74.4946 114.473ZM72.6026 112.905L66.2165 56.6014L63.7358 56.9103L70.1219 113.214L72.6026 112.905ZM66.2165 56.6014C66.1941 56.4041 66.3306 56.2915 66.4237 56.2792L66.1214 53.7976C64.5918 54.0009 63.5674 55.4263 63.7358 56.9103L66.2165 56.6014ZM66.4237 56.2792C66.4244 56.2791 66.425 56.279 66.4257 56.2789L66.1502 53.794C66.1406 53.7951 66.131 53.7964 66.1214 53.7976L66.4237 56.2792ZM66.4257 56.2789L70.0209 55.8406L69.7455 53.3556L66.1502 53.794L66.4257 56.2789ZM72.8818 55.2799L76.2614 54.8709L75.9882 52.3857L72.6086 52.7946L72.8818 55.2799Z" fill="#2D6CDF"/>
<path fill-rule="evenodd" clip-rule="evenodd" d="M111.239 52.5674L117.436 99.9099L117.993 104.659C118.173 106.19 117.147 107.58 115.701 107.766L77.1041 112.724C75.6589 112.91 74.3417 111.82 74.1622 110.29L68.2175 59.6377C68.0887 58.5407 68.8725 57.5373 69.9681 57.3965L74.2203 56.8503" fill="#E8F0FE"/>
<path d="M79.7598 42.5C79.7598 40.9812 80.991 39.75 82.5098 39.75H114.493C115.244 39.75 115.962 40.0568 116.481 40.5992L125.809 50.3527C126.299 50.8645 126.572 51.5453 126.572 52.2535V99.18C126.572 100.699 125.341 101.93 123.822 101.93H82.5098C80.991 101.93 79.7598 100.699 79.7598 99.18V42.5Z" fill="white" stroke="#2D6CDF" stroke-width="2.5"/>
<path d="M115.311 40.3506V49.2804C115.311 50.5562 116.299 51.5904 117.519 51.5904H123.358" stroke="#1F64E7" stroke-width="2.5" stroke-linecap="round" stroke-linejoin="round"/>
<path d="M86.8477 90.8598H105.984M86.8477 51.5898H105.984H86.8477ZM86.8477 60.8298H118.496H86.8477ZM86.8477 70.8398H118.496H86.8477ZM86.8477 80.8498H118.496H86.8477Z" stroke="#75A4FE" stroke-width="2.5" stroke-linecap="round" stroke-linejoin="round"/>
</svg>
