<svg width="32" height="32" viewBox="0 0 32 32" fill="none" xmlns="http://www.w3.org/2000/svg">
<path d="M15 10.7317H18C18 10.3177 17.842 9.92067 17.5607 9.62793C17.2794 9.33519 16.8978 9.17073 16.5 9.17073C16.1022 9.17073 15.7206 9.33519 15.4393 9.62793C15.158 9.92067 15 10.3177 15 10.7317ZM13.875 10.7317C13.875 10.373 13.9429 10.0178 14.0748 9.68633C14.2067 9.3549 14.4001 9.05376 14.6438 8.8001C14.8876 8.54644 15.177 8.34522 15.4955 8.20794C15.8139 8.07066 16.1553 8 16.5 8C16.8447 8 17.1861 8.07066 17.5045 8.20794C17.823 8.34522 18.1124 8.54644 18.3562 8.8001C18.5999 9.05376 18.7933 9.3549 18.9252 9.68633C19.0571 10.0178 19.125 10.373 19.125 10.7317H23.4375C23.5867 10.7317 23.7298 10.7934 23.8352 10.9032C23.9407 11.0129 24 11.1618 24 11.3171C24 11.4723 23.9407 11.6212 23.8352 11.731C23.7298 11.8408 23.5867 11.9024 23.4375 11.9024H22.4475L21.57 21.3549C21.5027 22.0792 21.1785 22.7514 20.6608 23.2404C20.143 23.7295 19.4687 24.0003 18.7695 24H14.2305C13.5314 24.0001 12.8573 23.7292 12.3397 23.2402C11.8221 22.7512 11.4981 22.0791 11.4308 21.3549L10.5525 11.9024H9.5625C9.41332 11.9024 9.27024 11.8408 9.16475 11.731C9.05926 11.6212 9 11.4723 9 11.3171C9 11.1618 9.05926 11.0129 9.16475 10.9032C9.27024 10.7934 9.41332 10.7317 9.5625 10.7317H13.875ZM15.375 14.439C15.375 14.2838 15.3157 14.1349 15.2102 14.0251C15.1048 13.9153 14.9617 13.8537 14.8125 13.8537C14.6633 13.8537 14.5202 13.9153 14.4148 14.0251C14.3093 14.1349 14.25 14.2838 14.25 14.439V20.2927C14.25 20.4479 14.3093 20.5968 14.4148 20.7066C14.5202 20.8164 14.6633 20.878 14.8125 20.878C14.9617 20.878 15.1048 20.8164 15.2102 20.7066C15.3157 20.5968 15.375 20.4479 15.375 20.2927V14.439ZM18.1875 13.8537C18.3367 13.8537 18.4798 13.9153 18.5852 14.0251C18.6907 14.1349 18.75 14.2838 18.75 14.439V20.2927C18.75 20.4479 18.6907 20.5968 18.5852 20.7066C18.4798 20.8164 18.3367 20.878 18.1875 20.878C18.0383 20.878 17.8952 20.8164 17.7898 20.7066C17.6843 20.5968 17.625 20.4479 17.625 20.2927V14.439C17.625 14.2838 17.6843 14.1349 17.7898 14.0251C17.8952 13.9153 18.0383 13.8537 18.1875 13.8537ZM12.5505 21.2425C12.591 21.677 12.7854 22.0802 13.096 22.3735C13.4066 22.6669 13.8111 22.8294 14.2305 22.8293H18.7695C19.1889 22.8294 19.5934 22.6669 19.904 22.3735C20.2146 22.0802 20.409 21.677 20.4495 21.2425L21.318 11.9024H11.682L12.5505 21.2425Z" fill="#212529"/>
</svg>
