<svg width="25" height="24" viewBox="0 0 25 24" fill="none" xmlns="http://www.w3.org/2000/svg">
<path d="M17.5 12.5C17.5 12.3563 17.5527 12.2186 17.6464 12.117C17.7402 12.0154 17.8674 11.9583 18 11.9583C18.1326 11.9583 18.2598 12.0154 18.3536 12.117C18.4473 12.2186 18.5 12.3563 18.5 12.5V18.4583C18.5 18.602 18.4473 18.7398 18.3536 18.8414C18.2598 18.9429 18.1326 19 18 19H7C6.86739 19 6.74021 18.9429 6.64645 18.8414C6.55268 18.7398 6.5 18.602 6.5 18.4583V6.54167C6.5 6.39801 6.55268 6.26023 6.64645 6.15865C6.74021 6.05707 6.86739 6 7 6H12.5C12.6326 6 12.7598 6.05707 12.8536 6.15865C12.9473 6.26023 13 6.39801 13 6.54167C13 6.68533 12.9473 6.8231 12.8536 6.92468C12.7598 7.02627 12.6326 7.08333 12.5 7.08333H7.5V17.9167H17.5V12.5Z" fill="#1D3557"/>
<path d="M11.7058 13.4042L12.6192 13.2633L18.2304 7.21287C18.2833 7.15779 18.3255 7.09191 18.3545 7.01907C18.3835 6.94623 18.3988 6.86788 18.3994 6.78861C18.4 6.70933 18.386 6.63071 18.3582 6.55734C18.3304 6.48396 18.2893 6.4173 18.2373 6.36124C18.1853 6.30518 18.1235 6.26085 18.0555 6.23083C17.9874 6.20081 17.9145 6.18571 17.841 6.18639C17.7675 6.18708 17.6949 6.20355 17.6273 6.23484C17.5598 6.26614 17.4987 6.31162 17.4476 6.36864L11.8353 12.4191L11.7047 13.4042H11.7058ZM19.0132 5.52323C19.1675 5.68956 19.29 5.88707 19.3735 6.10445C19.457 6.32184 19.5 6.55485 19.5 6.79016C19.5 7.02547 19.457 7.25848 19.3735 7.47586C19.29 7.69325 19.1675 7.89075 19.0132 8.05709L13.2725 14.2485C13.1878 14.3401 13.0779 14.3996 12.9591 14.418L11.1323 14.6998C11.0471 14.713 10.9603 14.7046 10.8787 14.6753C10.7971 14.646 10.723 14.5966 10.6621 14.531C10.6013 14.4654 10.5555 14.3854 10.5283 14.2974C10.5012 14.2094 10.4934 14.1158 10.5056 14.024L10.7669 12.0537C10.7837 11.9258 10.8385 11.8072 10.923 11.7158L16.6649 5.52442C16.9763 5.18863 17.3987 5 17.839 5C18.2794 5 18.7018 5.18863 19.0132 5.52442V5.52323Z" fill="#1D3557"/>
</svg>
