<svg width="24" height="24" viewBox="0 0 24 24" fill="none" xmlns="http://www.w3.org/2000/svg">
<path d="M10.7 7.39024H13.3C13.3 7.028 13.163 6.68059 12.9192 6.42444C12.6754 6.16829 12.3448 6.02439 12 6.02439C11.6552 6.02439 11.3246 6.16829 11.0808 6.42444C10.837 6.68059 10.7 7.028 10.7 7.39024ZM9.725 7.39024C9.725 7.07635 9.78384 6.76554 9.89817 6.47554C10.0125 6.18554 10.1801 5.92204 10.3913 5.70009C10.6026 5.47813 10.8534 5.30207 11.1294 5.18195C11.4054 5.06183 11.7012 5 12 5C12.2988 5 12.5946 5.06183 12.8706 5.18195C13.1466 5.30207 13.3974 5.47813 13.6087 5.70009C13.8199 5.92204 13.9875 6.18554 14.1018 6.47554C14.2162 6.76554 14.275 7.07635 14.275 7.39024H18.0125C18.1418 7.39024 18.2658 7.44421 18.3572 7.54026C18.4486 7.63632 18.5 7.7666 18.5 7.90244C18.5 8.03828 18.4486 8.16856 18.3572 8.26462C18.2658 8.36067 18.1418 8.41463 18.0125 8.41463H17.1545L16.394 16.6856C16.3357 17.3193 16.0547 17.9075 15.606 18.3354C15.1573 18.7633 14.5729 19.0002 13.9669 19H10.0331C9.42721 19.0001 8.84302 18.7631 8.39442 18.3352C7.94582 17.9073 7.66498 17.3192 7.60665 16.6856L6.8455 8.41463H5.9875C5.85821 8.41463 5.73421 8.36067 5.64279 8.26462C5.55136 8.16856 5.5 8.03828 5.5 7.90244C5.5 7.7666 5.55136 7.63632 5.64279 7.54026C5.73421 7.44421 5.85821 7.39024 5.9875 7.39024H9.725ZM11.025 10.6341C11.025 10.4983 10.9736 10.368 10.8822 10.272C10.7908 10.1759 10.6668 10.122 10.5375 10.122C10.4082 10.122 10.2842 10.1759 10.1928 10.272C10.1014 10.368 10.05 10.4983 10.05 10.6341V15.7561C10.05 15.8919 10.1014 16.0222 10.1928 16.1183C10.2842 16.2143 10.4082 16.2683 10.5375 16.2683C10.6668 16.2683 10.7908 16.2143 10.8822 16.1183C10.9736 16.0222 11.025 15.8919 11.025 15.7561V10.6341ZM13.4625 10.122C13.5918 10.122 13.7158 10.1759 13.8072 10.272C13.8986 10.368 13.95 10.4983 13.95 10.6341V15.7561C13.95 15.8919 13.8986 16.0222 13.8072 16.1183C13.7158 16.2143 13.5918 16.2683 13.4625 16.2683C13.3332 16.2683 13.2092 16.2143 13.1178 16.1183C13.0264 16.0222 12.975 15.8919 12.975 15.7561V10.6341C12.975 10.4983 13.0264 10.368 13.1178 10.272C13.2092 10.1759 13.3332 10.122 13.4625 10.122ZM8.5771 16.5872C8.61216 16.9674 8.78071 17.3202 9.04989 17.5769C9.31907 17.8335 9.66959 17.9757 10.0331 17.9756H13.9669C14.3304 17.9757 14.6809 17.8335 14.9501 17.5769C15.2193 17.3202 15.3878 16.9674 15.4229 16.5872L16.1756 8.41463H7.8244L8.5771 16.5872Z" fill="#E63946"/>
</svg>
