<svg width="14" height="14" viewBox="0 0 14 14" fill="none" xmlns="http://www.w3.org/2000/svg">
<path d="M11.0824 9.47852C11.1689 9.47844 11.2534 9.45274 11.3253 9.40466C11.3972 9.35658 11.4532 9.28828 11.4862 9.20839C11.5193 9.12849 11.528 9.04059 11.5111 8.95577C11.4943 8.87095 11.4527 8.79303 11.3916 8.73185L7.30825 4.64852C7.22622 4.56659 7.11502 4.52057 6.99908 4.52057C6.88314 4.52057 6.77195 4.56659 6.68992 4.64852L2.60658 8.73185C2.54547 8.79303 2.50387 8.87095 2.48702 8.95577C2.47017 9.04059 2.47883 9.12849 2.51192 9.20839C2.545 9.28828 2.60101 9.35658 2.67289 9.40466C2.74476 9.45274 2.82928 9.47844 2.91575 9.47852L11.0824 9.47852Z" fill="#6C757D"/>
</svg>
