<svg width="24" height="24" viewBox="0 0 24 24" fill="none" xmlns="http://www.w3.org/2000/svg">
<path d="M17 12.5C17 12.3563 17.0527 12.2186 17.1464 12.117C17.2402 12.0154 17.3674 11.9583 17.5 11.9583C17.6326 11.9583 17.7598 12.0154 17.8536 12.117C17.9473 12.2186 18 12.3563 18 12.5V18.4583C18 18.602 17.9473 18.7398 17.8536 18.8414C17.7598 18.9429 17.6326 19 17.5 19H6.5C6.36739 19 6.24021 18.9429 6.14645 18.8414C6.05268 18.7398 6 18.602 6 18.4583V6.54167C6 6.39801 6.05268 6.26023 6.14645 6.15865C6.24021 6.05707 6.36739 6 6.5 6H12C12.1326 6 12.2598 6.05707 12.3536 6.15865C12.4473 6.26023 12.5 6.39801 12.5 6.54167C12.5 6.68533 12.4473 6.8231 12.3536 6.92468C12.2598 7.02627 12.1326 7.08333 12 7.08333H7V17.9167H17V12.5Z" fill="#1D3557"/>
<path d="M11.2058 13.4042L12.1192 13.2633L17.7304 7.21287C17.7833 7.15779 17.8255 7.09191 17.8545 7.01907C17.8835 6.94623 17.8988 6.86788 17.8994 6.78861C17.9 6.70933 17.886 6.63071 17.8582 6.55734C17.8304 6.48396 17.7893 6.4173 17.7373 6.36124C17.6853 6.30518 17.6235 6.26085 17.5555 6.23083C17.4874 6.20081 17.4145 6.18571 17.341 6.18639C17.2675 6.18708 17.1949 6.20355 17.1273 6.23484C17.0598 6.26614 16.9987 6.31162 16.9476 6.36864L11.3353 12.4191L11.2047 13.4042H11.2058ZM18.5132 5.52323C18.6675 5.68956 18.79 5.88707 18.8735 6.10445C18.957 6.32184 19 6.55485 19 6.79016C19 7.02547 18.957 7.25848 18.8735 7.47586C18.79 7.69325 18.6675 7.89075 18.5132 8.05709L12.7725 14.2485C12.6878 14.3401 12.5779 14.3996 12.4591 14.418L10.6323 14.6998C10.5471 14.713 10.4603 14.7046 10.3787 14.6753C10.2971 14.646 10.223 14.5966 10.1621 14.531C10.1013 14.4654 10.0555 14.3854 10.0283 14.2974C10.0012 14.2094 9.9934 14.1158 10.0056 14.024L10.2669 12.0537C10.2837 11.9258 10.3385 11.8072 10.423 11.7158L16.1649 5.52442C16.4763 5.18863 16.8987 5 17.339 5C17.7794 5 18.2018 5.18863 18.5132 5.52442V5.52323Z" fill="#1D3557"/>
</svg>
