<svg width="25" height="24" viewBox="0 0 25 24" fill="none" xmlns="http://www.w3.org/2000/svg">
<path d="M11.2 7.39024H13.8C13.8 7.028 13.663 6.68059 13.4192 6.42444C13.1754 6.16829 12.8448 6.02439 12.5 6.02439C12.1552 6.02439 11.8246 6.16829 11.5808 6.42444C11.337 6.68059 11.2 7.028 11.2 7.39024ZM10.225 7.39024C10.225 7.07635 10.2838 6.76554 10.3982 6.47554C10.5125 6.18554 10.6801 5.92204 10.8913 5.70009C11.1026 5.47813 11.3534 5.30207 11.6294 5.18195C11.9054 5.06183 12.2012 5 12.5 5C12.7988 5 13.0946 5.06183 13.3706 5.18195C13.6466 5.30207 13.8974 5.47813 14.1087 5.70009C14.3199 5.92204 14.4875 6.18554 14.6018 6.47554C14.7162 6.76554 14.775 7.07635 14.775 7.39024H18.5125C18.6418 7.39024 18.7658 7.44421 18.8572 7.54026C18.9486 7.63632 19 7.7666 19 7.90244C19 8.03828 18.9486 8.16856 18.8572 8.26462C18.7658 8.36067 18.6418 8.41463 18.5125 8.41463H17.6545L16.894 16.6856C16.8357 17.3193 16.5547 17.9075 16.106 18.3354C15.6573 18.7633 15.0729 19.0002 14.4669 19H10.5331C9.92721 19.0001 9.34302 18.7631 8.89442 18.3352C8.44582 17.9073 8.16498 17.3192 8.10665 16.6856L7.3455 8.41463H6.4875C6.35821 8.41463 6.23421 8.36067 6.14279 8.26462C6.05136 8.16856 6 8.03828 6 7.90244C6 7.7666 6.05136 7.63632 6.14279 7.54026C6.23421 7.44421 6.35821 7.39024 6.4875 7.39024H10.225ZM11.525 10.6341C11.525 10.4983 11.4736 10.368 11.3822 10.272C11.2908 10.1759 11.1668 10.122 11.0375 10.122C10.9082 10.122 10.7842 10.1759 10.6928 10.272C10.6014 10.368 10.55 10.4983 10.55 10.6341V15.7561C10.55 15.8919 10.6014 16.0222 10.6928 16.1183C10.7842 16.2143 10.9082 16.2683 11.0375 16.2683C11.1668 16.2683 11.2908 16.2143 11.3822 16.1183C11.4736 16.0222 11.525 15.8919 11.525 15.7561V10.6341ZM13.9625 10.122C14.0918 10.122 14.2158 10.1759 14.3072 10.272C14.3986 10.368 14.45 10.4983 14.45 10.6341V15.7561C14.45 15.8919 14.3986 16.0222 14.3072 16.1183C14.2158 16.2143 14.0918 16.2683 13.9625 16.2683C13.8332 16.2683 13.7092 16.2143 13.6178 16.1183C13.5264 16.0222 13.475 15.8919 13.475 15.7561V10.6341C13.475 10.4983 13.5264 10.368 13.6178 10.272C13.7092 10.1759 13.8332 10.122 13.9625 10.122ZM9.0771 16.5872C9.11216 16.9674 9.28071 17.3202 9.54989 17.5769C9.81907 17.8335 10.1696 17.9757 10.5331 17.9756H14.4669C14.8304 17.9757 15.1809 17.8335 15.4501 17.5769C15.7193 17.3202 15.8878 16.9674 15.9229 16.5872L16.6756 8.41463H8.3244L9.0771 16.5872Z" fill="#E63946"/>
</svg>
