<svg width="13" height="13" viewBox="0 0 13 13" fill="none" xmlns="http://www.w3.org/2000/svg">
<path d="M6.5 1.21875C5.45547 1.21875 4.43439 1.52849 3.5659 2.1088C2.6974 2.68911 2.02049 3.51393 1.62076 4.47895C1.22104 5.44398 1.11645 6.50586 1.32023 7.53032C1.52401 8.55478 2.027 9.49581 2.76559 10.2344C3.50419 10.973 4.44522 11.476 5.46968 11.6798C6.49414 11.8836 7.55603 11.779 8.52105 11.3792C9.48607 10.9795 10.3109 10.3026 10.8912 9.4341C11.4715 8.56561 11.7813 7.54453 11.7813 6.5C11.7798 5.09978 11.2229 3.75733 10.2328 2.76723C9.24267 1.77712 7.90022 1.22023 6.5 1.21875ZM8.41242 7.83758C8.45017 7.87532 8.48011 7.92013 8.50054 7.96945C8.52096 8.01876 8.53148 8.07162 8.53148 8.125C8.53148 8.17838 8.52096 8.23124 8.50054 8.28055C8.48011 8.32987 8.45017 8.37468 8.41242 8.41242C8.37468 8.45017 8.32987 8.48011 8.28055 8.50054C8.23124 8.52096 8.17838 8.53148 8.125 8.53148C8.07162 8.53148 8.01877 8.52096 7.96945 8.50054C7.92013 8.48011 7.87532 8.45017 7.83758 8.41242L6.5 7.07434L5.16242 8.41242C5.12468 8.45017 5.07987 8.48011 5.03055 8.50054C4.98124 8.52096 4.92838 8.53148 4.875 8.53148C4.82162 8.53148 4.76877 8.52096 4.71945 8.50054C4.67013 8.48011 4.62532 8.45017 4.58758 8.41242C4.54984 8.37468 4.51989 8.32987 4.49947 8.28055C4.47904 8.23124 4.46853 8.17838 4.46853 8.125C4.46853 8.07162 4.47904 8.01876 4.49947 7.96945C4.51989 7.92013 4.54984 7.87532 4.58758 7.83758L5.92567 6.5L4.58758 5.16242C4.51135 5.08619 4.46853 4.9828 4.46853 4.875C4.46853 4.7672 4.51135 4.66381 4.58758 4.58758C4.66381 4.51135 4.7672 4.46852 4.875 4.46852C4.98281 4.46852 5.08619 4.51135 5.16242 4.58758L6.5 5.92566L7.83758 4.58758C7.87532 4.54983 7.92013 4.51989 7.96945 4.49947C8.01877 4.47904 8.07162 4.46852 8.125 4.46852C8.17838 4.46852 8.23124 4.47904 8.28055 4.49947C8.32987 4.51989 8.37468 4.54983 8.41242 4.58758C8.45017 4.62532 8.48011 4.67013 8.50054 4.71945C8.52096 4.76876 8.53148 4.82162 8.53148 4.875C8.53148 4.92838 8.52096 4.98124 8.50054 5.03055C8.48011 5.07987 8.45017 5.12468 8.41242 5.16242L7.07434 6.5L8.41242 7.83758Z" fill="#D4D8DD"/>
</svg>
