<svg width="16" height="16" viewBox="0 0 16 16" fill="none" xmlns="http://www.w3.org/2000/svg">
<path d="M12.8259 8.57115C12.8259 8.40697 12.8873 8.24951 12.9967 8.13342C13.106 8.01732 13.2543 7.9521 13.4089 7.9521C13.5635 7.9521 13.7118 8.01732 13.8211 8.13342C13.9305 8.24951 13.9919 8.40697 13.9919 8.57115V15.3807C13.9919 15.5449 13.9305 15.7023 13.8211 15.8184C13.7118 15.9345 13.5635 15.9997 13.4089 15.9997H0.582996C0.428376 15.9997 0.280089 15.9345 0.170756 15.8184C0.0614227 15.7023 0 15.5449 0 15.3807V1.76163C0 1.59744 0.0614227 1.43999 0.170756 1.32389C0.280089 1.2078 0.428376 1.14258 0.582996 1.14258H6.99595C7.15057 1.14258 7.29886 1.2078 7.40819 1.32389C7.51752 1.43999 7.57895 1.59744 7.57895 1.76163C7.57895 1.92581 7.51752 2.08326 7.40819 2.19936C7.29886 2.31545 7.15057 2.38067 6.99595 2.38067H1.16599V14.7616H12.8259V8.57115Z" fill="#212529"/>
<path d="M6.0699 9.60483L7.13494 9.4438L13.6775 2.52899C13.7392 2.46605 13.7884 2.39075 13.8222 2.30751C13.856 2.22426 13.8738 2.13472 13.8746 2.04412C13.8753 1.95352 13.859 1.86367 13.8265 1.77981C13.7941 1.69596 13.7462 1.61977 13.6855 1.55571C13.6249 1.49164 13.5529 1.44097 13.4735 1.40667C13.3942 1.37236 13.3092 1.35509 13.2235 1.35588C13.1378 1.35667 13.0531 1.37549 12.9744 1.41125C12.8956 1.44701 12.8244 1.49899 12.7648 1.56416L6.22094 8.47898L6.06861 9.60483H6.0699ZM14.5903 0.597973C14.7702 0.788073 14.913 1.01379 15.0103 1.26223C15.1077 1.51067 15.1579 1.77697 15.1579 2.04589C15.1579 2.31482 15.1077 2.58111 15.0103 2.82956C14.913 3.078 14.7702 3.30372 14.5903 3.49382L7.89661 10.5697C7.79791 10.6744 7.66969 10.7424 7.53127 10.7634L5.40118 11.0855C5.30191 11.1006 5.20068 11.091 5.10553 11.0575C5.01038 11.024 4.92391 10.9675 4.853 10.8926C4.78208 10.8176 4.72867 10.7262 4.69699 10.6256C4.66531 10.525 4.65624 10.418 4.6705 10.3131L4.97516 8.06138C4.99472 7.91523 5.05859 7.77971 5.15719 7.67518L11.8521 0.599338C12.2153 0.215582 12.7077 0 13.2212 0C13.7347 0 14.2271 0.215582 14.5903 0.599338V0.597973Z" fill="#212529"/>
</svg>
