<svg width="10" height="9" viewBox="0 0 10 9" fill="none" xmlns="http://www.w3.org/2000/svg">
<path d="M9.85712 7.38401L5.9533 0.549924C5.85575 0.382492 5.71648 0.243666 5.5493 0.147205C5.38213 0.0507451 5.19285 0 5.00022 0C4.8076 0 4.61832 0.0507451 4.45114 0.147205C4.28396 0.243666 4.1447 0.382492 4.04715 0.549924L0.143329 7.38401C0.0494656 7.54595 0 7.73014 0 7.9177C0 8.10526 0.0494656 8.28945 0.143329 8.4514C0.239632 8.61984 0.37866 8.75942 0.546148 8.85582C0.713635 8.95222 0.90355 9.00196 1.0964 8.99994H8.90404C9.09674 9.0018 9.28647 8.95198 9.45379 8.85559C9.62111 8.7592 9.76 8.61971 9.85622 8.4514C9.95022 8.28953 9.99984 8.10538 10 7.91782C10.0002 7.73026 9.95084 7.54603 9.85712 7.38401ZM4.6431 3.59999C4.6431 3.50452 4.68072 3.41295 4.7477 3.34544C4.81467 3.27793 4.90551 3.24 5.00022 3.24C5.09494 3.24 5.18577 3.27793 5.25275 3.34544C5.31972 3.41295 5.35735 3.50452 5.35735 3.59999V5.39998C5.35735 5.49545 5.31972 5.58702 5.25275 5.65453C5.18577 5.72205 5.09494 5.75997 5.00022 5.75997C4.90551 5.75997 4.81467 5.72205 4.7477 5.65453C4.68072 5.58702 4.6431 5.49545 4.6431 5.39998V3.59999ZM5.00022 7.55996C4.89427 7.55996 4.7907 7.52829 4.70261 7.46895C4.61452 7.40961 4.54586 7.32528 4.50531 7.22661C4.46477 7.12794 4.45416 7.01936 4.47483 6.91461C4.4955 6.80986 4.54652 6.71365 4.62143 6.63813C4.69635 6.56261 4.7918 6.51118 4.89572 6.49034C4.99963 6.46951 5.10734 6.4802 5.20522 6.52107C5.3031 6.56194 5.38677 6.63115 5.44563 6.71996C5.50449 6.80876 5.53591 6.91316 5.53591 7.01996C5.53591 7.16318 5.47947 7.30053 5.37901 7.40179C5.27855 7.50306 5.1423 7.55996 5.00022 7.55996Z" fill="#E63946"/>
</svg>
